%TF.GenerationSoftware,KiCad,Pcbnew,8.0.6*%
%TF.CreationDate,2024-11-16T21:14:38-08:00*%
%TF.ProjectId,CAN_adc,43414e5f-6164-4632-9e6b-696361645f70,rev?*%
%TF.SameCoordinates,Original*%
%TF.FileFunction,Legend,Top*%
%TF.FilePolarity,Positive*%
%FSLAX46Y46*%
G04 Gerber Fmt 4.6, Leading zero omitted, Abs format (unit mm)*
G04 Created by KiCad (PCBNEW 8.0.6) date 2024-11-16 21:14:38*
%MOMM*%
%LPD*%
G01*
G04 APERTURE LIST*
%ADD10C,0.100000*%
%ADD11C,0.150000*%
%ADD12C,0.120000*%
%ADD13C,0.127000*%
%ADD14C,0.200000*%
%ADD15C,0.152400*%
%ADD16C,0.400000*%
G04 APERTURE END LIST*
D10*
X132803884Y-66062475D02*
X132803884Y-65062475D01*
X133375312Y-66062475D02*
X132946741Y-65491046D01*
X133375312Y-65062475D02*
X132803884Y-65633903D01*
X133803884Y-65681522D02*
X134565789Y-65681522D01*
X134899122Y-65062475D02*
X135470550Y-65062475D01*
X135184836Y-66062475D02*
X135184836Y-65062475D01*
X135708646Y-65395808D02*
X135946741Y-66062475D01*
X136184836Y-65395808D02*
X135946741Y-66062475D01*
X135946741Y-66062475D02*
X135851503Y-66300570D01*
X135851503Y-66300570D02*
X135803884Y-66348189D01*
X135803884Y-66348189D02*
X135708646Y-66395808D01*
X136565789Y-65395808D02*
X136565789Y-66395808D01*
X136565789Y-65443427D02*
X136661027Y-65395808D01*
X136661027Y-65395808D02*
X136851503Y-65395808D01*
X136851503Y-65395808D02*
X136946741Y-65443427D01*
X136946741Y-65443427D02*
X136994360Y-65491046D01*
X136994360Y-65491046D02*
X137041979Y-65586284D01*
X137041979Y-65586284D02*
X137041979Y-65871998D01*
X137041979Y-65871998D02*
X136994360Y-65967236D01*
X136994360Y-65967236D02*
X136946741Y-66014856D01*
X136946741Y-66014856D02*
X136851503Y-66062475D01*
X136851503Y-66062475D02*
X136661027Y-66062475D01*
X136661027Y-66062475D02*
X136565789Y-66014856D01*
X137851503Y-66014856D02*
X137756265Y-66062475D01*
X137756265Y-66062475D02*
X137565789Y-66062475D01*
X137565789Y-66062475D02*
X137470551Y-66014856D01*
X137470551Y-66014856D02*
X137422932Y-65919617D01*
X137422932Y-65919617D02*
X137422932Y-65538665D01*
X137422932Y-65538665D02*
X137470551Y-65443427D01*
X137470551Y-65443427D02*
X137565789Y-65395808D01*
X137565789Y-65395808D02*
X137756265Y-65395808D01*
X137756265Y-65395808D02*
X137851503Y-65443427D01*
X137851503Y-65443427D02*
X137899122Y-65538665D01*
X137899122Y-65538665D02*
X137899122Y-65633903D01*
X137899122Y-65633903D02*
X137422932Y-65729141D01*
X132661027Y-66672419D02*
X133232455Y-66672419D01*
X132946741Y-67672419D02*
X132946741Y-66672419D01*
X133565789Y-67672419D02*
X133565789Y-66672419D01*
X133994360Y-67672419D02*
X133994360Y-67148609D01*
X133994360Y-67148609D02*
X133946741Y-67053371D01*
X133946741Y-67053371D02*
X133851503Y-67005752D01*
X133851503Y-67005752D02*
X133708646Y-67005752D01*
X133708646Y-67005752D02*
X133613408Y-67053371D01*
X133613408Y-67053371D02*
X133565789Y-67100990D01*
X134851503Y-67624800D02*
X134756265Y-67672419D01*
X134756265Y-67672419D02*
X134565789Y-67672419D01*
X134565789Y-67672419D02*
X134470551Y-67624800D01*
X134470551Y-67624800D02*
X134422932Y-67529561D01*
X134422932Y-67529561D02*
X134422932Y-67148609D01*
X134422932Y-67148609D02*
X134470551Y-67053371D01*
X134470551Y-67053371D02*
X134565789Y-67005752D01*
X134565789Y-67005752D02*
X134756265Y-67005752D01*
X134756265Y-67005752D02*
X134851503Y-67053371D01*
X134851503Y-67053371D02*
X134899122Y-67148609D01*
X134899122Y-67148609D02*
X134899122Y-67243847D01*
X134899122Y-67243847D02*
X134422932Y-67339085D01*
X135327694Y-67672419D02*
X135327694Y-67005752D01*
X135327694Y-67196228D02*
X135375313Y-67100990D01*
X135375313Y-67100990D02*
X135422932Y-67053371D01*
X135422932Y-67053371D02*
X135518170Y-67005752D01*
X135518170Y-67005752D02*
X135613408Y-67005752D01*
X135946742Y-67672419D02*
X135946742Y-67005752D01*
X135946742Y-67100990D02*
X135994361Y-67053371D01*
X135994361Y-67053371D02*
X136089599Y-67005752D01*
X136089599Y-67005752D02*
X136232456Y-67005752D01*
X136232456Y-67005752D02*
X136327694Y-67053371D01*
X136327694Y-67053371D02*
X136375313Y-67148609D01*
X136375313Y-67148609D02*
X136375313Y-67672419D01*
X136375313Y-67148609D02*
X136422932Y-67053371D01*
X136422932Y-67053371D02*
X136518170Y-67005752D01*
X136518170Y-67005752D02*
X136661027Y-67005752D01*
X136661027Y-67005752D02*
X136756266Y-67053371D01*
X136756266Y-67053371D02*
X136803885Y-67148609D01*
X136803885Y-67148609D02*
X136803885Y-67672419D01*
X137422932Y-67672419D02*
X137327694Y-67624800D01*
X137327694Y-67624800D02*
X137280075Y-67577180D01*
X137280075Y-67577180D02*
X137232456Y-67481942D01*
X137232456Y-67481942D02*
X137232456Y-67196228D01*
X137232456Y-67196228D02*
X137280075Y-67100990D01*
X137280075Y-67100990D02*
X137327694Y-67053371D01*
X137327694Y-67053371D02*
X137422932Y-67005752D01*
X137422932Y-67005752D02*
X137565789Y-67005752D01*
X137565789Y-67005752D02*
X137661027Y-67053371D01*
X137661027Y-67053371D02*
X137708646Y-67100990D01*
X137708646Y-67100990D02*
X137756265Y-67196228D01*
X137756265Y-67196228D02*
X137756265Y-67481942D01*
X137756265Y-67481942D02*
X137708646Y-67577180D01*
X137708646Y-67577180D02*
X137661027Y-67624800D01*
X137661027Y-67624800D02*
X137565789Y-67672419D01*
X137565789Y-67672419D02*
X137422932Y-67672419D01*
X138613408Y-67624800D02*
X138518170Y-67672419D01*
X138518170Y-67672419D02*
X138327694Y-67672419D01*
X138327694Y-67672419D02*
X138232456Y-67624800D01*
X138232456Y-67624800D02*
X138184837Y-67577180D01*
X138184837Y-67577180D02*
X138137218Y-67481942D01*
X138137218Y-67481942D02*
X138137218Y-67196228D01*
X138137218Y-67196228D02*
X138184837Y-67100990D01*
X138184837Y-67100990D02*
X138232456Y-67053371D01*
X138232456Y-67053371D02*
X138327694Y-67005752D01*
X138327694Y-67005752D02*
X138518170Y-67005752D01*
X138518170Y-67005752D02*
X138613408Y-67053371D01*
X139184837Y-67672419D02*
X139089599Y-67624800D01*
X139089599Y-67624800D02*
X139041980Y-67577180D01*
X139041980Y-67577180D02*
X138994361Y-67481942D01*
X138994361Y-67481942D02*
X138994361Y-67196228D01*
X138994361Y-67196228D02*
X139041980Y-67100990D01*
X139041980Y-67100990D02*
X139089599Y-67053371D01*
X139089599Y-67053371D02*
X139184837Y-67005752D01*
X139184837Y-67005752D02*
X139327694Y-67005752D01*
X139327694Y-67005752D02*
X139422932Y-67053371D01*
X139422932Y-67053371D02*
X139470551Y-67100990D01*
X139470551Y-67100990D02*
X139518170Y-67196228D01*
X139518170Y-67196228D02*
X139518170Y-67481942D01*
X139518170Y-67481942D02*
X139470551Y-67577180D01*
X139470551Y-67577180D02*
X139422932Y-67624800D01*
X139422932Y-67624800D02*
X139327694Y-67672419D01*
X139327694Y-67672419D02*
X139184837Y-67672419D01*
X140375313Y-67005752D02*
X140375313Y-67672419D01*
X139946742Y-67005752D02*
X139946742Y-67529561D01*
X139946742Y-67529561D02*
X139994361Y-67624800D01*
X139994361Y-67624800D02*
X140089599Y-67672419D01*
X140089599Y-67672419D02*
X140232456Y-67672419D01*
X140232456Y-67672419D02*
X140327694Y-67624800D01*
X140327694Y-67624800D02*
X140375313Y-67577180D01*
X140851504Y-67005752D02*
X140851504Y-68005752D01*
X140851504Y-67053371D02*
X140946742Y-67005752D01*
X140946742Y-67005752D02*
X141137218Y-67005752D01*
X141137218Y-67005752D02*
X141232456Y-67053371D01*
X141232456Y-67053371D02*
X141280075Y-67100990D01*
X141280075Y-67100990D02*
X141327694Y-67196228D01*
X141327694Y-67196228D02*
X141327694Y-67481942D01*
X141327694Y-67481942D02*
X141280075Y-67577180D01*
X141280075Y-67577180D02*
X141232456Y-67624800D01*
X141232456Y-67624800D02*
X141137218Y-67672419D01*
X141137218Y-67672419D02*
X140946742Y-67672419D01*
X140946742Y-67672419D02*
X140851504Y-67624800D01*
X141899123Y-67672419D02*
X141803885Y-67624800D01*
X141803885Y-67624800D02*
X141756266Y-67529561D01*
X141756266Y-67529561D02*
X141756266Y-66672419D01*
X142661028Y-67624800D02*
X142565790Y-67672419D01*
X142565790Y-67672419D02*
X142375314Y-67672419D01*
X142375314Y-67672419D02*
X142280076Y-67624800D01*
X142280076Y-67624800D02*
X142232457Y-67529561D01*
X142232457Y-67529561D02*
X142232457Y-67148609D01*
X142232457Y-67148609D02*
X142280076Y-67053371D01*
X142280076Y-67053371D02*
X142375314Y-67005752D01*
X142375314Y-67005752D02*
X142565790Y-67005752D01*
X142565790Y-67005752D02*
X142661028Y-67053371D01*
X142661028Y-67053371D02*
X142708647Y-67148609D01*
X142708647Y-67148609D02*
X142708647Y-67243847D01*
X142708647Y-67243847D02*
X142232457Y-67339085D01*
X140403884Y-85391466D02*
X141165789Y-85391466D01*
X140784836Y-85772419D02*
X140784836Y-85010514D01*
X140303884Y-70991466D02*
X141065789Y-70991466D01*
X140684836Y-71372419D02*
X140684836Y-70610514D01*
X140103884Y-62091466D02*
X140865789Y-62091466D01*
X140484836Y-62472419D02*
X140484836Y-61710514D01*
X140103884Y-56991466D02*
X140865789Y-56991466D01*
X132456265Y-79876760D02*
X132932455Y-79876760D01*
X132361027Y-80162475D02*
X132694360Y-79162475D01*
X132694360Y-79162475D02*
X133027693Y-80162475D01*
X133361027Y-80162475D02*
X133361027Y-79162475D01*
X133361027Y-79162475D02*
X133932455Y-80162475D01*
X133932455Y-80162475D02*
X133932455Y-79162475D01*
X134361027Y-79876760D02*
X134837217Y-79876760D01*
X134265789Y-80162475D02*
X134599122Y-79162475D01*
X134599122Y-79162475D02*
X134932455Y-80162475D01*
X135027694Y-80257713D02*
X135789598Y-80257713D01*
X136027694Y-80162475D02*
X136027694Y-79162475D01*
X136503884Y-80162475D02*
X136503884Y-79162475D01*
X136503884Y-79162475D02*
X137075312Y-80162475D01*
X137075312Y-80162475D02*
X137075312Y-79162475D01*
X138075312Y-80162475D02*
X137503884Y-80162475D01*
X137789598Y-80162475D02*
X137789598Y-79162475D01*
X137789598Y-79162475D02*
X137694360Y-79305332D01*
X137694360Y-79305332D02*
X137599122Y-79400570D01*
X137599122Y-79400570D02*
X137503884Y-79448189D01*
X132789598Y-82153371D02*
X132741979Y-82105752D01*
X132741979Y-82105752D02*
X132646741Y-81962895D01*
X132646741Y-81962895D02*
X132599122Y-81867657D01*
X132599122Y-81867657D02*
X132551503Y-81724800D01*
X132551503Y-81724800D02*
X132503884Y-81486704D01*
X132503884Y-81486704D02*
X132503884Y-81296228D01*
X132503884Y-81296228D02*
X132551503Y-81058133D01*
X132551503Y-81058133D02*
X132599122Y-80915276D01*
X132599122Y-80915276D02*
X132646741Y-80820038D01*
X132646741Y-80820038D02*
X132741979Y-80677180D01*
X132741979Y-80677180D02*
X132789598Y-80629561D01*
X133646741Y-80772419D02*
X133170551Y-80772419D01*
X133170551Y-80772419D02*
X133122932Y-81248609D01*
X133122932Y-81248609D02*
X133170551Y-81200990D01*
X133170551Y-81200990D02*
X133265789Y-81153371D01*
X133265789Y-81153371D02*
X133503884Y-81153371D01*
X133503884Y-81153371D02*
X133599122Y-81200990D01*
X133599122Y-81200990D02*
X133646741Y-81248609D01*
X133646741Y-81248609D02*
X133694360Y-81343847D01*
X133694360Y-81343847D02*
X133694360Y-81581942D01*
X133694360Y-81581942D02*
X133646741Y-81677180D01*
X133646741Y-81677180D02*
X133599122Y-81724800D01*
X133599122Y-81724800D02*
X133503884Y-81772419D01*
X133503884Y-81772419D02*
X133265789Y-81772419D01*
X133265789Y-81772419D02*
X133170551Y-81724800D01*
X133170551Y-81724800D02*
X133122932Y-81677180D01*
X133980075Y-80772419D02*
X134313408Y-81772419D01*
X134313408Y-81772419D02*
X134646741Y-80772419D01*
X135741980Y-81772419D02*
X135741980Y-80772419D01*
X135741980Y-80772419D02*
X136075313Y-81486704D01*
X136075313Y-81486704D02*
X136408646Y-80772419D01*
X136408646Y-80772419D02*
X136408646Y-81772419D01*
X137313408Y-81772419D02*
X137313408Y-81248609D01*
X137313408Y-81248609D02*
X137265789Y-81153371D01*
X137265789Y-81153371D02*
X137170551Y-81105752D01*
X137170551Y-81105752D02*
X136980075Y-81105752D01*
X136980075Y-81105752D02*
X136884837Y-81153371D01*
X137313408Y-81724800D02*
X137218170Y-81772419D01*
X137218170Y-81772419D02*
X136980075Y-81772419D01*
X136980075Y-81772419D02*
X136884837Y-81724800D01*
X136884837Y-81724800D02*
X136837218Y-81629561D01*
X136837218Y-81629561D02*
X136837218Y-81534323D01*
X136837218Y-81534323D02*
X136884837Y-81439085D01*
X136884837Y-81439085D02*
X136980075Y-81391466D01*
X136980075Y-81391466D02*
X137218170Y-81391466D01*
X137218170Y-81391466D02*
X137313408Y-81343847D01*
X137694361Y-81772419D02*
X138218170Y-81105752D01*
X137694361Y-81105752D02*
X138218170Y-81772419D01*
X138503885Y-82153371D02*
X138551504Y-82105752D01*
X138551504Y-82105752D02*
X138646742Y-81962895D01*
X138646742Y-81962895D02*
X138694361Y-81867657D01*
X138694361Y-81867657D02*
X138741980Y-81724800D01*
X138741980Y-81724800D02*
X138789599Y-81486704D01*
X138789599Y-81486704D02*
X138789599Y-81296228D01*
X138789599Y-81296228D02*
X138741980Y-81058133D01*
X138741980Y-81058133D02*
X138694361Y-80915276D01*
X138694361Y-80915276D02*
X138646742Y-80820038D01*
X138646742Y-80820038D02*
X138551504Y-80677180D01*
X138551504Y-80677180D02*
X138503885Y-80629561D01*
X132056265Y-94276760D02*
X132532455Y-94276760D01*
X131961027Y-94562475D02*
X132294360Y-93562475D01*
X132294360Y-93562475D02*
X132627693Y-94562475D01*
X132961027Y-94562475D02*
X132961027Y-93562475D01*
X132961027Y-93562475D02*
X133532455Y-94562475D01*
X133532455Y-94562475D02*
X133532455Y-93562475D01*
X133961027Y-94276760D02*
X134437217Y-94276760D01*
X133865789Y-94562475D02*
X134199122Y-93562475D01*
X134199122Y-93562475D02*
X134532455Y-94562475D01*
X134627694Y-94657713D02*
X135389598Y-94657713D01*
X135627694Y-94562475D02*
X135627694Y-93562475D01*
X136103884Y-94562475D02*
X136103884Y-93562475D01*
X136103884Y-93562475D02*
X136675312Y-94562475D01*
X136675312Y-94562475D02*
X136675312Y-93562475D01*
X137103884Y-93657713D02*
X137151503Y-93610094D01*
X137151503Y-93610094D02*
X137246741Y-93562475D01*
X137246741Y-93562475D02*
X137484836Y-93562475D01*
X137484836Y-93562475D02*
X137580074Y-93610094D01*
X137580074Y-93610094D02*
X137627693Y-93657713D01*
X137627693Y-93657713D02*
X137675312Y-93752951D01*
X137675312Y-93752951D02*
X137675312Y-93848189D01*
X137675312Y-93848189D02*
X137627693Y-93991046D01*
X137627693Y-93991046D02*
X137056265Y-94562475D01*
X137056265Y-94562475D02*
X137675312Y-94562475D01*
X132389598Y-96553371D02*
X132341979Y-96505752D01*
X132341979Y-96505752D02*
X132246741Y-96362895D01*
X132246741Y-96362895D02*
X132199122Y-96267657D01*
X132199122Y-96267657D02*
X132151503Y-96124800D01*
X132151503Y-96124800D02*
X132103884Y-95886704D01*
X132103884Y-95886704D02*
X132103884Y-95696228D01*
X132103884Y-95696228D02*
X132151503Y-95458133D01*
X132151503Y-95458133D02*
X132199122Y-95315276D01*
X132199122Y-95315276D02*
X132246741Y-95220038D01*
X132246741Y-95220038D02*
X132341979Y-95077180D01*
X132341979Y-95077180D02*
X132389598Y-95029561D01*
X133246741Y-95172419D02*
X132770551Y-95172419D01*
X132770551Y-95172419D02*
X132722932Y-95648609D01*
X132722932Y-95648609D02*
X132770551Y-95600990D01*
X132770551Y-95600990D02*
X132865789Y-95553371D01*
X132865789Y-95553371D02*
X133103884Y-95553371D01*
X133103884Y-95553371D02*
X133199122Y-95600990D01*
X133199122Y-95600990D02*
X133246741Y-95648609D01*
X133246741Y-95648609D02*
X133294360Y-95743847D01*
X133294360Y-95743847D02*
X133294360Y-95981942D01*
X133294360Y-95981942D02*
X133246741Y-96077180D01*
X133246741Y-96077180D02*
X133199122Y-96124800D01*
X133199122Y-96124800D02*
X133103884Y-96172419D01*
X133103884Y-96172419D02*
X132865789Y-96172419D01*
X132865789Y-96172419D02*
X132770551Y-96124800D01*
X132770551Y-96124800D02*
X132722932Y-96077180D01*
X133580075Y-95172419D02*
X133913408Y-96172419D01*
X133913408Y-96172419D02*
X134246741Y-95172419D01*
X135341980Y-96172419D02*
X135341980Y-95172419D01*
X135341980Y-95172419D02*
X135675313Y-95886704D01*
X135675313Y-95886704D02*
X136008646Y-95172419D01*
X136008646Y-95172419D02*
X136008646Y-96172419D01*
X136913408Y-96172419D02*
X136913408Y-95648609D01*
X136913408Y-95648609D02*
X136865789Y-95553371D01*
X136865789Y-95553371D02*
X136770551Y-95505752D01*
X136770551Y-95505752D02*
X136580075Y-95505752D01*
X136580075Y-95505752D02*
X136484837Y-95553371D01*
X136913408Y-96124800D02*
X136818170Y-96172419D01*
X136818170Y-96172419D02*
X136580075Y-96172419D01*
X136580075Y-96172419D02*
X136484837Y-96124800D01*
X136484837Y-96124800D02*
X136437218Y-96029561D01*
X136437218Y-96029561D02*
X136437218Y-95934323D01*
X136437218Y-95934323D02*
X136484837Y-95839085D01*
X136484837Y-95839085D02*
X136580075Y-95791466D01*
X136580075Y-95791466D02*
X136818170Y-95791466D01*
X136818170Y-95791466D02*
X136913408Y-95743847D01*
X137294361Y-96172419D02*
X137818170Y-95505752D01*
X137294361Y-95505752D02*
X137818170Y-96172419D01*
X138103885Y-96553371D02*
X138151504Y-96505752D01*
X138151504Y-96505752D02*
X138246742Y-96362895D01*
X138246742Y-96362895D02*
X138294361Y-96267657D01*
X138294361Y-96267657D02*
X138341980Y-96124800D01*
X138341980Y-96124800D02*
X138389599Y-95886704D01*
X138389599Y-95886704D02*
X138389599Y-95696228D01*
X138389599Y-95696228D02*
X138341980Y-95458133D01*
X138341980Y-95458133D02*
X138294361Y-95315276D01*
X138294361Y-95315276D02*
X138246742Y-95220038D01*
X138246742Y-95220038D02*
X138151504Y-95077180D01*
X138151504Y-95077180D02*
X138103885Y-95029561D01*
X140403884Y-76291466D02*
X141165789Y-76291466D01*
X140503884Y-90491466D02*
X141265789Y-90491466D01*
X71656265Y-81186704D02*
X72132455Y-81186704D01*
X71561027Y-81472419D02*
X71894360Y-80472419D01*
X71894360Y-80472419D02*
X72227693Y-81472419D01*
X72561027Y-81472419D02*
X72561027Y-80472419D01*
X72561027Y-80472419D02*
X72799122Y-80472419D01*
X72799122Y-80472419D02*
X72941979Y-80520038D01*
X72941979Y-80520038D02*
X73037217Y-80615276D01*
X73037217Y-80615276D02*
X73084836Y-80710514D01*
X73084836Y-80710514D02*
X73132455Y-80900990D01*
X73132455Y-80900990D02*
X73132455Y-81043847D01*
X73132455Y-81043847D02*
X73084836Y-81234323D01*
X73084836Y-81234323D02*
X73037217Y-81329561D01*
X73037217Y-81329561D02*
X72941979Y-81424800D01*
X72941979Y-81424800D02*
X72799122Y-81472419D01*
X72799122Y-81472419D02*
X72561027Y-81472419D01*
X74132455Y-81377180D02*
X74084836Y-81424800D01*
X74084836Y-81424800D02*
X73941979Y-81472419D01*
X73941979Y-81472419D02*
X73846741Y-81472419D01*
X73846741Y-81472419D02*
X73703884Y-81424800D01*
X73703884Y-81424800D02*
X73608646Y-81329561D01*
X73608646Y-81329561D02*
X73561027Y-81234323D01*
X73561027Y-81234323D02*
X73513408Y-81043847D01*
X73513408Y-81043847D02*
X73513408Y-80900990D01*
X73513408Y-80900990D02*
X73561027Y-80710514D01*
X73561027Y-80710514D02*
X73608646Y-80615276D01*
X73608646Y-80615276D02*
X73703884Y-80520038D01*
X73703884Y-80520038D02*
X73846741Y-80472419D01*
X73846741Y-80472419D02*
X73941979Y-80472419D01*
X73941979Y-80472419D02*
X74084836Y-80520038D01*
X74084836Y-80520038D02*
X74132455Y-80567657D01*
X75322932Y-81472419D02*
X75322932Y-80472419D01*
X75799122Y-81472419D02*
X75799122Y-80472419D01*
X75799122Y-80472419D02*
X76370550Y-81472419D01*
X76370550Y-81472419D02*
X76370550Y-80472419D01*
X76703884Y-80472419D02*
X77275312Y-80472419D01*
X76989598Y-81472419D02*
X76989598Y-80472419D01*
X77608646Y-80948609D02*
X77941979Y-80948609D01*
X78084836Y-81472419D02*
X77608646Y-81472419D01*
X77608646Y-81472419D02*
X77608646Y-80472419D01*
X77608646Y-80472419D02*
X78084836Y-80472419D01*
X79084836Y-81472419D02*
X78751503Y-80996228D01*
X78513408Y-81472419D02*
X78513408Y-80472419D01*
X78513408Y-80472419D02*
X78894360Y-80472419D01*
X78894360Y-80472419D02*
X78989598Y-80520038D01*
X78989598Y-80520038D02*
X79037217Y-80567657D01*
X79037217Y-80567657D02*
X79084836Y-80662895D01*
X79084836Y-80662895D02*
X79084836Y-80805752D01*
X79084836Y-80805752D02*
X79037217Y-80900990D01*
X79037217Y-80900990D02*
X78989598Y-80948609D01*
X78989598Y-80948609D02*
X78894360Y-80996228D01*
X78894360Y-80996228D02*
X78513408Y-80996228D01*
X79846741Y-80948609D02*
X79513408Y-80948609D01*
X79513408Y-81472419D02*
X79513408Y-80472419D01*
X79513408Y-80472419D02*
X79989598Y-80472419D01*
X80322932Y-81186704D02*
X80799122Y-81186704D01*
X80227694Y-81472419D02*
X80561027Y-80472419D01*
X80561027Y-80472419D02*
X80894360Y-81472419D01*
X81799122Y-81377180D02*
X81751503Y-81424800D01*
X81751503Y-81424800D02*
X81608646Y-81472419D01*
X81608646Y-81472419D02*
X81513408Y-81472419D01*
X81513408Y-81472419D02*
X81370551Y-81424800D01*
X81370551Y-81424800D02*
X81275313Y-81329561D01*
X81275313Y-81329561D02*
X81227694Y-81234323D01*
X81227694Y-81234323D02*
X81180075Y-81043847D01*
X81180075Y-81043847D02*
X81180075Y-80900990D01*
X81180075Y-80900990D02*
X81227694Y-80710514D01*
X81227694Y-80710514D02*
X81275313Y-80615276D01*
X81275313Y-80615276D02*
X81370551Y-80520038D01*
X81370551Y-80520038D02*
X81513408Y-80472419D01*
X81513408Y-80472419D02*
X81608646Y-80472419D01*
X81608646Y-80472419D02*
X81751503Y-80520038D01*
X81751503Y-80520038D02*
X81799122Y-80567657D01*
X82227694Y-80948609D02*
X82561027Y-80948609D01*
X82703884Y-81472419D02*
X82227694Y-81472419D01*
X82227694Y-81472419D02*
X82227694Y-80472419D01*
X82227694Y-80472419D02*
X82703884Y-80472419D01*
X84561027Y-51272419D02*
X84894360Y-52272419D01*
X84894360Y-52272419D02*
X85227693Y-51272419D01*
X85751503Y-51272419D02*
X85941979Y-51272419D01*
X85941979Y-51272419D02*
X86037217Y-51320038D01*
X86037217Y-51320038D02*
X86132455Y-51415276D01*
X86132455Y-51415276D02*
X86180074Y-51605752D01*
X86180074Y-51605752D02*
X86180074Y-51939085D01*
X86180074Y-51939085D02*
X86132455Y-52129561D01*
X86132455Y-52129561D02*
X86037217Y-52224800D01*
X86037217Y-52224800D02*
X85941979Y-52272419D01*
X85941979Y-52272419D02*
X85751503Y-52272419D01*
X85751503Y-52272419D02*
X85656265Y-52224800D01*
X85656265Y-52224800D02*
X85561027Y-52129561D01*
X85561027Y-52129561D02*
X85513408Y-51939085D01*
X85513408Y-51939085D02*
X85513408Y-51605752D01*
X85513408Y-51605752D02*
X85561027Y-51415276D01*
X85561027Y-51415276D02*
X85656265Y-51320038D01*
X85656265Y-51320038D02*
X85751503Y-51272419D01*
X87084836Y-52272419D02*
X86608646Y-52272419D01*
X86608646Y-52272419D02*
X86608646Y-51272419D01*
X87275313Y-51272419D02*
X87846741Y-51272419D01*
X87561027Y-52272419D02*
X87561027Y-51272419D01*
X88132456Y-51986704D02*
X88608646Y-51986704D01*
X88037218Y-52272419D02*
X88370551Y-51272419D01*
X88370551Y-51272419D02*
X88703884Y-52272419D01*
X89561027Y-51320038D02*
X89465789Y-51272419D01*
X89465789Y-51272419D02*
X89322932Y-51272419D01*
X89322932Y-51272419D02*
X89180075Y-51320038D01*
X89180075Y-51320038D02*
X89084837Y-51415276D01*
X89084837Y-51415276D02*
X89037218Y-51510514D01*
X89037218Y-51510514D02*
X88989599Y-51700990D01*
X88989599Y-51700990D02*
X88989599Y-51843847D01*
X88989599Y-51843847D02*
X89037218Y-52034323D01*
X89037218Y-52034323D02*
X89084837Y-52129561D01*
X89084837Y-52129561D02*
X89180075Y-52224800D01*
X89180075Y-52224800D02*
X89322932Y-52272419D01*
X89322932Y-52272419D02*
X89418170Y-52272419D01*
X89418170Y-52272419D02*
X89561027Y-52224800D01*
X89561027Y-52224800D02*
X89608646Y-52177180D01*
X89608646Y-52177180D02*
X89608646Y-51843847D01*
X89608646Y-51843847D02*
X89418170Y-51843847D01*
X90037218Y-51748609D02*
X90370551Y-51748609D01*
X90513408Y-52272419D02*
X90037218Y-52272419D01*
X90037218Y-52272419D02*
X90037218Y-51272419D01*
X90037218Y-51272419D02*
X90513408Y-51272419D01*
X92275313Y-52272419D02*
X91941980Y-51796228D01*
X91703885Y-52272419D02*
X91703885Y-51272419D01*
X91703885Y-51272419D02*
X92084837Y-51272419D01*
X92084837Y-51272419D02*
X92180075Y-51320038D01*
X92180075Y-51320038D02*
X92227694Y-51367657D01*
X92227694Y-51367657D02*
X92275313Y-51462895D01*
X92275313Y-51462895D02*
X92275313Y-51605752D01*
X92275313Y-51605752D02*
X92227694Y-51700990D01*
X92227694Y-51700990D02*
X92180075Y-51748609D01*
X92180075Y-51748609D02*
X92084837Y-51796228D01*
X92084837Y-51796228D02*
X91703885Y-51796228D01*
X92703885Y-51748609D02*
X93037218Y-51748609D01*
X93180075Y-52272419D02*
X92703885Y-52272419D01*
X92703885Y-52272419D02*
X92703885Y-51272419D01*
X92703885Y-51272419D02*
X93180075Y-51272419D01*
X94132456Y-51320038D02*
X94037218Y-51272419D01*
X94037218Y-51272419D02*
X93894361Y-51272419D01*
X93894361Y-51272419D02*
X93751504Y-51320038D01*
X93751504Y-51320038D02*
X93656266Y-51415276D01*
X93656266Y-51415276D02*
X93608647Y-51510514D01*
X93608647Y-51510514D02*
X93561028Y-51700990D01*
X93561028Y-51700990D02*
X93561028Y-51843847D01*
X93561028Y-51843847D02*
X93608647Y-52034323D01*
X93608647Y-52034323D02*
X93656266Y-52129561D01*
X93656266Y-52129561D02*
X93751504Y-52224800D01*
X93751504Y-52224800D02*
X93894361Y-52272419D01*
X93894361Y-52272419D02*
X93989599Y-52272419D01*
X93989599Y-52272419D02*
X94132456Y-52224800D01*
X94132456Y-52224800D02*
X94180075Y-52177180D01*
X94180075Y-52177180D02*
X94180075Y-51843847D01*
X94180075Y-51843847D02*
X93989599Y-51843847D01*
X94608647Y-51272419D02*
X94608647Y-52081942D01*
X94608647Y-52081942D02*
X94656266Y-52177180D01*
X94656266Y-52177180D02*
X94703885Y-52224800D01*
X94703885Y-52224800D02*
X94799123Y-52272419D01*
X94799123Y-52272419D02*
X94989599Y-52272419D01*
X94989599Y-52272419D02*
X95084837Y-52224800D01*
X95084837Y-52224800D02*
X95132456Y-52177180D01*
X95132456Y-52177180D02*
X95180075Y-52081942D01*
X95180075Y-52081942D02*
X95180075Y-51272419D01*
X96132456Y-52272419D02*
X95656266Y-52272419D01*
X95656266Y-52272419D02*
X95656266Y-51272419D01*
X96418171Y-51986704D02*
X96894361Y-51986704D01*
X96322933Y-52272419D02*
X96656266Y-51272419D01*
X96656266Y-51272419D02*
X96989599Y-52272419D01*
X97180076Y-51272419D02*
X97751504Y-51272419D01*
X97465790Y-52272419D02*
X97465790Y-51272419D01*
X98275314Y-51272419D02*
X98465790Y-51272419D01*
X98465790Y-51272419D02*
X98561028Y-51320038D01*
X98561028Y-51320038D02*
X98656266Y-51415276D01*
X98656266Y-51415276D02*
X98703885Y-51605752D01*
X98703885Y-51605752D02*
X98703885Y-51939085D01*
X98703885Y-51939085D02*
X98656266Y-52129561D01*
X98656266Y-52129561D02*
X98561028Y-52224800D01*
X98561028Y-52224800D02*
X98465790Y-52272419D01*
X98465790Y-52272419D02*
X98275314Y-52272419D01*
X98275314Y-52272419D02*
X98180076Y-52224800D01*
X98180076Y-52224800D02*
X98084838Y-52129561D01*
X98084838Y-52129561D02*
X98037219Y-51939085D01*
X98037219Y-51939085D02*
X98037219Y-51605752D01*
X98037219Y-51605752D02*
X98084838Y-51415276D01*
X98084838Y-51415276D02*
X98180076Y-51320038D01*
X98180076Y-51320038D02*
X98275314Y-51272419D01*
X99703885Y-52272419D02*
X99370552Y-51796228D01*
X99132457Y-52272419D02*
X99132457Y-51272419D01*
X99132457Y-51272419D02*
X99513409Y-51272419D01*
X99513409Y-51272419D02*
X99608647Y-51320038D01*
X99608647Y-51320038D02*
X99656266Y-51367657D01*
X99656266Y-51367657D02*
X99703885Y-51462895D01*
X99703885Y-51462895D02*
X99703885Y-51605752D01*
X99703885Y-51605752D02*
X99656266Y-51700990D01*
X99656266Y-51700990D02*
X99608647Y-51748609D01*
X99608647Y-51748609D02*
X99513409Y-51796228D01*
X99513409Y-51796228D02*
X99132457Y-51796228D01*
X100180076Y-52224800D02*
X100180076Y-52272419D01*
X100180076Y-52272419D02*
X100132457Y-52367657D01*
X100132457Y-52367657D02*
X100084838Y-52415276D01*
X101227695Y-51272419D02*
X101799123Y-51272419D01*
X101513409Y-52272419D02*
X101513409Y-51272419D01*
X102132457Y-52272419D02*
X102132457Y-51272419D01*
X102132457Y-51748609D02*
X102703885Y-51748609D01*
X102703885Y-52272419D02*
X102703885Y-51272419D01*
X103180076Y-51748609D02*
X103513409Y-51748609D01*
X103656266Y-52272419D02*
X103180076Y-52272419D01*
X103180076Y-52272419D02*
X103180076Y-51272419D01*
X103180076Y-51272419D02*
X103656266Y-51272419D01*
X104656266Y-52272419D02*
X104322933Y-51796228D01*
X104084838Y-52272419D02*
X104084838Y-51272419D01*
X104084838Y-51272419D02*
X104465790Y-51272419D01*
X104465790Y-51272419D02*
X104561028Y-51320038D01*
X104561028Y-51320038D02*
X104608647Y-51367657D01*
X104608647Y-51367657D02*
X104656266Y-51462895D01*
X104656266Y-51462895D02*
X104656266Y-51605752D01*
X104656266Y-51605752D02*
X104608647Y-51700990D01*
X104608647Y-51700990D02*
X104561028Y-51748609D01*
X104561028Y-51748609D02*
X104465790Y-51796228D01*
X104465790Y-51796228D02*
X104084838Y-51796228D01*
X105084838Y-52272419D02*
X105084838Y-51272419D01*
X105084838Y-51272419D02*
X105418171Y-51986704D01*
X105418171Y-51986704D02*
X105751504Y-51272419D01*
X105751504Y-51272419D02*
X105751504Y-52272419D01*
X106418171Y-51272419D02*
X106608647Y-51272419D01*
X106608647Y-51272419D02*
X106703885Y-51320038D01*
X106703885Y-51320038D02*
X106799123Y-51415276D01*
X106799123Y-51415276D02*
X106846742Y-51605752D01*
X106846742Y-51605752D02*
X106846742Y-51939085D01*
X106846742Y-51939085D02*
X106799123Y-52129561D01*
X106799123Y-52129561D02*
X106703885Y-52224800D01*
X106703885Y-52224800D02*
X106608647Y-52272419D01*
X106608647Y-52272419D02*
X106418171Y-52272419D01*
X106418171Y-52272419D02*
X106322933Y-52224800D01*
X106322933Y-52224800D02*
X106227695Y-52129561D01*
X106227695Y-52129561D02*
X106180076Y-51939085D01*
X106180076Y-51939085D02*
X106180076Y-51605752D01*
X106180076Y-51605752D02*
X106227695Y-51415276D01*
X106227695Y-51415276D02*
X106322933Y-51320038D01*
X106322933Y-51320038D02*
X106418171Y-51272419D01*
X107846742Y-52177180D02*
X107799123Y-52224800D01*
X107799123Y-52224800D02*
X107656266Y-52272419D01*
X107656266Y-52272419D02*
X107561028Y-52272419D01*
X107561028Y-52272419D02*
X107418171Y-52224800D01*
X107418171Y-52224800D02*
X107322933Y-52129561D01*
X107322933Y-52129561D02*
X107275314Y-52034323D01*
X107275314Y-52034323D02*
X107227695Y-51843847D01*
X107227695Y-51843847D02*
X107227695Y-51700990D01*
X107227695Y-51700990D02*
X107275314Y-51510514D01*
X107275314Y-51510514D02*
X107322933Y-51415276D01*
X107322933Y-51415276D02*
X107418171Y-51320038D01*
X107418171Y-51320038D02*
X107561028Y-51272419D01*
X107561028Y-51272419D02*
X107656266Y-51272419D01*
X107656266Y-51272419D02*
X107799123Y-51320038D01*
X107799123Y-51320038D02*
X107846742Y-51367657D01*
X108465790Y-51272419D02*
X108656266Y-51272419D01*
X108656266Y-51272419D02*
X108751504Y-51320038D01*
X108751504Y-51320038D02*
X108846742Y-51415276D01*
X108846742Y-51415276D02*
X108894361Y-51605752D01*
X108894361Y-51605752D02*
X108894361Y-51939085D01*
X108894361Y-51939085D02*
X108846742Y-52129561D01*
X108846742Y-52129561D02*
X108751504Y-52224800D01*
X108751504Y-52224800D02*
X108656266Y-52272419D01*
X108656266Y-52272419D02*
X108465790Y-52272419D01*
X108465790Y-52272419D02*
X108370552Y-52224800D01*
X108370552Y-52224800D02*
X108275314Y-52129561D01*
X108275314Y-52129561D02*
X108227695Y-51939085D01*
X108227695Y-51939085D02*
X108227695Y-51605752D01*
X108227695Y-51605752D02*
X108275314Y-51415276D01*
X108275314Y-51415276D02*
X108370552Y-51320038D01*
X108370552Y-51320038D02*
X108465790Y-51272419D01*
X109322933Y-51272419D02*
X109322933Y-52081942D01*
X109322933Y-52081942D02*
X109370552Y-52177180D01*
X109370552Y-52177180D02*
X109418171Y-52224800D01*
X109418171Y-52224800D02*
X109513409Y-52272419D01*
X109513409Y-52272419D02*
X109703885Y-52272419D01*
X109703885Y-52272419D02*
X109799123Y-52224800D01*
X109799123Y-52224800D02*
X109846742Y-52177180D01*
X109846742Y-52177180D02*
X109894361Y-52081942D01*
X109894361Y-52081942D02*
X109894361Y-51272419D01*
X110370552Y-52272419D02*
X110370552Y-51272419D01*
X110370552Y-51272419D02*
X110751504Y-51272419D01*
X110751504Y-51272419D02*
X110846742Y-51320038D01*
X110846742Y-51320038D02*
X110894361Y-51367657D01*
X110894361Y-51367657D02*
X110941980Y-51462895D01*
X110941980Y-51462895D02*
X110941980Y-51605752D01*
X110941980Y-51605752D02*
X110894361Y-51700990D01*
X110894361Y-51700990D02*
X110846742Y-51748609D01*
X110846742Y-51748609D02*
X110751504Y-51796228D01*
X110751504Y-51796228D02*
X110370552Y-51796228D01*
X111846742Y-52272419D02*
X111370552Y-52272419D01*
X111370552Y-52272419D02*
X111370552Y-51272419D01*
X112180076Y-51748609D02*
X112513409Y-51748609D01*
X112656266Y-52272419D02*
X112180076Y-52272419D01*
X112180076Y-52272419D02*
X112180076Y-51272419D01*
X112180076Y-51272419D02*
X112656266Y-51272419D01*
X113799124Y-51986704D02*
X114275314Y-51986704D01*
X113703886Y-52272419D02*
X114037219Y-51272419D01*
X114037219Y-51272419D02*
X114370552Y-52272419D01*
X114703886Y-52272419D02*
X114703886Y-51272419D01*
X114703886Y-51272419D02*
X115275314Y-52272419D01*
X115275314Y-52272419D02*
X115275314Y-51272419D01*
X115751505Y-52272419D02*
X115751505Y-51272419D01*
X115751505Y-51272419D02*
X115989600Y-51272419D01*
X115989600Y-51272419D02*
X116132457Y-51320038D01*
X116132457Y-51320038D02*
X116227695Y-51415276D01*
X116227695Y-51415276D02*
X116275314Y-51510514D01*
X116275314Y-51510514D02*
X116322933Y-51700990D01*
X116322933Y-51700990D02*
X116322933Y-51843847D01*
X116322933Y-51843847D02*
X116275314Y-52034323D01*
X116275314Y-52034323D02*
X116227695Y-52129561D01*
X116227695Y-52129561D02*
X116132457Y-52224800D01*
X116132457Y-52224800D02*
X115989600Y-52272419D01*
X115989600Y-52272419D02*
X115751505Y-52272419D01*
X117465791Y-51986704D02*
X117941981Y-51986704D01*
X117370553Y-52272419D02*
X117703886Y-51272419D01*
X117703886Y-51272419D02*
X118037219Y-52272419D01*
X118370553Y-52272419D02*
X118370553Y-51272419D01*
X118370553Y-51272419D02*
X118941981Y-52272419D01*
X118941981Y-52272419D02*
X118941981Y-51272419D01*
X119370553Y-51986704D02*
X119846743Y-51986704D01*
X119275315Y-52272419D02*
X119608648Y-51272419D01*
X119608648Y-51272419D02*
X119941981Y-52272419D01*
X120751505Y-52272419D02*
X120275315Y-52272419D01*
X120275315Y-52272419D02*
X120275315Y-51272419D01*
X121275315Y-51272419D02*
X121465791Y-51272419D01*
X121465791Y-51272419D02*
X121561029Y-51320038D01*
X121561029Y-51320038D02*
X121656267Y-51415276D01*
X121656267Y-51415276D02*
X121703886Y-51605752D01*
X121703886Y-51605752D02*
X121703886Y-51939085D01*
X121703886Y-51939085D02*
X121656267Y-52129561D01*
X121656267Y-52129561D02*
X121561029Y-52224800D01*
X121561029Y-52224800D02*
X121465791Y-52272419D01*
X121465791Y-52272419D02*
X121275315Y-52272419D01*
X121275315Y-52272419D02*
X121180077Y-52224800D01*
X121180077Y-52224800D02*
X121084839Y-52129561D01*
X121084839Y-52129561D02*
X121037220Y-51939085D01*
X121037220Y-51939085D02*
X121037220Y-51605752D01*
X121037220Y-51605752D02*
X121084839Y-51415276D01*
X121084839Y-51415276D02*
X121180077Y-51320038D01*
X121180077Y-51320038D02*
X121275315Y-51272419D01*
X122656267Y-51320038D02*
X122561029Y-51272419D01*
X122561029Y-51272419D02*
X122418172Y-51272419D01*
X122418172Y-51272419D02*
X122275315Y-51320038D01*
X122275315Y-51320038D02*
X122180077Y-51415276D01*
X122180077Y-51415276D02*
X122132458Y-51510514D01*
X122132458Y-51510514D02*
X122084839Y-51700990D01*
X122084839Y-51700990D02*
X122084839Y-51843847D01*
X122084839Y-51843847D02*
X122132458Y-52034323D01*
X122132458Y-52034323D02*
X122180077Y-52129561D01*
X122180077Y-52129561D02*
X122275315Y-52224800D01*
X122275315Y-52224800D02*
X122418172Y-52272419D01*
X122418172Y-52272419D02*
X122513410Y-52272419D01*
X122513410Y-52272419D02*
X122656267Y-52224800D01*
X122656267Y-52224800D02*
X122703886Y-52177180D01*
X122703886Y-52177180D02*
X122703886Y-51843847D01*
X122703886Y-51843847D02*
X122513410Y-51843847D01*
X123894363Y-52272419D02*
X123894363Y-51272419D01*
X123894363Y-51272419D02*
X124227696Y-51986704D01*
X124227696Y-51986704D02*
X124561029Y-51272419D01*
X124561029Y-51272419D02*
X124561029Y-52272419D01*
X125227696Y-51272419D02*
X125418172Y-51272419D01*
X125418172Y-51272419D02*
X125513410Y-51320038D01*
X125513410Y-51320038D02*
X125608648Y-51415276D01*
X125608648Y-51415276D02*
X125656267Y-51605752D01*
X125656267Y-51605752D02*
X125656267Y-51939085D01*
X125656267Y-51939085D02*
X125608648Y-52129561D01*
X125608648Y-52129561D02*
X125513410Y-52224800D01*
X125513410Y-52224800D02*
X125418172Y-52272419D01*
X125418172Y-52272419D02*
X125227696Y-52272419D01*
X125227696Y-52272419D02*
X125132458Y-52224800D01*
X125132458Y-52224800D02*
X125037220Y-52129561D01*
X125037220Y-52129561D02*
X124989601Y-51939085D01*
X124989601Y-51939085D02*
X124989601Y-51605752D01*
X124989601Y-51605752D02*
X125037220Y-51415276D01*
X125037220Y-51415276D02*
X125132458Y-51320038D01*
X125132458Y-51320038D02*
X125227696Y-51272419D01*
X126084839Y-52272419D02*
X126084839Y-51272419D01*
X126084839Y-51272419D02*
X126656267Y-52272419D01*
X126656267Y-52272419D02*
X126656267Y-51272419D01*
X127132458Y-52272419D02*
X127132458Y-51272419D01*
X127465791Y-51272419D02*
X128037219Y-51272419D01*
X127751505Y-52272419D02*
X127751505Y-51272419D01*
X128561029Y-51272419D02*
X128751505Y-51272419D01*
X128751505Y-51272419D02*
X128846743Y-51320038D01*
X128846743Y-51320038D02*
X128941981Y-51415276D01*
X128941981Y-51415276D02*
X128989600Y-51605752D01*
X128989600Y-51605752D02*
X128989600Y-51939085D01*
X128989600Y-51939085D02*
X128941981Y-52129561D01*
X128941981Y-52129561D02*
X128846743Y-52224800D01*
X128846743Y-52224800D02*
X128751505Y-52272419D01*
X128751505Y-52272419D02*
X128561029Y-52272419D01*
X128561029Y-52272419D02*
X128465791Y-52224800D01*
X128465791Y-52224800D02*
X128370553Y-52129561D01*
X128370553Y-52129561D02*
X128322934Y-51939085D01*
X128322934Y-51939085D02*
X128322934Y-51605752D01*
X128322934Y-51605752D02*
X128370553Y-51415276D01*
X128370553Y-51415276D02*
X128465791Y-51320038D01*
X128465791Y-51320038D02*
X128561029Y-51272419D01*
X129989600Y-52272419D02*
X129656267Y-51796228D01*
X129418172Y-52272419D02*
X129418172Y-51272419D01*
X129418172Y-51272419D02*
X129799124Y-51272419D01*
X129799124Y-51272419D02*
X129894362Y-51320038D01*
X129894362Y-51320038D02*
X129941981Y-51367657D01*
X129941981Y-51367657D02*
X129989600Y-51462895D01*
X129989600Y-51462895D02*
X129989600Y-51605752D01*
X129989600Y-51605752D02*
X129941981Y-51700990D01*
X129941981Y-51700990D02*
X129894362Y-51748609D01*
X129894362Y-51748609D02*
X129799124Y-51796228D01*
X129799124Y-51796228D02*
X129418172Y-51796228D01*
X71303884Y-63191466D02*
X72065789Y-63191466D01*
X71403884Y-58291466D02*
X72165789Y-58291466D01*
X71784836Y-58672419D02*
X71784836Y-57910514D01*
X74827693Y-67572419D02*
X74256265Y-67572419D01*
X74541979Y-67572419D02*
X74541979Y-66572419D01*
X74541979Y-66572419D02*
X74446741Y-66715276D01*
X74446741Y-66715276D02*
X74351503Y-66810514D01*
X74351503Y-66810514D02*
X74256265Y-66858133D01*
X75208646Y-66667657D02*
X75256265Y-66620038D01*
X75256265Y-66620038D02*
X75351503Y-66572419D01*
X75351503Y-66572419D02*
X75589598Y-66572419D01*
X75589598Y-66572419D02*
X75684836Y-66620038D01*
X75684836Y-66620038D02*
X75732455Y-66667657D01*
X75732455Y-66667657D02*
X75780074Y-66762895D01*
X75780074Y-66762895D02*
X75780074Y-66858133D01*
X75780074Y-66858133D02*
X75732455Y-67000990D01*
X75732455Y-67000990D02*
X75161027Y-67572419D01*
X75161027Y-67572419D02*
X75780074Y-67572419D01*
X76065789Y-66572419D02*
X76399122Y-67572419D01*
X76399122Y-67572419D02*
X76732455Y-66572419D01*
X77827694Y-67572419D02*
X77827694Y-66572419D01*
X78303884Y-67572419D02*
X78303884Y-66572419D01*
X78303884Y-66572419D02*
X78875312Y-67572419D01*
X78875312Y-67572419D02*
X78875312Y-66572419D01*
X107003884Y-54874975D02*
X107003884Y-53874975D01*
X107003884Y-53874975D02*
X107575312Y-54874975D01*
X107575312Y-54874975D02*
X107575312Y-53874975D01*
X108527693Y-53874975D02*
X108051503Y-53874975D01*
X108051503Y-53874975D02*
X108003884Y-54351165D01*
X108003884Y-54351165D02*
X108051503Y-54303546D01*
X108051503Y-54303546D02*
X108146741Y-54255927D01*
X108146741Y-54255927D02*
X108384836Y-54255927D01*
X108384836Y-54255927D02*
X108480074Y-54303546D01*
X108480074Y-54303546D02*
X108527693Y-54351165D01*
X108527693Y-54351165D02*
X108575312Y-54446403D01*
X108575312Y-54446403D02*
X108575312Y-54684498D01*
X108575312Y-54684498D02*
X108527693Y-54779736D01*
X108527693Y-54779736D02*
X108480074Y-54827356D01*
X108480074Y-54827356D02*
X108384836Y-54874975D01*
X108384836Y-54874975D02*
X108146741Y-54874975D01*
X108146741Y-54874975D02*
X108051503Y-54827356D01*
X108051503Y-54827356D02*
X108003884Y-54779736D01*
X108861027Y-53874975D02*
X109194360Y-54874975D01*
X109194360Y-54874975D02*
X109527693Y-53874975D01*
X110622932Y-54874975D02*
X110622932Y-53874975D01*
X110622932Y-53874975D02*
X111003884Y-53874975D01*
X111003884Y-53874975D02*
X111099122Y-53922594D01*
X111099122Y-53922594D02*
X111146741Y-53970213D01*
X111146741Y-53970213D02*
X111194360Y-54065451D01*
X111194360Y-54065451D02*
X111194360Y-54208308D01*
X111194360Y-54208308D02*
X111146741Y-54303546D01*
X111146741Y-54303546D02*
X111099122Y-54351165D01*
X111099122Y-54351165D02*
X111003884Y-54398784D01*
X111003884Y-54398784D02*
X110622932Y-54398784D01*
X111527694Y-53874975D02*
X111765789Y-54874975D01*
X111765789Y-54874975D02*
X111956265Y-54160689D01*
X111956265Y-54160689D02*
X112146741Y-54874975D01*
X112146741Y-54874975D02*
X112384837Y-53874975D01*
X113337217Y-54874975D02*
X113003884Y-54398784D01*
X112765789Y-54874975D02*
X112765789Y-53874975D01*
X112765789Y-53874975D02*
X113146741Y-53874975D01*
X113146741Y-53874975D02*
X113241979Y-53922594D01*
X113241979Y-53922594D02*
X113289598Y-53970213D01*
X113289598Y-53970213D02*
X113337217Y-54065451D01*
X113337217Y-54065451D02*
X113337217Y-54208308D01*
X113337217Y-54208308D02*
X113289598Y-54303546D01*
X113289598Y-54303546D02*
X113241979Y-54351165D01*
X113241979Y-54351165D02*
X113146741Y-54398784D01*
X113146741Y-54398784D02*
X112765789Y-54398784D01*
X102008646Y-55374975D02*
X102627693Y-55374975D01*
X102627693Y-55374975D02*
X102294360Y-55755927D01*
X102294360Y-55755927D02*
X102437217Y-55755927D01*
X102437217Y-55755927D02*
X102532455Y-55803546D01*
X102532455Y-55803546D02*
X102580074Y-55851165D01*
X102580074Y-55851165D02*
X102627693Y-55946403D01*
X102627693Y-55946403D02*
X102627693Y-56184498D01*
X102627693Y-56184498D02*
X102580074Y-56279736D01*
X102580074Y-56279736D02*
X102532455Y-56327356D01*
X102532455Y-56327356D02*
X102437217Y-56374975D01*
X102437217Y-56374975D02*
X102151503Y-56374975D01*
X102151503Y-56374975D02*
X102056265Y-56327356D01*
X102056265Y-56327356D02*
X102008646Y-56279736D01*
X102913408Y-55374975D02*
X103246741Y-56374975D01*
X103246741Y-56374975D02*
X103580074Y-55374975D01*
X103818170Y-55374975D02*
X104437217Y-55374975D01*
X104437217Y-55374975D02*
X104103884Y-55755927D01*
X104103884Y-55755927D02*
X104246741Y-55755927D01*
X104246741Y-55755927D02*
X104341979Y-55803546D01*
X104341979Y-55803546D02*
X104389598Y-55851165D01*
X104389598Y-55851165D02*
X104437217Y-55946403D01*
X104437217Y-55946403D02*
X104437217Y-56184498D01*
X104437217Y-56184498D02*
X104389598Y-56279736D01*
X104389598Y-56279736D02*
X104341979Y-56327356D01*
X104341979Y-56327356D02*
X104246741Y-56374975D01*
X104246741Y-56374975D02*
X103961027Y-56374975D01*
X103961027Y-56374975D02*
X103865789Y-56327356D01*
X103865789Y-56327356D02*
X103818170Y-56279736D01*
X105627694Y-56374975D02*
X105627694Y-55374975D01*
X105627694Y-55374975D02*
X106008646Y-55374975D01*
X106008646Y-55374975D02*
X106103884Y-55422594D01*
X106103884Y-55422594D02*
X106151503Y-55470213D01*
X106151503Y-55470213D02*
X106199122Y-55565451D01*
X106199122Y-55565451D02*
X106199122Y-55708308D01*
X106199122Y-55708308D02*
X106151503Y-55803546D01*
X106151503Y-55803546D02*
X106103884Y-55851165D01*
X106103884Y-55851165D02*
X106008646Y-55898784D01*
X106008646Y-55898784D02*
X105627694Y-55898784D01*
X106532456Y-55374975D02*
X106770551Y-56374975D01*
X106770551Y-56374975D02*
X106961027Y-55660689D01*
X106961027Y-55660689D02*
X107151503Y-56374975D01*
X107151503Y-56374975D02*
X107389599Y-55374975D01*
X108341979Y-56374975D02*
X108008646Y-55898784D01*
X107770551Y-56374975D02*
X107770551Y-55374975D01*
X107770551Y-55374975D02*
X108151503Y-55374975D01*
X108151503Y-55374975D02*
X108246741Y-55422594D01*
X108246741Y-55422594D02*
X108294360Y-55470213D01*
X108294360Y-55470213D02*
X108341979Y-55565451D01*
X108341979Y-55565451D02*
X108341979Y-55708308D01*
X108341979Y-55708308D02*
X108294360Y-55803546D01*
X108294360Y-55803546D02*
X108246741Y-55851165D01*
X108246741Y-55851165D02*
X108151503Y-55898784D01*
X108151503Y-55898784D02*
X107770551Y-55898784D01*
X99080074Y-53972419D02*
X98603884Y-53972419D01*
X98603884Y-53972419D02*
X98556265Y-54448609D01*
X98556265Y-54448609D02*
X98603884Y-54400990D01*
X98603884Y-54400990D02*
X98699122Y-54353371D01*
X98699122Y-54353371D02*
X98937217Y-54353371D01*
X98937217Y-54353371D02*
X99032455Y-54400990D01*
X99032455Y-54400990D02*
X99080074Y-54448609D01*
X99080074Y-54448609D02*
X99127693Y-54543847D01*
X99127693Y-54543847D02*
X99127693Y-54781942D01*
X99127693Y-54781942D02*
X99080074Y-54877180D01*
X99080074Y-54877180D02*
X99032455Y-54924800D01*
X99032455Y-54924800D02*
X98937217Y-54972419D01*
X98937217Y-54972419D02*
X98699122Y-54972419D01*
X98699122Y-54972419D02*
X98603884Y-54924800D01*
X98603884Y-54924800D02*
X98556265Y-54877180D01*
X99413408Y-53972419D02*
X99746741Y-54972419D01*
X99746741Y-54972419D02*
X100080074Y-53972419D01*
X101175313Y-54972419D02*
X101175313Y-53972419D01*
X101175313Y-53972419D02*
X101556265Y-53972419D01*
X101556265Y-53972419D02*
X101651503Y-54020038D01*
X101651503Y-54020038D02*
X101699122Y-54067657D01*
X101699122Y-54067657D02*
X101746741Y-54162895D01*
X101746741Y-54162895D02*
X101746741Y-54305752D01*
X101746741Y-54305752D02*
X101699122Y-54400990D01*
X101699122Y-54400990D02*
X101651503Y-54448609D01*
X101651503Y-54448609D02*
X101556265Y-54496228D01*
X101556265Y-54496228D02*
X101175313Y-54496228D01*
X102080075Y-53972419D02*
X102318170Y-54972419D01*
X102318170Y-54972419D02*
X102508646Y-54258133D01*
X102508646Y-54258133D02*
X102699122Y-54972419D01*
X102699122Y-54972419D02*
X102937218Y-53972419D01*
X103889598Y-54972419D02*
X103556265Y-54496228D01*
X103318170Y-54972419D02*
X103318170Y-53972419D01*
X103318170Y-53972419D02*
X103699122Y-53972419D01*
X103699122Y-53972419D02*
X103794360Y-54020038D01*
X103794360Y-54020038D02*
X103841979Y-54067657D01*
X103841979Y-54067657D02*
X103889598Y-54162895D01*
X103889598Y-54162895D02*
X103889598Y-54305752D01*
X103889598Y-54305752D02*
X103841979Y-54400990D01*
X103841979Y-54400990D02*
X103794360Y-54448609D01*
X103794360Y-54448609D02*
X103699122Y-54496228D01*
X103699122Y-54496228D02*
X103318170Y-54496228D01*
D11*
X90332142Y-80959580D02*
X90284523Y-81007200D01*
X90284523Y-81007200D02*
X90141666Y-81054819D01*
X90141666Y-81054819D02*
X90046428Y-81054819D01*
X90046428Y-81054819D02*
X89903571Y-81007200D01*
X89903571Y-81007200D02*
X89808333Y-80911961D01*
X89808333Y-80911961D02*
X89760714Y-80816723D01*
X89760714Y-80816723D02*
X89713095Y-80626247D01*
X89713095Y-80626247D02*
X89713095Y-80483390D01*
X89713095Y-80483390D02*
X89760714Y-80292914D01*
X89760714Y-80292914D02*
X89808333Y-80197676D01*
X89808333Y-80197676D02*
X89903571Y-80102438D01*
X89903571Y-80102438D02*
X90046428Y-80054819D01*
X90046428Y-80054819D02*
X90141666Y-80054819D01*
X90141666Y-80054819D02*
X90284523Y-80102438D01*
X90284523Y-80102438D02*
X90332142Y-80150057D01*
X91284523Y-81054819D02*
X90713095Y-81054819D01*
X90998809Y-81054819D02*
X90998809Y-80054819D01*
X90998809Y-80054819D02*
X90903571Y-80197676D01*
X90903571Y-80197676D02*
X90808333Y-80292914D01*
X90808333Y-80292914D02*
X90713095Y-80340533D01*
X91760714Y-81054819D02*
X91951190Y-81054819D01*
X91951190Y-81054819D02*
X92046428Y-81007200D01*
X92046428Y-81007200D02*
X92094047Y-80959580D01*
X92094047Y-80959580D02*
X92189285Y-80816723D01*
X92189285Y-80816723D02*
X92236904Y-80626247D01*
X92236904Y-80626247D02*
X92236904Y-80245295D01*
X92236904Y-80245295D02*
X92189285Y-80150057D01*
X92189285Y-80150057D02*
X92141666Y-80102438D01*
X92141666Y-80102438D02*
X92046428Y-80054819D01*
X92046428Y-80054819D02*
X91855952Y-80054819D01*
X91855952Y-80054819D02*
X91760714Y-80102438D01*
X91760714Y-80102438D02*
X91713095Y-80150057D01*
X91713095Y-80150057D02*
X91665476Y-80245295D01*
X91665476Y-80245295D02*
X91665476Y-80483390D01*
X91665476Y-80483390D02*
X91713095Y-80578628D01*
X91713095Y-80578628D02*
X91760714Y-80626247D01*
X91760714Y-80626247D02*
X91855952Y-80673866D01*
X91855952Y-80673866D02*
X92046428Y-80673866D01*
X92046428Y-80673866D02*
X92141666Y-80626247D01*
X92141666Y-80626247D02*
X92189285Y-80578628D01*
X92189285Y-80578628D02*
X92236904Y-80483390D01*
X120261905Y-71454819D02*
X120261905Y-72264342D01*
X120261905Y-72264342D02*
X120309524Y-72359580D01*
X120309524Y-72359580D02*
X120357143Y-72407200D01*
X120357143Y-72407200D02*
X120452381Y-72454819D01*
X120452381Y-72454819D02*
X120642857Y-72454819D01*
X120642857Y-72454819D02*
X120738095Y-72407200D01*
X120738095Y-72407200D02*
X120785714Y-72359580D01*
X120785714Y-72359580D02*
X120833333Y-72264342D01*
X120833333Y-72264342D02*
X120833333Y-71454819D01*
X121833333Y-72454819D02*
X121261905Y-72454819D01*
X121547619Y-72454819D02*
X121547619Y-71454819D01*
X121547619Y-71454819D02*
X121452381Y-71597676D01*
X121452381Y-71597676D02*
X121357143Y-71692914D01*
X121357143Y-71692914D02*
X121261905Y-71740533D01*
X122785714Y-72454819D02*
X122214286Y-72454819D01*
X122500000Y-72454819D02*
X122500000Y-71454819D01*
X122500000Y-71454819D02*
X122404762Y-71597676D01*
X122404762Y-71597676D02*
X122309524Y-71692914D01*
X122309524Y-71692914D02*
X122214286Y-71740533D01*
X123338095Y-57654819D02*
X123338095Y-58464342D01*
X123338095Y-58464342D02*
X123385714Y-58559580D01*
X123385714Y-58559580D02*
X123433333Y-58607200D01*
X123433333Y-58607200D02*
X123528571Y-58654819D01*
X123528571Y-58654819D02*
X123719047Y-58654819D01*
X123719047Y-58654819D02*
X123814285Y-58607200D01*
X123814285Y-58607200D02*
X123861904Y-58559580D01*
X123861904Y-58559580D02*
X123909523Y-58464342D01*
X123909523Y-58464342D02*
X123909523Y-57654819D01*
X124433333Y-58654819D02*
X124623809Y-58654819D01*
X124623809Y-58654819D02*
X124719047Y-58607200D01*
X124719047Y-58607200D02*
X124766666Y-58559580D01*
X124766666Y-58559580D02*
X124861904Y-58416723D01*
X124861904Y-58416723D02*
X124909523Y-58226247D01*
X124909523Y-58226247D02*
X124909523Y-57845295D01*
X124909523Y-57845295D02*
X124861904Y-57750057D01*
X124861904Y-57750057D02*
X124814285Y-57702438D01*
X124814285Y-57702438D02*
X124719047Y-57654819D01*
X124719047Y-57654819D02*
X124528571Y-57654819D01*
X124528571Y-57654819D02*
X124433333Y-57702438D01*
X124433333Y-57702438D02*
X124385714Y-57750057D01*
X124385714Y-57750057D02*
X124338095Y-57845295D01*
X124338095Y-57845295D02*
X124338095Y-58083390D01*
X124338095Y-58083390D02*
X124385714Y-58178628D01*
X124385714Y-58178628D02*
X124433333Y-58226247D01*
X124433333Y-58226247D02*
X124528571Y-58273866D01*
X124528571Y-58273866D02*
X124719047Y-58273866D01*
X124719047Y-58273866D02*
X124814285Y-58226247D01*
X124814285Y-58226247D02*
X124861904Y-58178628D01*
X124861904Y-58178628D02*
X124909523Y-58083390D01*
X121038095Y-87154819D02*
X121038095Y-87964342D01*
X121038095Y-87964342D02*
X121085714Y-88059580D01*
X121085714Y-88059580D02*
X121133333Y-88107200D01*
X121133333Y-88107200D02*
X121228571Y-88154819D01*
X121228571Y-88154819D02*
X121419047Y-88154819D01*
X121419047Y-88154819D02*
X121514285Y-88107200D01*
X121514285Y-88107200D02*
X121561904Y-88059580D01*
X121561904Y-88059580D02*
X121609523Y-87964342D01*
X121609523Y-87964342D02*
X121609523Y-87154819D01*
X121990476Y-87154819D02*
X122657142Y-87154819D01*
X122657142Y-87154819D02*
X122228571Y-88154819D01*
X96536601Y-81853765D02*
X96536601Y-82664876D01*
X96536601Y-82664876D02*
X96584313Y-82760301D01*
X96584313Y-82760301D02*
X96632026Y-82808014D01*
X96632026Y-82808014D02*
X96727450Y-82855726D01*
X96727450Y-82855726D02*
X96918300Y-82855726D01*
X96918300Y-82855726D02*
X97013725Y-82808014D01*
X97013725Y-82808014D02*
X97061437Y-82760301D01*
X97061437Y-82760301D02*
X97109150Y-82664876D01*
X97109150Y-82664876D02*
X97109150Y-81853765D01*
X98015686Y-81853765D02*
X97824836Y-81853765D01*
X97824836Y-81853765D02*
X97729411Y-81901477D01*
X97729411Y-81901477D02*
X97681699Y-81949190D01*
X97681699Y-81949190D02*
X97586274Y-82092327D01*
X97586274Y-82092327D02*
X97538561Y-82283177D01*
X97538561Y-82283177D02*
X97538561Y-82664876D01*
X97538561Y-82664876D02*
X97586274Y-82760301D01*
X97586274Y-82760301D02*
X97633986Y-82808014D01*
X97633986Y-82808014D02*
X97729411Y-82855726D01*
X97729411Y-82855726D02*
X97920261Y-82855726D01*
X97920261Y-82855726D02*
X98015686Y-82808014D01*
X98015686Y-82808014D02*
X98063398Y-82760301D01*
X98063398Y-82760301D02*
X98111110Y-82664876D01*
X98111110Y-82664876D02*
X98111110Y-82426314D01*
X98111110Y-82426314D02*
X98063398Y-82330889D01*
X98063398Y-82330889D02*
X98015686Y-82283177D01*
X98015686Y-82283177D02*
X97920261Y-82235464D01*
X97920261Y-82235464D02*
X97729411Y-82235464D01*
X97729411Y-82235464D02*
X97633986Y-82283177D01*
X97633986Y-82283177D02*
X97586274Y-82330889D01*
X97586274Y-82330889D02*
X97538561Y-82426314D01*
X87336601Y-62153765D02*
X87336601Y-62964876D01*
X87336601Y-62964876D02*
X87384313Y-63060301D01*
X87384313Y-63060301D02*
X87432026Y-63108014D01*
X87432026Y-63108014D02*
X87527450Y-63155726D01*
X87527450Y-63155726D02*
X87718300Y-63155726D01*
X87718300Y-63155726D02*
X87813725Y-63108014D01*
X87813725Y-63108014D02*
X87861437Y-63060301D01*
X87861437Y-63060301D02*
X87909150Y-62964876D01*
X87909150Y-62964876D02*
X87909150Y-62153765D01*
X88863398Y-62153765D02*
X88386274Y-62153765D01*
X88386274Y-62153765D02*
X88338561Y-62630889D01*
X88338561Y-62630889D02*
X88386274Y-62583177D01*
X88386274Y-62583177D02*
X88481699Y-62535464D01*
X88481699Y-62535464D02*
X88720261Y-62535464D01*
X88720261Y-62535464D02*
X88815686Y-62583177D01*
X88815686Y-62583177D02*
X88863398Y-62630889D01*
X88863398Y-62630889D02*
X88911110Y-62726314D01*
X88911110Y-62726314D02*
X88911110Y-62964876D01*
X88911110Y-62964876D02*
X88863398Y-63060301D01*
X88863398Y-63060301D02*
X88815686Y-63108014D01*
X88815686Y-63108014D02*
X88720261Y-63155726D01*
X88720261Y-63155726D02*
X88481699Y-63155726D01*
X88481699Y-63155726D02*
X88386274Y-63108014D01*
X88386274Y-63108014D02*
X88338561Y-63060301D01*
X89950476Y-82610896D02*
X89950476Y-83938515D01*
X89950476Y-83938515D02*
X90028571Y-84094705D01*
X90028571Y-84094705D02*
X90106666Y-84172801D01*
X90106666Y-84172801D02*
X90262857Y-84250896D01*
X90262857Y-84250896D02*
X90575238Y-84250896D01*
X90575238Y-84250896D02*
X90731428Y-84172801D01*
X90731428Y-84172801D02*
X90809523Y-84094705D01*
X90809523Y-84094705D02*
X90887619Y-83938515D01*
X90887619Y-83938515D02*
X90887619Y-82610896D01*
X92371428Y-83157562D02*
X92371428Y-84250896D01*
X91980952Y-82532801D02*
X91590475Y-83704229D01*
X91590475Y-83704229D02*
X92605714Y-83704229D01*
X91700074Y-55614469D02*
X91700074Y-56334136D01*
X91700074Y-56334136D02*
X91737570Y-56418802D01*
X91737570Y-56418802D02*
X91775065Y-56461136D01*
X91775065Y-56461136D02*
X91850056Y-56503469D01*
X91850056Y-56503469D02*
X92000037Y-56503469D01*
X92000037Y-56503469D02*
X92075028Y-56461136D01*
X92075028Y-56461136D02*
X92112523Y-56418802D01*
X92112523Y-56418802D02*
X92150018Y-56334136D01*
X92150018Y-56334136D02*
X92150018Y-55614469D01*
X92449981Y-55614469D02*
X92937420Y-55614469D01*
X92937420Y-55614469D02*
X92674953Y-55953136D01*
X92674953Y-55953136D02*
X92787439Y-55953136D01*
X92787439Y-55953136D02*
X92862429Y-55995469D01*
X92862429Y-55995469D02*
X92899925Y-56037802D01*
X92899925Y-56037802D02*
X92937420Y-56122469D01*
X92937420Y-56122469D02*
X92937420Y-56334136D01*
X92937420Y-56334136D02*
X92899925Y-56418802D01*
X92899925Y-56418802D02*
X92862429Y-56461136D01*
X92862429Y-56461136D02*
X92787439Y-56503469D01*
X92787439Y-56503469D02*
X92562467Y-56503469D01*
X92562467Y-56503469D02*
X92487476Y-56461136D01*
X92487476Y-56461136D02*
X92449981Y-56418802D01*
X94900000Y-59254819D02*
X94900000Y-59492914D01*
X94661905Y-59397676D02*
X94900000Y-59492914D01*
X94900000Y-59492914D02*
X95138095Y-59397676D01*
X94757143Y-59683390D02*
X94900000Y-59492914D01*
X94900000Y-59492914D02*
X95042857Y-59683390D01*
X91250416Y-70310853D02*
X91250416Y-71638536D01*
X91250416Y-71638536D02*
X91328515Y-71794734D01*
X91328515Y-71794734D02*
X91406614Y-71872833D01*
X91406614Y-71872833D02*
X91562812Y-71950932D01*
X91562812Y-71950932D02*
X91875208Y-71950932D01*
X91875208Y-71950932D02*
X92031406Y-71872833D01*
X92031406Y-71872833D02*
X92109505Y-71794734D01*
X92109505Y-71794734D02*
X92187604Y-71638536D01*
X92187604Y-71638536D02*
X92187604Y-70310853D01*
X92890495Y-70467051D02*
X92968594Y-70388952D01*
X92968594Y-70388952D02*
X93124792Y-70310853D01*
X93124792Y-70310853D02*
X93515287Y-70310853D01*
X93515287Y-70310853D02*
X93671485Y-70388952D01*
X93671485Y-70388952D02*
X93749584Y-70467051D01*
X93749584Y-70467051D02*
X93827683Y-70623249D01*
X93827683Y-70623249D02*
X93827683Y-70779447D01*
X93827683Y-70779447D02*
X93749584Y-71013744D01*
X93749584Y-71013744D02*
X92812396Y-71950932D01*
X92812396Y-71950932D02*
X93827683Y-71950932D01*
X111438095Y-69954819D02*
X112009523Y-69954819D01*
X111723809Y-70954819D02*
X111723809Y-69954819D01*
X112342857Y-70954819D02*
X112342857Y-69954819D01*
X112342857Y-69954819D02*
X112723809Y-69954819D01*
X112723809Y-69954819D02*
X112819047Y-70002438D01*
X112819047Y-70002438D02*
X112866666Y-70050057D01*
X112866666Y-70050057D02*
X112914285Y-70145295D01*
X112914285Y-70145295D02*
X112914285Y-70288152D01*
X112914285Y-70288152D02*
X112866666Y-70383390D01*
X112866666Y-70383390D02*
X112819047Y-70431009D01*
X112819047Y-70431009D02*
X112723809Y-70478628D01*
X112723809Y-70478628D02*
X112342857Y-70478628D01*
X113247619Y-69954819D02*
X113914285Y-69954819D01*
X113914285Y-69954819D02*
X113485714Y-70954819D01*
X120438095Y-81954819D02*
X121009523Y-81954819D01*
X120723809Y-82954819D02*
X120723809Y-81954819D01*
X121342857Y-82954819D02*
X121342857Y-81954819D01*
X121342857Y-81954819D02*
X121723809Y-81954819D01*
X121723809Y-81954819D02*
X121819047Y-82002438D01*
X121819047Y-82002438D02*
X121866666Y-82050057D01*
X121866666Y-82050057D02*
X121914285Y-82145295D01*
X121914285Y-82145295D02*
X121914285Y-82288152D01*
X121914285Y-82288152D02*
X121866666Y-82383390D01*
X121866666Y-82383390D02*
X121819047Y-82431009D01*
X121819047Y-82431009D02*
X121723809Y-82478628D01*
X121723809Y-82478628D02*
X121342857Y-82478628D01*
X122771428Y-81954819D02*
X122580952Y-81954819D01*
X122580952Y-81954819D02*
X122485714Y-82002438D01*
X122485714Y-82002438D02*
X122438095Y-82050057D01*
X122438095Y-82050057D02*
X122342857Y-82192914D01*
X122342857Y-82192914D02*
X122295238Y-82383390D01*
X122295238Y-82383390D02*
X122295238Y-82764342D01*
X122295238Y-82764342D02*
X122342857Y-82859580D01*
X122342857Y-82859580D02*
X122390476Y-82907200D01*
X122390476Y-82907200D02*
X122485714Y-82954819D01*
X122485714Y-82954819D02*
X122676190Y-82954819D01*
X122676190Y-82954819D02*
X122771428Y-82907200D01*
X122771428Y-82907200D02*
X122819047Y-82859580D01*
X122819047Y-82859580D02*
X122866666Y-82764342D01*
X122866666Y-82764342D02*
X122866666Y-82526247D01*
X122866666Y-82526247D02*
X122819047Y-82431009D01*
X122819047Y-82431009D02*
X122771428Y-82383390D01*
X122771428Y-82383390D02*
X122676190Y-82335771D01*
X122676190Y-82335771D02*
X122485714Y-82335771D01*
X122485714Y-82335771D02*
X122390476Y-82383390D01*
X122390476Y-82383390D02*
X122342857Y-82431009D01*
X122342857Y-82431009D02*
X122295238Y-82526247D01*
X78138095Y-89154819D02*
X78709523Y-89154819D01*
X78423809Y-90154819D02*
X78423809Y-89154819D01*
X79042857Y-90154819D02*
X79042857Y-89154819D01*
X79042857Y-89154819D02*
X79423809Y-89154819D01*
X79423809Y-89154819D02*
X79519047Y-89202438D01*
X79519047Y-89202438D02*
X79566666Y-89250057D01*
X79566666Y-89250057D02*
X79614285Y-89345295D01*
X79614285Y-89345295D02*
X79614285Y-89488152D01*
X79614285Y-89488152D02*
X79566666Y-89583390D01*
X79566666Y-89583390D02*
X79519047Y-89631009D01*
X79519047Y-89631009D02*
X79423809Y-89678628D01*
X79423809Y-89678628D02*
X79042857Y-89678628D01*
X80519047Y-89154819D02*
X80042857Y-89154819D01*
X80042857Y-89154819D02*
X79995238Y-89631009D01*
X79995238Y-89631009D02*
X80042857Y-89583390D01*
X80042857Y-89583390D02*
X80138095Y-89535771D01*
X80138095Y-89535771D02*
X80376190Y-89535771D01*
X80376190Y-89535771D02*
X80471428Y-89583390D01*
X80471428Y-89583390D02*
X80519047Y-89631009D01*
X80519047Y-89631009D02*
X80566666Y-89726247D01*
X80566666Y-89726247D02*
X80566666Y-89964342D01*
X80566666Y-89964342D02*
X80519047Y-90059580D01*
X80519047Y-90059580D02*
X80471428Y-90107200D01*
X80471428Y-90107200D02*
X80376190Y-90154819D01*
X80376190Y-90154819D02*
X80138095Y-90154819D01*
X80138095Y-90154819D02*
X80042857Y-90107200D01*
X80042857Y-90107200D02*
X79995238Y-90059580D01*
X100999895Y-74854819D02*
X101571323Y-74854819D01*
X101285609Y-75854819D02*
X101285609Y-74854819D01*
X101904657Y-75854819D02*
X101904657Y-74854819D01*
X101904657Y-74854819D02*
X102285609Y-74854819D01*
X102285609Y-74854819D02*
X102380847Y-74902438D01*
X102380847Y-74902438D02*
X102428466Y-74950057D01*
X102428466Y-74950057D02*
X102476085Y-75045295D01*
X102476085Y-75045295D02*
X102476085Y-75188152D01*
X102476085Y-75188152D02*
X102428466Y-75283390D01*
X102428466Y-75283390D02*
X102380847Y-75331009D01*
X102380847Y-75331009D02*
X102285609Y-75378628D01*
X102285609Y-75378628D02*
X101904657Y-75378628D01*
X103333228Y-75188152D02*
X103333228Y-75854819D01*
X103095133Y-74807200D02*
X102857038Y-75521485D01*
X102857038Y-75521485D02*
X103476085Y-75521485D01*
X103538095Y-95054819D02*
X104109523Y-95054819D01*
X103823809Y-96054819D02*
X103823809Y-95054819D01*
X104442857Y-96054819D02*
X104442857Y-95054819D01*
X104442857Y-95054819D02*
X104823809Y-95054819D01*
X104823809Y-95054819D02*
X104919047Y-95102438D01*
X104919047Y-95102438D02*
X104966666Y-95150057D01*
X104966666Y-95150057D02*
X105014285Y-95245295D01*
X105014285Y-95245295D02*
X105014285Y-95388152D01*
X105014285Y-95388152D02*
X104966666Y-95483390D01*
X104966666Y-95483390D02*
X104919047Y-95531009D01*
X104919047Y-95531009D02*
X104823809Y-95578628D01*
X104823809Y-95578628D02*
X104442857Y-95578628D01*
X105347619Y-95054819D02*
X105966666Y-95054819D01*
X105966666Y-95054819D02*
X105633333Y-95435771D01*
X105633333Y-95435771D02*
X105776190Y-95435771D01*
X105776190Y-95435771D02*
X105871428Y-95483390D01*
X105871428Y-95483390D02*
X105919047Y-95531009D01*
X105919047Y-95531009D02*
X105966666Y-95626247D01*
X105966666Y-95626247D02*
X105966666Y-95864342D01*
X105966666Y-95864342D02*
X105919047Y-95959580D01*
X105919047Y-95959580D02*
X105871428Y-96007200D01*
X105871428Y-96007200D02*
X105776190Y-96054819D01*
X105776190Y-96054819D02*
X105490476Y-96054819D01*
X105490476Y-96054819D02*
X105395238Y-96007200D01*
X105395238Y-96007200D02*
X105347619Y-95959580D01*
X95538095Y-66654819D02*
X96109523Y-66654819D01*
X95823809Y-67654819D02*
X95823809Y-66654819D01*
X96442857Y-67654819D02*
X96442857Y-66654819D01*
X96442857Y-66654819D02*
X96823809Y-66654819D01*
X96823809Y-66654819D02*
X96919047Y-66702438D01*
X96919047Y-66702438D02*
X96966666Y-66750057D01*
X96966666Y-66750057D02*
X97014285Y-66845295D01*
X97014285Y-66845295D02*
X97014285Y-66988152D01*
X97014285Y-66988152D02*
X96966666Y-67083390D01*
X96966666Y-67083390D02*
X96919047Y-67131009D01*
X96919047Y-67131009D02*
X96823809Y-67178628D01*
X96823809Y-67178628D02*
X96442857Y-67178628D01*
X97395238Y-66750057D02*
X97442857Y-66702438D01*
X97442857Y-66702438D02*
X97538095Y-66654819D01*
X97538095Y-66654819D02*
X97776190Y-66654819D01*
X97776190Y-66654819D02*
X97871428Y-66702438D01*
X97871428Y-66702438D02*
X97919047Y-66750057D01*
X97919047Y-66750057D02*
X97966666Y-66845295D01*
X97966666Y-66845295D02*
X97966666Y-66940533D01*
X97966666Y-66940533D02*
X97919047Y-67083390D01*
X97919047Y-67083390D02*
X97347619Y-67654819D01*
X97347619Y-67654819D02*
X97966666Y-67654819D01*
X124982142Y-70354819D02*
X124648809Y-69878628D01*
X124410714Y-70354819D02*
X124410714Y-69354819D01*
X124410714Y-69354819D02*
X124791666Y-69354819D01*
X124791666Y-69354819D02*
X124886904Y-69402438D01*
X124886904Y-69402438D02*
X124934523Y-69450057D01*
X124934523Y-69450057D02*
X124982142Y-69545295D01*
X124982142Y-69545295D02*
X124982142Y-69688152D01*
X124982142Y-69688152D02*
X124934523Y-69783390D01*
X124934523Y-69783390D02*
X124886904Y-69831009D01*
X124886904Y-69831009D02*
X124791666Y-69878628D01*
X124791666Y-69878628D02*
X124410714Y-69878628D01*
X125315476Y-69354819D02*
X125934523Y-69354819D01*
X125934523Y-69354819D02*
X125601190Y-69735771D01*
X125601190Y-69735771D02*
X125744047Y-69735771D01*
X125744047Y-69735771D02*
X125839285Y-69783390D01*
X125839285Y-69783390D02*
X125886904Y-69831009D01*
X125886904Y-69831009D02*
X125934523Y-69926247D01*
X125934523Y-69926247D02*
X125934523Y-70164342D01*
X125934523Y-70164342D02*
X125886904Y-70259580D01*
X125886904Y-70259580D02*
X125839285Y-70307200D01*
X125839285Y-70307200D02*
X125744047Y-70354819D01*
X125744047Y-70354819D02*
X125458333Y-70354819D01*
X125458333Y-70354819D02*
X125363095Y-70307200D01*
X125363095Y-70307200D02*
X125315476Y-70259580D01*
X126315476Y-69450057D02*
X126363095Y-69402438D01*
X126363095Y-69402438D02*
X126458333Y-69354819D01*
X126458333Y-69354819D02*
X126696428Y-69354819D01*
X126696428Y-69354819D02*
X126791666Y-69402438D01*
X126791666Y-69402438D02*
X126839285Y-69450057D01*
X126839285Y-69450057D02*
X126886904Y-69545295D01*
X126886904Y-69545295D02*
X126886904Y-69640533D01*
X126886904Y-69640533D02*
X126839285Y-69783390D01*
X126839285Y-69783390D02*
X126267857Y-70354819D01*
X126267857Y-70354819D02*
X126886904Y-70354819D01*
X121057142Y-81184819D02*
X120723809Y-80708628D01*
X120485714Y-81184819D02*
X120485714Y-80184819D01*
X120485714Y-80184819D02*
X120866666Y-80184819D01*
X120866666Y-80184819D02*
X120961904Y-80232438D01*
X120961904Y-80232438D02*
X121009523Y-80280057D01*
X121009523Y-80280057D02*
X121057142Y-80375295D01*
X121057142Y-80375295D02*
X121057142Y-80518152D01*
X121057142Y-80518152D02*
X121009523Y-80613390D01*
X121009523Y-80613390D02*
X120961904Y-80661009D01*
X120961904Y-80661009D02*
X120866666Y-80708628D01*
X120866666Y-80708628D02*
X120485714Y-80708628D01*
X121390476Y-80184819D02*
X122009523Y-80184819D01*
X122009523Y-80184819D02*
X121676190Y-80565771D01*
X121676190Y-80565771D02*
X121819047Y-80565771D01*
X121819047Y-80565771D02*
X121914285Y-80613390D01*
X121914285Y-80613390D02*
X121961904Y-80661009D01*
X121961904Y-80661009D02*
X122009523Y-80756247D01*
X122009523Y-80756247D02*
X122009523Y-80994342D01*
X122009523Y-80994342D02*
X121961904Y-81089580D01*
X121961904Y-81089580D02*
X121914285Y-81137200D01*
X121914285Y-81137200D02*
X121819047Y-81184819D01*
X121819047Y-81184819D02*
X121533333Y-81184819D01*
X121533333Y-81184819D02*
X121438095Y-81137200D01*
X121438095Y-81137200D02*
X121390476Y-81089580D01*
X122961904Y-81184819D02*
X122390476Y-81184819D01*
X122676190Y-81184819D02*
X122676190Y-80184819D01*
X122676190Y-80184819D02*
X122580952Y-80327676D01*
X122580952Y-80327676D02*
X122485714Y-80422914D01*
X122485714Y-80422914D02*
X122390476Y-80470533D01*
X128382142Y-70354819D02*
X128048809Y-69878628D01*
X127810714Y-70354819D02*
X127810714Y-69354819D01*
X127810714Y-69354819D02*
X128191666Y-69354819D01*
X128191666Y-69354819D02*
X128286904Y-69402438D01*
X128286904Y-69402438D02*
X128334523Y-69450057D01*
X128334523Y-69450057D02*
X128382142Y-69545295D01*
X128382142Y-69545295D02*
X128382142Y-69688152D01*
X128382142Y-69688152D02*
X128334523Y-69783390D01*
X128334523Y-69783390D02*
X128286904Y-69831009D01*
X128286904Y-69831009D02*
X128191666Y-69878628D01*
X128191666Y-69878628D02*
X127810714Y-69878628D01*
X128715476Y-69354819D02*
X129334523Y-69354819D01*
X129334523Y-69354819D02*
X129001190Y-69735771D01*
X129001190Y-69735771D02*
X129144047Y-69735771D01*
X129144047Y-69735771D02*
X129239285Y-69783390D01*
X129239285Y-69783390D02*
X129286904Y-69831009D01*
X129286904Y-69831009D02*
X129334523Y-69926247D01*
X129334523Y-69926247D02*
X129334523Y-70164342D01*
X129334523Y-70164342D02*
X129286904Y-70259580D01*
X129286904Y-70259580D02*
X129239285Y-70307200D01*
X129239285Y-70307200D02*
X129144047Y-70354819D01*
X129144047Y-70354819D02*
X128858333Y-70354819D01*
X128858333Y-70354819D02*
X128763095Y-70307200D01*
X128763095Y-70307200D02*
X128715476Y-70259580D01*
X129953571Y-69354819D02*
X130048809Y-69354819D01*
X130048809Y-69354819D02*
X130144047Y-69402438D01*
X130144047Y-69402438D02*
X130191666Y-69450057D01*
X130191666Y-69450057D02*
X130239285Y-69545295D01*
X130239285Y-69545295D02*
X130286904Y-69735771D01*
X130286904Y-69735771D02*
X130286904Y-69973866D01*
X130286904Y-69973866D02*
X130239285Y-70164342D01*
X130239285Y-70164342D02*
X130191666Y-70259580D01*
X130191666Y-70259580D02*
X130144047Y-70307200D01*
X130144047Y-70307200D02*
X130048809Y-70354819D01*
X130048809Y-70354819D02*
X129953571Y-70354819D01*
X129953571Y-70354819D02*
X129858333Y-70307200D01*
X129858333Y-70307200D02*
X129810714Y-70259580D01*
X129810714Y-70259580D02*
X129763095Y-70164342D01*
X129763095Y-70164342D02*
X129715476Y-69973866D01*
X129715476Y-69973866D02*
X129715476Y-69735771D01*
X129715476Y-69735771D02*
X129763095Y-69545295D01*
X129763095Y-69545295D02*
X129810714Y-69450057D01*
X129810714Y-69450057D02*
X129858333Y-69402438D01*
X129858333Y-69402438D02*
X129953571Y-69354819D01*
X128157142Y-76784819D02*
X127823809Y-76308628D01*
X127585714Y-76784819D02*
X127585714Y-75784819D01*
X127585714Y-75784819D02*
X127966666Y-75784819D01*
X127966666Y-75784819D02*
X128061904Y-75832438D01*
X128061904Y-75832438D02*
X128109523Y-75880057D01*
X128109523Y-75880057D02*
X128157142Y-75975295D01*
X128157142Y-75975295D02*
X128157142Y-76118152D01*
X128157142Y-76118152D02*
X128109523Y-76213390D01*
X128109523Y-76213390D02*
X128061904Y-76261009D01*
X128061904Y-76261009D02*
X127966666Y-76308628D01*
X127966666Y-76308628D02*
X127585714Y-76308628D01*
X128538095Y-75880057D02*
X128585714Y-75832438D01*
X128585714Y-75832438D02*
X128680952Y-75784819D01*
X128680952Y-75784819D02*
X128919047Y-75784819D01*
X128919047Y-75784819D02*
X129014285Y-75832438D01*
X129014285Y-75832438D02*
X129061904Y-75880057D01*
X129061904Y-75880057D02*
X129109523Y-75975295D01*
X129109523Y-75975295D02*
X129109523Y-76070533D01*
X129109523Y-76070533D02*
X129061904Y-76213390D01*
X129061904Y-76213390D02*
X128490476Y-76784819D01*
X128490476Y-76784819D02*
X129109523Y-76784819D01*
X129585714Y-76784819D02*
X129776190Y-76784819D01*
X129776190Y-76784819D02*
X129871428Y-76737200D01*
X129871428Y-76737200D02*
X129919047Y-76689580D01*
X129919047Y-76689580D02*
X130014285Y-76546723D01*
X130014285Y-76546723D02*
X130061904Y-76356247D01*
X130061904Y-76356247D02*
X130061904Y-75975295D01*
X130061904Y-75975295D02*
X130014285Y-75880057D01*
X130014285Y-75880057D02*
X129966666Y-75832438D01*
X129966666Y-75832438D02*
X129871428Y-75784819D01*
X129871428Y-75784819D02*
X129680952Y-75784819D01*
X129680952Y-75784819D02*
X129585714Y-75832438D01*
X129585714Y-75832438D02*
X129538095Y-75880057D01*
X129538095Y-75880057D02*
X129490476Y-75975295D01*
X129490476Y-75975295D02*
X129490476Y-76213390D01*
X129490476Y-76213390D02*
X129538095Y-76308628D01*
X129538095Y-76308628D02*
X129585714Y-76356247D01*
X129585714Y-76356247D02*
X129680952Y-76403866D01*
X129680952Y-76403866D02*
X129871428Y-76403866D01*
X129871428Y-76403866D02*
X129966666Y-76356247D01*
X129966666Y-76356247D02*
X130014285Y-76308628D01*
X130014285Y-76308628D02*
X130061904Y-76213390D01*
X107357142Y-58554819D02*
X107023809Y-58078628D01*
X106785714Y-58554819D02*
X106785714Y-57554819D01*
X106785714Y-57554819D02*
X107166666Y-57554819D01*
X107166666Y-57554819D02*
X107261904Y-57602438D01*
X107261904Y-57602438D02*
X107309523Y-57650057D01*
X107309523Y-57650057D02*
X107357142Y-57745295D01*
X107357142Y-57745295D02*
X107357142Y-57888152D01*
X107357142Y-57888152D02*
X107309523Y-57983390D01*
X107309523Y-57983390D02*
X107261904Y-58031009D01*
X107261904Y-58031009D02*
X107166666Y-58078628D01*
X107166666Y-58078628D02*
X106785714Y-58078628D01*
X107738095Y-57650057D02*
X107785714Y-57602438D01*
X107785714Y-57602438D02*
X107880952Y-57554819D01*
X107880952Y-57554819D02*
X108119047Y-57554819D01*
X108119047Y-57554819D02*
X108214285Y-57602438D01*
X108214285Y-57602438D02*
X108261904Y-57650057D01*
X108261904Y-57650057D02*
X108309523Y-57745295D01*
X108309523Y-57745295D02*
X108309523Y-57840533D01*
X108309523Y-57840533D02*
X108261904Y-57983390D01*
X108261904Y-57983390D02*
X107690476Y-58554819D01*
X107690476Y-58554819D02*
X108309523Y-58554819D01*
X108642857Y-57554819D02*
X109309523Y-57554819D01*
X109309523Y-57554819D02*
X108880952Y-58554819D01*
X113957142Y-75584819D02*
X113623809Y-75108628D01*
X113385714Y-75584819D02*
X113385714Y-74584819D01*
X113385714Y-74584819D02*
X113766666Y-74584819D01*
X113766666Y-74584819D02*
X113861904Y-74632438D01*
X113861904Y-74632438D02*
X113909523Y-74680057D01*
X113909523Y-74680057D02*
X113957142Y-74775295D01*
X113957142Y-74775295D02*
X113957142Y-74918152D01*
X113957142Y-74918152D02*
X113909523Y-75013390D01*
X113909523Y-75013390D02*
X113861904Y-75061009D01*
X113861904Y-75061009D02*
X113766666Y-75108628D01*
X113766666Y-75108628D02*
X113385714Y-75108628D01*
X114338095Y-74680057D02*
X114385714Y-74632438D01*
X114385714Y-74632438D02*
X114480952Y-74584819D01*
X114480952Y-74584819D02*
X114719047Y-74584819D01*
X114719047Y-74584819D02*
X114814285Y-74632438D01*
X114814285Y-74632438D02*
X114861904Y-74680057D01*
X114861904Y-74680057D02*
X114909523Y-74775295D01*
X114909523Y-74775295D02*
X114909523Y-74870533D01*
X114909523Y-74870533D02*
X114861904Y-75013390D01*
X114861904Y-75013390D02*
X114290476Y-75584819D01*
X114290476Y-75584819D02*
X114909523Y-75584819D01*
X115766666Y-74584819D02*
X115576190Y-74584819D01*
X115576190Y-74584819D02*
X115480952Y-74632438D01*
X115480952Y-74632438D02*
X115433333Y-74680057D01*
X115433333Y-74680057D02*
X115338095Y-74822914D01*
X115338095Y-74822914D02*
X115290476Y-75013390D01*
X115290476Y-75013390D02*
X115290476Y-75394342D01*
X115290476Y-75394342D02*
X115338095Y-75489580D01*
X115338095Y-75489580D02*
X115385714Y-75537200D01*
X115385714Y-75537200D02*
X115480952Y-75584819D01*
X115480952Y-75584819D02*
X115671428Y-75584819D01*
X115671428Y-75584819D02*
X115766666Y-75537200D01*
X115766666Y-75537200D02*
X115814285Y-75489580D01*
X115814285Y-75489580D02*
X115861904Y-75394342D01*
X115861904Y-75394342D02*
X115861904Y-75156247D01*
X115861904Y-75156247D02*
X115814285Y-75061009D01*
X115814285Y-75061009D02*
X115766666Y-75013390D01*
X115766666Y-75013390D02*
X115671428Y-74965771D01*
X115671428Y-74965771D02*
X115480952Y-74965771D01*
X115480952Y-74965771D02*
X115385714Y-75013390D01*
X115385714Y-75013390D02*
X115338095Y-75061009D01*
X115338095Y-75061009D02*
X115290476Y-75156247D01*
X102957142Y-58654819D02*
X102623809Y-58178628D01*
X102385714Y-58654819D02*
X102385714Y-57654819D01*
X102385714Y-57654819D02*
X102766666Y-57654819D01*
X102766666Y-57654819D02*
X102861904Y-57702438D01*
X102861904Y-57702438D02*
X102909523Y-57750057D01*
X102909523Y-57750057D02*
X102957142Y-57845295D01*
X102957142Y-57845295D02*
X102957142Y-57988152D01*
X102957142Y-57988152D02*
X102909523Y-58083390D01*
X102909523Y-58083390D02*
X102861904Y-58131009D01*
X102861904Y-58131009D02*
X102766666Y-58178628D01*
X102766666Y-58178628D02*
X102385714Y-58178628D01*
X103338095Y-57750057D02*
X103385714Y-57702438D01*
X103385714Y-57702438D02*
X103480952Y-57654819D01*
X103480952Y-57654819D02*
X103719047Y-57654819D01*
X103719047Y-57654819D02*
X103814285Y-57702438D01*
X103814285Y-57702438D02*
X103861904Y-57750057D01*
X103861904Y-57750057D02*
X103909523Y-57845295D01*
X103909523Y-57845295D02*
X103909523Y-57940533D01*
X103909523Y-57940533D02*
X103861904Y-58083390D01*
X103861904Y-58083390D02*
X103290476Y-58654819D01*
X103290476Y-58654819D02*
X103909523Y-58654819D01*
X104814285Y-57654819D02*
X104338095Y-57654819D01*
X104338095Y-57654819D02*
X104290476Y-58131009D01*
X104290476Y-58131009D02*
X104338095Y-58083390D01*
X104338095Y-58083390D02*
X104433333Y-58035771D01*
X104433333Y-58035771D02*
X104671428Y-58035771D01*
X104671428Y-58035771D02*
X104766666Y-58083390D01*
X104766666Y-58083390D02*
X104814285Y-58131009D01*
X104814285Y-58131009D02*
X104861904Y-58226247D01*
X104861904Y-58226247D02*
X104861904Y-58464342D01*
X104861904Y-58464342D02*
X104814285Y-58559580D01*
X104814285Y-58559580D02*
X104766666Y-58607200D01*
X104766666Y-58607200D02*
X104671428Y-58654819D01*
X104671428Y-58654819D02*
X104433333Y-58654819D01*
X104433333Y-58654819D02*
X104338095Y-58607200D01*
X104338095Y-58607200D02*
X104290476Y-58559580D01*
X98282142Y-58779819D02*
X97948809Y-58303628D01*
X97710714Y-58779819D02*
X97710714Y-57779819D01*
X97710714Y-57779819D02*
X98091666Y-57779819D01*
X98091666Y-57779819D02*
X98186904Y-57827438D01*
X98186904Y-57827438D02*
X98234523Y-57875057D01*
X98234523Y-57875057D02*
X98282142Y-57970295D01*
X98282142Y-57970295D02*
X98282142Y-58113152D01*
X98282142Y-58113152D02*
X98234523Y-58208390D01*
X98234523Y-58208390D02*
X98186904Y-58256009D01*
X98186904Y-58256009D02*
X98091666Y-58303628D01*
X98091666Y-58303628D02*
X97710714Y-58303628D01*
X98663095Y-57875057D02*
X98710714Y-57827438D01*
X98710714Y-57827438D02*
X98805952Y-57779819D01*
X98805952Y-57779819D02*
X99044047Y-57779819D01*
X99044047Y-57779819D02*
X99139285Y-57827438D01*
X99139285Y-57827438D02*
X99186904Y-57875057D01*
X99186904Y-57875057D02*
X99234523Y-57970295D01*
X99234523Y-57970295D02*
X99234523Y-58065533D01*
X99234523Y-58065533D02*
X99186904Y-58208390D01*
X99186904Y-58208390D02*
X98615476Y-58779819D01*
X98615476Y-58779819D02*
X99234523Y-58779819D01*
X100091666Y-58113152D02*
X100091666Y-58779819D01*
X99853571Y-57732200D02*
X99615476Y-58446485D01*
X99615476Y-58446485D02*
X100234523Y-58446485D01*
X118324819Y-86342857D02*
X117848628Y-86676190D01*
X118324819Y-86914285D02*
X117324819Y-86914285D01*
X117324819Y-86914285D02*
X117324819Y-86533333D01*
X117324819Y-86533333D02*
X117372438Y-86438095D01*
X117372438Y-86438095D02*
X117420057Y-86390476D01*
X117420057Y-86390476D02*
X117515295Y-86342857D01*
X117515295Y-86342857D02*
X117658152Y-86342857D01*
X117658152Y-86342857D02*
X117753390Y-86390476D01*
X117753390Y-86390476D02*
X117801009Y-86438095D01*
X117801009Y-86438095D02*
X117848628Y-86533333D01*
X117848628Y-86533333D02*
X117848628Y-86914285D01*
X117420057Y-85961904D02*
X117372438Y-85914285D01*
X117372438Y-85914285D02*
X117324819Y-85819047D01*
X117324819Y-85819047D02*
X117324819Y-85580952D01*
X117324819Y-85580952D02*
X117372438Y-85485714D01*
X117372438Y-85485714D02*
X117420057Y-85438095D01*
X117420057Y-85438095D02*
X117515295Y-85390476D01*
X117515295Y-85390476D02*
X117610533Y-85390476D01*
X117610533Y-85390476D02*
X117753390Y-85438095D01*
X117753390Y-85438095D02*
X118324819Y-86009523D01*
X118324819Y-86009523D02*
X118324819Y-85390476D01*
X117324819Y-85057142D02*
X117324819Y-84438095D01*
X117324819Y-84438095D02*
X117705771Y-84771428D01*
X117705771Y-84771428D02*
X117705771Y-84628571D01*
X117705771Y-84628571D02*
X117753390Y-84533333D01*
X117753390Y-84533333D02*
X117801009Y-84485714D01*
X117801009Y-84485714D02*
X117896247Y-84438095D01*
X117896247Y-84438095D02*
X118134342Y-84438095D01*
X118134342Y-84438095D02*
X118229580Y-84485714D01*
X118229580Y-84485714D02*
X118277200Y-84533333D01*
X118277200Y-84533333D02*
X118324819Y-84628571D01*
X118324819Y-84628571D02*
X118324819Y-84914285D01*
X118324819Y-84914285D02*
X118277200Y-85009523D01*
X118277200Y-85009523D02*
X118229580Y-85057142D01*
X124282142Y-86054819D02*
X123948809Y-85578628D01*
X123710714Y-86054819D02*
X123710714Y-85054819D01*
X123710714Y-85054819D02*
X124091666Y-85054819D01*
X124091666Y-85054819D02*
X124186904Y-85102438D01*
X124186904Y-85102438D02*
X124234523Y-85150057D01*
X124234523Y-85150057D02*
X124282142Y-85245295D01*
X124282142Y-85245295D02*
X124282142Y-85388152D01*
X124282142Y-85388152D02*
X124234523Y-85483390D01*
X124234523Y-85483390D02*
X124186904Y-85531009D01*
X124186904Y-85531009D02*
X124091666Y-85578628D01*
X124091666Y-85578628D02*
X123710714Y-85578628D01*
X124663095Y-85150057D02*
X124710714Y-85102438D01*
X124710714Y-85102438D02*
X124805952Y-85054819D01*
X124805952Y-85054819D02*
X125044047Y-85054819D01*
X125044047Y-85054819D02*
X125139285Y-85102438D01*
X125139285Y-85102438D02*
X125186904Y-85150057D01*
X125186904Y-85150057D02*
X125234523Y-85245295D01*
X125234523Y-85245295D02*
X125234523Y-85340533D01*
X125234523Y-85340533D02*
X125186904Y-85483390D01*
X125186904Y-85483390D02*
X124615476Y-86054819D01*
X124615476Y-86054819D02*
X125234523Y-86054819D01*
X125615476Y-85150057D02*
X125663095Y-85102438D01*
X125663095Y-85102438D02*
X125758333Y-85054819D01*
X125758333Y-85054819D02*
X125996428Y-85054819D01*
X125996428Y-85054819D02*
X126091666Y-85102438D01*
X126091666Y-85102438D02*
X126139285Y-85150057D01*
X126139285Y-85150057D02*
X126186904Y-85245295D01*
X126186904Y-85245295D02*
X126186904Y-85340533D01*
X126186904Y-85340533D02*
X126139285Y-85483390D01*
X126139285Y-85483390D02*
X125567857Y-86054819D01*
X125567857Y-86054819D02*
X126186904Y-86054819D01*
X121157142Y-96784819D02*
X120823809Y-96308628D01*
X120585714Y-96784819D02*
X120585714Y-95784819D01*
X120585714Y-95784819D02*
X120966666Y-95784819D01*
X120966666Y-95784819D02*
X121061904Y-95832438D01*
X121061904Y-95832438D02*
X121109523Y-95880057D01*
X121109523Y-95880057D02*
X121157142Y-95975295D01*
X121157142Y-95975295D02*
X121157142Y-96118152D01*
X121157142Y-96118152D02*
X121109523Y-96213390D01*
X121109523Y-96213390D02*
X121061904Y-96261009D01*
X121061904Y-96261009D02*
X120966666Y-96308628D01*
X120966666Y-96308628D02*
X120585714Y-96308628D01*
X121538095Y-95880057D02*
X121585714Y-95832438D01*
X121585714Y-95832438D02*
X121680952Y-95784819D01*
X121680952Y-95784819D02*
X121919047Y-95784819D01*
X121919047Y-95784819D02*
X122014285Y-95832438D01*
X122014285Y-95832438D02*
X122061904Y-95880057D01*
X122061904Y-95880057D02*
X122109523Y-95975295D01*
X122109523Y-95975295D02*
X122109523Y-96070533D01*
X122109523Y-96070533D02*
X122061904Y-96213390D01*
X122061904Y-96213390D02*
X121490476Y-96784819D01*
X121490476Y-96784819D02*
X122109523Y-96784819D01*
X123061904Y-96784819D02*
X122490476Y-96784819D01*
X122776190Y-96784819D02*
X122776190Y-95784819D01*
X122776190Y-95784819D02*
X122680952Y-95927676D01*
X122680952Y-95927676D02*
X122585714Y-96022914D01*
X122585714Y-96022914D02*
X122490476Y-96070533D01*
X127682142Y-86054819D02*
X127348809Y-85578628D01*
X127110714Y-86054819D02*
X127110714Y-85054819D01*
X127110714Y-85054819D02*
X127491666Y-85054819D01*
X127491666Y-85054819D02*
X127586904Y-85102438D01*
X127586904Y-85102438D02*
X127634523Y-85150057D01*
X127634523Y-85150057D02*
X127682142Y-85245295D01*
X127682142Y-85245295D02*
X127682142Y-85388152D01*
X127682142Y-85388152D02*
X127634523Y-85483390D01*
X127634523Y-85483390D02*
X127586904Y-85531009D01*
X127586904Y-85531009D02*
X127491666Y-85578628D01*
X127491666Y-85578628D02*
X127110714Y-85578628D01*
X128063095Y-85150057D02*
X128110714Y-85102438D01*
X128110714Y-85102438D02*
X128205952Y-85054819D01*
X128205952Y-85054819D02*
X128444047Y-85054819D01*
X128444047Y-85054819D02*
X128539285Y-85102438D01*
X128539285Y-85102438D02*
X128586904Y-85150057D01*
X128586904Y-85150057D02*
X128634523Y-85245295D01*
X128634523Y-85245295D02*
X128634523Y-85340533D01*
X128634523Y-85340533D02*
X128586904Y-85483390D01*
X128586904Y-85483390D02*
X128015476Y-86054819D01*
X128015476Y-86054819D02*
X128634523Y-86054819D01*
X129253571Y-85054819D02*
X129348809Y-85054819D01*
X129348809Y-85054819D02*
X129444047Y-85102438D01*
X129444047Y-85102438D02*
X129491666Y-85150057D01*
X129491666Y-85150057D02*
X129539285Y-85245295D01*
X129539285Y-85245295D02*
X129586904Y-85435771D01*
X129586904Y-85435771D02*
X129586904Y-85673866D01*
X129586904Y-85673866D02*
X129539285Y-85864342D01*
X129539285Y-85864342D02*
X129491666Y-85959580D01*
X129491666Y-85959580D02*
X129444047Y-86007200D01*
X129444047Y-86007200D02*
X129348809Y-86054819D01*
X129348809Y-86054819D02*
X129253571Y-86054819D01*
X129253571Y-86054819D02*
X129158333Y-86007200D01*
X129158333Y-86007200D02*
X129110714Y-85959580D01*
X129110714Y-85959580D02*
X129063095Y-85864342D01*
X129063095Y-85864342D02*
X129015476Y-85673866D01*
X129015476Y-85673866D02*
X129015476Y-85435771D01*
X129015476Y-85435771D02*
X129063095Y-85245295D01*
X129063095Y-85245295D02*
X129110714Y-85150057D01*
X129110714Y-85150057D02*
X129158333Y-85102438D01*
X129158333Y-85102438D02*
X129253571Y-85054819D01*
X128257142Y-92384819D02*
X127923809Y-91908628D01*
X127685714Y-92384819D02*
X127685714Y-91384819D01*
X127685714Y-91384819D02*
X128066666Y-91384819D01*
X128066666Y-91384819D02*
X128161904Y-91432438D01*
X128161904Y-91432438D02*
X128209523Y-91480057D01*
X128209523Y-91480057D02*
X128257142Y-91575295D01*
X128257142Y-91575295D02*
X128257142Y-91718152D01*
X128257142Y-91718152D02*
X128209523Y-91813390D01*
X128209523Y-91813390D02*
X128161904Y-91861009D01*
X128161904Y-91861009D02*
X128066666Y-91908628D01*
X128066666Y-91908628D02*
X127685714Y-91908628D01*
X129209523Y-92384819D02*
X128638095Y-92384819D01*
X128923809Y-92384819D02*
X128923809Y-91384819D01*
X128923809Y-91384819D02*
X128828571Y-91527676D01*
X128828571Y-91527676D02*
X128733333Y-91622914D01*
X128733333Y-91622914D02*
X128638095Y-91670533D01*
X129685714Y-92384819D02*
X129876190Y-92384819D01*
X129876190Y-92384819D02*
X129971428Y-92337200D01*
X129971428Y-92337200D02*
X130019047Y-92289580D01*
X130019047Y-92289580D02*
X130114285Y-92146723D01*
X130114285Y-92146723D02*
X130161904Y-91956247D01*
X130161904Y-91956247D02*
X130161904Y-91575295D01*
X130161904Y-91575295D02*
X130114285Y-91480057D01*
X130114285Y-91480057D02*
X130066666Y-91432438D01*
X130066666Y-91432438D02*
X129971428Y-91384819D01*
X129971428Y-91384819D02*
X129780952Y-91384819D01*
X129780952Y-91384819D02*
X129685714Y-91432438D01*
X129685714Y-91432438D02*
X129638095Y-91480057D01*
X129638095Y-91480057D02*
X129590476Y-91575295D01*
X129590476Y-91575295D02*
X129590476Y-91813390D01*
X129590476Y-91813390D02*
X129638095Y-91908628D01*
X129638095Y-91908628D02*
X129685714Y-91956247D01*
X129685714Y-91956247D02*
X129780952Y-92003866D01*
X129780952Y-92003866D02*
X129971428Y-92003866D01*
X129971428Y-92003866D02*
X130066666Y-91956247D01*
X130066666Y-91956247D02*
X130114285Y-91908628D01*
X130114285Y-91908628D02*
X130161904Y-91813390D01*
X128724819Y-65942857D02*
X128248628Y-66276190D01*
X128724819Y-66514285D02*
X127724819Y-66514285D01*
X127724819Y-66514285D02*
X127724819Y-66133333D01*
X127724819Y-66133333D02*
X127772438Y-66038095D01*
X127772438Y-66038095D02*
X127820057Y-65990476D01*
X127820057Y-65990476D02*
X127915295Y-65942857D01*
X127915295Y-65942857D02*
X128058152Y-65942857D01*
X128058152Y-65942857D02*
X128153390Y-65990476D01*
X128153390Y-65990476D02*
X128201009Y-66038095D01*
X128201009Y-66038095D02*
X128248628Y-66133333D01*
X128248628Y-66133333D02*
X128248628Y-66514285D01*
X128724819Y-64990476D02*
X128724819Y-65561904D01*
X128724819Y-65276190D02*
X127724819Y-65276190D01*
X127724819Y-65276190D02*
X127867676Y-65371428D01*
X127867676Y-65371428D02*
X127962914Y-65466666D01*
X127962914Y-65466666D02*
X128010533Y-65561904D01*
X128153390Y-64419047D02*
X128105771Y-64514285D01*
X128105771Y-64514285D02*
X128058152Y-64561904D01*
X128058152Y-64561904D02*
X127962914Y-64609523D01*
X127962914Y-64609523D02*
X127915295Y-64609523D01*
X127915295Y-64609523D02*
X127820057Y-64561904D01*
X127820057Y-64561904D02*
X127772438Y-64514285D01*
X127772438Y-64514285D02*
X127724819Y-64419047D01*
X127724819Y-64419047D02*
X127724819Y-64228571D01*
X127724819Y-64228571D02*
X127772438Y-64133333D01*
X127772438Y-64133333D02*
X127820057Y-64085714D01*
X127820057Y-64085714D02*
X127915295Y-64038095D01*
X127915295Y-64038095D02*
X127962914Y-64038095D01*
X127962914Y-64038095D02*
X128058152Y-64085714D01*
X128058152Y-64085714D02*
X128105771Y-64133333D01*
X128105771Y-64133333D02*
X128153390Y-64228571D01*
X128153390Y-64228571D02*
X128153390Y-64419047D01*
X128153390Y-64419047D02*
X128201009Y-64514285D01*
X128201009Y-64514285D02*
X128248628Y-64561904D01*
X128248628Y-64561904D02*
X128343866Y-64609523D01*
X128343866Y-64609523D02*
X128534342Y-64609523D01*
X128534342Y-64609523D02*
X128629580Y-64561904D01*
X128629580Y-64561904D02*
X128677200Y-64514285D01*
X128677200Y-64514285D02*
X128724819Y-64419047D01*
X128724819Y-64419047D02*
X128724819Y-64228571D01*
X128724819Y-64228571D02*
X128677200Y-64133333D01*
X128677200Y-64133333D02*
X128629580Y-64085714D01*
X128629580Y-64085714D02*
X128534342Y-64038095D01*
X128534342Y-64038095D02*
X128343866Y-64038095D01*
X128343866Y-64038095D02*
X128248628Y-64085714D01*
X128248628Y-64085714D02*
X128201009Y-64133333D01*
X128201009Y-64133333D02*
X128153390Y-64228571D01*
X128257142Y-59784819D02*
X127923809Y-59308628D01*
X127685714Y-59784819D02*
X127685714Y-58784819D01*
X127685714Y-58784819D02*
X128066666Y-58784819D01*
X128066666Y-58784819D02*
X128161904Y-58832438D01*
X128161904Y-58832438D02*
X128209523Y-58880057D01*
X128209523Y-58880057D02*
X128257142Y-58975295D01*
X128257142Y-58975295D02*
X128257142Y-59118152D01*
X128257142Y-59118152D02*
X128209523Y-59213390D01*
X128209523Y-59213390D02*
X128161904Y-59261009D01*
X128161904Y-59261009D02*
X128066666Y-59308628D01*
X128066666Y-59308628D02*
X127685714Y-59308628D01*
X129209523Y-59784819D02*
X128638095Y-59784819D01*
X128923809Y-59784819D02*
X128923809Y-58784819D01*
X128923809Y-58784819D02*
X128828571Y-58927676D01*
X128828571Y-58927676D02*
X128733333Y-59022914D01*
X128733333Y-59022914D02*
X128638095Y-59070533D01*
X129542857Y-58784819D02*
X130209523Y-58784819D01*
X130209523Y-58784819D02*
X129780952Y-59784819D01*
X128257142Y-63184819D02*
X127923809Y-62708628D01*
X127685714Y-63184819D02*
X127685714Y-62184819D01*
X127685714Y-62184819D02*
X128066666Y-62184819D01*
X128066666Y-62184819D02*
X128161904Y-62232438D01*
X128161904Y-62232438D02*
X128209523Y-62280057D01*
X128209523Y-62280057D02*
X128257142Y-62375295D01*
X128257142Y-62375295D02*
X128257142Y-62518152D01*
X128257142Y-62518152D02*
X128209523Y-62613390D01*
X128209523Y-62613390D02*
X128161904Y-62661009D01*
X128161904Y-62661009D02*
X128066666Y-62708628D01*
X128066666Y-62708628D02*
X127685714Y-62708628D01*
X129209523Y-63184819D02*
X128638095Y-63184819D01*
X128923809Y-63184819D02*
X128923809Y-62184819D01*
X128923809Y-62184819D02*
X128828571Y-62327676D01*
X128828571Y-62327676D02*
X128733333Y-62422914D01*
X128733333Y-62422914D02*
X128638095Y-62470533D01*
X130066666Y-62184819D02*
X129876190Y-62184819D01*
X129876190Y-62184819D02*
X129780952Y-62232438D01*
X129780952Y-62232438D02*
X129733333Y-62280057D01*
X129733333Y-62280057D02*
X129638095Y-62422914D01*
X129638095Y-62422914D02*
X129590476Y-62613390D01*
X129590476Y-62613390D02*
X129590476Y-62994342D01*
X129590476Y-62994342D02*
X129638095Y-63089580D01*
X129638095Y-63089580D02*
X129685714Y-63137200D01*
X129685714Y-63137200D02*
X129780952Y-63184819D01*
X129780952Y-63184819D02*
X129971428Y-63184819D01*
X129971428Y-63184819D02*
X130066666Y-63137200D01*
X130066666Y-63137200D02*
X130114285Y-63089580D01*
X130114285Y-63089580D02*
X130161904Y-62994342D01*
X130161904Y-62994342D02*
X130161904Y-62756247D01*
X130161904Y-62756247D02*
X130114285Y-62661009D01*
X130114285Y-62661009D02*
X130066666Y-62613390D01*
X130066666Y-62613390D02*
X129971428Y-62565771D01*
X129971428Y-62565771D02*
X129780952Y-62565771D01*
X129780952Y-62565771D02*
X129685714Y-62613390D01*
X129685714Y-62613390D02*
X129638095Y-62661009D01*
X129638095Y-62661009D02*
X129590476Y-62756247D01*
X106224819Y-87242857D02*
X105748628Y-87576190D01*
X106224819Y-87814285D02*
X105224819Y-87814285D01*
X105224819Y-87814285D02*
X105224819Y-87433333D01*
X105224819Y-87433333D02*
X105272438Y-87338095D01*
X105272438Y-87338095D02*
X105320057Y-87290476D01*
X105320057Y-87290476D02*
X105415295Y-87242857D01*
X105415295Y-87242857D02*
X105558152Y-87242857D01*
X105558152Y-87242857D02*
X105653390Y-87290476D01*
X105653390Y-87290476D02*
X105701009Y-87338095D01*
X105701009Y-87338095D02*
X105748628Y-87433333D01*
X105748628Y-87433333D02*
X105748628Y-87814285D01*
X106224819Y-86290476D02*
X106224819Y-86861904D01*
X106224819Y-86576190D02*
X105224819Y-86576190D01*
X105224819Y-86576190D02*
X105367676Y-86671428D01*
X105367676Y-86671428D02*
X105462914Y-86766666D01*
X105462914Y-86766666D02*
X105510533Y-86861904D01*
X106224819Y-85338095D02*
X106224819Y-85909523D01*
X106224819Y-85623809D02*
X105224819Y-85623809D01*
X105224819Y-85623809D02*
X105367676Y-85719047D01*
X105367676Y-85719047D02*
X105462914Y-85814285D01*
X105462914Y-85814285D02*
X105510533Y-85909523D01*
X105657142Y-82154819D02*
X105323809Y-81678628D01*
X105085714Y-82154819D02*
X105085714Y-81154819D01*
X105085714Y-81154819D02*
X105466666Y-81154819D01*
X105466666Y-81154819D02*
X105561904Y-81202438D01*
X105561904Y-81202438D02*
X105609523Y-81250057D01*
X105609523Y-81250057D02*
X105657142Y-81345295D01*
X105657142Y-81345295D02*
X105657142Y-81488152D01*
X105657142Y-81488152D02*
X105609523Y-81583390D01*
X105609523Y-81583390D02*
X105561904Y-81631009D01*
X105561904Y-81631009D02*
X105466666Y-81678628D01*
X105466666Y-81678628D02*
X105085714Y-81678628D01*
X106609523Y-82154819D02*
X106038095Y-82154819D01*
X106323809Y-82154819D02*
X106323809Y-81154819D01*
X106323809Y-81154819D02*
X106228571Y-81297676D01*
X106228571Y-81297676D02*
X106133333Y-81392914D01*
X106133333Y-81392914D02*
X106038095Y-81440533D01*
X107228571Y-81154819D02*
X107323809Y-81154819D01*
X107323809Y-81154819D02*
X107419047Y-81202438D01*
X107419047Y-81202438D02*
X107466666Y-81250057D01*
X107466666Y-81250057D02*
X107514285Y-81345295D01*
X107514285Y-81345295D02*
X107561904Y-81535771D01*
X107561904Y-81535771D02*
X107561904Y-81773866D01*
X107561904Y-81773866D02*
X107514285Y-81964342D01*
X107514285Y-81964342D02*
X107466666Y-82059580D01*
X107466666Y-82059580D02*
X107419047Y-82107200D01*
X107419047Y-82107200D02*
X107323809Y-82154819D01*
X107323809Y-82154819D02*
X107228571Y-82154819D01*
X107228571Y-82154819D02*
X107133333Y-82107200D01*
X107133333Y-82107200D02*
X107085714Y-82059580D01*
X107085714Y-82059580D02*
X107038095Y-81964342D01*
X107038095Y-81964342D02*
X106990476Y-81773866D01*
X106990476Y-81773866D02*
X106990476Y-81535771D01*
X106990476Y-81535771D02*
X107038095Y-81345295D01*
X107038095Y-81345295D02*
X107085714Y-81250057D01*
X107085714Y-81250057D02*
X107133333Y-81202438D01*
X107133333Y-81202438D02*
X107228571Y-81154819D01*
X106033333Y-90024819D02*
X105700000Y-89548628D01*
X105461905Y-90024819D02*
X105461905Y-89024819D01*
X105461905Y-89024819D02*
X105842857Y-89024819D01*
X105842857Y-89024819D02*
X105938095Y-89072438D01*
X105938095Y-89072438D02*
X105985714Y-89120057D01*
X105985714Y-89120057D02*
X106033333Y-89215295D01*
X106033333Y-89215295D02*
X106033333Y-89358152D01*
X106033333Y-89358152D02*
X105985714Y-89453390D01*
X105985714Y-89453390D02*
X105938095Y-89501009D01*
X105938095Y-89501009D02*
X105842857Y-89548628D01*
X105842857Y-89548628D02*
X105461905Y-89548628D01*
X106509524Y-90024819D02*
X106700000Y-90024819D01*
X106700000Y-90024819D02*
X106795238Y-89977200D01*
X106795238Y-89977200D02*
X106842857Y-89929580D01*
X106842857Y-89929580D02*
X106938095Y-89786723D01*
X106938095Y-89786723D02*
X106985714Y-89596247D01*
X106985714Y-89596247D02*
X106985714Y-89215295D01*
X106985714Y-89215295D02*
X106938095Y-89120057D01*
X106938095Y-89120057D02*
X106890476Y-89072438D01*
X106890476Y-89072438D02*
X106795238Y-89024819D01*
X106795238Y-89024819D02*
X106604762Y-89024819D01*
X106604762Y-89024819D02*
X106509524Y-89072438D01*
X106509524Y-89072438D02*
X106461905Y-89120057D01*
X106461905Y-89120057D02*
X106414286Y-89215295D01*
X106414286Y-89215295D02*
X106414286Y-89453390D01*
X106414286Y-89453390D02*
X106461905Y-89548628D01*
X106461905Y-89548628D02*
X106509524Y-89596247D01*
X106509524Y-89596247D02*
X106604762Y-89643866D01*
X106604762Y-89643866D02*
X106795238Y-89643866D01*
X106795238Y-89643866D02*
X106890476Y-89596247D01*
X106890476Y-89596247D02*
X106938095Y-89548628D01*
X106938095Y-89548628D02*
X106985714Y-89453390D01*
X87933333Y-82524819D02*
X87600000Y-82048628D01*
X87361905Y-82524819D02*
X87361905Y-81524819D01*
X87361905Y-81524819D02*
X87742857Y-81524819D01*
X87742857Y-81524819D02*
X87838095Y-81572438D01*
X87838095Y-81572438D02*
X87885714Y-81620057D01*
X87885714Y-81620057D02*
X87933333Y-81715295D01*
X87933333Y-81715295D02*
X87933333Y-81858152D01*
X87933333Y-81858152D02*
X87885714Y-81953390D01*
X87885714Y-81953390D02*
X87838095Y-82001009D01*
X87838095Y-82001009D02*
X87742857Y-82048628D01*
X87742857Y-82048628D02*
X87361905Y-82048628D01*
X88504762Y-81953390D02*
X88409524Y-81905771D01*
X88409524Y-81905771D02*
X88361905Y-81858152D01*
X88361905Y-81858152D02*
X88314286Y-81762914D01*
X88314286Y-81762914D02*
X88314286Y-81715295D01*
X88314286Y-81715295D02*
X88361905Y-81620057D01*
X88361905Y-81620057D02*
X88409524Y-81572438D01*
X88409524Y-81572438D02*
X88504762Y-81524819D01*
X88504762Y-81524819D02*
X88695238Y-81524819D01*
X88695238Y-81524819D02*
X88790476Y-81572438D01*
X88790476Y-81572438D02*
X88838095Y-81620057D01*
X88838095Y-81620057D02*
X88885714Y-81715295D01*
X88885714Y-81715295D02*
X88885714Y-81762914D01*
X88885714Y-81762914D02*
X88838095Y-81858152D01*
X88838095Y-81858152D02*
X88790476Y-81905771D01*
X88790476Y-81905771D02*
X88695238Y-81953390D01*
X88695238Y-81953390D02*
X88504762Y-81953390D01*
X88504762Y-81953390D02*
X88409524Y-82001009D01*
X88409524Y-82001009D02*
X88361905Y-82048628D01*
X88361905Y-82048628D02*
X88314286Y-82143866D01*
X88314286Y-82143866D02*
X88314286Y-82334342D01*
X88314286Y-82334342D02*
X88361905Y-82429580D01*
X88361905Y-82429580D02*
X88409524Y-82477200D01*
X88409524Y-82477200D02*
X88504762Y-82524819D01*
X88504762Y-82524819D02*
X88695238Y-82524819D01*
X88695238Y-82524819D02*
X88790476Y-82477200D01*
X88790476Y-82477200D02*
X88838095Y-82429580D01*
X88838095Y-82429580D02*
X88885714Y-82334342D01*
X88885714Y-82334342D02*
X88885714Y-82143866D01*
X88885714Y-82143866D02*
X88838095Y-82048628D01*
X88838095Y-82048628D02*
X88790476Y-82001009D01*
X88790476Y-82001009D02*
X88695238Y-81953390D01*
X85984819Y-81466666D02*
X85508628Y-81799999D01*
X85984819Y-82038094D02*
X84984819Y-82038094D01*
X84984819Y-82038094D02*
X84984819Y-81657142D01*
X84984819Y-81657142D02*
X85032438Y-81561904D01*
X85032438Y-81561904D02*
X85080057Y-81514285D01*
X85080057Y-81514285D02*
X85175295Y-81466666D01*
X85175295Y-81466666D02*
X85318152Y-81466666D01*
X85318152Y-81466666D02*
X85413390Y-81514285D01*
X85413390Y-81514285D02*
X85461009Y-81561904D01*
X85461009Y-81561904D02*
X85508628Y-81657142D01*
X85508628Y-81657142D02*
X85508628Y-82038094D01*
X84984819Y-81133332D02*
X84984819Y-80466666D01*
X84984819Y-80466666D02*
X85984819Y-80895237D01*
X101533333Y-79254819D02*
X101200000Y-78778628D01*
X100961905Y-79254819D02*
X100961905Y-78254819D01*
X100961905Y-78254819D02*
X101342857Y-78254819D01*
X101342857Y-78254819D02*
X101438095Y-78302438D01*
X101438095Y-78302438D02*
X101485714Y-78350057D01*
X101485714Y-78350057D02*
X101533333Y-78445295D01*
X101533333Y-78445295D02*
X101533333Y-78588152D01*
X101533333Y-78588152D02*
X101485714Y-78683390D01*
X101485714Y-78683390D02*
X101438095Y-78731009D01*
X101438095Y-78731009D02*
X101342857Y-78778628D01*
X101342857Y-78778628D02*
X100961905Y-78778628D01*
X102390476Y-78254819D02*
X102200000Y-78254819D01*
X102200000Y-78254819D02*
X102104762Y-78302438D01*
X102104762Y-78302438D02*
X102057143Y-78350057D01*
X102057143Y-78350057D02*
X101961905Y-78492914D01*
X101961905Y-78492914D02*
X101914286Y-78683390D01*
X101914286Y-78683390D02*
X101914286Y-79064342D01*
X101914286Y-79064342D02*
X101961905Y-79159580D01*
X101961905Y-79159580D02*
X102009524Y-79207200D01*
X102009524Y-79207200D02*
X102104762Y-79254819D01*
X102104762Y-79254819D02*
X102295238Y-79254819D01*
X102295238Y-79254819D02*
X102390476Y-79207200D01*
X102390476Y-79207200D02*
X102438095Y-79159580D01*
X102438095Y-79159580D02*
X102485714Y-79064342D01*
X102485714Y-79064342D02*
X102485714Y-78826247D01*
X102485714Y-78826247D02*
X102438095Y-78731009D01*
X102438095Y-78731009D02*
X102390476Y-78683390D01*
X102390476Y-78683390D02*
X102295238Y-78635771D01*
X102295238Y-78635771D02*
X102104762Y-78635771D01*
X102104762Y-78635771D02*
X102009524Y-78683390D01*
X102009524Y-78683390D02*
X101961905Y-78731009D01*
X101961905Y-78731009D02*
X101914286Y-78826247D01*
X85733333Y-75854819D02*
X85400000Y-75378628D01*
X85161905Y-75854819D02*
X85161905Y-74854819D01*
X85161905Y-74854819D02*
X85542857Y-74854819D01*
X85542857Y-74854819D02*
X85638095Y-74902438D01*
X85638095Y-74902438D02*
X85685714Y-74950057D01*
X85685714Y-74950057D02*
X85733333Y-75045295D01*
X85733333Y-75045295D02*
X85733333Y-75188152D01*
X85733333Y-75188152D02*
X85685714Y-75283390D01*
X85685714Y-75283390D02*
X85638095Y-75331009D01*
X85638095Y-75331009D02*
X85542857Y-75378628D01*
X85542857Y-75378628D02*
X85161905Y-75378628D01*
X86638095Y-74854819D02*
X86161905Y-74854819D01*
X86161905Y-74854819D02*
X86114286Y-75331009D01*
X86114286Y-75331009D02*
X86161905Y-75283390D01*
X86161905Y-75283390D02*
X86257143Y-75235771D01*
X86257143Y-75235771D02*
X86495238Y-75235771D01*
X86495238Y-75235771D02*
X86590476Y-75283390D01*
X86590476Y-75283390D02*
X86638095Y-75331009D01*
X86638095Y-75331009D02*
X86685714Y-75426247D01*
X86685714Y-75426247D02*
X86685714Y-75664342D01*
X86685714Y-75664342D02*
X86638095Y-75759580D01*
X86638095Y-75759580D02*
X86590476Y-75807200D01*
X86590476Y-75807200D02*
X86495238Y-75854819D01*
X86495238Y-75854819D02*
X86257143Y-75854819D01*
X86257143Y-75854819D02*
X86161905Y-75807200D01*
X86161905Y-75807200D02*
X86114286Y-75759580D01*
X87633333Y-72254819D02*
X87300000Y-71778628D01*
X87061905Y-72254819D02*
X87061905Y-71254819D01*
X87061905Y-71254819D02*
X87442857Y-71254819D01*
X87442857Y-71254819D02*
X87538095Y-71302438D01*
X87538095Y-71302438D02*
X87585714Y-71350057D01*
X87585714Y-71350057D02*
X87633333Y-71445295D01*
X87633333Y-71445295D02*
X87633333Y-71588152D01*
X87633333Y-71588152D02*
X87585714Y-71683390D01*
X87585714Y-71683390D02*
X87538095Y-71731009D01*
X87538095Y-71731009D02*
X87442857Y-71778628D01*
X87442857Y-71778628D02*
X87061905Y-71778628D01*
X88490476Y-71588152D02*
X88490476Y-72254819D01*
X88252381Y-71207200D02*
X88014286Y-71921485D01*
X88014286Y-71921485D02*
X88633333Y-71921485D01*
X98254819Y-60166666D02*
X97778628Y-60499999D01*
X98254819Y-60738094D02*
X97254819Y-60738094D01*
X97254819Y-60738094D02*
X97254819Y-60357142D01*
X97254819Y-60357142D02*
X97302438Y-60261904D01*
X97302438Y-60261904D02*
X97350057Y-60214285D01*
X97350057Y-60214285D02*
X97445295Y-60166666D01*
X97445295Y-60166666D02*
X97588152Y-60166666D01*
X97588152Y-60166666D02*
X97683390Y-60214285D01*
X97683390Y-60214285D02*
X97731009Y-60261904D01*
X97731009Y-60261904D02*
X97778628Y-60357142D01*
X97778628Y-60357142D02*
X97778628Y-60738094D01*
X97254819Y-59833332D02*
X97254819Y-59214285D01*
X97254819Y-59214285D02*
X97635771Y-59547618D01*
X97635771Y-59547618D02*
X97635771Y-59404761D01*
X97635771Y-59404761D02*
X97683390Y-59309523D01*
X97683390Y-59309523D02*
X97731009Y-59261904D01*
X97731009Y-59261904D02*
X97826247Y-59214285D01*
X97826247Y-59214285D02*
X98064342Y-59214285D01*
X98064342Y-59214285D02*
X98159580Y-59261904D01*
X98159580Y-59261904D02*
X98207200Y-59309523D01*
X98207200Y-59309523D02*
X98254819Y-59404761D01*
X98254819Y-59404761D02*
X98254819Y-59690475D01*
X98254819Y-59690475D02*
X98207200Y-59785713D01*
X98207200Y-59785713D02*
X98159580Y-59833332D01*
X98254819Y-63666666D02*
X97778628Y-63999999D01*
X98254819Y-64238094D02*
X97254819Y-64238094D01*
X97254819Y-64238094D02*
X97254819Y-63857142D01*
X97254819Y-63857142D02*
X97302438Y-63761904D01*
X97302438Y-63761904D02*
X97350057Y-63714285D01*
X97350057Y-63714285D02*
X97445295Y-63666666D01*
X97445295Y-63666666D02*
X97588152Y-63666666D01*
X97588152Y-63666666D02*
X97683390Y-63714285D01*
X97683390Y-63714285D02*
X97731009Y-63761904D01*
X97731009Y-63761904D02*
X97778628Y-63857142D01*
X97778628Y-63857142D02*
X97778628Y-64238094D01*
X97350057Y-63285713D02*
X97302438Y-63238094D01*
X97302438Y-63238094D02*
X97254819Y-63142856D01*
X97254819Y-63142856D02*
X97254819Y-62904761D01*
X97254819Y-62904761D02*
X97302438Y-62809523D01*
X97302438Y-62809523D02*
X97350057Y-62761904D01*
X97350057Y-62761904D02*
X97445295Y-62714285D01*
X97445295Y-62714285D02*
X97540533Y-62714285D01*
X97540533Y-62714285D02*
X97683390Y-62761904D01*
X97683390Y-62761904D02*
X98254819Y-63333332D01*
X98254819Y-63333332D02*
X98254819Y-62714285D01*
X88033333Y-56354819D02*
X87700000Y-55878628D01*
X87461905Y-56354819D02*
X87461905Y-55354819D01*
X87461905Y-55354819D02*
X87842857Y-55354819D01*
X87842857Y-55354819D02*
X87938095Y-55402438D01*
X87938095Y-55402438D02*
X87985714Y-55450057D01*
X87985714Y-55450057D02*
X88033333Y-55545295D01*
X88033333Y-55545295D02*
X88033333Y-55688152D01*
X88033333Y-55688152D02*
X87985714Y-55783390D01*
X87985714Y-55783390D02*
X87938095Y-55831009D01*
X87938095Y-55831009D02*
X87842857Y-55878628D01*
X87842857Y-55878628D02*
X87461905Y-55878628D01*
X88985714Y-56354819D02*
X88414286Y-56354819D01*
X88700000Y-56354819D02*
X88700000Y-55354819D01*
X88700000Y-55354819D02*
X88604762Y-55497676D01*
X88604762Y-55497676D02*
X88509524Y-55592914D01*
X88509524Y-55592914D02*
X88414286Y-55640533D01*
X102233333Y-90054819D02*
X101757143Y-90054819D01*
X101757143Y-90054819D02*
X101757143Y-89054819D01*
X103042857Y-89054819D02*
X102566667Y-89054819D01*
X102566667Y-89054819D02*
X102519048Y-89531009D01*
X102519048Y-89531009D02*
X102566667Y-89483390D01*
X102566667Y-89483390D02*
X102661905Y-89435771D01*
X102661905Y-89435771D02*
X102900000Y-89435771D01*
X102900000Y-89435771D02*
X102995238Y-89483390D01*
X102995238Y-89483390D02*
X103042857Y-89531009D01*
X103042857Y-89531009D02*
X103090476Y-89626247D01*
X103090476Y-89626247D02*
X103090476Y-89864342D01*
X103090476Y-89864342D02*
X103042857Y-89959580D01*
X103042857Y-89959580D02*
X102995238Y-90007200D01*
X102995238Y-90007200D02*
X102900000Y-90054819D01*
X102900000Y-90054819D02*
X102661905Y-90054819D01*
X102661905Y-90054819D02*
X102566667Y-90007200D01*
X102566667Y-90007200D02*
X102519048Y-89959580D01*
X102333333Y-93654819D02*
X101857143Y-93654819D01*
X101857143Y-93654819D02*
X101857143Y-92654819D01*
X103095238Y-92988152D02*
X103095238Y-93654819D01*
X102857143Y-92607200D02*
X102619048Y-93321485D01*
X102619048Y-93321485D02*
X103238095Y-93321485D01*
X89633333Y-93654819D02*
X89157143Y-93654819D01*
X89157143Y-93654819D02*
X89157143Y-92654819D01*
X89871429Y-92654819D02*
X90490476Y-92654819D01*
X90490476Y-92654819D02*
X90157143Y-93035771D01*
X90157143Y-93035771D02*
X90300000Y-93035771D01*
X90300000Y-93035771D02*
X90395238Y-93083390D01*
X90395238Y-93083390D02*
X90442857Y-93131009D01*
X90442857Y-93131009D02*
X90490476Y-93226247D01*
X90490476Y-93226247D02*
X90490476Y-93464342D01*
X90490476Y-93464342D02*
X90442857Y-93559580D01*
X90442857Y-93559580D02*
X90395238Y-93607200D01*
X90395238Y-93607200D02*
X90300000Y-93654819D01*
X90300000Y-93654819D02*
X90014286Y-93654819D01*
X90014286Y-93654819D02*
X89919048Y-93607200D01*
X89919048Y-93607200D02*
X89871429Y-93559580D01*
X89633333Y-90054819D02*
X89157143Y-90054819D01*
X89157143Y-90054819D02*
X89157143Y-89054819D01*
X89919048Y-89150057D02*
X89966667Y-89102438D01*
X89966667Y-89102438D02*
X90061905Y-89054819D01*
X90061905Y-89054819D02*
X90300000Y-89054819D01*
X90300000Y-89054819D02*
X90395238Y-89102438D01*
X90395238Y-89102438D02*
X90442857Y-89150057D01*
X90442857Y-89150057D02*
X90490476Y-89245295D01*
X90490476Y-89245295D02*
X90490476Y-89340533D01*
X90490476Y-89340533D02*
X90442857Y-89483390D01*
X90442857Y-89483390D02*
X89871429Y-90054819D01*
X89871429Y-90054819D02*
X90490476Y-90054819D01*
X88333333Y-65454819D02*
X87857143Y-65454819D01*
X87857143Y-65454819D02*
X87857143Y-64454819D01*
X89190476Y-65454819D02*
X88619048Y-65454819D01*
X88904762Y-65454819D02*
X88904762Y-64454819D01*
X88904762Y-64454819D02*
X88809524Y-64597676D01*
X88809524Y-64597676D02*
X88714286Y-64692914D01*
X88714286Y-64692914D02*
X88619048Y-64740533D01*
X76666666Y-71554819D02*
X76666666Y-72269104D01*
X76666666Y-72269104D02*
X76619047Y-72411961D01*
X76619047Y-72411961D02*
X76523809Y-72507200D01*
X76523809Y-72507200D02*
X76380952Y-72554819D01*
X76380952Y-72554819D02*
X76285714Y-72554819D01*
X77619047Y-71554819D02*
X77142857Y-71554819D01*
X77142857Y-71554819D02*
X77095238Y-72031009D01*
X77095238Y-72031009D02*
X77142857Y-71983390D01*
X77142857Y-71983390D02*
X77238095Y-71935771D01*
X77238095Y-71935771D02*
X77476190Y-71935771D01*
X77476190Y-71935771D02*
X77571428Y-71983390D01*
X77571428Y-71983390D02*
X77619047Y-72031009D01*
X77619047Y-72031009D02*
X77666666Y-72126247D01*
X77666666Y-72126247D02*
X77666666Y-72364342D01*
X77666666Y-72364342D02*
X77619047Y-72459580D01*
X77619047Y-72459580D02*
X77571428Y-72507200D01*
X77571428Y-72507200D02*
X77476190Y-72554819D01*
X77476190Y-72554819D02*
X77238095Y-72554819D01*
X77238095Y-72554819D02*
X77142857Y-72507200D01*
X77142857Y-72507200D02*
X77095238Y-72459580D01*
X140166666Y-87554819D02*
X140166666Y-88269104D01*
X140166666Y-88269104D02*
X140119047Y-88411961D01*
X140119047Y-88411961D02*
X140023809Y-88507200D01*
X140023809Y-88507200D02*
X139880952Y-88554819D01*
X139880952Y-88554819D02*
X139785714Y-88554819D01*
X141071428Y-87888152D02*
X141071428Y-88554819D01*
X140833333Y-87507200D02*
X140595238Y-88221485D01*
X140595238Y-88221485D02*
X141214285Y-88221485D01*
X140166666Y-73054819D02*
X140166666Y-73769104D01*
X140166666Y-73769104D02*
X140119047Y-73911961D01*
X140119047Y-73911961D02*
X140023809Y-74007200D01*
X140023809Y-74007200D02*
X139880952Y-74054819D01*
X139880952Y-74054819D02*
X139785714Y-74054819D01*
X140547619Y-73054819D02*
X141166666Y-73054819D01*
X141166666Y-73054819D02*
X140833333Y-73435771D01*
X140833333Y-73435771D02*
X140976190Y-73435771D01*
X140976190Y-73435771D02*
X141071428Y-73483390D01*
X141071428Y-73483390D02*
X141119047Y-73531009D01*
X141119047Y-73531009D02*
X141166666Y-73626247D01*
X141166666Y-73626247D02*
X141166666Y-73864342D01*
X141166666Y-73864342D02*
X141119047Y-73959580D01*
X141119047Y-73959580D02*
X141071428Y-74007200D01*
X141071428Y-74007200D02*
X140976190Y-74054819D01*
X140976190Y-74054819D02*
X140690476Y-74054819D01*
X140690476Y-74054819D02*
X140595238Y-74007200D01*
X140595238Y-74007200D02*
X140547619Y-73959580D01*
X140166666Y-58854819D02*
X140166666Y-59569104D01*
X140166666Y-59569104D02*
X140119047Y-59711961D01*
X140119047Y-59711961D02*
X140023809Y-59807200D01*
X140023809Y-59807200D02*
X139880952Y-59854819D01*
X139880952Y-59854819D02*
X139785714Y-59854819D01*
X140595238Y-58950057D02*
X140642857Y-58902438D01*
X140642857Y-58902438D02*
X140738095Y-58854819D01*
X140738095Y-58854819D02*
X140976190Y-58854819D01*
X140976190Y-58854819D02*
X141071428Y-58902438D01*
X141071428Y-58902438D02*
X141119047Y-58950057D01*
X141119047Y-58950057D02*
X141166666Y-59045295D01*
X141166666Y-59045295D02*
X141166666Y-59140533D01*
X141166666Y-59140533D02*
X141119047Y-59283390D01*
X141119047Y-59283390D02*
X140547619Y-59854819D01*
X140547619Y-59854819D02*
X141166666Y-59854819D01*
X76666666Y-54154819D02*
X76666666Y-54869104D01*
X76666666Y-54869104D02*
X76619047Y-55011961D01*
X76619047Y-55011961D02*
X76523809Y-55107200D01*
X76523809Y-55107200D02*
X76380952Y-55154819D01*
X76380952Y-55154819D02*
X76285714Y-55154819D01*
X77666666Y-55154819D02*
X77095238Y-55154819D01*
X77380952Y-55154819D02*
X77380952Y-54154819D01*
X77380952Y-54154819D02*
X77285714Y-54297676D01*
X77285714Y-54297676D02*
X77190476Y-54392914D01*
X77190476Y-54392914D02*
X77095238Y-54440533D01*
X107461905Y-61654819D02*
X107461905Y-60654819D01*
X107461905Y-60654819D02*
X107700000Y-60654819D01*
X107700000Y-60654819D02*
X107842857Y-60702438D01*
X107842857Y-60702438D02*
X107938095Y-60797676D01*
X107938095Y-60797676D02*
X107985714Y-60892914D01*
X107985714Y-60892914D02*
X108033333Y-61083390D01*
X108033333Y-61083390D02*
X108033333Y-61226247D01*
X108033333Y-61226247D02*
X107985714Y-61416723D01*
X107985714Y-61416723D02*
X107938095Y-61511961D01*
X107938095Y-61511961D02*
X107842857Y-61607200D01*
X107842857Y-61607200D02*
X107700000Y-61654819D01*
X107700000Y-61654819D02*
X107461905Y-61654819D01*
X108890476Y-60988152D02*
X108890476Y-61654819D01*
X108652381Y-60607200D02*
X108414286Y-61321485D01*
X108414286Y-61321485D02*
X109033333Y-61321485D01*
X103361905Y-61754819D02*
X103361905Y-60754819D01*
X103361905Y-60754819D02*
X103600000Y-60754819D01*
X103600000Y-60754819D02*
X103742857Y-60802438D01*
X103742857Y-60802438D02*
X103838095Y-60897676D01*
X103838095Y-60897676D02*
X103885714Y-60992914D01*
X103885714Y-60992914D02*
X103933333Y-61183390D01*
X103933333Y-61183390D02*
X103933333Y-61326247D01*
X103933333Y-61326247D02*
X103885714Y-61516723D01*
X103885714Y-61516723D02*
X103838095Y-61611961D01*
X103838095Y-61611961D02*
X103742857Y-61707200D01*
X103742857Y-61707200D02*
X103600000Y-61754819D01*
X103600000Y-61754819D02*
X103361905Y-61754819D01*
X104266667Y-60754819D02*
X104885714Y-60754819D01*
X104885714Y-60754819D02*
X104552381Y-61135771D01*
X104552381Y-61135771D02*
X104695238Y-61135771D01*
X104695238Y-61135771D02*
X104790476Y-61183390D01*
X104790476Y-61183390D02*
X104838095Y-61231009D01*
X104838095Y-61231009D02*
X104885714Y-61326247D01*
X104885714Y-61326247D02*
X104885714Y-61564342D01*
X104885714Y-61564342D02*
X104838095Y-61659580D01*
X104838095Y-61659580D02*
X104790476Y-61707200D01*
X104790476Y-61707200D02*
X104695238Y-61754819D01*
X104695238Y-61754819D02*
X104409524Y-61754819D01*
X104409524Y-61754819D02*
X104314286Y-61707200D01*
X104314286Y-61707200D02*
X104266667Y-61659580D01*
X98586905Y-61779819D02*
X98586905Y-60779819D01*
X98586905Y-60779819D02*
X98825000Y-60779819D01*
X98825000Y-60779819D02*
X98967857Y-60827438D01*
X98967857Y-60827438D02*
X99063095Y-60922676D01*
X99063095Y-60922676D02*
X99110714Y-61017914D01*
X99110714Y-61017914D02*
X99158333Y-61208390D01*
X99158333Y-61208390D02*
X99158333Y-61351247D01*
X99158333Y-61351247D02*
X99110714Y-61541723D01*
X99110714Y-61541723D02*
X99063095Y-61636961D01*
X99063095Y-61636961D02*
X98967857Y-61732200D01*
X98967857Y-61732200D02*
X98825000Y-61779819D01*
X98825000Y-61779819D02*
X98586905Y-61779819D01*
X99539286Y-60875057D02*
X99586905Y-60827438D01*
X99586905Y-60827438D02*
X99682143Y-60779819D01*
X99682143Y-60779819D02*
X99920238Y-60779819D01*
X99920238Y-60779819D02*
X100015476Y-60827438D01*
X100015476Y-60827438D02*
X100063095Y-60875057D01*
X100063095Y-60875057D02*
X100110714Y-60970295D01*
X100110714Y-60970295D02*
X100110714Y-61065533D01*
X100110714Y-61065533D02*
X100063095Y-61208390D01*
X100063095Y-61208390D02*
X99491667Y-61779819D01*
X99491667Y-61779819D02*
X100110714Y-61779819D01*
X92961905Y-66254819D02*
X92961905Y-65254819D01*
X92961905Y-65254819D02*
X93200000Y-65254819D01*
X93200000Y-65254819D02*
X93342857Y-65302438D01*
X93342857Y-65302438D02*
X93438095Y-65397676D01*
X93438095Y-65397676D02*
X93485714Y-65492914D01*
X93485714Y-65492914D02*
X93533333Y-65683390D01*
X93533333Y-65683390D02*
X93533333Y-65826247D01*
X93533333Y-65826247D02*
X93485714Y-66016723D01*
X93485714Y-66016723D02*
X93438095Y-66111961D01*
X93438095Y-66111961D02*
X93342857Y-66207200D01*
X93342857Y-66207200D02*
X93200000Y-66254819D01*
X93200000Y-66254819D02*
X92961905Y-66254819D01*
X94485714Y-66254819D02*
X93914286Y-66254819D01*
X94200000Y-66254819D02*
X94200000Y-65254819D01*
X94200000Y-65254819D02*
X94104762Y-65397676D01*
X94104762Y-65397676D02*
X94009524Y-65492914D01*
X94009524Y-65492914D02*
X93914286Y-65540533D01*
X115494642Y-70659580D02*
X115447023Y-70707200D01*
X115447023Y-70707200D02*
X115304166Y-70754819D01*
X115304166Y-70754819D02*
X115208928Y-70754819D01*
X115208928Y-70754819D02*
X115066071Y-70707200D01*
X115066071Y-70707200D02*
X114970833Y-70611961D01*
X114970833Y-70611961D02*
X114923214Y-70516723D01*
X114923214Y-70516723D02*
X114875595Y-70326247D01*
X114875595Y-70326247D02*
X114875595Y-70183390D01*
X114875595Y-70183390D02*
X114923214Y-69992914D01*
X114923214Y-69992914D02*
X114970833Y-69897676D01*
X114970833Y-69897676D02*
X115066071Y-69802438D01*
X115066071Y-69802438D02*
X115208928Y-69754819D01*
X115208928Y-69754819D02*
X115304166Y-69754819D01*
X115304166Y-69754819D02*
X115447023Y-69802438D01*
X115447023Y-69802438D02*
X115494642Y-69850057D01*
X115875595Y-69850057D02*
X115923214Y-69802438D01*
X115923214Y-69802438D02*
X116018452Y-69754819D01*
X116018452Y-69754819D02*
X116256547Y-69754819D01*
X116256547Y-69754819D02*
X116351785Y-69802438D01*
X116351785Y-69802438D02*
X116399404Y-69850057D01*
X116399404Y-69850057D02*
X116447023Y-69945295D01*
X116447023Y-69945295D02*
X116447023Y-70040533D01*
X116447023Y-70040533D02*
X116399404Y-70183390D01*
X116399404Y-70183390D02*
X115827976Y-70754819D01*
X115827976Y-70754819D02*
X116447023Y-70754819D01*
X116780357Y-69754819D02*
X117447023Y-69754819D01*
X117447023Y-69754819D02*
X117018452Y-70754819D01*
X114457142Y-78389580D02*
X114409523Y-78437200D01*
X114409523Y-78437200D02*
X114266666Y-78484819D01*
X114266666Y-78484819D02*
X114171428Y-78484819D01*
X114171428Y-78484819D02*
X114028571Y-78437200D01*
X114028571Y-78437200D02*
X113933333Y-78341961D01*
X113933333Y-78341961D02*
X113885714Y-78246723D01*
X113885714Y-78246723D02*
X113838095Y-78056247D01*
X113838095Y-78056247D02*
X113838095Y-77913390D01*
X113838095Y-77913390D02*
X113885714Y-77722914D01*
X113885714Y-77722914D02*
X113933333Y-77627676D01*
X113933333Y-77627676D02*
X114028571Y-77532438D01*
X114028571Y-77532438D02*
X114171428Y-77484819D01*
X114171428Y-77484819D02*
X114266666Y-77484819D01*
X114266666Y-77484819D02*
X114409523Y-77532438D01*
X114409523Y-77532438D02*
X114457142Y-77580057D01*
X114838095Y-77580057D02*
X114885714Y-77532438D01*
X114885714Y-77532438D02*
X114980952Y-77484819D01*
X114980952Y-77484819D02*
X115219047Y-77484819D01*
X115219047Y-77484819D02*
X115314285Y-77532438D01*
X115314285Y-77532438D02*
X115361904Y-77580057D01*
X115361904Y-77580057D02*
X115409523Y-77675295D01*
X115409523Y-77675295D02*
X115409523Y-77770533D01*
X115409523Y-77770533D02*
X115361904Y-77913390D01*
X115361904Y-77913390D02*
X114790476Y-78484819D01*
X114790476Y-78484819D02*
X115409523Y-78484819D01*
X116266666Y-77484819D02*
X116076190Y-77484819D01*
X116076190Y-77484819D02*
X115980952Y-77532438D01*
X115980952Y-77532438D02*
X115933333Y-77580057D01*
X115933333Y-77580057D02*
X115838095Y-77722914D01*
X115838095Y-77722914D02*
X115790476Y-77913390D01*
X115790476Y-77913390D02*
X115790476Y-78294342D01*
X115790476Y-78294342D02*
X115838095Y-78389580D01*
X115838095Y-78389580D02*
X115885714Y-78437200D01*
X115885714Y-78437200D02*
X115980952Y-78484819D01*
X115980952Y-78484819D02*
X116171428Y-78484819D01*
X116171428Y-78484819D02*
X116266666Y-78437200D01*
X116266666Y-78437200D02*
X116314285Y-78389580D01*
X116314285Y-78389580D02*
X116361904Y-78294342D01*
X116361904Y-78294342D02*
X116361904Y-78056247D01*
X116361904Y-78056247D02*
X116314285Y-77961009D01*
X116314285Y-77961009D02*
X116266666Y-77913390D01*
X116266666Y-77913390D02*
X116171428Y-77865771D01*
X116171428Y-77865771D02*
X115980952Y-77865771D01*
X115980952Y-77865771D02*
X115885714Y-77913390D01*
X115885714Y-77913390D02*
X115838095Y-77961009D01*
X115838095Y-77961009D02*
X115790476Y-78056247D01*
X109557142Y-74959580D02*
X109509523Y-75007200D01*
X109509523Y-75007200D02*
X109366666Y-75054819D01*
X109366666Y-75054819D02*
X109271428Y-75054819D01*
X109271428Y-75054819D02*
X109128571Y-75007200D01*
X109128571Y-75007200D02*
X109033333Y-74911961D01*
X109033333Y-74911961D02*
X108985714Y-74816723D01*
X108985714Y-74816723D02*
X108938095Y-74626247D01*
X108938095Y-74626247D02*
X108938095Y-74483390D01*
X108938095Y-74483390D02*
X108985714Y-74292914D01*
X108985714Y-74292914D02*
X109033333Y-74197676D01*
X109033333Y-74197676D02*
X109128571Y-74102438D01*
X109128571Y-74102438D02*
X109271428Y-74054819D01*
X109271428Y-74054819D02*
X109366666Y-74054819D01*
X109366666Y-74054819D02*
X109509523Y-74102438D01*
X109509523Y-74102438D02*
X109557142Y-74150057D01*
X109938095Y-74150057D02*
X109985714Y-74102438D01*
X109985714Y-74102438D02*
X110080952Y-74054819D01*
X110080952Y-74054819D02*
X110319047Y-74054819D01*
X110319047Y-74054819D02*
X110414285Y-74102438D01*
X110414285Y-74102438D02*
X110461904Y-74150057D01*
X110461904Y-74150057D02*
X110509523Y-74245295D01*
X110509523Y-74245295D02*
X110509523Y-74340533D01*
X110509523Y-74340533D02*
X110461904Y-74483390D01*
X110461904Y-74483390D02*
X109890476Y-75054819D01*
X109890476Y-75054819D02*
X110509523Y-75054819D01*
X111461904Y-75054819D02*
X110890476Y-75054819D01*
X111176190Y-75054819D02*
X111176190Y-74054819D01*
X111176190Y-74054819D02*
X111080952Y-74197676D01*
X111080952Y-74197676D02*
X110985714Y-74292914D01*
X110985714Y-74292914D02*
X110890476Y-74340533D01*
X114857142Y-86689580D02*
X114809523Y-86737200D01*
X114809523Y-86737200D02*
X114666666Y-86784819D01*
X114666666Y-86784819D02*
X114571428Y-86784819D01*
X114571428Y-86784819D02*
X114428571Y-86737200D01*
X114428571Y-86737200D02*
X114333333Y-86641961D01*
X114333333Y-86641961D02*
X114285714Y-86546723D01*
X114285714Y-86546723D02*
X114238095Y-86356247D01*
X114238095Y-86356247D02*
X114238095Y-86213390D01*
X114238095Y-86213390D02*
X114285714Y-86022914D01*
X114285714Y-86022914D02*
X114333333Y-85927676D01*
X114333333Y-85927676D02*
X114428571Y-85832438D01*
X114428571Y-85832438D02*
X114571428Y-85784819D01*
X114571428Y-85784819D02*
X114666666Y-85784819D01*
X114666666Y-85784819D02*
X114809523Y-85832438D01*
X114809523Y-85832438D02*
X114857142Y-85880057D01*
X115809523Y-86784819D02*
X115238095Y-86784819D01*
X115523809Y-86784819D02*
X115523809Y-85784819D01*
X115523809Y-85784819D02*
X115428571Y-85927676D01*
X115428571Y-85927676D02*
X115333333Y-86022914D01*
X115333333Y-86022914D02*
X115238095Y-86070533D01*
X116380952Y-86213390D02*
X116285714Y-86165771D01*
X116285714Y-86165771D02*
X116238095Y-86118152D01*
X116238095Y-86118152D02*
X116190476Y-86022914D01*
X116190476Y-86022914D02*
X116190476Y-85975295D01*
X116190476Y-85975295D02*
X116238095Y-85880057D01*
X116238095Y-85880057D02*
X116285714Y-85832438D01*
X116285714Y-85832438D02*
X116380952Y-85784819D01*
X116380952Y-85784819D02*
X116571428Y-85784819D01*
X116571428Y-85784819D02*
X116666666Y-85832438D01*
X116666666Y-85832438D02*
X116714285Y-85880057D01*
X116714285Y-85880057D02*
X116761904Y-85975295D01*
X116761904Y-85975295D02*
X116761904Y-86022914D01*
X116761904Y-86022914D02*
X116714285Y-86118152D01*
X116714285Y-86118152D02*
X116666666Y-86165771D01*
X116666666Y-86165771D02*
X116571428Y-86213390D01*
X116571428Y-86213390D02*
X116380952Y-86213390D01*
X116380952Y-86213390D02*
X116285714Y-86261009D01*
X116285714Y-86261009D02*
X116238095Y-86308628D01*
X116238095Y-86308628D02*
X116190476Y-86403866D01*
X116190476Y-86403866D02*
X116190476Y-86594342D01*
X116190476Y-86594342D02*
X116238095Y-86689580D01*
X116238095Y-86689580D02*
X116285714Y-86737200D01*
X116285714Y-86737200D02*
X116380952Y-86784819D01*
X116380952Y-86784819D02*
X116571428Y-86784819D01*
X116571428Y-86784819D02*
X116666666Y-86737200D01*
X116666666Y-86737200D02*
X116714285Y-86689580D01*
X116714285Y-86689580D02*
X116761904Y-86594342D01*
X116761904Y-86594342D02*
X116761904Y-86403866D01*
X116761904Y-86403866D02*
X116714285Y-86308628D01*
X116714285Y-86308628D02*
X116666666Y-86261009D01*
X116666666Y-86261009D02*
X116571428Y-86213390D01*
X113657142Y-89559580D02*
X113609523Y-89607200D01*
X113609523Y-89607200D02*
X113466666Y-89654819D01*
X113466666Y-89654819D02*
X113371428Y-89654819D01*
X113371428Y-89654819D02*
X113228571Y-89607200D01*
X113228571Y-89607200D02*
X113133333Y-89511961D01*
X113133333Y-89511961D02*
X113085714Y-89416723D01*
X113085714Y-89416723D02*
X113038095Y-89226247D01*
X113038095Y-89226247D02*
X113038095Y-89083390D01*
X113038095Y-89083390D02*
X113085714Y-88892914D01*
X113085714Y-88892914D02*
X113133333Y-88797676D01*
X113133333Y-88797676D02*
X113228571Y-88702438D01*
X113228571Y-88702438D02*
X113371428Y-88654819D01*
X113371428Y-88654819D02*
X113466666Y-88654819D01*
X113466666Y-88654819D02*
X113609523Y-88702438D01*
X113609523Y-88702438D02*
X113657142Y-88750057D01*
X114609523Y-89654819D02*
X114038095Y-89654819D01*
X114323809Y-89654819D02*
X114323809Y-88654819D01*
X114323809Y-88654819D02*
X114228571Y-88797676D01*
X114228571Y-88797676D02*
X114133333Y-88892914D01*
X114133333Y-88892914D02*
X114038095Y-88940533D01*
X114942857Y-88654819D02*
X115609523Y-88654819D01*
X115609523Y-88654819D02*
X115180952Y-89654819D01*
X115057142Y-93489580D02*
X115009523Y-93537200D01*
X115009523Y-93537200D02*
X114866666Y-93584819D01*
X114866666Y-93584819D02*
X114771428Y-93584819D01*
X114771428Y-93584819D02*
X114628571Y-93537200D01*
X114628571Y-93537200D02*
X114533333Y-93441961D01*
X114533333Y-93441961D02*
X114485714Y-93346723D01*
X114485714Y-93346723D02*
X114438095Y-93156247D01*
X114438095Y-93156247D02*
X114438095Y-93013390D01*
X114438095Y-93013390D02*
X114485714Y-92822914D01*
X114485714Y-92822914D02*
X114533333Y-92727676D01*
X114533333Y-92727676D02*
X114628571Y-92632438D01*
X114628571Y-92632438D02*
X114771428Y-92584819D01*
X114771428Y-92584819D02*
X114866666Y-92584819D01*
X114866666Y-92584819D02*
X115009523Y-92632438D01*
X115009523Y-92632438D02*
X115057142Y-92680057D01*
X116009523Y-93584819D02*
X115438095Y-93584819D01*
X115723809Y-93584819D02*
X115723809Y-92584819D01*
X115723809Y-92584819D02*
X115628571Y-92727676D01*
X115628571Y-92727676D02*
X115533333Y-92822914D01*
X115533333Y-92822914D02*
X115438095Y-92870533D01*
X116866666Y-92584819D02*
X116676190Y-92584819D01*
X116676190Y-92584819D02*
X116580952Y-92632438D01*
X116580952Y-92632438D02*
X116533333Y-92680057D01*
X116533333Y-92680057D02*
X116438095Y-92822914D01*
X116438095Y-92822914D02*
X116390476Y-93013390D01*
X116390476Y-93013390D02*
X116390476Y-93394342D01*
X116390476Y-93394342D02*
X116438095Y-93489580D01*
X116438095Y-93489580D02*
X116485714Y-93537200D01*
X116485714Y-93537200D02*
X116580952Y-93584819D01*
X116580952Y-93584819D02*
X116771428Y-93584819D01*
X116771428Y-93584819D02*
X116866666Y-93537200D01*
X116866666Y-93537200D02*
X116914285Y-93489580D01*
X116914285Y-93489580D02*
X116961904Y-93394342D01*
X116961904Y-93394342D02*
X116961904Y-93156247D01*
X116961904Y-93156247D02*
X116914285Y-93061009D01*
X116914285Y-93061009D02*
X116866666Y-93013390D01*
X116866666Y-93013390D02*
X116771428Y-92965771D01*
X116771428Y-92965771D02*
X116580952Y-92965771D01*
X116580952Y-92965771D02*
X116485714Y-93013390D01*
X116485714Y-93013390D02*
X116438095Y-93061009D01*
X116438095Y-93061009D02*
X116390476Y-93156247D01*
X103057142Y-84959580D02*
X103009523Y-85007200D01*
X103009523Y-85007200D02*
X102866666Y-85054819D01*
X102866666Y-85054819D02*
X102771428Y-85054819D01*
X102771428Y-85054819D02*
X102628571Y-85007200D01*
X102628571Y-85007200D02*
X102533333Y-84911961D01*
X102533333Y-84911961D02*
X102485714Y-84816723D01*
X102485714Y-84816723D02*
X102438095Y-84626247D01*
X102438095Y-84626247D02*
X102438095Y-84483390D01*
X102438095Y-84483390D02*
X102485714Y-84292914D01*
X102485714Y-84292914D02*
X102533333Y-84197676D01*
X102533333Y-84197676D02*
X102628571Y-84102438D01*
X102628571Y-84102438D02*
X102771428Y-84054819D01*
X102771428Y-84054819D02*
X102866666Y-84054819D01*
X102866666Y-84054819D02*
X103009523Y-84102438D01*
X103009523Y-84102438D02*
X103057142Y-84150057D01*
X104009523Y-85054819D02*
X103438095Y-85054819D01*
X103723809Y-85054819D02*
X103723809Y-84054819D01*
X103723809Y-84054819D02*
X103628571Y-84197676D01*
X103628571Y-84197676D02*
X103533333Y-84292914D01*
X103533333Y-84292914D02*
X103438095Y-84340533D01*
X104914285Y-84054819D02*
X104438095Y-84054819D01*
X104438095Y-84054819D02*
X104390476Y-84531009D01*
X104390476Y-84531009D02*
X104438095Y-84483390D01*
X104438095Y-84483390D02*
X104533333Y-84435771D01*
X104533333Y-84435771D02*
X104771428Y-84435771D01*
X104771428Y-84435771D02*
X104866666Y-84483390D01*
X104866666Y-84483390D02*
X104914285Y-84531009D01*
X104914285Y-84531009D02*
X104961904Y-84626247D01*
X104961904Y-84626247D02*
X104961904Y-84864342D01*
X104961904Y-84864342D02*
X104914285Y-84959580D01*
X104914285Y-84959580D02*
X104866666Y-85007200D01*
X104866666Y-85007200D02*
X104771428Y-85054819D01*
X104771428Y-85054819D02*
X104533333Y-85054819D01*
X104533333Y-85054819D02*
X104438095Y-85007200D01*
X104438095Y-85007200D02*
X104390476Y-84959580D01*
X98657142Y-87459580D02*
X98609523Y-87507200D01*
X98609523Y-87507200D02*
X98466666Y-87554819D01*
X98466666Y-87554819D02*
X98371428Y-87554819D01*
X98371428Y-87554819D02*
X98228571Y-87507200D01*
X98228571Y-87507200D02*
X98133333Y-87411961D01*
X98133333Y-87411961D02*
X98085714Y-87316723D01*
X98085714Y-87316723D02*
X98038095Y-87126247D01*
X98038095Y-87126247D02*
X98038095Y-86983390D01*
X98038095Y-86983390D02*
X98085714Y-86792914D01*
X98085714Y-86792914D02*
X98133333Y-86697676D01*
X98133333Y-86697676D02*
X98228571Y-86602438D01*
X98228571Y-86602438D02*
X98371428Y-86554819D01*
X98371428Y-86554819D02*
X98466666Y-86554819D01*
X98466666Y-86554819D02*
X98609523Y-86602438D01*
X98609523Y-86602438D02*
X98657142Y-86650057D01*
X99609523Y-87554819D02*
X99038095Y-87554819D01*
X99323809Y-87554819D02*
X99323809Y-86554819D01*
X99323809Y-86554819D02*
X99228571Y-86697676D01*
X99228571Y-86697676D02*
X99133333Y-86792914D01*
X99133333Y-86792914D02*
X99038095Y-86840533D01*
X100466666Y-86888152D02*
X100466666Y-87554819D01*
X100228571Y-86507200D02*
X99990476Y-87221485D01*
X99990476Y-87221485D02*
X100609523Y-87221485D01*
X83857142Y-88859580D02*
X83809523Y-88907200D01*
X83809523Y-88907200D02*
X83666666Y-88954819D01*
X83666666Y-88954819D02*
X83571428Y-88954819D01*
X83571428Y-88954819D02*
X83428571Y-88907200D01*
X83428571Y-88907200D02*
X83333333Y-88811961D01*
X83333333Y-88811961D02*
X83285714Y-88716723D01*
X83285714Y-88716723D02*
X83238095Y-88526247D01*
X83238095Y-88526247D02*
X83238095Y-88383390D01*
X83238095Y-88383390D02*
X83285714Y-88192914D01*
X83285714Y-88192914D02*
X83333333Y-88097676D01*
X83333333Y-88097676D02*
X83428571Y-88002438D01*
X83428571Y-88002438D02*
X83571428Y-87954819D01*
X83571428Y-87954819D02*
X83666666Y-87954819D01*
X83666666Y-87954819D02*
X83809523Y-88002438D01*
X83809523Y-88002438D02*
X83857142Y-88050057D01*
X84809523Y-88954819D02*
X84238095Y-88954819D01*
X84523809Y-88954819D02*
X84523809Y-87954819D01*
X84523809Y-87954819D02*
X84428571Y-88097676D01*
X84428571Y-88097676D02*
X84333333Y-88192914D01*
X84333333Y-88192914D02*
X84238095Y-88240533D01*
X85142857Y-87954819D02*
X85761904Y-87954819D01*
X85761904Y-87954819D02*
X85428571Y-88335771D01*
X85428571Y-88335771D02*
X85571428Y-88335771D01*
X85571428Y-88335771D02*
X85666666Y-88383390D01*
X85666666Y-88383390D02*
X85714285Y-88431009D01*
X85714285Y-88431009D02*
X85761904Y-88526247D01*
X85761904Y-88526247D02*
X85761904Y-88764342D01*
X85761904Y-88764342D02*
X85714285Y-88859580D01*
X85714285Y-88859580D02*
X85666666Y-88907200D01*
X85666666Y-88907200D02*
X85571428Y-88954819D01*
X85571428Y-88954819D02*
X85285714Y-88954819D01*
X85285714Y-88954819D02*
X85190476Y-88907200D01*
X85190476Y-88907200D02*
X85142857Y-88859580D01*
X95057142Y-79259580D02*
X95009523Y-79307200D01*
X95009523Y-79307200D02*
X94866666Y-79354819D01*
X94866666Y-79354819D02*
X94771428Y-79354819D01*
X94771428Y-79354819D02*
X94628571Y-79307200D01*
X94628571Y-79307200D02*
X94533333Y-79211961D01*
X94533333Y-79211961D02*
X94485714Y-79116723D01*
X94485714Y-79116723D02*
X94438095Y-78926247D01*
X94438095Y-78926247D02*
X94438095Y-78783390D01*
X94438095Y-78783390D02*
X94485714Y-78592914D01*
X94485714Y-78592914D02*
X94533333Y-78497676D01*
X94533333Y-78497676D02*
X94628571Y-78402438D01*
X94628571Y-78402438D02*
X94771428Y-78354819D01*
X94771428Y-78354819D02*
X94866666Y-78354819D01*
X94866666Y-78354819D02*
X95009523Y-78402438D01*
X95009523Y-78402438D02*
X95057142Y-78450057D01*
X96009523Y-79354819D02*
X95438095Y-79354819D01*
X95723809Y-79354819D02*
X95723809Y-78354819D01*
X95723809Y-78354819D02*
X95628571Y-78497676D01*
X95628571Y-78497676D02*
X95533333Y-78592914D01*
X95533333Y-78592914D02*
X95438095Y-78640533D01*
X96390476Y-78450057D02*
X96438095Y-78402438D01*
X96438095Y-78402438D02*
X96533333Y-78354819D01*
X96533333Y-78354819D02*
X96771428Y-78354819D01*
X96771428Y-78354819D02*
X96866666Y-78402438D01*
X96866666Y-78402438D02*
X96914285Y-78450057D01*
X96914285Y-78450057D02*
X96961904Y-78545295D01*
X96961904Y-78545295D02*
X96961904Y-78640533D01*
X96961904Y-78640533D02*
X96914285Y-78783390D01*
X96914285Y-78783390D02*
X96342857Y-79354819D01*
X96342857Y-79354819D02*
X96961904Y-79354819D01*
X124929580Y-64042857D02*
X124977200Y-64090476D01*
X124977200Y-64090476D02*
X125024819Y-64233333D01*
X125024819Y-64233333D02*
X125024819Y-64328571D01*
X125024819Y-64328571D02*
X124977200Y-64471428D01*
X124977200Y-64471428D02*
X124881961Y-64566666D01*
X124881961Y-64566666D02*
X124786723Y-64614285D01*
X124786723Y-64614285D02*
X124596247Y-64661904D01*
X124596247Y-64661904D02*
X124453390Y-64661904D01*
X124453390Y-64661904D02*
X124262914Y-64614285D01*
X124262914Y-64614285D02*
X124167676Y-64566666D01*
X124167676Y-64566666D02*
X124072438Y-64471428D01*
X124072438Y-64471428D02*
X124024819Y-64328571D01*
X124024819Y-64328571D02*
X124024819Y-64233333D01*
X124024819Y-64233333D02*
X124072438Y-64090476D01*
X124072438Y-64090476D02*
X124120057Y-64042857D01*
X125024819Y-63090476D02*
X125024819Y-63661904D01*
X125024819Y-63376190D02*
X124024819Y-63376190D01*
X124024819Y-63376190D02*
X124167676Y-63471428D01*
X124167676Y-63471428D02*
X124262914Y-63566666D01*
X124262914Y-63566666D02*
X124310533Y-63661904D01*
X124024819Y-62471428D02*
X124024819Y-62376190D01*
X124024819Y-62376190D02*
X124072438Y-62280952D01*
X124072438Y-62280952D02*
X124120057Y-62233333D01*
X124120057Y-62233333D02*
X124215295Y-62185714D01*
X124215295Y-62185714D02*
X124405771Y-62138095D01*
X124405771Y-62138095D02*
X124643866Y-62138095D01*
X124643866Y-62138095D02*
X124834342Y-62185714D01*
X124834342Y-62185714D02*
X124929580Y-62233333D01*
X124929580Y-62233333D02*
X124977200Y-62280952D01*
X124977200Y-62280952D02*
X125024819Y-62376190D01*
X125024819Y-62376190D02*
X125024819Y-62471428D01*
X125024819Y-62471428D02*
X124977200Y-62566666D01*
X124977200Y-62566666D02*
X124929580Y-62614285D01*
X124929580Y-62614285D02*
X124834342Y-62661904D01*
X124834342Y-62661904D02*
X124643866Y-62709523D01*
X124643866Y-62709523D02*
X124405771Y-62709523D01*
X124405771Y-62709523D02*
X124215295Y-62661904D01*
X124215295Y-62661904D02*
X124120057Y-62614285D01*
X124120057Y-62614285D02*
X124072438Y-62566666D01*
X124072438Y-62566666D02*
X124024819Y-62471428D01*
X124929580Y-56366666D02*
X124977200Y-56414285D01*
X124977200Y-56414285D02*
X125024819Y-56557142D01*
X125024819Y-56557142D02*
X125024819Y-56652380D01*
X125024819Y-56652380D02*
X124977200Y-56795237D01*
X124977200Y-56795237D02*
X124881961Y-56890475D01*
X124881961Y-56890475D02*
X124786723Y-56938094D01*
X124786723Y-56938094D02*
X124596247Y-56985713D01*
X124596247Y-56985713D02*
X124453390Y-56985713D01*
X124453390Y-56985713D02*
X124262914Y-56938094D01*
X124262914Y-56938094D02*
X124167676Y-56890475D01*
X124167676Y-56890475D02*
X124072438Y-56795237D01*
X124072438Y-56795237D02*
X124024819Y-56652380D01*
X124024819Y-56652380D02*
X124024819Y-56557142D01*
X124024819Y-56557142D02*
X124072438Y-56414285D01*
X124072438Y-56414285D02*
X124120057Y-56366666D01*
X125024819Y-55890475D02*
X125024819Y-55699999D01*
X125024819Y-55699999D02*
X124977200Y-55604761D01*
X124977200Y-55604761D02*
X124929580Y-55557142D01*
X124929580Y-55557142D02*
X124786723Y-55461904D01*
X124786723Y-55461904D02*
X124596247Y-55414285D01*
X124596247Y-55414285D02*
X124215295Y-55414285D01*
X124215295Y-55414285D02*
X124120057Y-55461904D01*
X124120057Y-55461904D02*
X124072438Y-55509523D01*
X124072438Y-55509523D02*
X124024819Y-55604761D01*
X124024819Y-55604761D02*
X124024819Y-55795237D01*
X124024819Y-55795237D02*
X124072438Y-55890475D01*
X124072438Y-55890475D02*
X124120057Y-55938094D01*
X124120057Y-55938094D02*
X124215295Y-55985713D01*
X124215295Y-55985713D02*
X124453390Y-55985713D01*
X124453390Y-55985713D02*
X124548628Y-55938094D01*
X124548628Y-55938094D02*
X124596247Y-55890475D01*
X124596247Y-55890475D02*
X124643866Y-55795237D01*
X124643866Y-55795237D02*
X124643866Y-55604761D01*
X124643866Y-55604761D02*
X124596247Y-55509523D01*
X124596247Y-55509523D02*
X124548628Y-55461904D01*
X124548628Y-55461904D02*
X124453390Y-55414285D01*
X124929580Y-59966666D02*
X124977200Y-60014285D01*
X124977200Y-60014285D02*
X125024819Y-60157142D01*
X125024819Y-60157142D02*
X125024819Y-60252380D01*
X125024819Y-60252380D02*
X124977200Y-60395237D01*
X124977200Y-60395237D02*
X124881961Y-60490475D01*
X124881961Y-60490475D02*
X124786723Y-60538094D01*
X124786723Y-60538094D02*
X124596247Y-60585713D01*
X124596247Y-60585713D02*
X124453390Y-60585713D01*
X124453390Y-60585713D02*
X124262914Y-60538094D01*
X124262914Y-60538094D02*
X124167676Y-60490475D01*
X124167676Y-60490475D02*
X124072438Y-60395237D01*
X124072438Y-60395237D02*
X124024819Y-60252380D01*
X124024819Y-60252380D02*
X124024819Y-60157142D01*
X124024819Y-60157142D02*
X124072438Y-60014285D01*
X124072438Y-60014285D02*
X124120057Y-59966666D01*
X124453390Y-59395237D02*
X124405771Y-59490475D01*
X124405771Y-59490475D02*
X124358152Y-59538094D01*
X124358152Y-59538094D02*
X124262914Y-59585713D01*
X124262914Y-59585713D02*
X124215295Y-59585713D01*
X124215295Y-59585713D02*
X124120057Y-59538094D01*
X124120057Y-59538094D02*
X124072438Y-59490475D01*
X124072438Y-59490475D02*
X124024819Y-59395237D01*
X124024819Y-59395237D02*
X124024819Y-59204761D01*
X124024819Y-59204761D02*
X124072438Y-59109523D01*
X124072438Y-59109523D02*
X124120057Y-59061904D01*
X124120057Y-59061904D02*
X124215295Y-59014285D01*
X124215295Y-59014285D02*
X124262914Y-59014285D01*
X124262914Y-59014285D02*
X124358152Y-59061904D01*
X124358152Y-59061904D02*
X124405771Y-59109523D01*
X124405771Y-59109523D02*
X124453390Y-59204761D01*
X124453390Y-59204761D02*
X124453390Y-59395237D01*
X124453390Y-59395237D02*
X124501009Y-59490475D01*
X124501009Y-59490475D02*
X124548628Y-59538094D01*
X124548628Y-59538094D02*
X124643866Y-59585713D01*
X124643866Y-59585713D02*
X124834342Y-59585713D01*
X124834342Y-59585713D02*
X124929580Y-59538094D01*
X124929580Y-59538094D02*
X124977200Y-59490475D01*
X124977200Y-59490475D02*
X125024819Y-59395237D01*
X125024819Y-59395237D02*
X125024819Y-59204761D01*
X125024819Y-59204761D02*
X124977200Y-59109523D01*
X124977200Y-59109523D02*
X124929580Y-59061904D01*
X124929580Y-59061904D02*
X124834342Y-59014285D01*
X124834342Y-59014285D02*
X124643866Y-59014285D01*
X124643866Y-59014285D02*
X124548628Y-59061904D01*
X124548628Y-59061904D02*
X124501009Y-59109523D01*
X124501009Y-59109523D02*
X124453390Y-59204761D01*
X110833333Y-86959580D02*
X110785714Y-87007200D01*
X110785714Y-87007200D02*
X110642857Y-87054819D01*
X110642857Y-87054819D02*
X110547619Y-87054819D01*
X110547619Y-87054819D02*
X110404762Y-87007200D01*
X110404762Y-87007200D02*
X110309524Y-86911961D01*
X110309524Y-86911961D02*
X110261905Y-86816723D01*
X110261905Y-86816723D02*
X110214286Y-86626247D01*
X110214286Y-86626247D02*
X110214286Y-86483390D01*
X110214286Y-86483390D02*
X110261905Y-86292914D01*
X110261905Y-86292914D02*
X110309524Y-86197676D01*
X110309524Y-86197676D02*
X110404762Y-86102438D01*
X110404762Y-86102438D02*
X110547619Y-86054819D01*
X110547619Y-86054819D02*
X110642857Y-86054819D01*
X110642857Y-86054819D02*
X110785714Y-86102438D01*
X110785714Y-86102438D02*
X110833333Y-86150057D01*
X111166667Y-86054819D02*
X111833333Y-86054819D01*
X111833333Y-86054819D02*
X111404762Y-87054819D01*
X82933333Y-68939580D02*
X82885714Y-68987200D01*
X82885714Y-68987200D02*
X82742857Y-69034819D01*
X82742857Y-69034819D02*
X82647619Y-69034819D01*
X82647619Y-69034819D02*
X82504762Y-68987200D01*
X82504762Y-68987200D02*
X82409524Y-68891961D01*
X82409524Y-68891961D02*
X82361905Y-68796723D01*
X82361905Y-68796723D02*
X82314286Y-68606247D01*
X82314286Y-68606247D02*
X82314286Y-68463390D01*
X82314286Y-68463390D02*
X82361905Y-68272914D01*
X82361905Y-68272914D02*
X82409524Y-68177676D01*
X82409524Y-68177676D02*
X82504762Y-68082438D01*
X82504762Y-68082438D02*
X82647619Y-68034819D01*
X82647619Y-68034819D02*
X82742857Y-68034819D01*
X82742857Y-68034819D02*
X82885714Y-68082438D01*
X82885714Y-68082438D02*
X82933333Y-68130057D01*
X83790476Y-68034819D02*
X83600000Y-68034819D01*
X83600000Y-68034819D02*
X83504762Y-68082438D01*
X83504762Y-68082438D02*
X83457143Y-68130057D01*
X83457143Y-68130057D02*
X83361905Y-68272914D01*
X83361905Y-68272914D02*
X83314286Y-68463390D01*
X83314286Y-68463390D02*
X83314286Y-68844342D01*
X83314286Y-68844342D02*
X83361905Y-68939580D01*
X83361905Y-68939580D02*
X83409524Y-68987200D01*
X83409524Y-68987200D02*
X83504762Y-69034819D01*
X83504762Y-69034819D02*
X83695238Y-69034819D01*
X83695238Y-69034819D02*
X83790476Y-68987200D01*
X83790476Y-68987200D02*
X83838095Y-68939580D01*
X83838095Y-68939580D02*
X83885714Y-68844342D01*
X83885714Y-68844342D02*
X83885714Y-68606247D01*
X83885714Y-68606247D02*
X83838095Y-68511009D01*
X83838095Y-68511009D02*
X83790476Y-68463390D01*
X83790476Y-68463390D02*
X83695238Y-68415771D01*
X83695238Y-68415771D02*
X83504762Y-68415771D01*
X83504762Y-68415771D02*
X83409524Y-68463390D01*
X83409524Y-68463390D02*
X83361905Y-68511009D01*
X83361905Y-68511009D02*
X83314286Y-68606247D01*
X116229580Y-61666666D02*
X116277200Y-61714285D01*
X116277200Y-61714285D02*
X116324819Y-61857142D01*
X116324819Y-61857142D02*
X116324819Y-61952380D01*
X116324819Y-61952380D02*
X116277200Y-62095237D01*
X116277200Y-62095237D02*
X116181961Y-62190475D01*
X116181961Y-62190475D02*
X116086723Y-62238094D01*
X116086723Y-62238094D02*
X115896247Y-62285713D01*
X115896247Y-62285713D02*
X115753390Y-62285713D01*
X115753390Y-62285713D02*
X115562914Y-62238094D01*
X115562914Y-62238094D02*
X115467676Y-62190475D01*
X115467676Y-62190475D02*
X115372438Y-62095237D01*
X115372438Y-62095237D02*
X115324819Y-61952380D01*
X115324819Y-61952380D02*
X115324819Y-61857142D01*
X115324819Y-61857142D02*
X115372438Y-61714285D01*
X115372438Y-61714285D02*
X115420057Y-61666666D01*
X115324819Y-60761904D02*
X115324819Y-61238094D01*
X115324819Y-61238094D02*
X115801009Y-61285713D01*
X115801009Y-61285713D02*
X115753390Y-61238094D01*
X115753390Y-61238094D02*
X115705771Y-61142856D01*
X115705771Y-61142856D02*
X115705771Y-60904761D01*
X115705771Y-60904761D02*
X115753390Y-60809523D01*
X115753390Y-60809523D02*
X115801009Y-60761904D01*
X115801009Y-60761904D02*
X115896247Y-60714285D01*
X115896247Y-60714285D02*
X116134342Y-60714285D01*
X116134342Y-60714285D02*
X116229580Y-60761904D01*
X116229580Y-60761904D02*
X116277200Y-60809523D01*
X116277200Y-60809523D02*
X116324819Y-60904761D01*
X116324819Y-60904761D02*
X116324819Y-61142856D01*
X116324819Y-61142856D02*
X116277200Y-61238094D01*
X116277200Y-61238094D02*
X116229580Y-61285713D01*
X86833333Y-68939580D02*
X86785714Y-68987200D01*
X86785714Y-68987200D02*
X86642857Y-69034819D01*
X86642857Y-69034819D02*
X86547619Y-69034819D01*
X86547619Y-69034819D02*
X86404762Y-68987200D01*
X86404762Y-68987200D02*
X86309524Y-68891961D01*
X86309524Y-68891961D02*
X86261905Y-68796723D01*
X86261905Y-68796723D02*
X86214286Y-68606247D01*
X86214286Y-68606247D02*
X86214286Y-68463390D01*
X86214286Y-68463390D02*
X86261905Y-68272914D01*
X86261905Y-68272914D02*
X86309524Y-68177676D01*
X86309524Y-68177676D02*
X86404762Y-68082438D01*
X86404762Y-68082438D02*
X86547619Y-68034819D01*
X86547619Y-68034819D02*
X86642857Y-68034819D01*
X86642857Y-68034819D02*
X86785714Y-68082438D01*
X86785714Y-68082438D02*
X86833333Y-68130057D01*
X87690476Y-68368152D02*
X87690476Y-69034819D01*
X87452381Y-67987200D02*
X87214286Y-68701485D01*
X87214286Y-68701485D02*
X87833333Y-68701485D01*
X95159580Y-61466666D02*
X95207200Y-61514285D01*
X95207200Y-61514285D02*
X95254819Y-61657142D01*
X95254819Y-61657142D02*
X95254819Y-61752380D01*
X95254819Y-61752380D02*
X95207200Y-61895237D01*
X95207200Y-61895237D02*
X95111961Y-61990475D01*
X95111961Y-61990475D02*
X95016723Y-62038094D01*
X95016723Y-62038094D02*
X94826247Y-62085713D01*
X94826247Y-62085713D02*
X94683390Y-62085713D01*
X94683390Y-62085713D02*
X94492914Y-62038094D01*
X94492914Y-62038094D02*
X94397676Y-61990475D01*
X94397676Y-61990475D02*
X94302438Y-61895237D01*
X94302438Y-61895237D02*
X94254819Y-61752380D01*
X94254819Y-61752380D02*
X94254819Y-61657142D01*
X94254819Y-61657142D02*
X94302438Y-61514285D01*
X94302438Y-61514285D02*
X94350057Y-61466666D01*
X94254819Y-61133332D02*
X94254819Y-60514285D01*
X94254819Y-60514285D02*
X94635771Y-60847618D01*
X94635771Y-60847618D02*
X94635771Y-60704761D01*
X94635771Y-60704761D02*
X94683390Y-60609523D01*
X94683390Y-60609523D02*
X94731009Y-60561904D01*
X94731009Y-60561904D02*
X94826247Y-60514285D01*
X94826247Y-60514285D02*
X95064342Y-60514285D01*
X95064342Y-60514285D02*
X95159580Y-60561904D01*
X95159580Y-60561904D02*
X95207200Y-60609523D01*
X95207200Y-60609523D02*
X95254819Y-60704761D01*
X95254819Y-60704761D02*
X95254819Y-60990475D01*
X95254819Y-60990475D02*
X95207200Y-61085713D01*
X95207200Y-61085713D02*
X95159580Y-61133332D01*
X120633333Y-64089580D02*
X120585714Y-64137200D01*
X120585714Y-64137200D02*
X120442857Y-64184819D01*
X120442857Y-64184819D02*
X120347619Y-64184819D01*
X120347619Y-64184819D02*
X120204762Y-64137200D01*
X120204762Y-64137200D02*
X120109524Y-64041961D01*
X120109524Y-64041961D02*
X120061905Y-63946723D01*
X120061905Y-63946723D02*
X120014286Y-63756247D01*
X120014286Y-63756247D02*
X120014286Y-63613390D01*
X120014286Y-63613390D02*
X120061905Y-63422914D01*
X120061905Y-63422914D02*
X120109524Y-63327676D01*
X120109524Y-63327676D02*
X120204762Y-63232438D01*
X120204762Y-63232438D02*
X120347619Y-63184819D01*
X120347619Y-63184819D02*
X120442857Y-63184819D01*
X120442857Y-63184819D02*
X120585714Y-63232438D01*
X120585714Y-63232438D02*
X120633333Y-63280057D01*
X121014286Y-63280057D02*
X121061905Y-63232438D01*
X121061905Y-63232438D02*
X121157143Y-63184819D01*
X121157143Y-63184819D02*
X121395238Y-63184819D01*
X121395238Y-63184819D02*
X121490476Y-63232438D01*
X121490476Y-63232438D02*
X121538095Y-63280057D01*
X121538095Y-63280057D02*
X121585714Y-63375295D01*
X121585714Y-63375295D02*
X121585714Y-63470533D01*
X121585714Y-63470533D02*
X121538095Y-63613390D01*
X121538095Y-63613390D02*
X120966667Y-64184819D01*
X120966667Y-64184819D02*
X121585714Y-64184819D01*
X83333333Y-56659580D02*
X83285714Y-56707200D01*
X83285714Y-56707200D02*
X83142857Y-56754819D01*
X83142857Y-56754819D02*
X83047619Y-56754819D01*
X83047619Y-56754819D02*
X82904762Y-56707200D01*
X82904762Y-56707200D02*
X82809524Y-56611961D01*
X82809524Y-56611961D02*
X82761905Y-56516723D01*
X82761905Y-56516723D02*
X82714286Y-56326247D01*
X82714286Y-56326247D02*
X82714286Y-56183390D01*
X82714286Y-56183390D02*
X82761905Y-55992914D01*
X82761905Y-55992914D02*
X82809524Y-55897676D01*
X82809524Y-55897676D02*
X82904762Y-55802438D01*
X82904762Y-55802438D02*
X83047619Y-55754819D01*
X83047619Y-55754819D02*
X83142857Y-55754819D01*
X83142857Y-55754819D02*
X83285714Y-55802438D01*
X83285714Y-55802438D02*
X83333333Y-55850057D01*
X84285714Y-56754819D02*
X83714286Y-56754819D01*
X84000000Y-56754819D02*
X84000000Y-55754819D01*
X84000000Y-55754819D02*
X83904762Y-55897676D01*
X83904762Y-55897676D02*
X83809524Y-55992914D01*
X83809524Y-55992914D02*
X83714286Y-56040533D01*
D12*
%TO.C,C19*%
X90288748Y-77690000D02*
X91711252Y-77690000D01*
X90288748Y-79510000D02*
X91711252Y-79510000D01*
D13*
%TO.C,U11*%
X123450000Y-72975000D02*
X119550000Y-72975000D01*
X123450000Y-78025000D02*
X119550000Y-78025000D01*
D14*
X125640000Y-77805000D02*
G75*
G02*
X125440000Y-77805000I-100000J0D01*
G01*
X125440000Y-77805000D02*
G75*
G02*
X125640000Y-77805000I100000J0D01*
G01*
D12*
%TO.C,U9*%
X122910000Y-58200000D02*
X122910000Y-56700000D01*
X122910000Y-58200000D02*
X122910000Y-59700000D01*
X119690000Y-58200000D02*
X119690000Y-56700000D01*
X119690000Y-58200000D02*
X119690000Y-59700000D01*
X123065000Y-56227500D02*
X122735000Y-55987500D01*
X123065000Y-55747500D01*
X123065000Y-56227500D01*
G36*
X123065000Y-56227500D02*
G01*
X122735000Y-55987500D01*
X123065000Y-55747500D01*
X123065000Y-56227500D01*
G37*
D14*
%TO.C,U7*%
X125885000Y-93405000D02*
G75*
G02*
X125685000Y-93405000I-100000J0D01*
G01*
X125685000Y-93405000D02*
G75*
G02*
X125885000Y-93405000I100000J0D01*
G01*
D13*
X123695000Y-93625000D02*
X119795000Y-93625000D01*
X123695000Y-88575000D02*
X119795000Y-88575000D01*
D15*
%TO.C,U4*%
X91706400Y-84552200D02*
X90893600Y-84552200D01*
X90436400Y-85644400D02*
X90436400Y-86355600D01*
X90893600Y-87447800D02*
X90995200Y-87447800D01*
X90995200Y-87447800D02*
X91604800Y-87447800D01*
X91604800Y-87447800D02*
X91706400Y-87447800D01*
X90995200Y-87447800D02*
G75*
G02*
X91604800Y-87447800I304800J0D01*
G01*
%TO.C,U3*%
X93466000Y-56925200D02*
X91434000Y-56925200D01*
X91434000Y-60074800D02*
X93466000Y-60074800D01*
%TO.C,U2*%
X93922400Y-72485400D02*
X91077600Y-72485400D01*
X91077600Y-77514600D02*
X92195200Y-77514600D01*
X92195200Y-77514600D02*
X92804800Y-77514600D01*
X92804800Y-77514600D02*
X93922400Y-77514600D01*
X92195200Y-77514600D02*
G75*
G02*
X92804800Y-77514600I304800J0D01*
G01*
D10*
%TO.C,TP7*%
X113650000Y-71550000D02*
X113400000Y-71550000D01*
X113650000Y-71550000D02*
X113650000Y-71800000D01*
X111750000Y-71550000D02*
X112000000Y-71550000D01*
X111750000Y-71550000D02*
X111750000Y-71800000D01*
X111750000Y-72650000D02*
X111750000Y-72400000D01*
X111750000Y-72650000D02*
X112000000Y-72650000D01*
X113650000Y-72650000D02*
X113400000Y-72650000D01*
X113650000Y-72650000D02*
X113650000Y-72400000D01*
%TO.C,TP6*%
X122650000Y-84650000D02*
X122650000Y-84400000D01*
X122650000Y-84650000D02*
X122400000Y-84650000D01*
X120750000Y-84650000D02*
X121000000Y-84650000D01*
X120750000Y-84650000D02*
X120750000Y-84400000D01*
X120750000Y-83550000D02*
X120750000Y-83800000D01*
X120750000Y-83550000D02*
X121000000Y-83550000D01*
X122650000Y-83550000D02*
X122650000Y-83800000D01*
X122650000Y-83550000D02*
X122400000Y-83550000D01*
%TO.C,TP5*%
X77750000Y-90150000D02*
X77750000Y-89900000D01*
X77750000Y-90150000D02*
X77500000Y-90150000D01*
X75850000Y-90150000D02*
X76100000Y-90150000D01*
X75850000Y-90150000D02*
X75850000Y-89900000D01*
X75850000Y-89050000D02*
X75850000Y-89300000D01*
X75850000Y-89050000D02*
X76100000Y-89050000D01*
X77750000Y-89050000D02*
X77750000Y-89300000D01*
X77750000Y-89050000D02*
X77500000Y-89050000D01*
%TO.C,TP4*%
X103211800Y-77550000D02*
X103211800Y-77300000D01*
X103211800Y-77550000D02*
X102961800Y-77550000D01*
X101311800Y-77550000D02*
X101561800Y-77550000D01*
X101311800Y-77550000D02*
X101311800Y-77300000D01*
X101311800Y-76450000D02*
X101311800Y-76700000D01*
X101311800Y-76450000D02*
X101561800Y-76450000D01*
X103211800Y-76450000D02*
X103211800Y-76700000D01*
X103211800Y-76450000D02*
X102961800Y-76450000D01*
%TO.C,TP3*%
X105750000Y-94550000D02*
X105750000Y-94300000D01*
X105750000Y-94550000D02*
X105500000Y-94550000D01*
X103850000Y-94550000D02*
X104100000Y-94550000D01*
X103850000Y-94550000D02*
X103850000Y-94300000D01*
X103850000Y-93450000D02*
X103850000Y-93700000D01*
X103850000Y-93450000D02*
X104100000Y-93450000D01*
X105750000Y-93450000D02*
X105750000Y-93700000D01*
X105750000Y-93450000D02*
X105500000Y-93450000D01*
%TO.C,TP2*%
X95250000Y-67750000D02*
X95250000Y-67500000D01*
X95250000Y-67750000D02*
X95000000Y-67750000D01*
X93350000Y-67750000D02*
X93600000Y-67750000D01*
X93350000Y-67750000D02*
X93350000Y-67500000D01*
X93350000Y-66650000D02*
X93350000Y-66900000D01*
X93350000Y-66650000D02*
X93600000Y-66650000D01*
X95250000Y-66650000D02*
X95250000Y-66900000D01*
X95250000Y-66650000D02*
X95000000Y-66650000D01*
D12*
%TO.C,R32*%
X125862258Y-70977500D02*
X125387742Y-70977500D01*
X125862258Y-72022500D02*
X125387742Y-72022500D01*
%TO.C,R31*%
X121937258Y-78777500D02*
X121462742Y-78777500D01*
X121937258Y-79822500D02*
X121462742Y-79822500D01*
%TO.C,R30*%
X129262258Y-70977500D02*
X128787742Y-70977500D01*
X129262258Y-72022500D02*
X128787742Y-72022500D01*
%TO.C,R29*%
X129037258Y-74377500D02*
X128562742Y-74377500D01*
X129037258Y-75422500D02*
X128562742Y-75422500D01*
%TO.C,R27*%
X109677500Y-57862742D02*
X109677500Y-58337258D01*
X110722500Y-57862742D02*
X110722500Y-58337258D01*
%TO.C,R26*%
X114837258Y-73177500D02*
X114362742Y-73177500D01*
X114837258Y-74222500D02*
X114362742Y-74222500D01*
%TO.C,R25*%
X106322500Y-57962742D02*
X106322500Y-58437258D01*
X105277500Y-57962742D02*
X105277500Y-58437258D01*
%TO.C,R24*%
X101622500Y-58087742D02*
X101622500Y-58562258D01*
X100577500Y-58087742D02*
X100577500Y-58562258D01*
%TO.C,R23*%
X118777500Y-85937258D02*
X118777500Y-85462742D01*
X119822500Y-85937258D02*
X119822500Y-85462742D01*
%TO.C,R22*%
X125162258Y-87622500D02*
X124687742Y-87622500D01*
X125162258Y-86577500D02*
X124687742Y-86577500D01*
%TO.C,R21*%
X122037258Y-95422500D02*
X121562742Y-95422500D01*
X122037258Y-94377500D02*
X121562742Y-94377500D01*
%TO.C,R20*%
X128562258Y-87622500D02*
X128087742Y-87622500D01*
X128562258Y-86577500D02*
X128087742Y-86577500D01*
%TO.C,R19*%
X129137258Y-91022500D02*
X128662742Y-91022500D01*
X129137258Y-89977500D02*
X128662742Y-89977500D01*
%TO.C,R18*%
X129177500Y-65537258D02*
X129177500Y-65062742D01*
X130222500Y-65537258D02*
X130222500Y-65062742D01*
%TO.C,R17*%
X129137258Y-58422500D02*
X128662742Y-58422500D01*
X129137258Y-57377500D02*
X128662742Y-57377500D01*
%TO.C,R16*%
X129137258Y-61822500D02*
X128662742Y-61822500D01*
X129137258Y-60777500D02*
X128662742Y-60777500D01*
%TO.C,R11*%
X106677500Y-86837258D02*
X106677500Y-86362742D01*
X107722500Y-86837258D02*
X107722500Y-86362742D01*
%TO.C,R10*%
X106537258Y-83622500D02*
X106062742Y-83622500D01*
X106537258Y-82577500D02*
X106062742Y-82577500D01*
%TO.C,R9*%
X105962742Y-90477500D02*
X106437258Y-90477500D01*
X105962742Y-91522500D02*
X106437258Y-91522500D01*
%TO.C,R8*%
X87862742Y-82977500D02*
X88337258Y-82977500D01*
X87862742Y-84022500D02*
X88337258Y-84022500D01*
%TO.C,R7*%
X84622500Y-81062742D02*
X84622500Y-81537258D01*
X83577500Y-81062742D02*
X83577500Y-81537258D01*
%TO.C,R6*%
X100522500Y-78562742D02*
X100522500Y-79037258D01*
X99477500Y-78562742D02*
X99477500Y-79037258D01*
%TO.C,R5*%
X84622500Y-75962742D02*
X84622500Y-76437258D01*
X83577500Y-75962742D02*
X83577500Y-76437258D01*
%TO.C,R4*%
X88322500Y-73762742D02*
X88322500Y-74237258D01*
X87277500Y-73762742D02*
X87277500Y-74237258D01*
%TO.C,R3*%
X95577500Y-60537258D02*
X95577500Y-60062742D01*
X96622500Y-60537258D02*
X96622500Y-60062742D01*
%TO.C,R2*%
X96622500Y-63737258D02*
X96622500Y-63262742D01*
X95577500Y-63737258D02*
X95577500Y-63262742D01*
%TO.C,R1*%
X88437258Y-57822500D02*
X87962742Y-57822500D01*
X88437258Y-56777500D02*
X87962742Y-56777500D01*
%TO.C,L5*%
X98297936Y-88240000D02*
X99502064Y-88240000D01*
X98297936Y-90960000D02*
X99502064Y-90960000D01*
%TO.C,L4*%
X98297936Y-91840000D02*
X99502064Y-91840000D01*
X98297936Y-94560000D02*
X99502064Y-94560000D01*
%TO.C,L3*%
X92697936Y-91840000D02*
X93902064Y-91840000D01*
X92697936Y-94560000D02*
X93902064Y-94560000D01*
%TO.C,L2*%
X92697936Y-88240000D02*
X93902064Y-88240000D01*
X92697936Y-90960000D02*
X93902064Y-90960000D01*
%TO.C,L1*%
X92260000Y-64397936D02*
X92260000Y-65602064D01*
X89540000Y-64397936D02*
X89540000Y-65602064D01*
D10*
%TO.C,J5*%
X75200000Y-79600000D02*
X75700000Y-79600000D01*
X75200000Y-79400000D02*
X75200000Y-79600000D01*
X78800000Y-79400000D02*
X78800000Y-79600000D01*
X78800000Y-79600000D02*
X78200000Y-79600000D01*
X78800000Y-73200000D02*
X78800000Y-73000000D01*
X78800000Y-73000000D02*
X78300000Y-73000000D01*
X75200000Y-73200000D02*
X75200000Y-73000000D01*
X75200000Y-73000000D02*
X75700000Y-73000000D01*
D14*
%TO.C,J4*%
X131500000Y-93100000D02*
X131500000Y-82900000D01*
X131500000Y-82900000D02*
X139200000Y-82900000D01*
X139200000Y-82900000D02*
X139200000Y-93100000D01*
X139200000Y-93100000D02*
X131500000Y-93100000D01*
D16*
X133800000Y-91400000D02*
G75*
G02*
X133600000Y-91400000I-100000J0D01*
G01*
X133600000Y-91400000D02*
G75*
G02*
X133800000Y-91400000I100000J0D01*
G01*
%TO.C,J3*%
X133800000Y-77150000D02*
G75*
G02*
X133600000Y-77150000I-100000J0D01*
G01*
X133600000Y-77150000D02*
G75*
G02*
X133800000Y-77150000I100000J0D01*
G01*
D14*
X139200000Y-78850000D02*
X131500000Y-78850000D01*
X139200000Y-68650000D02*
X139200000Y-78850000D01*
X131500000Y-68650000D02*
X139200000Y-68650000D01*
X131500000Y-78850000D02*
X131500000Y-68650000D01*
D16*
%TO.C,J2*%
X133800000Y-62900000D02*
G75*
G02*
X133600000Y-62900000I-100000J0D01*
G01*
X133600000Y-62900000D02*
G75*
G02*
X133800000Y-62900000I100000J0D01*
G01*
D14*
X139200000Y-64600000D02*
X131500000Y-64600000D01*
X139200000Y-54400000D02*
X139200000Y-64600000D01*
X131500000Y-54400000D02*
X139200000Y-54400000D01*
X131500000Y-64600000D02*
X131500000Y-54400000D01*
D16*
%TO.C,J1*%
X78500000Y-57300000D02*
G75*
G02*
X78300000Y-57300000I-100000J0D01*
G01*
X78300000Y-57300000D02*
G75*
G02*
X78500000Y-57300000I100000J0D01*
G01*
D14*
X72900000Y-55600000D02*
X80600000Y-55600000D01*
X72900000Y-65800000D02*
X72900000Y-55600000D01*
X80600000Y-65800000D02*
X72900000Y-65800000D01*
X80600000Y-55600000D02*
X80600000Y-65800000D01*
D12*
%TO.C,D4*%
X109900000Y-61500000D02*
X109900000Y-60900000D01*
X110500000Y-61500000D02*
X110500000Y-60900000D01*
%TO.C,D3*%
X106100000Y-61600000D02*
X106100000Y-61000000D01*
X105500000Y-61600000D02*
X105500000Y-61000000D01*
%TO.C,D2*%
X101400000Y-61625000D02*
X101400000Y-61025000D01*
X100800000Y-61625000D02*
X100800000Y-61025000D01*
%TO.C,D1*%
X94200000Y-62640000D02*
X93000000Y-62640000D01*
X94200000Y-64600000D02*
X94200000Y-62640000D01*
X93000000Y-64600000D02*
X93000000Y-62640000D01*
%TO.C,C27*%
X116283767Y-71190000D02*
X115991233Y-71190000D01*
X116283767Y-72210000D02*
X115991233Y-72210000D01*
%TO.C,C26*%
X115246267Y-76090000D02*
X114953733Y-76090000D01*
X115246267Y-77110000D02*
X114953733Y-77110000D01*
%TO.C,C21*%
X111790000Y-74453733D02*
X111790000Y-74746267D01*
X112810000Y-74453733D02*
X112810000Y-74746267D01*
%TO.C,C18*%
X115646267Y-85410000D02*
X115353733Y-85410000D01*
X115646267Y-84390000D02*
X115353733Y-84390000D01*
%TO.C,C17*%
X117110000Y-88753733D02*
X117110000Y-89046267D01*
X116090000Y-88753733D02*
X116090000Y-89046267D01*
%TO.C,C16*%
X115846267Y-92210000D02*
X115553733Y-92210000D01*
X115846267Y-91190000D02*
X115553733Y-91190000D01*
%TO.C,C15*%
X104435000Y-87461252D02*
X104435000Y-86938748D01*
X102965000Y-87461252D02*
X102965000Y-86938748D01*
%TO.C,C14*%
X95953733Y-86590000D02*
X96246267Y-86590000D01*
X95953733Y-87610000D02*
X96246267Y-87610000D01*
%TO.C,C13*%
X88210000Y-87788748D02*
X88210000Y-89211252D01*
X86390000Y-87788748D02*
X86390000Y-89211252D01*
%TO.C,C12*%
X98410000Y-78753733D02*
X98410000Y-79046267D01*
X97390000Y-78753733D02*
X97390000Y-79046267D01*
%TO.C,C10*%
X125490000Y-63546267D02*
X125490000Y-63253733D01*
X126510000Y-63546267D02*
X126510000Y-63253733D01*
%TO.C,C9*%
X125490000Y-56346267D02*
X125490000Y-56053733D01*
X126510000Y-56346267D02*
X126510000Y-56053733D01*
%TO.C,C8*%
X125490000Y-59946267D02*
X125490000Y-59653733D01*
X126510000Y-59946267D02*
X126510000Y-59653733D01*
%TO.C,C7*%
X108690000Y-86746267D02*
X108690000Y-86453733D01*
X109710000Y-86746267D02*
X109710000Y-86453733D01*
%TO.C,C6*%
X83361252Y-67635000D02*
X82838748Y-67635000D01*
X83361252Y-66165000D02*
X82838748Y-66165000D01*
%TO.C,C5*%
X116790000Y-61646267D02*
X116790000Y-61353733D01*
X117810000Y-61646267D02*
X117810000Y-61353733D01*
%TO.C,C4*%
X87261252Y-67635000D02*
X86738748Y-67635000D01*
X87261252Y-66165000D02*
X86738748Y-66165000D01*
%TO.C,C3*%
X92639267Y-61710000D02*
X92346733Y-61710000D01*
X92639267Y-60690000D02*
X92346733Y-60690000D01*
%TO.C,C2*%
X120946267Y-62810000D02*
X120653733Y-62810000D01*
X120946267Y-61790000D02*
X120653733Y-61790000D01*
%TO.C,C1*%
X84410000Y-58788748D02*
X84410000Y-60211252D01*
X82590000Y-58788748D02*
X82590000Y-60211252D01*
%TD*%
M02*
