%TF.GenerationSoftware,KiCad,Pcbnew,8.0.6*%
%TF.CreationDate,2024-11-16T21:14:38-08:00*%
%TF.ProjectId,CAN_adc,43414e5f-6164-4632-9e6b-696361645f70,rev?*%
%TF.SameCoordinates,Original*%
%TF.FileFunction,Copper,L1,Top*%
%TF.FilePolarity,Positive*%
%FSLAX46Y46*%
G04 Gerber Fmt 4.6, Leading zero omitted, Abs format (unit mm)*
G04 Created by KiCad (PCBNEW 8.0.6) date 2024-11-16 21:14:38*
%MOMM*%
%LPD*%
G01*
G04 APERTURE LIST*
G04 Aperture macros list*
%AMRoundRect*
0 Rectangle with rounded corners*
0 $1 Rounding radius*
0 $2 $3 $4 $5 $6 $7 $8 $9 X,Y pos of 4 corners*
0 Add a 4 corners polygon primitive as box body*
4,1,4,$2,$3,$4,$5,$6,$7,$8,$9,$2,$3,0*
0 Add four circle primitives for the rounded corners*
1,1,$1+$1,$2,$3*
1,1,$1+$1,$4,$5*
1,1,$1+$1,$6,$7*
1,1,$1+$1,$8,$9*
0 Add four rect primitives between the rounded corners*
20,1,$1+$1,$2,$3,$4,$5,0*
20,1,$1+$1,$4,$5,$6,$7,0*
20,1,$1+$1,$6,$7,$8,$9,0*
20,1,$1+$1,$8,$9,$2,$3,0*%
G04 Aperture macros list end*
%TA.AperFunction,SMDPad,CuDef*%
%ADD10RoundRect,0.250000X-0.325000X-0.650000X0.325000X-0.650000X0.325000X0.650000X-0.325000X0.650000X0*%
%TD*%
%TA.AperFunction,SMDPad,CuDef*%
%ADD11RoundRect,0.075000X0.910000X0.225000X-0.910000X0.225000X-0.910000X-0.225000X0.910000X-0.225000X0*%
%TD*%
%TA.AperFunction,SMDPad,CuDef*%
%ADD12RoundRect,0.100000X-0.100000X0.712500X-0.100000X-0.712500X0.100000X-0.712500X0.100000X0.712500X0*%
%TD*%
%TA.AperFunction,SMDPad,CuDef*%
%ADD13R,2.670000X2.540000*%
%TD*%
%TA.AperFunction,SMDPad,CuDef*%
%ADD14R,0.762000X1.270000*%
%TD*%
%TA.AperFunction,SMDPad,CuDef*%
%ADD15R,1.219200X0.508000*%
%TD*%
%TA.AperFunction,SMDPad,CuDef*%
%ADD16R,1.981200X0.533400*%
%TD*%
%TA.AperFunction,SMDPad,CuDef*%
%ADD17R,1.800000X1.000000*%
%TD*%
%TA.AperFunction,SMDPad,CuDef*%
%ADD18RoundRect,0.200000X0.200000X0.275000X-0.200000X0.275000X-0.200000X-0.275000X0.200000X-0.275000X0*%
%TD*%
%TA.AperFunction,SMDPad,CuDef*%
%ADD19RoundRect,0.200000X-0.275000X0.200000X-0.275000X-0.200000X0.275000X-0.200000X0.275000X0.200000X0*%
%TD*%
%TA.AperFunction,SMDPad,CuDef*%
%ADD20RoundRect,0.200000X0.275000X-0.200000X0.275000X0.200000X-0.275000X0.200000X-0.275000X-0.200000X0*%
%TD*%
%TA.AperFunction,SMDPad,CuDef*%
%ADD21RoundRect,0.200000X-0.200000X-0.275000X0.200000X-0.275000X0.200000X0.275000X-0.200000X0.275000X0*%
%TD*%
%TA.AperFunction,SMDPad,CuDef*%
%ADD22RoundRect,0.250001X-0.462499X-1.074999X0.462499X-1.074999X0.462499X1.074999X-0.462499X1.074999X0*%
%TD*%
%TA.AperFunction,SMDPad,CuDef*%
%ADD23RoundRect,0.250001X-1.074999X0.462499X-1.074999X-0.462499X1.074999X-0.462499X1.074999X0.462499X0*%
%TD*%
%TA.AperFunction,SMDPad,CuDef*%
%ADD24R,2.790000X0.740000*%
%TD*%
%TA.AperFunction,ComponentPad*%
%ADD25C,1.950000*%
%TD*%
%TA.AperFunction,SMDPad,CuDef*%
%ADD26R,0.800000X0.600000*%
%TD*%
%TA.AperFunction,SMDPad,CuDef*%
%ADD27RoundRect,0.150000X0.200000X-0.150000X0.200000X0.150000X-0.200000X0.150000X-0.200000X-0.150000X0*%
%TD*%
%TA.AperFunction,SMDPad,CuDef*%
%ADD28RoundRect,0.237500X0.300000X0.237500X-0.300000X0.237500X-0.300000X-0.237500X0.300000X-0.237500X0*%
%TD*%
%TA.AperFunction,SMDPad,CuDef*%
%ADD29RoundRect,0.237500X-0.237500X0.300000X-0.237500X-0.300000X0.237500X-0.300000X0.237500X0.300000X0*%
%TD*%
%TA.AperFunction,SMDPad,CuDef*%
%ADD30RoundRect,0.250000X0.475000X-0.337500X0.475000X0.337500X-0.475000X0.337500X-0.475000X-0.337500X0*%
%TD*%
%TA.AperFunction,SMDPad,CuDef*%
%ADD31RoundRect,0.237500X-0.300000X-0.237500X0.300000X-0.237500X0.300000X0.237500X-0.300000X0.237500X0*%
%TD*%
%TA.AperFunction,SMDPad,CuDef*%
%ADD32RoundRect,0.250000X-0.650000X0.412500X-0.650000X-0.412500X0.650000X-0.412500X0.650000X0.412500X0*%
%TD*%
%TA.AperFunction,SMDPad,CuDef*%
%ADD33RoundRect,0.237500X0.237500X-0.300000X0.237500X0.300000X-0.237500X0.300000X-0.237500X-0.300000X0*%
%TD*%
%TA.AperFunction,SMDPad,CuDef*%
%ADD34RoundRect,0.250000X0.337500X0.475000X-0.337500X0.475000X-0.337500X-0.475000X0.337500X-0.475000X0*%
%TD*%
%TA.AperFunction,SMDPad,CuDef*%
%ADD35RoundRect,0.250000X-0.650000X0.325000X-0.650000X-0.325000X0.650000X-0.325000X0.650000X0.325000X0*%
%TD*%
%TA.AperFunction,ViaPad*%
%ADD36C,0.600000*%
%TD*%
%TA.AperFunction,Conductor*%
%ADD37C,0.508000*%
%TD*%
%TA.AperFunction,Conductor*%
%ADD38C,0.200000*%
%TD*%
%TA.AperFunction,Conductor*%
%ADD39C,0.762000*%
%TD*%
G04 APERTURE END LIST*
D10*
%TO.P,C19,1*%
%TO.N,Net-(U2-IN)*%
X89525000Y-78600000D03*
%TO.P,C19,2*%
%TO.N,GND*%
X92475000Y-78600000D03*
%TD*%
D11*
%TO.P,U11,8*%
%TO.N,Net-(R31-Pad2)*%
X119030000Y-77405000D03*
%TO.P,U11,7,VCC+*%
%TO.N,/5V*%
X119030000Y-76135000D03*
%TO.P,U11,6*%
%TO.N,Net-(R26-Pad1)*%
X119030000Y-74865000D03*
%TO.P,U11,5,NC*%
%TO.N,unconnected-(U11-NC-Pad5)*%
X119030000Y-73595000D03*
%TO.P,U11,4,VCC-*%
%TO.N,/N5V*%
X123970000Y-73595000D03*
%TO.P,U11,3*%
%TO.N,Net-(R29-Pad2)*%
X123970000Y-74865000D03*
%TO.P,U11,2*%
%TO.N,Net-(R30-Pad2)*%
X123970000Y-76135000D03*
%TO.P,U11,1*%
%TO.N,/Analog_input/OFFSET*%
X123970000Y-77405000D03*
%TD*%
D12*
%TO.P,U9,1,-IN*%
%TO.N,Net-(C10-Pad2)*%
X122275000Y-56087500D03*
%TO.P,U9,2,REF*%
%TO.N,GND*%
X121625000Y-56087500D03*
%TO.P,U9,3,-Vs*%
X120975000Y-56087500D03*
%TO.P,U9,4*%
%TO.N,N/C*%
X120325000Y-56087500D03*
%TO.P,U9,5,SENSE*%
%TO.N,/IN1*%
X120325000Y-60312500D03*
%TO.P,U9,6*%
X120975000Y-60312500D03*
%TO.P,U9,7,+Vs*%
%TO.N,/5V*%
X121625000Y-60312500D03*
%TO.P,U9,8,+IN*%
%TO.N,Net-(C8-Pad2)*%
X122275000Y-60312500D03*
%TD*%
D11*
%TO.P,U7,1*%
%TO.N,/Analog_input1/OFFSET*%
X124215000Y-93005000D03*
%TO.P,U7,2*%
%TO.N,Net-(R20-Pad2)*%
X124215000Y-91735000D03*
%TO.P,U7,3*%
%TO.N,Net-(R19-Pad2)*%
X124215000Y-90465000D03*
%TO.P,U7,4,VCC-*%
%TO.N,/N5V*%
X124215000Y-89195000D03*
%TO.P,U7,5,NC*%
%TO.N,unconnected-(U7-NC-Pad5)*%
X119275000Y-89195000D03*
%TO.P,U7,6*%
%TO.N,Net-(R22-Pad2)*%
X119275000Y-90465000D03*
%TO.P,U7,7,VCC+*%
%TO.N,/5V*%
X119275000Y-91735000D03*
%TO.P,U7,8*%
%TO.N,Net-(R21-Pad2)*%
X119275000Y-93005000D03*
%TD*%
D13*
%TO.P,U6,1*%
%TO.N,GND*%
X95990000Y-84600000D03*
D14*
%TO.P,U6,2*%
%TO.N,Net-(C14-Pad2)*%
X98341000Y-84600000D03*
%TD*%
D13*
%TO.P,U5,1*%
%TO.N,Net-(U3-SW)*%
X88800000Y-60400000D03*
D14*
%TO.P,U5,2*%
%TO.N,GND*%
X86449000Y-60400000D03*
%TD*%
D15*
%TO.P,U4,1,SW*%
%TO.N,Net-(U4-SW)*%
X92519200Y-86939800D03*
%TO.P,U4,2,GND*%
%TO.N,GND*%
X92519200Y-86000000D03*
%TO.P,U4,3,NFB*%
%TO.N,/Input_Power/N5V_FB*%
X92519200Y-85060200D03*
%TO.P,U4,4,~SHDN*%
%TO.N,Net-(U4-~SHDN)*%
X90080800Y-85060200D03*
%TO.P,U4,5,VIN*%
%TO.N,Net-(U4-VIN)*%
X90080800Y-86939800D03*
%TD*%
%TO.P,U3,1,BOOST*%
%TO.N,/Input_Power/BOOST*%
X93593000Y-59450000D03*
%TO.P,U3,2,GND*%
%TO.N,GND*%
X93593000Y-58500000D03*
%TO.P,U3,3,FB*%
%TO.N,Net-(U3-FB)*%
X93593000Y-57550000D03*
%TO.P,U3,4,\u002ASHDN*%
%TO.N,Net-(U3-\u002ASHDN)*%
X91307000Y-57550000D03*
%TO.P,U3,5,VIN*%
%TO.N,/Input_Power/V_IN*%
X91307000Y-58500000D03*
%TO.P,U3,6,SW*%
%TO.N,Net-(U3-SW)*%
X91307000Y-59450000D03*
%TD*%
D16*
%TO.P,U2,1,OUT*%
%TO.N,/3V3*%
X94963800Y-76905000D03*
%TO.P,U2,2,NC_2*%
%TO.N,unconnected-(U2-NC_2-Pad2)*%
X94963800Y-75635000D03*
%TO.P,U2,3,GND*%
%TO.N,GND*%
X94963800Y-74365000D03*
%TO.P,U2,4,NC*%
%TO.N,unconnected-(U2-NC-Pad4)*%
X94963800Y-73095000D03*
%TO.P,U2,5,~SHDN*%
%TO.N,Net-(U2-~SHDN)*%
X90036200Y-73095000D03*
%TO.P,U2,6,NC_3*%
%TO.N,unconnected-(U2-NC_3-Pad6)*%
X90036200Y-74365000D03*
%TO.P,U2,7,NC_4*%
%TO.N,unconnected-(U2-NC_4-Pad7)*%
X90036200Y-75635000D03*
%TO.P,U2,8,IN*%
%TO.N,Net-(U2-IN)*%
X90036200Y-76905000D03*
%TD*%
D17*
%TO.P,TP7,1*%
%TO.N,/IN3*%
X112700000Y-72100000D03*
%TD*%
%TO.P,TP6,1*%
%TO.N,/IN4*%
X121700000Y-84100000D03*
%TD*%
%TO.P,TP5,1*%
%TO.N,/3V3*%
X76800000Y-89600000D03*
%TD*%
%TO.P,TP4,1*%
%TO.N,/3V3*%
X102261800Y-77000000D03*
%TD*%
%TO.P,TP3,1*%
%TO.N,/N5V*%
X104800000Y-94000000D03*
%TD*%
%TO.P,TP2,1*%
%TO.N,/5V*%
X94300000Y-67200000D03*
%TD*%
D18*
%TO.P,R32,2*%
%TO.N,Net-(R26-Pad1)*%
X124800000Y-71500000D03*
%TO.P,R32,1*%
%TO.N,Net-(R30-Pad2)*%
X126450000Y-71500000D03*
%TD*%
%TO.P,R31,2*%
%TO.N,Net-(R31-Pad2)*%
X120875000Y-79300000D03*
%TO.P,R31,1*%
%TO.N,/Analog_input/OFFSET*%
X122525000Y-79300000D03*
%TD*%
%TO.P,R30,2*%
%TO.N,Net-(R30-Pad2)*%
X128200000Y-71500000D03*
%TO.P,R30,1*%
%TO.N,GND*%
X129850000Y-71500000D03*
%TD*%
%TO.P,R29,2*%
%TO.N,Net-(R29-Pad2)*%
X127975000Y-74900000D03*
%TO.P,R29,1*%
%TO.N,/Analog_input/IN+*%
X129625000Y-74900000D03*
%TD*%
D19*
%TO.P,R27,2*%
%TO.N,Net-(D4-Pad2)*%
X110200000Y-58925000D03*
%TO.P,R27,1*%
%TO.N,GND*%
X110200000Y-57275000D03*
%TD*%
D18*
%TO.P,R26,2*%
%TO.N,/IN3*%
X113775000Y-73700000D03*
%TO.P,R26,1*%
%TO.N,Net-(R26-Pad1)*%
X115425000Y-73700000D03*
%TD*%
D19*
%TO.P,R25,1*%
%TO.N,/3V3*%
X105800000Y-57375000D03*
%TO.P,R25,2*%
%TO.N,Net-(D3-Pad2)*%
X105800000Y-59025000D03*
%TD*%
%TO.P,R24,1*%
%TO.N,/5V*%
X101100000Y-57500000D03*
%TO.P,R24,2*%
%TO.N,Net-(D2-Pad2)*%
X101100000Y-59150000D03*
%TD*%
D20*
%TO.P,R23,1*%
%TO.N,Net-(R22-Pad2)*%
X119300000Y-86525000D03*
%TO.P,R23,2*%
%TO.N,/IN4*%
X119300000Y-84875000D03*
%TD*%
D18*
%TO.P,R22,1*%
%TO.N,Net-(R20-Pad2)*%
X125750000Y-87100000D03*
%TO.P,R22,2*%
%TO.N,Net-(R22-Pad2)*%
X124100000Y-87100000D03*
%TD*%
%TO.P,R21,1*%
%TO.N,/Analog_input1/OFFSET*%
X122625000Y-94900000D03*
%TO.P,R21,2*%
%TO.N,Net-(R21-Pad2)*%
X120975000Y-94900000D03*
%TD*%
%TO.P,R20,1*%
%TO.N,GND*%
X129150000Y-87100000D03*
%TO.P,R20,2*%
%TO.N,Net-(R20-Pad2)*%
X127500000Y-87100000D03*
%TD*%
%TO.P,R19,1*%
%TO.N,/Analog_input1/IN+*%
X129725000Y-90500000D03*
%TO.P,R19,2*%
%TO.N,Net-(R19-Pad2)*%
X128075000Y-90500000D03*
%TD*%
D20*
%TO.P,R18,1*%
%TO.N,GND*%
X129700000Y-66125000D03*
%TO.P,R18,2*%
%TO.N,/Thermocouple_conditioning/IN-*%
X129700000Y-64475000D03*
%TD*%
D18*
%TO.P,R17,1*%
%TO.N,/Thermocouple_conditioning/IN+*%
X129725000Y-57900000D03*
%TO.P,R17,2*%
%TO.N,Net-(C8-Pad2)*%
X128075000Y-57900000D03*
%TD*%
%TO.P,R16,1*%
%TO.N,/Thermocouple_conditioning/IN-*%
X129725000Y-61300000D03*
%TO.P,R16,2*%
%TO.N,Net-(C10-Pad2)*%
X128075000Y-61300000D03*
%TD*%
D20*
%TO.P,R11,1*%
%TO.N,/N5V*%
X107200000Y-87425000D03*
%TO.P,R11,2*%
%TO.N,/Input_Power/N5V_FB*%
X107200000Y-85775000D03*
%TD*%
D18*
%TO.P,R10,1*%
%TO.N,/Input_Power/N5V_FB*%
X107125000Y-83100000D03*
%TO.P,R10,2*%
%TO.N,GND*%
X105475000Y-83100000D03*
%TD*%
D21*
%TO.P,R9,1*%
%TO.N,/N5V*%
X105375000Y-91000000D03*
%TO.P,R9,2*%
%TO.N,GND*%
X107025000Y-91000000D03*
%TD*%
%TO.P,R8,1*%
%TO.N,Net-(U4-VIN)*%
X87275000Y-83500000D03*
%TO.P,R8,2*%
%TO.N,Net-(U4-~SHDN)*%
X88925000Y-83500000D03*
%TD*%
D19*
%TO.P,R7,1*%
%TO.N,/5V*%
X84100000Y-80475000D03*
%TO.P,R7,2*%
%TO.N,Net-(U4-VIN)*%
X84100000Y-82125000D03*
%TD*%
%TO.P,R6,1*%
%TO.N,/3V3*%
X100000000Y-77975000D03*
%TO.P,R6,2*%
%TO.N,GND*%
X100000000Y-79625000D03*
%TD*%
%TO.P,R5,1*%
%TO.N,/5V*%
X84100000Y-75375000D03*
%TO.P,R5,2*%
%TO.N,Net-(U2-IN)*%
X84100000Y-77025000D03*
%TD*%
%TO.P,R4,1*%
%TO.N,Net-(U2-~SHDN)*%
X87800000Y-73175000D03*
%TO.P,R4,2*%
%TO.N,Net-(U2-IN)*%
X87800000Y-74825000D03*
%TD*%
D20*
%TO.P,R3,1*%
%TO.N,Net-(U3-FB)*%
X96100000Y-61125000D03*
%TO.P,R3,2*%
%TO.N,GND*%
X96100000Y-59475000D03*
%TD*%
%TO.P,R2,2*%
%TO.N,Net-(U3-FB)*%
X96100000Y-62675000D03*
%TO.P,R2,1*%
%TO.N,/5V*%
X96100000Y-64325000D03*
%TD*%
D18*
%TO.P,R1,1*%
%TO.N,Net-(U3-\u002ASHDN)*%
X89025000Y-57300000D03*
%TO.P,R1,2*%
%TO.N,/Input_Power/V_IN*%
X87375000Y-57300000D03*
%TD*%
D22*
%TO.P,L5,1,1*%
%TO.N,Net-(C14-Pad2)*%
X97412500Y-89600000D03*
%TO.P,L5,2,2*%
%TO.N,/N5V*%
X100387500Y-89600000D03*
%TD*%
%TO.P,L4,1,1*%
%TO.N,Net-(C14-Pad2)*%
X97412500Y-93200000D03*
%TO.P,L4,2,2*%
%TO.N,/N5V*%
X100387500Y-93200000D03*
%TD*%
%TO.P,L3,1,1*%
%TO.N,Net-(U4-VIN)*%
X91812500Y-93200000D03*
%TO.P,L3,2,2*%
%TO.N,Net-(U4-SW)*%
X94787500Y-93200000D03*
%TD*%
%TO.P,L2,1,1*%
%TO.N,Net-(U4-VIN)*%
X91812500Y-89600000D03*
%TO.P,L2,2,2*%
%TO.N,Net-(U4-SW)*%
X94787500Y-89600000D03*
%TD*%
D23*
%TO.P,L1,1,1*%
%TO.N,Net-(U3-SW)*%
X90900000Y-63512500D03*
%TO.P,L1,2,2*%
%TO.N,/5V*%
X90900000Y-66487500D03*
%TD*%
D24*
%TO.P,J5,1*%
%TO.N,/3V3*%
X79035000Y-78840000D03*
%TO.P,J5,2*%
%TO.N,/DOUT*%
X74965000Y-78840000D03*
%TO.P,J5,3*%
%TO.N,/IN1*%
X79035000Y-77570000D03*
%TO.P,J5,4*%
%TO.N,/CSn*%
X74965000Y-77570000D03*
%TO.P,J5,5*%
%TO.N,/IN2*%
X79035000Y-76300000D03*
%TO.P,J5,6*%
%TO.N,/SCLK*%
X74965000Y-76300000D03*
%TO.P,J5,7*%
%TO.N,/IN3*%
X79035000Y-75030000D03*
%TO.P,J5,8*%
%TO.N,/DIN*%
X74965000Y-75030000D03*
%TO.P,J5,9*%
%TO.N,/IN4*%
X79035000Y-73760000D03*
%TO.P,J5,10*%
%TO.N,GND*%
X74965000Y-73760000D03*
%TD*%
D25*
%TO.P,J4,1*%
%TO.N,GND*%
X135100000Y-90500000D03*
%TO.P,J4,2*%
%TO.N,/Analog_input1/IN+*%
X135100000Y-85500000D03*
%TD*%
%TO.P,J3,2*%
%TO.N,/Analog_input/IN+*%
X135100000Y-71250000D03*
%TO.P,J3,1*%
%TO.N,GND*%
X135100000Y-76250000D03*
%TD*%
%TO.P,J2,2*%
%TO.N,/Thermocouple_conditioning/IN-*%
X135100000Y-57000000D03*
%TO.P,J2,1*%
%TO.N,/Thermocouple_conditioning/IN+*%
X135100000Y-62000000D03*
%TD*%
%TO.P,J1,2*%
%TO.N,GND*%
X77000000Y-63200000D03*
%TO.P,J1,1*%
%TO.N,/Input_Power/V_IN*%
X77000000Y-58200000D03*
%TD*%
D26*
%TO.P,D4,1*%
%TO.N,/N5V*%
X110200000Y-61900000D03*
%TO.P,D4,2*%
%TO.N,Net-(D4-Pad2)*%
X110200000Y-60500000D03*
%TD*%
%TO.P,D3,2*%
%TO.N,Net-(D3-Pad2)*%
X105800000Y-60600000D03*
%TO.P,D3,1*%
%TO.N,GND*%
X105800000Y-62000000D03*
%TD*%
%TO.P,D2,2*%
%TO.N,Net-(D2-Pad2)*%
X101100000Y-60625000D03*
%TO.P,D2,1*%
%TO.N,GND*%
X101100000Y-62025000D03*
%TD*%
D27*
%TO.P,D1,1,K*%
%TO.N,/Input_Power/BOOST*%
X93600000Y-63200000D03*
%TO.P,D1,2,A*%
%TO.N,/5V*%
X93600000Y-64600000D03*
%TD*%
D28*
%TO.P,C27,2*%
%TO.N,GND*%
X115275000Y-71700000D03*
%TO.P,C27,1*%
%TO.N,/N5V*%
X117000000Y-71700000D03*
%TD*%
%TO.P,C26,2*%
%TO.N,GND*%
X114237500Y-76600000D03*
%TO.P,C26,1*%
%TO.N,/5V*%
X115962500Y-76600000D03*
%TD*%
D29*
%TO.P,C21,2*%
%TO.N,GND*%
X112300000Y-75462500D03*
%TO.P,C21,1*%
%TO.N,/IN3*%
X112300000Y-73737500D03*
%TD*%
D28*
%TO.P,C18,1*%
%TO.N,/IN4*%
X116362500Y-84900000D03*
%TO.P,C18,2*%
%TO.N,GND*%
X114637500Y-84900000D03*
%TD*%
D29*
%TO.P,C17,1*%
%TO.N,/N5V*%
X116600000Y-88037500D03*
%TO.P,C17,2*%
%TO.N,GND*%
X116600000Y-89762500D03*
%TD*%
D28*
%TO.P,C16,1*%
%TO.N,/5V*%
X116562500Y-91700000D03*
%TO.P,C16,2*%
%TO.N,GND*%
X114837500Y-91700000D03*
%TD*%
D30*
%TO.P,C15,2*%
%TO.N,GND*%
X103700000Y-86162500D03*
%TO.P,C15,1*%
%TO.N,/N5V*%
X103700000Y-88237500D03*
%TD*%
D31*
%TO.P,C14,1*%
%TO.N,Net-(U4-SW)*%
X95237500Y-87100000D03*
%TO.P,C14,2*%
%TO.N,Net-(C14-Pad2)*%
X96962500Y-87100000D03*
%TD*%
D32*
%TO.P,C13,1*%
%TO.N,Net-(U4-VIN)*%
X87300000Y-86937500D03*
%TO.P,C13,2*%
%TO.N,GND*%
X87300000Y-90062500D03*
%TD*%
D29*
%TO.P,C12,1*%
%TO.N,/3V3*%
X97900000Y-78037500D03*
%TO.P,C12,2*%
%TO.N,GND*%
X97900000Y-79762500D03*
%TD*%
D33*
%TO.P,C10,1*%
%TO.N,GND*%
X126000000Y-64262500D03*
%TO.P,C10,2*%
%TO.N,Net-(C10-Pad2)*%
X126000000Y-62537500D03*
%TD*%
%TO.P,C9,1*%
%TO.N,Net-(C8-Pad2)*%
X126000000Y-57062500D03*
%TO.P,C9,2*%
%TO.N,GND*%
X126000000Y-55337500D03*
%TD*%
%TO.P,C8,1*%
%TO.N,Net-(C10-Pad2)*%
X126000000Y-60662500D03*
%TO.P,C8,2*%
%TO.N,Net-(C8-Pad2)*%
X126000000Y-58937500D03*
%TD*%
%TO.P,C7,1*%
%TO.N,/N5V*%
X109200000Y-87462500D03*
%TO.P,C7,2*%
%TO.N,/Input_Power/N5V_FB*%
X109200000Y-85737500D03*
%TD*%
D34*
%TO.P,C6,1*%
%TO.N,Net-(C4-Pad2)*%
X84137500Y-66900000D03*
%TO.P,C6,2*%
%TO.N,GND*%
X82062500Y-66900000D03*
%TD*%
D33*
%TO.P,C5,1*%
%TO.N,GND*%
X117300000Y-62362500D03*
%TO.P,C5,2*%
X117300000Y-60637500D03*
%TD*%
D34*
%TO.P,C4,1*%
%TO.N,/5V*%
X88037500Y-66900000D03*
%TO.P,C4,2*%
%TO.N,Net-(C4-Pad2)*%
X85962500Y-66900000D03*
%TD*%
D28*
%TO.P,C3,1*%
%TO.N,/Input_Power/BOOST*%
X93355500Y-61200000D03*
%TO.P,C3,2*%
%TO.N,Net-(U3-SW)*%
X91630500Y-61200000D03*
%TD*%
%TO.P,C2,1*%
%TO.N,/5V*%
X121662500Y-62300000D03*
%TO.P,C2,2*%
%TO.N,GND*%
X119937500Y-62300000D03*
%TD*%
D35*
%TO.P,C1,1*%
%TO.N,/Input_Power/V_IN*%
X83500000Y-58025000D03*
%TO.P,C1,2*%
%TO.N,GND*%
X83500000Y-60975000D03*
%TD*%
D36*
%TO.N,GND*%
X87600000Y-91500000D03*
X86900000Y-91500000D03*
X99300000Y-80900000D03*
X98400000Y-80900000D03*
%TO.N,/IN4*%
X79000000Y-72400000D03*
%TO.N,/CSn*%
X71620134Y-77570000D03*
%TO.N,/IN3*%
X77200000Y-74400000D03*
%TO.N,/DOUT*%
X74100000Y-80000000D03*
%TO.N,/SCLK*%
X73220134Y-82179866D03*
%TO.N,/IN2*%
X77200000Y-80200000D03*
%TO.N,/DIN*%
X76500000Y-75000000D03*
%TO.N,/IN1*%
X81200000Y-77600000D03*
X120600000Y-61400000D03*
%TO.N,/IN4*%
X81100000Y-73000000D03*
%TO.N,/IN3*%
X81000000Y-75000000D03*
%TO.N,GND*%
X73331250Y-86168750D03*
%TO.N,/3V3*%
X76200000Y-87000000D03*
X81400000Y-87000000D03*
X96100000Y-77900000D03*
%TO.N,/5V*%
X117400000Y-76200000D03*
%TO.N,/IN4*%
X112800000Y-80900000D03*
%TO.N,/IN3*%
X112300000Y-72900000D03*
%TO.N,GND*%
X114100000Y-71700000D03*
X113100000Y-76600000D03*
%TO.N,Net-(R30-Pad2)*%
X127400000Y-71500000D03*
X126565000Y-76135000D03*
%TO.N,GND*%
X130900000Y-71500000D03*
%TO.N,Net-(R26-Pad1)*%
X116900000Y-74865000D03*
X122600000Y-70900000D03*
%TO.N,Net-(R22-Pad2)*%
X117750000Y-90450000D03*
X120300000Y-86500000D03*
%TO.N,GND*%
X113400000Y-84900000D03*
X113600000Y-91700000D03*
%TO.N,/5V*%
X117700000Y-91700000D03*
%TO.N,Net-(R20-Pad2)*%
X126725000Y-87100000D03*
X125900000Y-91700000D03*
%TO.N,/Thermocouple_conditioning/IN-*%
X130700000Y-61300000D03*
%TO.N,GND*%
X130400000Y-87100000D03*
%TO.N,/5V*%
X118900000Y-58100000D03*
X118900000Y-58800000D03*
%TO.N,GND*%
X118700000Y-62300000D03*
%TO.N,Net-(C8-Pad2)*%
X127037500Y-57900000D03*
X123500000Y-60200000D03*
%TO.N,GND*%
X126000000Y-65500000D03*
X126000000Y-54100000D03*
X121300000Y-54600000D03*
X110200000Y-56200000D03*
X108000000Y-91000000D03*
%TO.N,/Input_Power/N5V_FB*%
X92800000Y-83300000D03*
X106600000Y-84600000D03*
%TO.N,GND*%
X102300000Y-86400000D03*
X102300000Y-85700000D03*
X93900000Y-85900000D03*
%TO.N,/5V*%
X83700000Y-79300000D03*
X84400000Y-79300000D03*
%TO.N,GND*%
X105800000Y-63300000D03*
X92500000Y-75000000D03*
X92500000Y-75800000D03*
%TO.N,/5V*%
X83700000Y-74200000D03*
X84400000Y-74200000D03*
%TO.N,GND*%
X96800000Y-74400000D03*
%TO.N,/5V*%
X101100000Y-56187500D03*
X90700000Y-68300000D03*
X92100000Y-68300000D03*
X94500000Y-68300000D03*
X93400000Y-68300000D03*
%TO.N,GND*%
X101100000Y-63325000D03*
X86200000Y-63000000D03*
X86200000Y-64000000D03*
X94800000Y-58500000D03*
X92450000Y-58500000D03*
X82000000Y-64000000D03*
X83000000Y-64000000D03*
X84000000Y-64000000D03*
X84000000Y-63000000D03*
X83000000Y-63000000D03*
X82000000Y-63000000D03*
%TD*%
D37*
%TO.N,/Input_Power/V_IN*%
X91307000Y-58500000D02*
X89900000Y-58500000D01*
%TO.N,Net-(U2-IN)*%
X90036200Y-78088800D02*
X89525000Y-78600000D01*
X90036200Y-76905000D02*
X90036200Y-78088800D01*
D38*
%TO.N,Net-(U2-~SHDN)*%
X89956200Y-73175000D02*
X90036200Y-73095000D01*
X87800000Y-73175000D02*
X89956200Y-73175000D01*
%TO.N,GND*%
X126625000Y-66125000D02*
X126000000Y-65500000D01*
X129700000Y-66125000D02*
X126625000Y-66125000D01*
D37*
%TO.N,/N5V*%
X111200000Y-70800000D02*
X111200000Y-89400000D01*
X111229000Y-70771000D02*
X111200000Y-70800000D01*
X117000000Y-71700000D02*
X116071000Y-70771000D01*
X116071000Y-70771000D02*
X111229000Y-70771000D01*
D38*
%TO.N,/IN3*%
X79065000Y-75000000D02*
X79035000Y-75030000D01*
X81000000Y-75000000D02*
X79065000Y-75000000D01*
%TO.N,/IN4*%
X80340000Y-73760000D02*
X79035000Y-73760000D01*
X81100000Y-73000000D02*
X80340000Y-73760000D01*
X79000000Y-73725000D02*
X79035000Y-73760000D01*
X79000000Y-72400000D02*
X79000000Y-73725000D01*
%TO.N,/IN3*%
X77830000Y-75030000D02*
X79035000Y-75030000D01*
X77200000Y-74400000D02*
X77830000Y-75030000D01*
%TO.N,/SCLK*%
X71020134Y-77321471D02*
X72041605Y-76300000D01*
X71020134Y-78219331D02*
X71020134Y-77321471D01*
X72041605Y-76300000D02*
X74965000Y-76300000D01*
X73000000Y-81959732D02*
X73000000Y-80199197D01*
X73000000Y-80199197D02*
X71020134Y-78219331D01*
X73220134Y-82179866D02*
X73000000Y-81959732D01*
%TO.N,/CSn*%
X71620134Y-77570000D02*
X74965000Y-77570000D01*
%TO.N,/DOUT*%
X74965000Y-79235000D02*
X74965000Y-78840000D01*
X74200000Y-80000000D02*
X74965000Y-79235000D01*
X74100000Y-80000000D02*
X74200000Y-80000000D01*
%TO.N,/IN2*%
X77940000Y-76300000D02*
X79035000Y-76300000D01*
X77200000Y-80200000D02*
X77200000Y-77040000D01*
X77200000Y-77040000D02*
X77940000Y-76300000D01*
%TO.N,/IN1*%
X81170000Y-77570000D02*
X81200000Y-77600000D01*
X79035000Y-77570000D02*
X81170000Y-77570000D01*
D37*
%TO.N,/3V3*%
X76200000Y-89000000D02*
X76800000Y-89600000D01*
X76200000Y-87000000D02*
X76200000Y-89000000D01*
X81400000Y-87000000D02*
X76200000Y-87000000D01*
D38*
X96100000Y-77900000D02*
X96100000Y-78200000D01*
D37*
%TO.N,/5V*%
X117400000Y-76200000D02*
X117365000Y-76135000D01*
D38*
%TO.N,/IN4*%
X116362500Y-84462500D02*
X112800000Y-80900000D01*
X116362500Y-84900000D02*
X116362500Y-84462500D01*
%TO.N,/IN3*%
X112300000Y-72900000D02*
X112300000Y-72500000D01*
X112300000Y-72500000D02*
X112700000Y-72100000D01*
X112300000Y-73737500D02*
X112300000Y-72900000D01*
%TO.N,Net-(R26-Pad1)*%
X115735000Y-73700000D02*
X116900000Y-74865000D01*
X115425000Y-73700000D02*
X115735000Y-73700000D01*
%TO.N,/IN3*%
X113737500Y-73737500D02*
X113775000Y-73700000D01*
X112300000Y-73737500D02*
X113737500Y-73737500D01*
%TO.N,GND*%
X112300000Y-75800000D02*
X113100000Y-76600000D01*
X112300000Y-75462500D02*
X112300000Y-75800000D01*
D37*
X115275000Y-71700000D02*
X114100000Y-71700000D01*
%TO.N,/N5V*%
X122075000Y-71700000D02*
X117000000Y-71700000D01*
X123970000Y-73595000D02*
X122075000Y-71700000D01*
%TO.N,GND*%
X114237500Y-76600000D02*
X113100000Y-76600000D01*
%TO.N,/5V*%
X116900000Y-76600000D02*
X115962500Y-76600000D01*
X117365000Y-76135000D02*
X116900000Y-76600000D01*
X119030000Y-76135000D02*
X117400000Y-76200000D01*
D38*
X115962500Y-76600000D02*
X116100000Y-76600000D01*
%TO.N,Net-(R30-Pad2)*%
X127400000Y-71500000D02*
X128200000Y-71500000D01*
X126565000Y-76135000D02*
X126600000Y-76100000D01*
X123970000Y-76135000D02*
X126565000Y-76135000D01*
%TO.N,GND*%
X129850000Y-71500000D02*
X130900000Y-71500000D01*
X130400000Y-87100000D02*
X129150000Y-87100000D01*
%TO.N,Net-(R26-Pad1)*%
X116900000Y-74865000D02*
X119030000Y-74865000D01*
X123200000Y-71500000D02*
X122600000Y-70900000D01*
X124800000Y-71500000D02*
X123200000Y-71500000D01*
%TO.N,Net-(R29-Pad2)*%
X127975000Y-74900000D02*
X124005000Y-74900000D01*
X124005000Y-74900000D02*
X123970000Y-74865000D01*
%TO.N,Net-(R30-Pad2)*%
X126450000Y-71500000D02*
X127400000Y-71500000D01*
%TO.N,/Analog_input/IN+*%
X135100000Y-71250000D02*
X131450000Y-74900000D01*
X131450000Y-74900000D02*
X129625000Y-74900000D01*
%TO.N,Net-(R22-Pad2)*%
X124100000Y-87100000D02*
X120900000Y-87100000D01*
X120900000Y-87100000D02*
X120300000Y-86500000D01*
%TO.N,Net-(R31-Pad2)*%
X120875000Y-79250000D02*
X120875000Y-79300000D01*
X119030000Y-77405000D02*
X120875000Y-79250000D01*
%TO.N,/Analog_input/OFFSET*%
X122525000Y-78850000D02*
X122525000Y-79300000D01*
X123970000Y-77405000D02*
X122525000Y-78850000D01*
%TO.N,Net-(R22-Pad2)*%
X117750000Y-90450000D02*
X117700000Y-90400000D01*
X117765000Y-90465000D02*
X117750000Y-90450000D01*
X119275000Y-90465000D02*
X117765000Y-90465000D01*
X120275000Y-86525000D02*
X120300000Y-86500000D01*
X119300000Y-86525000D02*
X120275000Y-86525000D01*
%TO.N,/IN4*%
X119275000Y-84900000D02*
X119300000Y-84875000D01*
X116362500Y-84900000D02*
X119275000Y-84900000D01*
%TO.N,GND*%
X113400000Y-84900000D02*
X114637500Y-84900000D01*
X115537500Y-89762500D02*
X113600000Y-91700000D01*
X116600000Y-89762500D02*
X115537500Y-89762500D01*
%TO.N,/IN4*%
X120925000Y-84875000D02*
X121700000Y-84100000D01*
X119300000Y-84875000D02*
X120925000Y-84875000D01*
D37*
%TO.N,/N5V*%
X121595000Y-89195000D02*
X120400000Y-88000000D01*
D38*
X120400000Y-88000000D02*
X120362500Y-88037500D01*
D37*
X120362500Y-88037500D02*
X116600000Y-88037500D01*
X124215000Y-89195000D02*
X121595000Y-89195000D01*
D38*
X111200000Y-89400000D02*
X111100000Y-89500000D01*
D37*
X112562500Y-88037500D02*
X111200000Y-89400000D01*
X116600000Y-88037500D02*
X112562500Y-88037500D01*
%TO.N,GND*%
X114837500Y-91700000D02*
X113600000Y-91700000D01*
D38*
X114837500Y-91700000D02*
X114700000Y-91700000D01*
D37*
%TO.N,/5V*%
X117700000Y-91700000D02*
X119240000Y-91700000D01*
X116562500Y-91700000D02*
X117700000Y-91700000D01*
D38*
X119240000Y-91700000D02*
X119275000Y-91735000D01*
%TO.N,Net-(R20-Pad2)*%
X125865000Y-91735000D02*
X125900000Y-91700000D01*
X124215000Y-91735000D02*
X125865000Y-91735000D01*
X125750000Y-87100000D02*
X127500000Y-87100000D01*
%TO.N,/Analog_input1/IN+*%
X130100000Y-90500000D02*
X135100000Y-85500000D01*
X129725000Y-90500000D02*
X130100000Y-90500000D01*
%TO.N,Net-(R21-Pad2)*%
X120975000Y-94705000D02*
X119275000Y-93005000D01*
X120975000Y-94900000D02*
X120975000Y-94705000D01*
%TO.N,/Analog_input1/OFFSET*%
X122625000Y-94900000D02*
X122625000Y-94595000D01*
X122625000Y-94595000D02*
X124215000Y-93005000D01*
%TO.N,Net-(R19-Pad2)*%
X128040000Y-90465000D02*
X128075000Y-90500000D01*
X124215000Y-90465000D02*
X128040000Y-90465000D01*
%TO.N,/Thermocouple_conditioning/IN-*%
X129725000Y-61300000D02*
X130700000Y-61300000D01*
%TO.N,/Thermocouple_conditioning/IN+*%
X131000000Y-57900000D02*
X135100000Y-62000000D01*
X129725000Y-57900000D02*
X131000000Y-57900000D01*
X135100000Y-62000000D02*
X135000000Y-62000000D01*
%TO.N,/3V3*%
X94500000Y-79800000D02*
X96100000Y-77900000D01*
X86700648Y-79800000D02*
X94500000Y-79800000D01*
X85200648Y-78300000D02*
X86700648Y-79800000D01*
X79575000Y-78300000D02*
X85200648Y-78300000D01*
X79035000Y-78840000D02*
X79575000Y-78300000D01*
%TO.N,GND*%
X81825000Y-66900000D02*
X74965000Y-73760000D01*
X82062500Y-66900000D02*
X81825000Y-66900000D01*
X118700000Y-62037500D02*
X118700000Y-62300000D01*
X117300000Y-60637500D02*
X118700000Y-62037500D01*
X118637500Y-62362500D02*
X118700000Y-62300000D01*
X117300000Y-62362500D02*
X118637500Y-62362500D01*
%TO.N,/N5V*%
X110200000Y-61900000D02*
X110200000Y-64300000D01*
X110200000Y-64300000D02*
X109975000Y-64525000D01*
%TO.N,/3V3*%
X103900000Y-66500000D02*
X102261800Y-68138200D01*
X103900000Y-59275000D02*
X103900000Y-66500000D01*
X102261800Y-68138200D02*
X102261800Y-77000000D01*
X105800000Y-57375000D02*
X103900000Y-59275000D01*
%TO.N,/IN1*%
X120975000Y-61225000D02*
X120975000Y-60312500D01*
X120800000Y-61400000D02*
X120975000Y-61225000D01*
X120500000Y-61400000D02*
X120800000Y-61400000D01*
X120325000Y-61225000D02*
X120500000Y-61400000D01*
X120325000Y-60312500D02*
X120325000Y-61225000D01*
%TO.N,/5V*%
X121625000Y-62262500D02*
X121662500Y-62300000D01*
X121625000Y-60312500D02*
X121625000Y-62262500D01*
%TO.N,GND*%
X118700000Y-62300000D02*
X119937500Y-62300000D01*
%TO.N,Net-(C8-Pad2)*%
X122275000Y-60312500D02*
X123387500Y-60312500D01*
X123387500Y-60312500D02*
X123500000Y-60200000D01*
%TO.N,GND*%
X126000000Y-55337500D02*
X126000000Y-54100000D01*
X126000000Y-65500000D02*
X126000000Y-64262500D01*
%TO.N,/N5V*%
X109975000Y-86687500D02*
X109200000Y-87462500D01*
X110200000Y-61900000D02*
X110112500Y-61900000D01*
X109975000Y-64525000D02*
X109975000Y-86687500D01*
%TO.N,Net-(C10-Pad2)*%
X122275000Y-56937500D02*
X122275000Y-56087500D01*
X126000000Y-60662500D02*
X122275000Y-56937500D01*
X126000000Y-60662500D02*
X126000000Y-62537500D01*
%TO.N,Net-(C8-Pad2)*%
X126900000Y-57900000D02*
X128075000Y-57900000D01*
X126062500Y-57062500D02*
X126900000Y-57900000D01*
X126000000Y-57062500D02*
X126062500Y-57062500D01*
%TO.N,Net-(C10-Pad2)*%
X126000000Y-60662500D02*
X127437500Y-60662500D01*
X127437500Y-60662500D02*
X128075000Y-61300000D01*
%TO.N,Net-(C8-Pad2)*%
X127037500Y-57900000D02*
X126000000Y-58937500D01*
X128075000Y-57900000D02*
X127037500Y-57900000D01*
%TO.N,/Thermocouple_conditioning/IN-*%
X129725000Y-64450000D02*
X129700000Y-64475000D01*
X129725000Y-61300000D02*
X129725000Y-64450000D01*
%TO.N,/Thermocouple_conditioning/IN+*%
X129725000Y-57925000D02*
X129800000Y-58000000D01*
X129800000Y-58000000D02*
X130050000Y-57750000D01*
X129725000Y-57900000D02*
X129725000Y-57925000D01*
%TO.N,GND*%
X110200000Y-56200000D02*
X110200000Y-57275000D01*
%TO.N,Net-(D4-Pad2)*%
X110200000Y-60500000D02*
X110200000Y-58925000D01*
%TO.N,GND*%
X107025000Y-91000000D02*
X108000000Y-91000000D01*
X103700000Y-84900000D02*
X103700000Y-86162500D01*
X105500000Y-83100000D02*
X103700000Y-84900000D01*
X105475000Y-83100000D02*
X105500000Y-83100000D01*
%TO.N,/Input_Power/N5V_FB*%
X92519200Y-85060200D02*
X92800000Y-84779400D01*
X92800000Y-84779400D02*
X92800000Y-83300000D01*
X106700000Y-84500000D02*
X106600000Y-84600000D01*
X107200000Y-84500000D02*
X106700000Y-84500000D01*
X107200000Y-84500000D02*
X107200000Y-85775000D01*
X107200000Y-83425000D02*
X107200000Y-84500000D01*
%TO.N,/N5V*%
X106387500Y-88237500D02*
X107200000Y-87425000D01*
X103700000Y-88237500D02*
X106387500Y-88237500D01*
%TO.N,/Input_Power/N5V_FB*%
X107225000Y-85775000D02*
X107262500Y-85737500D01*
X107200000Y-85775000D02*
X107225000Y-85775000D01*
X107262500Y-85737500D02*
X109200000Y-85737500D01*
%TO.N,/N5V*%
X109162500Y-87425000D02*
X109200000Y-87462500D01*
X107200000Y-87425000D02*
X109162500Y-87425000D01*
%TO.N,Net-(U4-VIN)*%
X84100000Y-83500000D02*
X87275000Y-83500000D01*
X84100000Y-82125000D02*
X84100000Y-83500000D01*
%TO.N,Net-(U4-~SHDN)*%
X88925000Y-83904400D02*
X90080800Y-85060200D01*
X88925000Y-83500000D02*
X88925000Y-83904400D01*
%TO.N,Net-(D3-Pad2)*%
X105800000Y-60600000D02*
X105800000Y-59025000D01*
%TO.N,GND*%
X105800000Y-63300000D02*
X105800000Y-62000000D01*
%TO.N,Net-(U2-IN)*%
X89750000Y-77150000D02*
X87100000Y-77150000D01*
X90000000Y-76900000D02*
X89750000Y-77150000D01*
X90005000Y-76905000D02*
X90000000Y-76900000D01*
X90036200Y-76905000D02*
X90005000Y-76905000D01*
D39*
X87800000Y-76200000D02*
X86975000Y-77025000D01*
X87800000Y-74825000D02*
X87800000Y-76200000D01*
D38*
X87100000Y-77150000D02*
X86975000Y-77025000D01*
D39*
X84100000Y-77025000D02*
X86975000Y-77025000D01*
D38*
%TO.N,/5V*%
X101100000Y-57500000D02*
X101100000Y-56187500D01*
%TO.N,GND*%
X101100000Y-63325000D02*
X101100000Y-62025000D01*
%TO.N,Net-(D2-Pad2)*%
X101100000Y-59150000D02*
X101100000Y-60625000D01*
%TO.N,Net-(U3-FB)*%
X97000000Y-58200000D02*
X96400000Y-57600000D01*
X97000000Y-61900000D02*
X97000000Y-58200000D01*
X96100000Y-61900000D02*
X96100000Y-61125000D01*
X96100000Y-61900000D02*
X97000000Y-61900000D01*
X96100000Y-62675000D02*
X96100000Y-61900000D01*
%TO.N,GND*%
X96100000Y-59475000D02*
X96100000Y-58500000D01*
%TO.N,/5V*%
X94600000Y-65000000D02*
X94600000Y-64700000D01*
X94800000Y-65200000D02*
X94600000Y-65000000D01*
X95225000Y-65200000D02*
X94800000Y-65200000D01*
X96100000Y-64325000D02*
X95225000Y-65200000D01*
%TO.N,/Input_Power/V_IN*%
X86800000Y-57875000D02*
X86800000Y-58400000D01*
X87375000Y-57300000D02*
X86800000Y-57875000D01*
%TO.N,Net-(U3-\u002ASHDN)*%
X91057000Y-57300000D02*
X91307000Y-57550000D01*
X89025000Y-57300000D02*
X91057000Y-57300000D01*
%TD*%
%TA.AperFunction,Conductor*%
%TO.N,/Input_Power/V_IN*%
G36*
X85443039Y-55519685D02*
G01*
X85488794Y-55572489D01*
X85500000Y-55624000D01*
X85500000Y-58250000D01*
X85250000Y-58250000D01*
X85250000Y-58750000D01*
X85500000Y-58750000D01*
X85500000Y-58870500D01*
X85480315Y-58937539D01*
X85427511Y-58983294D01*
X85376000Y-58994500D01*
X85124000Y-58994500D01*
X85123991Y-58994500D01*
X85123990Y-58994501D01*
X85016549Y-59006052D01*
X85016537Y-59006054D01*
X84965027Y-59017260D01*
X84862502Y-59051383D01*
X84862499Y-59051385D01*
X84844289Y-59063088D01*
X84777249Y-59082771D01*
X84710210Y-59063085D01*
X84664456Y-59010280D01*
X84654513Y-58941122D01*
X84683540Y-58877567D01*
X84689571Y-58871089D01*
X84742315Y-58818345D01*
X84834356Y-58669124D01*
X84834358Y-58669119D01*
X84889505Y-58502697D01*
X84889506Y-58502690D01*
X84899999Y-58399986D01*
X84900000Y-58399973D01*
X84900000Y-58275000D01*
X83750000Y-58275000D01*
X83750000Y-59099999D01*
X84199972Y-59099999D01*
X84199986Y-59099998D01*
X84302697Y-59089505D01*
X84469119Y-59034358D01*
X84469128Y-59034354D01*
X84513617Y-59006912D01*
X84581009Y-58988470D01*
X84647673Y-59009391D01*
X84692444Y-59063032D01*
X84701107Y-59132363D01*
X84672429Y-59193652D01*
X84594433Y-59283664D01*
X84594430Y-59283668D01*
X84534664Y-59414534D01*
X84514976Y-59481582D01*
X84494500Y-59624001D01*
X84494500Y-59676000D01*
X84474815Y-59743039D01*
X84422011Y-59788794D01*
X84370500Y-59800000D01*
X82506059Y-59800000D01*
X82439020Y-59780315D01*
X82424856Y-59769713D01*
X82395681Y-59744432D01*
X82395677Y-59744430D01*
X82264811Y-59684664D01*
X82264806Y-59684662D01*
X82264805Y-59684662D01*
X82197766Y-59664977D01*
X82197768Y-59664977D01*
X82197763Y-59664976D01*
X82135700Y-59656053D01*
X82055346Y-59644500D01*
X77906753Y-59644500D01*
X77839714Y-59624815D01*
X77793959Y-59572011D01*
X77784015Y-59502853D01*
X77813040Y-59439297D01*
X77830589Y-59422647D01*
X77852240Y-59405794D01*
X77247488Y-58801041D01*
X77307890Y-58776022D01*
X77414351Y-58704888D01*
X77504888Y-58614351D01*
X77576022Y-58507890D01*
X77601041Y-58447488D01*
X78205372Y-59051819D01*
X78301667Y-58904431D01*
X78301672Y-58904423D01*
X78399861Y-58680573D01*
X78459869Y-58443605D01*
X78463484Y-58399986D01*
X82100001Y-58399986D01*
X82110494Y-58502697D01*
X82165641Y-58669119D01*
X82165643Y-58669124D01*
X82257684Y-58818345D01*
X82381654Y-58942315D01*
X82530875Y-59034356D01*
X82530880Y-59034358D01*
X82697302Y-59089505D01*
X82697309Y-59089506D01*
X82800019Y-59099999D01*
X83249999Y-59099999D01*
X83250000Y-59099998D01*
X83250000Y-58275000D01*
X82100001Y-58275000D01*
X82100001Y-58399986D01*
X78463484Y-58399986D01*
X78480055Y-58200005D01*
X78480055Y-58199994D01*
X78459869Y-57956394D01*
X78399861Y-57719426D01*
X78369414Y-57650013D01*
X82100000Y-57650013D01*
X82100000Y-57775000D01*
X83250000Y-57775000D01*
X83750000Y-57775000D01*
X84899999Y-57775000D01*
X84899999Y-57650028D01*
X84899998Y-57650013D01*
X84889505Y-57547302D01*
X84834358Y-57380880D01*
X84834356Y-57380875D01*
X84742315Y-57231654D01*
X84618345Y-57107684D01*
X84469124Y-57015643D01*
X84469119Y-57015641D01*
X84302697Y-56960494D01*
X84302690Y-56960493D01*
X84199986Y-56950000D01*
X83750000Y-56950000D01*
X83750000Y-57775000D01*
X83250000Y-57775000D01*
X83250000Y-56950000D01*
X82800028Y-56950000D01*
X82800012Y-56950001D01*
X82697302Y-56960494D01*
X82530880Y-57015641D01*
X82530875Y-57015643D01*
X82381654Y-57107684D01*
X82257684Y-57231654D01*
X82165643Y-57380875D01*
X82165641Y-57380880D01*
X82110494Y-57547302D01*
X82110493Y-57547309D01*
X82100000Y-57650013D01*
X78369414Y-57650013D01*
X78301669Y-57495570D01*
X78205372Y-57348179D01*
X77601041Y-57952510D01*
X77576022Y-57892110D01*
X77504888Y-57785649D01*
X77414351Y-57695112D01*
X77307890Y-57623978D01*
X77247487Y-57598958D01*
X77852240Y-56994204D01*
X77852240Y-56994203D01*
X77809514Y-56960949D01*
X77594531Y-56844605D01*
X77594523Y-56844602D01*
X77363335Y-56765234D01*
X77122221Y-56725000D01*
X76877779Y-56725000D01*
X76636664Y-56765234D01*
X76405476Y-56844602D01*
X76405468Y-56844605D01*
X76190481Y-56960951D01*
X76147758Y-56994202D01*
X76147757Y-56994204D01*
X76752511Y-57598958D01*
X76692110Y-57623978D01*
X76585649Y-57695112D01*
X76495112Y-57785649D01*
X76423978Y-57892110D01*
X76398958Y-57952511D01*
X75794626Y-57348179D01*
X75727809Y-57450451D01*
X75674662Y-57495807D01*
X75605431Y-57505231D01*
X75542095Y-57475729D01*
X75504764Y-57416668D01*
X75500000Y-57382629D01*
X75500000Y-55624000D01*
X75519685Y-55556961D01*
X75572489Y-55511206D01*
X75624000Y-55500000D01*
X85376000Y-55500000D01*
X85443039Y-55519685D01*
G37*
%TD.AperFunction*%
%TA.AperFunction,Conductor*%
G36*
X76423978Y-58507890D02*
G01*
X76495112Y-58614351D01*
X76585649Y-58704888D01*
X76692110Y-58776022D01*
X76752511Y-58801041D01*
X76147758Y-59405794D01*
X76147758Y-59405795D01*
X76169409Y-59422647D01*
X76210222Y-59479357D01*
X76213896Y-59549130D01*
X76179264Y-59609813D01*
X76117323Y-59642140D01*
X76093246Y-59644500D01*
X75624000Y-59644500D01*
X75556961Y-59624815D01*
X75511206Y-59572011D01*
X75500000Y-59520500D01*
X75500000Y-59017369D01*
X75519685Y-58950330D01*
X75572489Y-58904575D01*
X75641647Y-58894631D01*
X75705203Y-58923656D01*
X75727808Y-58949547D01*
X75794626Y-59051819D01*
X76398958Y-58447487D01*
X76423978Y-58507890D01*
G37*
%TD.AperFunction*%
%TD*%
%TA.AperFunction,Conductor*%
%TO.N,GND*%
G36*
X82122385Y-60169685D02*
G01*
X82168140Y-60222489D01*
X82178084Y-60291647D01*
X82167729Y-60326403D01*
X82165642Y-60330877D01*
X82110494Y-60497302D01*
X82110493Y-60497309D01*
X82100000Y-60600013D01*
X82100000Y-60725000D01*
X84899999Y-60725000D01*
X84899999Y-60600028D01*
X84899998Y-60600013D01*
X84889505Y-60497302D01*
X84834357Y-60330877D01*
X84832271Y-60326403D01*
X84821780Y-60257325D01*
X84850301Y-60193542D01*
X84908779Y-60155303D01*
X84944654Y-60150000D01*
X85000000Y-60150000D01*
X85000000Y-65394500D01*
X83529500Y-65394500D01*
X83529491Y-65394500D01*
X83529490Y-65394501D01*
X83422049Y-65406052D01*
X83422037Y-65406054D01*
X83370527Y-65417260D01*
X83268002Y-65451383D01*
X83267996Y-65451386D01*
X83200000Y-65495084D01*
X83200000Y-64500000D01*
X81100000Y-64500000D01*
X81100000Y-65500000D01*
X75624000Y-65500000D01*
X75556961Y-65480315D01*
X75511206Y-65427511D01*
X75500000Y-65376000D01*
X75500000Y-64017369D01*
X75519685Y-63950330D01*
X75572489Y-63904575D01*
X75641647Y-63894631D01*
X75705203Y-63923656D01*
X75727808Y-63949547D01*
X75794626Y-64051819D01*
X76398958Y-63447487D01*
X76423978Y-63507890D01*
X76495112Y-63614351D01*
X76585649Y-63704888D01*
X76692110Y-63776022D01*
X76752511Y-63801041D01*
X76147758Y-64405794D01*
X76147758Y-64405796D01*
X76190478Y-64439046D01*
X76190484Y-64439050D01*
X76405468Y-64555394D01*
X76405476Y-64555397D01*
X76636664Y-64634765D01*
X76877779Y-64675000D01*
X77122221Y-64675000D01*
X77363335Y-64634765D01*
X77594523Y-64555397D01*
X77594531Y-64555394D01*
X77809514Y-64439051D01*
X77809514Y-64439050D01*
X77852240Y-64405795D01*
X77852240Y-64405794D01*
X77247488Y-63801041D01*
X77307890Y-63776022D01*
X77414351Y-63704888D01*
X77504888Y-63614351D01*
X77576022Y-63507890D01*
X77601041Y-63447488D01*
X78205372Y-64051819D01*
X78301667Y-63904431D01*
X78301672Y-63904423D01*
X78399861Y-63680573D01*
X78459869Y-63443605D01*
X78480055Y-63200005D01*
X78480055Y-63199994D01*
X78459869Y-62956394D01*
X78399861Y-62719426D01*
X78301669Y-62495570D01*
X78205372Y-62348179D01*
X77601041Y-62952510D01*
X77576022Y-62892110D01*
X77504888Y-62785649D01*
X77414351Y-62695112D01*
X77307890Y-62623978D01*
X77247487Y-62598958D01*
X77852240Y-61994204D01*
X77852240Y-61994203D01*
X77809514Y-61960949D01*
X77594531Y-61844605D01*
X77594523Y-61844602D01*
X77363335Y-61765234D01*
X77122221Y-61725000D01*
X76877779Y-61725000D01*
X76636664Y-61765234D01*
X76405476Y-61844602D01*
X76405468Y-61844605D01*
X76190481Y-61960951D01*
X76147758Y-61994202D01*
X76147757Y-61994204D01*
X76752511Y-62598958D01*
X76692110Y-62623978D01*
X76585649Y-62695112D01*
X76495112Y-62785649D01*
X76423978Y-62892110D01*
X76398958Y-62952511D01*
X75794626Y-62348179D01*
X75727809Y-62450451D01*
X75674662Y-62495807D01*
X75605431Y-62505231D01*
X75542095Y-62475729D01*
X75504764Y-62416668D01*
X75500000Y-62382629D01*
X75500000Y-61349986D01*
X82100001Y-61349986D01*
X82110494Y-61452697D01*
X82165641Y-61619119D01*
X82165643Y-61619124D01*
X82257684Y-61768345D01*
X82381654Y-61892315D01*
X82530875Y-61984356D01*
X82530880Y-61984358D01*
X82697302Y-62039505D01*
X82697309Y-62039506D01*
X82800019Y-62049999D01*
X83249999Y-62049999D01*
X83750000Y-62049999D01*
X84199972Y-62049999D01*
X84199986Y-62049998D01*
X84302697Y-62039505D01*
X84469119Y-61984358D01*
X84469124Y-61984356D01*
X84618345Y-61892315D01*
X84742315Y-61768345D01*
X84834356Y-61619124D01*
X84834358Y-61619119D01*
X84889505Y-61452697D01*
X84889506Y-61452690D01*
X84899999Y-61349986D01*
X84900000Y-61349973D01*
X84900000Y-61225000D01*
X83750000Y-61225000D01*
X83750000Y-62049999D01*
X83249999Y-62049999D01*
X83250000Y-62049998D01*
X83250000Y-61225000D01*
X82100001Y-61225000D01*
X82100001Y-61349986D01*
X75500000Y-61349986D01*
X75500000Y-60274000D01*
X75519685Y-60206961D01*
X75572489Y-60161206D01*
X75624000Y-60150000D01*
X82055346Y-60150000D01*
X82122385Y-60169685D01*
G37*
%TD.AperFunction*%
%TD*%
%TA.AperFunction,Conductor*%
%TO.N,/Input_Power/V_IN*%
G36*
X89893039Y-58269685D02*
G01*
X89938794Y-58322489D01*
X89950000Y-58374000D01*
X89950000Y-58626000D01*
X89930315Y-58693039D01*
X89877511Y-58738794D01*
X89826000Y-58750000D01*
X85250000Y-58750000D01*
X85250000Y-58250000D01*
X85500000Y-58250000D01*
X89826000Y-58250000D01*
X89893039Y-58269685D01*
G37*
%TD.AperFunction*%
%TD*%
%TA.AperFunction,Conductor*%
%TO.N,GND*%
G36*
X92637539Y-55419685D02*
G01*
X92683294Y-55472489D01*
X92694500Y-55524000D01*
X92694500Y-56672007D01*
X92699197Y-56715686D01*
X92710397Y-56767174D01*
X92712342Y-56775133D01*
X92712890Y-56777373D01*
X92755900Y-56858085D01*
X92769712Y-56874025D01*
X92798738Y-56937579D01*
X92800000Y-56955228D01*
X92800000Y-57179905D01*
X92794929Y-57205396D01*
X92796915Y-57205791D01*
X92782900Y-57276247D01*
X92782900Y-57823750D01*
X92796916Y-57894210D01*
X92794928Y-57894605D01*
X92800000Y-57920094D01*
X92800000Y-58200000D01*
X96476000Y-58200000D01*
X96543039Y-58219685D01*
X96588794Y-58272489D01*
X96600000Y-58324000D01*
X96600000Y-58676000D01*
X96580315Y-58743039D01*
X96527511Y-58788794D01*
X96476000Y-58800000D01*
X95023122Y-58800000D01*
X95005475Y-58798738D01*
X94979477Y-58795000D01*
X94976000Y-58794500D01*
X94884307Y-58794500D01*
X94873892Y-58794872D01*
X94872528Y-58794921D01*
X94868100Y-58795000D01*
X94731900Y-58795000D01*
X94727472Y-58794921D01*
X94726107Y-58794872D01*
X94715693Y-58794500D01*
X92824000Y-58794500D01*
X92823992Y-58794500D01*
X92779460Y-58799289D01*
X92766204Y-58800000D01*
X92241100Y-58800000D01*
X92174061Y-58780315D01*
X92128306Y-58727511D01*
X92117100Y-58676000D01*
X92117100Y-58226249D01*
X92117099Y-58226247D01*
X92103085Y-58155791D01*
X92105070Y-58155396D01*
X92100000Y-58129905D01*
X92100000Y-57920094D01*
X92105071Y-57894605D01*
X92103084Y-57894210D01*
X92117100Y-57823750D01*
X92117100Y-57276249D01*
X92117099Y-57276247D01*
X92103085Y-57205791D01*
X92105070Y-57205396D01*
X92100000Y-57179905D01*
X92100000Y-55524000D01*
X92119685Y-55456961D01*
X92172489Y-55411206D01*
X92224000Y-55400000D01*
X92570500Y-55400000D01*
X92637539Y-55419685D01*
G37*
%TD.AperFunction*%
%TD*%
%TA.AperFunction,Conductor*%
%TO.N,Net-(U3-FB)*%
G36*
X96543039Y-55419685D02*
G01*
X96588794Y-55472489D01*
X96600000Y-55524000D01*
X96600000Y-57776000D01*
X96580315Y-57843039D01*
X96527511Y-57888794D01*
X96476000Y-57900000D01*
X94826600Y-57900000D01*
X94759561Y-57880315D01*
X94713806Y-57827511D01*
X94709272Y-57806672D01*
X94702600Y-57800000D01*
X93467000Y-57800000D01*
X93399961Y-57780315D01*
X93354206Y-57727511D01*
X93343000Y-57676000D01*
X93343000Y-57300000D01*
X93843000Y-57300000D01*
X94702600Y-57300000D01*
X94702600Y-57248172D01*
X94702599Y-57248155D01*
X94696198Y-57188627D01*
X94696196Y-57188620D01*
X94645954Y-57053913D01*
X94645950Y-57053906D01*
X94559790Y-56938812D01*
X94559787Y-56938809D01*
X94444693Y-56852649D01*
X94444686Y-56852645D01*
X94309979Y-56802403D01*
X94309972Y-56802401D01*
X94250444Y-56796000D01*
X93843000Y-56796000D01*
X93843000Y-57300000D01*
X93343000Y-57300000D01*
X93343000Y-56796000D01*
X93024000Y-56796000D01*
X92956961Y-56776315D01*
X92911206Y-56723511D01*
X92900000Y-56672000D01*
X92900000Y-55524000D01*
X92919685Y-55456961D01*
X92972489Y-55411206D01*
X93024000Y-55400000D01*
X96476000Y-55400000D01*
X96543039Y-55419685D01*
G37*
%TD.AperFunction*%
%TD*%
%TA.AperFunction,Conductor*%
%TO.N,/Input_Power/BOOST*%
G36*
X94722684Y-59000500D02*
G01*
X94728039Y-59000500D01*
X94877316Y-59000500D01*
X94884307Y-59000000D01*
X94976000Y-59000000D01*
X95043039Y-59019685D01*
X95088794Y-59072489D01*
X95100000Y-59124000D01*
X95100000Y-63676000D01*
X95080315Y-63743039D01*
X95027511Y-63788794D01*
X94976000Y-63800000D01*
X92824000Y-63800000D01*
X92756961Y-63780315D01*
X92711206Y-63727511D01*
X92700000Y-63676000D01*
X92700000Y-59124000D01*
X92719685Y-59056961D01*
X92772489Y-59011206D01*
X92824000Y-59000000D01*
X94715693Y-59000000D01*
X94722684Y-59000500D01*
G37*
%TD.AperFunction*%
%TD*%
%TA.AperFunction,Conductor*%
%TO.N,Net-(U3-SW)*%
G36*
X92136039Y-59019685D02*
G01*
X92181794Y-59072489D01*
X92193000Y-59124000D01*
X92193000Y-64276000D01*
X92173315Y-64343039D01*
X92120511Y-64388794D01*
X92069000Y-64400000D01*
X89417000Y-64400000D01*
X89349961Y-64380315D01*
X89304206Y-64327511D01*
X89293000Y-64276000D01*
X89293000Y-62100000D01*
X87517000Y-62100000D01*
X87449961Y-62080315D01*
X87404206Y-62027511D01*
X87393000Y-61976000D01*
X87393000Y-59124000D01*
X87412685Y-59056961D01*
X87465489Y-59011206D01*
X87517000Y-59000000D01*
X92069000Y-59000000D01*
X92136039Y-59019685D01*
G37*
%TD.AperFunction*%
%TD*%
%TA.AperFunction,Conductor*%
%TO.N,/5V*%
G36*
X89043039Y-64619685D02*
G01*
X89088794Y-64672489D01*
X89100000Y-64724000D01*
X89100000Y-65700000D01*
X95376000Y-65700000D01*
X95443039Y-65719685D01*
X95488794Y-65772489D01*
X95500000Y-65824000D01*
X95500000Y-69176000D01*
X95480315Y-69243039D01*
X95427511Y-69288794D01*
X95376000Y-69300000D01*
X89624000Y-69300000D01*
X89556961Y-69280315D01*
X89511206Y-69227511D01*
X89500000Y-69176000D01*
X89500000Y-67800000D01*
X87424000Y-67800000D01*
X87356961Y-67780315D01*
X87311206Y-67727511D01*
X87300000Y-67676000D01*
X87300000Y-65423121D01*
X87301262Y-65405473D01*
X87305500Y-65375998D01*
X87305500Y-64724000D01*
X87325185Y-64656961D01*
X87377989Y-64611206D01*
X87429500Y-64600000D01*
X88976000Y-64600000D01*
X89043039Y-64619685D01*
G37*
%TD.AperFunction*%
%TD*%
%TA.AperFunction,Conductor*%
%TO.N,GND*%
G36*
X87043039Y-59519685D02*
G01*
X87088794Y-59572489D01*
X87100000Y-59624000D01*
X87100000Y-65376000D01*
X87080315Y-65443039D01*
X87027511Y-65488794D01*
X86976000Y-65500000D01*
X85000000Y-65500000D01*
X85000000Y-59624000D01*
X85019685Y-59556961D01*
X85072489Y-59511206D01*
X85124000Y-59500000D01*
X86976000Y-59500000D01*
X87043039Y-59519685D01*
G37*
%TD.AperFunction*%
%TD*%
%TA.AperFunction,Conductor*%
%TO.N,Net-(C4-Pad2)*%
G36*
X86943039Y-65919685D02*
G01*
X86988794Y-65972489D01*
X87000000Y-66024000D01*
X87000000Y-67776000D01*
X86980315Y-67843039D01*
X86927511Y-67888794D01*
X86876000Y-67900000D01*
X83529500Y-67900000D01*
X83462461Y-67880315D01*
X83416706Y-67827511D01*
X83405500Y-67776000D01*
X83405500Y-66024000D01*
X83425185Y-65956961D01*
X83477989Y-65911206D01*
X83529500Y-65900000D01*
X86876000Y-65900000D01*
X86943039Y-65919685D01*
G37*
%TD.AperFunction*%
%TD*%
%TA.AperFunction,Conductor*%
%TO.N,GND*%
G36*
X83200000Y-65500000D02*
G01*
X83200000Y-67776000D01*
X83180315Y-67843039D01*
X83127511Y-67888794D01*
X83076000Y-67900000D01*
X81224000Y-67900000D01*
X81156961Y-67880315D01*
X81111206Y-67827511D01*
X81100000Y-67776000D01*
X81100000Y-65500000D01*
X81100000Y-64500000D01*
X83200000Y-64500000D01*
X83200000Y-65500000D01*
G37*
%TD.AperFunction*%
%TD*%
%TA.AperFunction,Conductor*%
%TO.N,/5V*%
G36*
X95043039Y-64219685D02*
G01*
X95088794Y-64272489D01*
X95100000Y-64324000D01*
X95100000Y-65700000D01*
X92700000Y-65700000D01*
X92700000Y-64324000D01*
X92719685Y-64256961D01*
X92772489Y-64211206D01*
X92824000Y-64200000D01*
X94976000Y-64200000D01*
X95043039Y-64219685D01*
G37*
%TD.AperFunction*%
%TD*%
%TA.AperFunction,Conductor*%
%TO.N,/5V*%
G36*
X84743039Y-73819685D02*
G01*
X84788794Y-73872489D01*
X84800000Y-73924000D01*
X84800000Y-75776000D01*
X84780315Y-75843039D01*
X84727511Y-75888794D01*
X84676000Y-75900000D01*
X83524000Y-75900000D01*
X83456961Y-75880315D01*
X83411206Y-75827511D01*
X83400000Y-75776000D01*
X83400000Y-73924000D01*
X83419685Y-73856961D01*
X83472489Y-73811206D01*
X83524000Y-73800000D01*
X84676000Y-73800000D01*
X84743039Y-73819685D01*
G37*
%TD.AperFunction*%
%TD*%
%TA.AperFunction,Conductor*%
%TO.N,GND*%
G36*
X97443039Y-73719685D02*
G01*
X97488794Y-73772489D01*
X97500000Y-73824000D01*
X97500000Y-74776000D01*
X97480315Y-74843039D01*
X97427511Y-74888794D01*
X97376000Y-74900000D01*
X93600000Y-74900000D01*
X93600000Y-76376878D01*
X93598738Y-76394525D01*
X93594500Y-76424000D01*
X93594500Y-78776007D01*
X93599289Y-78820539D01*
X93600000Y-78833795D01*
X93600000Y-79375500D01*
X93580315Y-79442539D01*
X93527511Y-79488294D01*
X93476000Y-79499500D01*
X91624000Y-79499500D01*
X91556961Y-79479815D01*
X91511206Y-79427011D01*
X91500000Y-79375500D01*
X91500000Y-73824000D01*
X91519685Y-73756961D01*
X91572489Y-73711206D01*
X91624000Y-73700000D01*
X97376000Y-73700000D01*
X97443039Y-73719685D01*
G37*
%TD.AperFunction*%
%TD*%
%TA.AperFunction,Conductor*%
%TO.N,/3V3*%
G36*
X103443039Y-76319685D02*
G01*
X103488794Y-76372489D01*
X103500000Y-76424000D01*
X103500000Y-78776000D01*
X103480315Y-78843039D01*
X103427511Y-78888794D01*
X103376000Y-78900000D01*
X100623122Y-78900000D01*
X100605475Y-78898738D01*
X100591358Y-78896708D01*
X100576000Y-78894500D01*
X97324000Y-78894500D01*
X97323992Y-78894500D01*
X97279460Y-78899289D01*
X97266204Y-78900000D01*
X93924000Y-78900000D01*
X93856961Y-78880315D01*
X93811206Y-78827511D01*
X93800000Y-78776000D01*
X93800000Y-76424000D01*
X93819685Y-76356961D01*
X93872489Y-76311206D01*
X93924000Y-76300000D01*
X103376000Y-76300000D01*
X103443039Y-76319685D01*
G37*
%TD.AperFunction*%
%TD*%
%TA.AperFunction,Conductor*%
%TO.N,/5V*%
G36*
X84743039Y-78919685D02*
G01*
X84788794Y-78972489D01*
X84800000Y-79024000D01*
X84800000Y-80876000D01*
X84780315Y-80943039D01*
X84727511Y-80988794D01*
X84676000Y-81000000D01*
X83524000Y-81000000D01*
X83456961Y-80980315D01*
X83411206Y-80927511D01*
X83400000Y-80876000D01*
X83400000Y-79024000D01*
X83419685Y-78956961D01*
X83472489Y-78911206D01*
X83524000Y-78900000D01*
X84676000Y-78900000D01*
X84743039Y-78919685D01*
G37*
%TD.AperFunction*%
%TD*%
%TA.AperFunction,Conductor*%
%TO.N,Net-(U4-VIN)*%
G36*
X84743039Y-81519685D02*
G01*
X84788794Y-81572489D01*
X84800000Y-81624000D01*
X84800000Y-85900000D01*
X88900000Y-85900000D01*
X88900000Y-87700000D01*
X83524000Y-87700000D01*
X83456961Y-87680315D01*
X83411206Y-87627511D01*
X83400000Y-87576000D01*
X83400000Y-81624000D01*
X83419685Y-81556961D01*
X83472489Y-81511206D01*
X83524000Y-81500000D01*
X84676000Y-81500000D01*
X84743039Y-81519685D01*
G37*
%TD.AperFunction*%
%TD*%
%TA.AperFunction,Conductor*%
%TO.N,Net-(U4-VIN)*%
G36*
X90843039Y-85919685D02*
G01*
X90888794Y-85972489D01*
X90900000Y-86024000D01*
X90900000Y-87700000D01*
X92676000Y-87700000D01*
X92743039Y-87719685D01*
X92788794Y-87772489D01*
X92800000Y-87824000D01*
X92800000Y-94576000D01*
X92780315Y-94643039D01*
X92727511Y-94688794D01*
X92676000Y-94700000D01*
X89024000Y-94700000D01*
X88956961Y-94680315D01*
X88911206Y-94627511D01*
X88900000Y-94576000D01*
X88900000Y-87700000D01*
X88900000Y-85900000D01*
X90776000Y-85900000D01*
X90843039Y-85919685D01*
G37*
%TD.AperFunction*%
%TD*%
%TA.AperFunction,Conductor*%
%TO.N,Net-(U4-SW)*%
G36*
X95743039Y-86519685D02*
G01*
X95788794Y-86572489D01*
X95800000Y-86624000D01*
X95800000Y-94576000D01*
X95780315Y-94643039D01*
X95727511Y-94688794D01*
X95676000Y-94700000D01*
X94024000Y-94700000D01*
X93956961Y-94680315D01*
X93911206Y-94627511D01*
X93900000Y-94576000D01*
X93900000Y-87400000D01*
X91824000Y-87400000D01*
X91756961Y-87380315D01*
X91711206Y-87327511D01*
X91700000Y-87276000D01*
X91700000Y-86729500D01*
X91719685Y-86662461D01*
X91772489Y-86616706D01*
X91824000Y-86605500D01*
X94375991Y-86605500D01*
X94376000Y-86605500D01*
X94419684Y-86600803D01*
X94448875Y-86594452D01*
X94471174Y-86589602D01*
X94471190Y-86589598D01*
X94471195Y-86589597D01*
X94481373Y-86587110D01*
X94562085Y-86544100D01*
X94578027Y-86530285D01*
X94641583Y-86501262D01*
X94659229Y-86500000D01*
X95676000Y-86500000D01*
X95743039Y-86519685D01*
G37*
%TD.AperFunction*%
%TD*%
%TA.AperFunction,Conductor*%
%TO.N,Net-(C14-Pad2)*%
G36*
X99643039Y-83719685D02*
G01*
X99688794Y-83772489D01*
X99700000Y-83824000D01*
X99700000Y-86551517D01*
X99680315Y-86618556D01*
X99667116Y-86635624D01*
X98500000Y-87899999D01*
X98500000Y-94576000D01*
X98480315Y-94643039D01*
X98427511Y-94688794D01*
X98376000Y-94700000D01*
X96524000Y-94700000D01*
X96456961Y-94680315D01*
X96411206Y-94627511D01*
X96400000Y-94576000D01*
X96400000Y-86329500D01*
X96419685Y-86262461D01*
X96472489Y-86216706D01*
X96524000Y-86205500D01*
X97275991Y-86205500D01*
X97276000Y-86205500D01*
X97319684Y-86200803D01*
X97348875Y-86194452D01*
X97371174Y-86189602D01*
X97371190Y-86189598D01*
X97371195Y-86189597D01*
X97381373Y-86187110D01*
X97462085Y-86144100D01*
X97514889Y-86098345D01*
X97532843Y-86080754D01*
X97577490Y-86000937D01*
X97597175Y-85933898D01*
X97605500Y-85876000D01*
X97605500Y-83824000D01*
X97625185Y-83756961D01*
X97677989Y-83711206D01*
X97729500Y-83700000D01*
X99576000Y-83700000D01*
X99643039Y-83719685D01*
G37*
%TD.AperFunction*%
%TD*%
%TA.AperFunction,Conductor*%
%TO.N,GND*%
G36*
X97343039Y-83119685D02*
G01*
X97388794Y-83172489D01*
X97400000Y-83224000D01*
X97400000Y-85876000D01*
X97380315Y-85943039D01*
X97327511Y-85988794D01*
X97276000Y-86000000D01*
X94500000Y-86000000D01*
X94500000Y-86276000D01*
X94480315Y-86343039D01*
X94427511Y-86388794D01*
X94376000Y-86400000D01*
X91824000Y-86400000D01*
X91756961Y-86380315D01*
X91711206Y-86327511D01*
X91700000Y-86276000D01*
X91700000Y-85628030D01*
X91719685Y-85560991D01*
X91772489Y-85515236D01*
X91841647Y-85505292D01*
X91848174Y-85506409D01*
X91878062Y-85512354D01*
X91889851Y-85514700D01*
X91889852Y-85514700D01*
X93148550Y-85514700D01*
X93148551Y-85514699D01*
X93160488Y-85512324D01*
X93210474Y-85502383D01*
X93234665Y-85500000D01*
X93600000Y-85500000D01*
X93600000Y-83224000D01*
X93619685Y-83156961D01*
X93672489Y-83111206D01*
X93724000Y-83100000D01*
X97276000Y-83100000D01*
X97343039Y-83119685D01*
G37*
%TD.AperFunction*%
%TD*%
%TA.AperFunction,Conductor*%
%TO.N,/N5V*%
G36*
X105943039Y-87419685D02*
G01*
X105988794Y-87472489D01*
X106000000Y-87524000D01*
X106000000Y-88800000D01*
X105500000Y-88800000D01*
X105500000Y-90000000D01*
X106000000Y-90000000D01*
X106000000Y-94576000D01*
X105980315Y-94643039D01*
X105927511Y-94688794D01*
X105876000Y-94700000D01*
X99524000Y-94700000D01*
X99456961Y-94680315D01*
X99411206Y-94627511D01*
X99400000Y-94576000D01*
X99400000Y-88124000D01*
X99419685Y-88056961D01*
X99472489Y-88011206D01*
X99524000Y-88000000D01*
X102700000Y-88000000D01*
X102700000Y-87524000D01*
X102719685Y-87456961D01*
X102772489Y-87411206D01*
X102824000Y-87400000D01*
X105876000Y-87400000D01*
X105943039Y-87419685D01*
G37*
%TD.AperFunction*%
%TD*%
%TA.AperFunction,Conductor*%
%TO.N,GND*%
G36*
X104643039Y-85319685D02*
G01*
X104688794Y-85372489D01*
X104700000Y-85424000D01*
X104700000Y-86776000D01*
X104680315Y-86843039D01*
X104627511Y-86888794D01*
X104576000Y-86900000D01*
X102124000Y-86900000D01*
X102056961Y-86880315D01*
X102011206Y-86827511D01*
X102000000Y-86776000D01*
X102000000Y-85424000D01*
X102019685Y-85356961D01*
X102072489Y-85311206D01*
X102124000Y-85300000D01*
X104576000Y-85300000D01*
X104643039Y-85319685D01*
G37*
%TD.AperFunction*%
%TD*%
%TA.AperFunction,Conductor*%
%TO.N,GND*%
G36*
X121843039Y-54319685D02*
G01*
X121888794Y-54372489D01*
X121900000Y-54424000D01*
X121900000Y-55227700D01*
X121889435Y-55277785D01*
X121877415Y-55305006D01*
X121877415Y-55305008D01*
X121874500Y-55330131D01*
X121874500Y-56844856D01*
X121874502Y-56844882D01*
X121877413Y-56869986D01*
X121877414Y-56869990D01*
X121877415Y-56869991D01*
X121889435Y-56897213D01*
X121900000Y-56947297D01*
X121900000Y-56976000D01*
X121880315Y-57043039D01*
X121827511Y-57088794D01*
X121776000Y-57100000D01*
X120824000Y-57100000D01*
X120756961Y-57080315D01*
X120711206Y-57027511D01*
X120700000Y-56976000D01*
X120700000Y-56947298D01*
X120710565Y-56897212D01*
X120722585Y-56869991D01*
X120725500Y-56844865D01*
X120725499Y-55330136D01*
X120722585Y-55305009D01*
X120716370Y-55290934D01*
X120710564Y-55277783D01*
X120700000Y-55227700D01*
X120700000Y-54424000D01*
X120719685Y-54356961D01*
X120772489Y-54311206D01*
X120824000Y-54300000D01*
X121776000Y-54300000D01*
X121843039Y-54319685D01*
G37*
%TD.AperFunction*%
%TD*%
%TA.AperFunction,Conductor*%
%TO.N,/5V*%
G36*
X121843039Y-57719685D02*
G01*
X121888794Y-57772489D01*
X121900000Y-57824000D01*
X121900000Y-59452700D01*
X121889435Y-59502785D01*
X121877415Y-59530006D01*
X121877415Y-59530008D01*
X121877415Y-59530009D01*
X121874500Y-59555135D01*
X121874500Y-60272938D01*
X121874501Y-60976000D01*
X121854816Y-61043039D01*
X121802013Y-61088794D01*
X121750501Y-61100000D01*
X121499500Y-61100000D01*
X121432461Y-61080315D01*
X121386706Y-61027511D01*
X121375500Y-60976000D01*
X121375499Y-59555143D01*
X121375499Y-59555137D01*
X121375499Y-59555136D01*
X121375497Y-59555117D01*
X121372586Y-59530012D01*
X121372585Y-59530010D01*
X121372585Y-59530009D01*
X121327206Y-59427235D01*
X121327203Y-59427232D01*
X121321699Y-59419196D01*
X121300054Y-59352764D01*
X121300000Y-59349121D01*
X121300000Y-59200000D01*
X118724000Y-59200000D01*
X118656961Y-59180315D01*
X118611206Y-59127511D01*
X118600000Y-59076000D01*
X118600000Y-57824000D01*
X118619685Y-57756961D01*
X118672489Y-57711206D01*
X118724000Y-57700000D01*
X121776000Y-57700000D01*
X121843039Y-57719685D01*
G37*
%TD.AperFunction*%
%TD*%
%TA.AperFunction,Conductor*%
%TO.N,/N5V*%
G36*
X114443039Y-88819685D02*
G01*
X114488794Y-88872489D01*
X114500000Y-88924000D01*
X114500000Y-89876000D01*
X114480315Y-89943039D01*
X114427511Y-89988794D01*
X114376000Y-90000000D01*
X105500000Y-90000000D01*
X105500000Y-88800000D01*
X106000000Y-88800000D01*
X114376000Y-88800000D01*
X114443039Y-88819685D01*
G37*
%TD.AperFunction*%
%TD*%
%TA.AperFunction,Conductor*%
%TO.N,GND*%
G36*
X100643039Y-79119685D02*
G01*
X100688794Y-79172489D01*
X100700000Y-79224000D01*
X100700000Y-81076000D01*
X100680315Y-81143039D01*
X100627511Y-81188794D01*
X100576000Y-81200000D01*
X97324000Y-81200000D01*
X97256961Y-81180315D01*
X97211206Y-81127511D01*
X97200000Y-81076000D01*
X97200000Y-79224000D01*
X97219685Y-79156961D01*
X97272489Y-79111206D01*
X97324000Y-79100000D01*
X100576000Y-79100000D01*
X100643039Y-79119685D01*
G37*
%TD.AperFunction*%
%TD*%
%TA.AperFunction,Conductor*%
%TO.N,GND*%
G36*
X88243039Y-89419685D02*
G01*
X88288794Y-89472489D01*
X88300000Y-89524000D01*
X88300000Y-91676000D01*
X88280315Y-91743039D01*
X88227511Y-91788794D01*
X88176000Y-91800000D01*
X86424000Y-91800000D01*
X86356961Y-91780315D01*
X86311206Y-91727511D01*
X86300000Y-91676000D01*
X86300000Y-89524000D01*
X86319685Y-89456961D01*
X86372489Y-89411206D01*
X86424000Y-89400000D01*
X88176000Y-89400000D01*
X88243039Y-89419685D01*
G37*
%TD.AperFunction*%
%TD*%
M02*
