M48
; DRILL file {KiCad 8.0.6} date 2024-11-16T21:14:43-0800
; FORMAT={-:-/ absolute / inch / decimal}
; #@! TF.CreationDate,2024-11-16T21:14:43-08:00
; #@! TF.GenerationSoftware,Kicad,Pcbnew,8.0.6
; #@! TF.FileFunction,Plated,1,4,PTH
FMAT,2
INCH
; #@! TA.AperFunction,Plated,PTH,ViaDrill
T1C0.0118
; #@! TA.AperFunction,Plated,PTH,ComponentDrill
T2C0.0512
%
G90
G05
T1
X2.8197Y-3.0539
X2.8827Y-3.2354
X2.8871Y-3.3925
X2.9173Y-3.1496
X3.0Y-3.4252
X3.0118Y-2.9528
X3.0394Y-2.9291
X3.0394Y-3.1575
X3.1102Y-2.8504
X3.189Y-2.9528
X3.1929Y-2.874
X3.1969Y-3.0551
X3.2047Y-3.4252
X3.2283Y-2.4803
X3.2283Y-2.5197
X3.2677Y-2.4803
X3.2677Y-2.5197
X3.2953Y-2.9213
X3.2953Y-3.122
X3.3071Y-2.4803
X3.3071Y-2.5197
X3.3228Y-2.9213
X3.3228Y-3.122
X3.3937Y-2.4803
X3.3937Y-2.5197
X3.4213Y-3.6024
X3.4488Y-3.6024
X3.5709Y-2.689
X3.626Y-2.689
X3.6398Y-2.3031
X3.6417Y-2.9528
X3.6417Y-2.9843
X3.6535Y-3.2795
X3.6772Y-2.689
X3.6969Y-3.3819
X3.7205Y-2.689
X3.7323Y-2.3031
X3.7835Y-3.0669
X3.811Y-2.9291
X3.874Y-3.185
X3.9094Y-3.185
X3.9803Y-2.2121
X3.9803Y-2.4931
X4.0276Y-3.374
X4.0276Y-3.4016
X4.1654Y-2.4921
X4.1969Y-3.3307
X4.252Y-3.5827
X4.3386Y-2.2126
X4.4213Y-2.8701
X4.4409Y-3.185
X4.4528Y-3.0157
X4.4646Y-3.3425
X4.4724Y-3.6102
X4.4921Y-2.8228
X4.6024Y-2.9474
X4.622Y-3.0
X4.6339Y-3.6102
X4.6358Y-3.561
X4.6732Y-2.4528
X4.6811Y-2.2874
X4.6811Y-2.315
X4.7362Y-3.4055
X4.748Y-2.4173
X4.7756Y-2.1496
X4.8268Y-2.7913
X4.8622Y-2.3701
X4.9567Y-3.6102
X4.9606Y-2.1299
X4.9606Y-2.5787
X4.9829Y-2.9974
X4.9892Y-3.4291
X5.0015Y-2.2795
X5.0157Y-2.815
X5.1339Y-3.4291
X5.1457Y-2.4134
X5.1535Y-2.815
T2
X3.0315Y-2.2913
X3.0315Y-2.4882
X5.3189Y-2.2441
X5.3189Y-2.4409
X5.3189Y-2.8051
X5.3189Y-3.002
X5.3189Y-3.3661
X5.3189Y-3.563
M30
