%TF.GenerationSoftware,KiCad,Pcbnew,8.0.6*%
%TF.CreationDate,2024-11-16T21:14:38-08:00*%
%TF.ProjectId,CAN_adc,43414e5f-6164-4632-9e6b-696361645f70,rev?*%
%TF.SameCoordinates,Original*%
%TF.FileFunction,Copper,L2,Inr*%
%TF.FilePolarity,Positive*%
%FSLAX46Y46*%
G04 Gerber Fmt 4.6, Leading zero omitted, Abs format (unit mm)*
G04 Created by KiCad (PCBNEW 8.0.6) date 2024-11-16 21:14:38*
%MOMM*%
%LPD*%
G01*
G04 APERTURE LIST*
%TA.AperFunction,ComponentPad*%
%ADD10C,1.950000*%
%TD*%
%TA.AperFunction,ViaPad*%
%ADD11C,0.600000*%
%TD*%
G04 APERTURE END LIST*
D10*
%TO.N,GND*%
%TO.C,J4*%
X135100000Y-90500000D03*
%TO.N,/Analog_input1/IN+*%
X135100000Y-85500000D03*
%TD*%
%TO.N,/Analog_input/IN+*%
%TO.C,J3*%
X135100000Y-71250000D03*
%TO.N,GND*%
X135100000Y-76250000D03*
%TD*%
%TO.N,/Thermocouple_conditioning/IN-*%
%TO.C,J2*%
X135100000Y-57000000D03*
%TO.N,/Thermocouple_conditioning/IN+*%
X135100000Y-62000000D03*
%TD*%
%TO.N,GND*%
%TO.C,J1*%
X77000000Y-63200000D03*
%TO.N,/Input_Power/V_IN*%
X77000000Y-58200000D03*
%TD*%
D11*
%TO.N,GND*%
X87600000Y-91500000D03*
X86900000Y-91500000D03*
X99300000Y-80900000D03*
X98400000Y-80900000D03*
%TO.N,/IN4*%
X79000000Y-72400000D03*
%TO.N,/CSn*%
X71620134Y-77570000D03*
%TO.N,/IN3*%
X77200000Y-74400000D03*
%TO.N,/DOUT*%
X74100000Y-80000000D03*
%TO.N,/SCLK*%
X73220134Y-82179866D03*
%TO.N,/IN2*%
X77200000Y-80200000D03*
%TO.N,/DIN*%
X76500000Y-75000000D03*
%TO.N,/IN1*%
X81200000Y-77600000D03*
X120600000Y-61400000D03*
%TO.N,/IN4*%
X81100000Y-73000000D03*
%TO.N,/IN3*%
X81000000Y-75000000D03*
%TO.N,GND*%
X73331250Y-86168750D03*
%TO.N,/3V3*%
X76200000Y-87000000D03*
X81400000Y-87000000D03*
X96100000Y-77900000D03*
%TO.N,/5V*%
X117400000Y-76200000D03*
%TO.N,/IN4*%
X112800000Y-80900000D03*
%TO.N,/IN3*%
X112300000Y-72900000D03*
%TO.N,GND*%
X114100000Y-71700000D03*
X113100000Y-76600000D03*
%TO.N,Net-(R30-Pad2)*%
X127400000Y-71500000D03*
X126565000Y-76135000D03*
%TO.N,GND*%
X130900000Y-71500000D03*
%TO.N,Net-(R26-Pad1)*%
X116900000Y-74865000D03*
X122600000Y-70900000D03*
%TO.N,Net-(R22-Pad2)*%
X117750000Y-90450000D03*
X120300000Y-86500000D03*
%TO.N,GND*%
X113400000Y-84900000D03*
X113600000Y-91700000D03*
%TO.N,/5V*%
X117700000Y-91700000D03*
%TO.N,Net-(R20-Pad2)*%
X126725000Y-87100000D03*
X125900000Y-91700000D03*
%TO.N,/Thermocouple_conditioning/IN-*%
X130700000Y-61300000D03*
%TO.N,GND*%
X130400000Y-87100000D03*
%TO.N,/5V*%
X118900000Y-58100000D03*
X118900000Y-58800000D03*
%TO.N,GND*%
X118700000Y-62300000D03*
%TO.N,Net-(C8-Pad2)*%
X127037500Y-57900000D03*
X123500000Y-60200000D03*
%TO.N,GND*%
X126000000Y-65500000D03*
X126000000Y-54100000D03*
X121300000Y-54600000D03*
X110200000Y-56200000D03*
X108000000Y-91000000D03*
%TO.N,/Input_Power/N5V_FB*%
X92800000Y-83300000D03*
X106600000Y-84600000D03*
%TO.N,GND*%
X102300000Y-86400000D03*
X102300000Y-85700000D03*
X93900000Y-85900000D03*
%TO.N,/5V*%
X83700000Y-79300000D03*
X84400000Y-79300000D03*
%TO.N,GND*%
X105800000Y-63300000D03*
X92500000Y-75000000D03*
X92500000Y-75800000D03*
%TO.N,/5V*%
X83700000Y-74200000D03*
X84400000Y-74200000D03*
%TO.N,GND*%
X96800000Y-74400000D03*
%TO.N,/5V*%
X101100000Y-56187500D03*
X90700000Y-68300000D03*
X92100000Y-68300000D03*
X94500000Y-68300000D03*
X93400000Y-68300000D03*
%TO.N,GND*%
X101100000Y-63325000D03*
X86200000Y-63000000D03*
X86200000Y-64000000D03*
X94800000Y-58500000D03*
X92450000Y-58500000D03*
X82000000Y-64000000D03*
X83000000Y-64000000D03*
X84000000Y-64000000D03*
X84000000Y-63000000D03*
X83000000Y-63000000D03*
X82000000Y-63000000D03*
%TD*%
%TA.AperFunction,Conductor*%
%TO.N,GND*%
G36*
X143442539Y-50520185D02*
G01*
X143488294Y-50572989D01*
X143499500Y-50624500D01*
X143499500Y-96875500D01*
X143479815Y-96942539D01*
X143427011Y-96988294D01*
X143375500Y-96999500D01*
X70624500Y-96999500D01*
X70557461Y-96979815D01*
X70511706Y-96927011D01*
X70500500Y-96875500D01*
X70500500Y-94199998D01*
X71380395Y-94199998D01*
X71380395Y-94200001D01*
X71399934Y-94473188D01*
X71399935Y-94473195D01*
X71444710Y-94679022D01*
X71458152Y-94740815D01*
X71553866Y-94997433D01*
X71553868Y-94997438D01*
X71685122Y-95237811D01*
X71685127Y-95237819D01*
X71849252Y-95457066D01*
X71849268Y-95457084D01*
X72042915Y-95650731D01*
X72042933Y-95650747D01*
X72262180Y-95814872D01*
X72262188Y-95814877D01*
X72502561Y-95946131D01*
X72502560Y-95946131D01*
X72502564Y-95946132D01*
X72502567Y-95946134D01*
X72759185Y-96041848D01*
X73026812Y-96100066D01*
X73280460Y-96118207D01*
X73299999Y-96119605D01*
X73300000Y-96119605D01*
X73300001Y-96119605D01*
X73318235Y-96118300D01*
X73573188Y-96100066D01*
X73840815Y-96041848D01*
X74097433Y-95946134D01*
X74337817Y-95814874D01*
X74557074Y-95650741D01*
X74750741Y-95457074D01*
X74914874Y-95237817D01*
X75046134Y-94997433D01*
X75141848Y-94740815D01*
X75200066Y-94473188D01*
X75219605Y-94200000D01*
X75205300Y-93999998D01*
X138780395Y-93999998D01*
X138780395Y-94000001D01*
X138799934Y-94273188D01*
X138799935Y-94273195D01*
X138843442Y-94473195D01*
X138858152Y-94540815D01*
X138953866Y-94797433D01*
X138953868Y-94797438D01*
X139085122Y-95037811D01*
X139085127Y-95037819D01*
X139249252Y-95257066D01*
X139249268Y-95257084D01*
X139442915Y-95450731D01*
X139442933Y-95450747D01*
X139662180Y-95614872D01*
X139662188Y-95614877D01*
X139902561Y-95746131D01*
X139902560Y-95746131D01*
X139902564Y-95746132D01*
X139902567Y-95746134D01*
X140159185Y-95841848D01*
X140426812Y-95900066D01*
X140680460Y-95918207D01*
X140699999Y-95919605D01*
X140700000Y-95919605D01*
X140700001Y-95919605D01*
X140718235Y-95918300D01*
X140973188Y-95900066D01*
X141240815Y-95841848D01*
X141497433Y-95746134D01*
X141737817Y-95614874D01*
X141957074Y-95450741D01*
X142150741Y-95257074D01*
X142314874Y-95037817D01*
X142446134Y-94797433D01*
X142541848Y-94540815D01*
X142600066Y-94273188D01*
X142619605Y-94000000D01*
X142600066Y-93726812D01*
X142541848Y-93459185D01*
X142446134Y-93202567D01*
X142424085Y-93162188D01*
X142314877Y-92962188D01*
X142314872Y-92962180D01*
X142150747Y-92742933D01*
X142150731Y-92742915D01*
X141957084Y-92549268D01*
X141957066Y-92549252D01*
X141737819Y-92385127D01*
X141737811Y-92385122D01*
X141497438Y-92253868D01*
X141497439Y-92253868D01*
X141447468Y-92235230D01*
X141240815Y-92158152D01*
X141240808Y-92158150D01*
X141240807Y-92158150D01*
X140973195Y-92099935D01*
X140973188Y-92099934D01*
X140700001Y-92080395D01*
X140699999Y-92080395D01*
X140426811Y-92099934D01*
X140426804Y-92099935D01*
X140159192Y-92158150D01*
X140159188Y-92158151D01*
X140159185Y-92158152D01*
X139974489Y-92227040D01*
X139902561Y-92253868D01*
X139662188Y-92385122D01*
X139662180Y-92385127D01*
X139442933Y-92549252D01*
X139442915Y-92549268D01*
X139249268Y-92742915D01*
X139249252Y-92742933D01*
X139085127Y-92962180D01*
X139085122Y-92962188D01*
X138953868Y-93202561D01*
X138953866Y-93202567D01*
X138858152Y-93459185D01*
X138858151Y-93459188D01*
X138858150Y-93459192D01*
X138799935Y-93726804D01*
X138799934Y-93726811D01*
X138780395Y-93999998D01*
X75205300Y-93999998D01*
X75200066Y-93926812D01*
X75141848Y-93659185D01*
X75046134Y-93402567D01*
X74940274Y-93208700D01*
X74914877Y-93162188D01*
X74914872Y-93162180D01*
X74750747Y-92942933D01*
X74750731Y-92942915D01*
X74557084Y-92749268D01*
X74557066Y-92749252D01*
X74337819Y-92585127D01*
X74337811Y-92585122D01*
X74097438Y-92453868D01*
X74097439Y-92453868D01*
X74022153Y-92425788D01*
X73840815Y-92358152D01*
X73840808Y-92358150D01*
X73840807Y-92358150D01*
X73573195Y-92299935D01*
X73573188Y-92299934D01*
X73300001Y-92280395D01*
X73299999Y-92280395D01*
X73026811Y-92299934D01*
X73026804Y-92299935D01*
X72759192Y-92358150D01*
X72759188Y-92358151D01*
X72759185Y-92358152D01*
X72577847Y-92425788D01*
X72502561Y-92453868D01*
X72262188Y-92585122D01*
X72262180Y-92585127D01*
X72042933Y-92749252D01*
X72042915Y-92749268D01*
X71849268Y-92942915D01*
X71849252Y-92942933D01*
X71685127Y-93162180D01*
X71685122Y-93162188D01*
X71553868Y-93402561D01*
X71553866Y-93402567D01*
X71458152Y-93659185D01*
X71458151Y-93659188D01*
X71458150Y-93659192D01*
X71399935Y-93926804D01*
X71399934Y-93926811D01*
X71380395Y-94199998D01*
X70500500Y-94199998D01*
X70500500Y-91699996D01*
X116894435Y-91699996D01*
X116894435Y-91700003D01*
X116914630Y-91879249D01*
X116914631Y-91879254D01*
X116974211Y-92049523D01*
X117042468Y-92158152D01*
X117070184Y-92202262D01*
X117197738Y-92329816D01*
X117350478Y-92425789D01*
X117520745Y-92485368D01*
X117520750Y-92485369D01*
X117699996Y-92505565D01*
X117700000Y-92505565D01*
X117700004Y-92505565D01*
X117879249Y-92485369D01*
X117879252Y-92485368D01*
X117879255Y-92485368D01*
X118049522Y-92425789D01*
X118202262Y-92329816D01*
X118329816Y-92202262D01*
X118425789Y-92049522D01*
X118485368Y-91879255D01*
X118488056Y-91855397D01*
X118505565Y-91700003D01*
X118505565Y-91699996D01*
X125094435Y-91699996D01*
X125094435Y-91700003D01*
X125114630Y-91879249D01*
X125114631Y-91879254D01*
X125174211Y-92049523D01*
X125242468Y-92158152D01*
X125270184Y-92202262D01*
X125397738Y-92329816D01*
X125550478Y-92425789D01*
X125720745Y-92485368D01*
X125720750Y-92485369D01*
X125899996Y-92505565D01*
X125900000Y-92505565D01*
X125900004Y-92505565D01*
X126079249Y-92485369D01*
X126079252Y-92485368D01*
X126079255Y-92485368D01*
X126249522Y-92425789D01*
X126402262Y-92329816D01*
X126529816Y-92202262D01*
X126625789Y-92049522D01*
X126685368Y-91879255D01*
X126688056Y-91855397D01*
X126705565Y-91700003D01*
X126705565Y-91699996D01*
X126685369Y-91520750D01*
X126685368Y-91520745D01*
X126625788Y-91350476D01*
X126529815Y-91197737D01*
X126402262Y-91070184D01*
X126249523Y-90974211D01*
X126079254Y-90914631D01*
X126079249Y-90914630D01*
X125900004Y-90894435D01*
X125899996Y-90894435D01*
X125720750Y-90914630D01*
X125720745Y-90914631D01*
X125550476Y-90974211D01*
X125397737Y-91070184D01*
X125270184Y-91197737D01*
X125174211Y-91350476D01*
X125114631Y-91520745D01*
X125114630Y-91520750D01*
X125094435Y-91699996D01*
X118505565Y-91699996D01*
X118485369Y-91520750D01*
X118485368Y-91520745D01*
X118425788Y-91350476D01*
X118329815Y-91197737D01*
X118319759Y-91187681D01*
X118286274Y-91126358D01*
X118291258Y-91056666D01*
X118319759Y-91012319D01*
X118327190Y-91004888D01*
X118379816Y-90952262D01*
X118475789Y-90799522D01*
X118535368Y-90629255D01*
X118535369Y-90629249D01*
X118549932Y-90499994D01*
X133619945Y-90499994D01*
X133619945Y-90500005D01*
X133640130Y-90743605D01*
X133700138Y-90980573D01*
X133798330Y-91204429D01*
X133894626Y-91351819D01*
X134498958Y-90747487D01*
X134523978Y-90807890D01*
X134595112Y-90914351D01*
X134685649Y-91004888D01*
X134792110Y-91076022D01*
X134852511Y-91101041D01*
X134247758Y-91705794D01*
X134247758Y-91705796D01*
X134290478Y-91739046D01*
X134290484Y-91739050D01*
X134505468Y-91855394D01*
X134505476Y-91855397D01*
X134736664Y-91934765D01*
X134977779Y-91975000D01*
X135222221Y-91975000D01*
X135463335Y-91934765D01*
X135694523Y-91855397D01*
X135694531Y-91855394D01*
X135909514Y-91739051D01*
X135909514Y-91739050D01*
X135952240Y-91705795D01*
X135952240Y-91705794D01*
X135347488Y-91101041D01*
X135407890Y-91076022D01*
X135514351Y-91004888D01*
X135604888Y-90914351D01*
X135676022Y-90807890D01*
X135701041Y-90747488D01*
X136305372Y-91351819D01*
X136401667Y-91204431D01*
X136401672Y-91204423D01*
X136499861Y-90980573D01*
X136559869Y-90743605D01*
X136580055Y-90500005D01*
X136580055Y-90499994D01*
X136559869Y-90256394D01*
X136499861Y-90019426D01*
X136401669Y-89795570D01*
X136305372Y-89648179D01*
X135701041Y-90252510D01*
X135676022Y-90192110D01*
X135604888Y-90085649D01*
X135514351Y-89995112D01*
X135407890Y-89923978D01*
X135347487Y-89898958D01*
X135952240Y-89294204D01*
X135952240Y-89294203D01*
X135909514Y-89260949D01*
X135694531Y-89144605D01*
X135694523Y-89144602D01*
X135463335Y-89065234D01*
X135222221Y-89025000D01*
X134977779Y-89025000D01*
X134736664Y-89065234D01*
X134505476Y-89144602D01*
X134505468Y-89144605D01*
X134290481Y-89260951D01*
X134247758Y-89294202D01*
X134247757Y-89294204D01*
X134852511Y-89898958D01*
X134792110Y-89923978D01*
X134685649Y-89995112D01*
X134595112Y-90085649D01*
X134523978Y-90192110D01*
X134498958Y-90252511D01*
X133894626Y-89648179D01*
X133798328Y-89795575D01*
X133700138Y-90019426D01*
X133640130Y-90256394D01*
X133619945Y-90499994D01*
X118549932Y-90499994D01*
X118555565Y-90450003D01*
X118555565Y-90449996D01*
X118535369Y-90270750D01*
X118535368Y-90270745D01*
X118475788Y-90100476D01*
X118379815Y-89947737D01*
X118252262Y-89820184D01*
X118099523Y-89724211D01*
X117929254Y-89664631D01*
X117929249Y-89664630D01*
X117750004Y-89644435D01*
X117749996Y-89644435D01*
X117570750Y-89664630D01*
X117570745Y-89664631D01*
X117400476Y-89724211D01*
X117247737Y-89820184D01*
X117120184Y-89947737D01*
X117024211Y-90100476D01*
X116964631Y-90270745D01*
X116964630Y-90270750D01*
X116944435Y-90449996D01*
X116944435Y-90450003D01*
X116964630Y-90629249D01*
X116964631Y-90629254D01*
X117024211Y-90799523D01*
X117120184Y-90952262D01*
X117130241Y-90962319D01*
X117163726Y-91023642D01*
X117158742Y-91093334D01*
X117130241Y-91137681D01*
X117070184Y-91197737D01*
X116974211Y-91350476D01*
X116914631Y-91520745D01*
X116914630Y-91520750D01*
X116894435Y-91699996D01*
X70500500Y-91699996D01*
X70500500Y-86999996D01*
X75394435Y-86999996D01*
X75394435Y-87000003D01*
X75414630Y-87179249D01*
X75414631Y-87179254D01*
X75474211Y-87349523D01*
X75537045Y-87449522D01*
X75570184Y-87502262D01*
X75697738Y-87629816D01*
X75850478Y-87725789D01*
X75861984Y-87729815D01*
X76020745Y-87785368D01*
X76020750Y-87785369D01*
X76199996Y-87805565D01*
X76200000Y-87805565D01*
X76200004Y-87805565D01*
X76379249Y-87785369D01*
X76379252Y-87785368D01*
X76379255Y-87785368D01*
X76549522Y-87725789D01*
X76702262Y-87629816D01*
X76829816Y-87502262D01*
X76925789Y-87349522D01*
X76985368Y-87179255D01*
X76985369Y-87179249D01*
X77005565Y-87000003D01*
X77005565Y-86999996D01*
X80594435Y-86999996D01*
X80594435Y-87000003D01*
X80614630Y-87179249D01*
X80614631Y-87179254D01*
X80674211Y-87349523D01*
X80737045Y-87449522D01*
X80770184Y-87502262D01*
X80897738Y-87629816D01*
X81050478Y-87725789D01*
X81061984Y-87729815D01*
X81220745Y-87785368D01*
X81220750Y-87785369D01*
X81399996Y-87805565D01*
X81400000Y-87805565D01*
X81400004Y-87805565D01*
X81579249Y-87785369D01*
X81579252Y-87785368D01*
X81579255Y-87785368D01*
X81749522Y-87725789D01*
X81902262Y-87629816D01*
X82029816Y-87502262D01*
X82125789Y-87349522D01*
X82185368Y-87179255D01*
X82185369Y-87179249D01*
X82205565Y-87000003D01*
X82205565Y-86999996D01*
X82185369Y-86820750D01*
X82185368Y-86820745D01*
X82125789Y-86650478D01*
X82031235Y-86499996D01*
X119494435Y-86499996D01*
X119494435Y-86500003D01*
X119514630Y-86679249D01*
X119514631Y-86679254D01*
X119574211Y-86849523D01*
X119628078Y-86935251D01*
X119670184Y-87002262D01*
X119797738Y-87129816D01*
X119950478Y-87225789D01*
X120103258Y-87279249D01*
X120120745Y-87285368D01*
X120120750Y-87285369D01*
X120299996Y-87305565D01*
X120300000Y-87305565D01*
X120300004Y-87305565D01*
X120479249Y-87285369D01*
X120479252Y-87285368D01*
X120479255Y-87285368D01*
X120649522Y-87225789D01*
X120802262Y-87129816D01*
X120832082Y-87099996D01*
X125919435Y-87099996D01*
X125919435Y-87100003D01*
X125939630Y-87279249D01*
X125939631Y-87279254D01*
X125999211Y-87449523D01*
X126095184Y-87602262D01*
X126222738Y-87729816D01*
X126375478Y-87825789D01*
X126545745Y-87885368D01*
X126545750Y-87885369D01*
X126724996Y-87905565D01*
X126725000Y-87905565D01*
X126725004Y-87905565D01*
X126904249Y-87885369D01*
X126904252Y-87885368D01*
X126904255Y-87885368D01*
X127074522Y-87825789D01*
X127227262Y-87729816D01*
X127354816Y-87602262D01*
X127450789Y-87449522D01*
X127510368Y-87279255D01*
X127516392Y-87225789D01*
X127530565Y-87100003D01*
X127530565Y-87099996D01*
X127510369Y-86920750D01*
X127510368Y-86920745D01*
X127450788Y-86750476D01*
X127387955Y-86650478D01*
X127354816Y-86597738D01*
X127227262Y-86470184D01*
X127074523Y-86374211D01*
X126904254Y-86314631D01*
X126904249Y-86314630D01*
X126725004Y-86294435D01*
X126724996Y-86294435D01*
X126545750Y-86314630D01*
X126545745Y-86314631D01*
X126375476Y-86374211D01*
X126222737Y-86470184D01*
X126095184Y-86597737D01*
X125999211Y-86750476D01*
X125939631Y-86920745D01*
X125939630Y-86920750D01*
X125919435Y-87099996D01*
X120832082Y-87099996D01*
X120929816Y-87002262D01*
X121025789Y-86849522D01*
X121085368Y-86679255D01*
X121085369Y-86679249D01*
X121105565Y-86500003D01*
X121105565Y-86499996D01*
X121085369Y-86320750D01*
X121085368Y-86320745D01*
X121048237Y-86214630D01*
X121025789Y-86150478D01*
X120929816Y-85997738D01*
X120802262Y-85870184D01*
X120649523Y-85774211D01*
X120479254Y-85714631D01*
X120479249Y-85714630D01*
X120300004Y-85694435D01*
X120299996Y-85694435D01*
X120120750Y-85714630D01*
X120120745Y-85714631D01*
X119950476Y-85774211D01*
X119797737Y-85870184D01*
X119670184Y-85997737D01*
X119574211Y-86150476D01*
X119514631Y-86320745D01*
X119514630Y-86320750D01*
X119494435Y-86499996D01*
X82031235Y-86499996D01*
X82029816Y-86497738D01*
X81902262Y-86370184D01*
X81749523Y-86274211D01*
X81579254Y-86214631D01*
X81579249Y-86214630D01*
X81400004Y-86194435D01*
X81399996Y-86194435D01*
X81220750Y-86214630D01*
X81220745Y-86214631D01*
X81050476Y-86274211D01*
X80897737Y-86370184D01*
X80770184Y-86497737D01*
X80674211Y-86650476D01*
X80614631Y-86820745D01*
X80614630Y-86820750D01*
X80594435Y-86999996D01*
X77005565Y-86999996D01*
X76985369Y-86820750D01*
X76985368Y-86820745D01*
X76925789Y-86650478D01*
X76829816Y-86497738D01*
X76702262Y-86370184D01*
X76549523Y-86274211D01*
X76379254Y-86214631D01*
X76379249Y-86214630D01*
X76200004Y-86194435D01*
X76199996Y-86194435D01*
X76020750Y-86214630D01*
X76020745Y-86214631D01*
X75850476Y-86274211D01*
X75697737Y-86370184D01*
X75570184Y-86497737D01*
X75474211Y-86650476D01*
X75414631Y-86820745D01*
X75414630Y-86820750D01*
X75394435Y-86999996D01*
X70500500Y-86999996D01*
X70500500Y-85499994D01*
X133619443Y-85499994D01*
X133619443Y-85500005D01*
X133639634Y-85743683D01*
X133639636Y-85743695D01*
X133699663Y-85980734D01*
X133797888Y-86204666D01*
X133931632Y-86409378D01*
X134097242Y-86589277D01*
X134097252Y-86589286D01*
X134212836Y-86679249D01*
X134290212Y-86739473D01*
X134505267Y-86855855D01*
X134505270Y-86855856D01*
X134736541Y-86935251D01*
X134736543Y-86935251D01*
X134736545Y-86935252D01*
X134977737Y-86975500D01*
X134977738Y-86975500D01*
X135222262Y-86975500D01*
X135222263Y-86975500D01*
X135463455Y-86935252D01*
X135694733Y-86855855D01*
X135909788Y-86739473D01*
X136102754Y-86589281D01*
X136268368Y-86409377D01*
X136402111Y-86204667D01*
X136500336Y-85980736D01*
X136560364Y-85743692D01*
X136580557Y-85500000D01*
X136571058Y-85385369D01*
X136560365Y-85256316D01*
X136560363Y-85256304D01*
X136500336Y-85019265D01*
X136402111Y-84795333D01*
X136268367Y-84590621D01*
X136102757Y-84410722D01*
X136102747Y-84410713D01*
X135909791Y-84260529D01*
X135909787Y-84260526D01*
X135694734Y-84144145D01*
X135694729Y-84144143D01*
X135463458Y-84064748D01*
X135282561Y-84034562D01*
X135222263Y-84024500D01*
X134977737Y-84024500D01*
X134929498Y-84032549D01*
X134736541Y-84064748D01*
X134505270Y-84144143D01*
X134505265Y-84144145D01*
X134290212Y-84260526D01*
X134290208Y-84260529D01*
X134097252Y-84410713D01*
X134097242Y-84410722D01*
X133931632Y-84590621D01*
X133797888Y-84795333D01*
X133699663Y-85019265D01*
X133639636Y-85256304D01*
X133639634Y-85256316D01*
X133619443Y-85499994D01*
X70500500Y-85499994D01*
X70500500Y-84599996D01*
X105794435Y-84599996D01*
X105794435Y-84600003D01*
X105814630Y-84779249D01*
X105814631Y-84779254D01*
X105874211Y-84949523D01*
X105918033Y-85019264D01*
X105970184Y-85102262D01*
X106097738Y-85229816D01*
X106250478Y-85325789D01*
X106420745Y-85385368D01*
X106420750Y-85385369D01*
X106599996Y-85405565D01*
X106600000Y-85405565D01*
X106600004Y-85405565D01*
X106779249Y-85385369D01*
X106779252Y-85385368D01*
X106779255Y-85385368D01*
X106949522Y-85325789D01*
X107102262Y-85229816D01*
X107229816Y-85102262D01*
X107325789Y-84949522D01*
X107385368Y-84779255D01*
X107405565Y-84600000D01*
X107404508Y-84590623D01*
X107385369Y-84420750D01*
X107385368Y-84420745D01*
X107325788Y-84250476D01*
X107229815Y-84097737D01*
X107102262Y-83970184D01*
X106949523Y-83874211D01*
X106779254Y-83814631D01*
X106779249Y-83814630D01*
X106600004Y-83794435D01*
X106599996Y-83794435D01*
X106420750Y-83814630D01*
X106420745Y-83814631D01*
X106250476Y-83874211D01*
X106097737Y-83970184D01*
X105970184Y-84097737D01*
X105874211Y-84250476D01*
X105814631Y-84420745D01*
X105814630Y-84420750D01*
X105794435Y-84599996D01*
X70500500Y-84599996D01*
X70500500Y-83299996D01*
X91994435Y-83299996D01*
X91994435Y-83300003D01*
X92014630Y-83479249D01*
X92014631Y-83479254D01*
X92074211Y-83649523D01*
X92165266Y-83794435D01*
X92170184Y-83802262D01*
X92297738Y-83929816D01*
X92361983Y-83970184D01*
X92448426Y-84024500D01*
X92450478Y-84025789D01*
X92620745Y-84085368D01*
X92620750Y-84085369D01*
X92799996Y-84105565D01*
X92800000Y-84105565D01*
X92800004Y-84105565D01*
X92979249Y-84085369D01*
X92979252Y-84085368D01*
X92979255Y-84085368D01*
X93149522Y-84025789D01*
X93302262Y-83929816D01*
X93429816Y-83802262D01*
X93525789Y-83649522D01*
X93585368Y-83479255D01*
X93605565Y-83300000D01*
X93585368Y-83120745D01*
X93525789Y-82950478D01*
X93429816Y-82797738D01*
X93302262Y-82670184D01*
X93149523Y-82574211D01*
X92979254Y-82514631D01*
X92979249Y-82514630D01*
X92800004Y-82494435D01*
X92799996Y-82494435D01*
X92620750Y-82514630D01*
X92620745Y-82514631D01*
X92450476Y-82574211D01*
X92297737Y-82670184D01*
X92170184Y-82797737D01*
X92074211Y-82950476D01*
X92014631Y-83120745D01*
X92014630Y-83120750D01*
X91994435Y-83299996D01*
X70500500Y-83299996D01*
X70500500Y-82179862D01*
X72414569Y-82179862D01*
X72414569Y-82179869D01*
X72434764Y-82359115D01*
X72434765Y-82359120D01*
X72494345Y-82529389D01*
X72522509Y-82574211D01*
X72590318Y-82682128D01*
X72717872Y-82809682D01*
X72870612Y-82905655D01*
X72998703Y-82950476D01*
X73040879Y-82965234D01*
X73040884Y-82965235D01*
X73220130Y-82985431D01*
X73220134Y-82985431D01*
X73220138Y-82985431D01*
X73399383Y-82965235D01*
X73399386Y-82965234D01*
X73399389Y-82965234D01*
X73569656Y-82905655D01*
X73722396Y-82809682D01*
X73849950Y-82682128D01*
X73945923Y-82529388D01*
X74005502Y-82359121D01*
X74025699Y-82179866D01*
X74005502Y-82000611D01*
X73945923Y-81830344D01*
X73849950Y-81677604D01*
X73722396Y-81550050D01*
X73690192Y-81529815D01*
X73569657Y-81454077D01*
X73399388Y-81394497D01*
X73399383Y-81394496D01*
X73220138Y-81374301D01*
X73220130Y-81374301D01*
X73040884Y-81394496D01*
X73040879Y-81394497D01*
X72870610Y-81454077D01*
X72717871Y-81550050D01*
X72590318Y-81677603D01*
X72494345Y-81830342D01*
X72434765Y-82000611D01*
X72434764Y-82000616D01*
X72414569Y-82179862D01*
X70500500Y-82179862D01*
X70500500Y-79999996D01*
X73294435Y-79999996D01*
X73294435Y-80000003D01*
X73314630Y-80179249D01*
X73314631Y-80179254D01*
X73374211Y-80349523D01*
X73404507Y-80397738D01*
X73470184Y-80502262D01*
X73597738Y-80629816D01*
X73688080Y-80686582D01*
X73742450Y-80720745D01*
X73750478Y-80725789D01*
X73920745Y-80785368D01*
X73920750Y-80785369D01*
X74099996Y-80805565D01*
X74100000Y-80805565D01*
X74100004Y-80805565D01*
X74279249Y-80785369D01*
X74279252Y-80785368D01*
X74279255Y-80785368D01*
X74449522Y-80725789D01*
X74602262Y-80629816D01*
X74729816Y-80502262D01*
X74825789Y-80349522D01*
X74878110Y-80199996D01*
X76394435Y-80199996D01*
X76394435Y-80200003D01*
X76414630Y-80379249D01*
X76414631Y-80379254D01*
X76474211Y-80549523D01*
X76524662Y-80629815D01*
X76570184Y-80702262D01*
X76697738Y-80829816D01*
X76850478Y-80925789D01*
X77020745Y-80985368D01*
X77020750Y-80985369D01*
X77199996Y-81005565D01*
X77200000Y-81005565D01*
X77200004Y-81005565D01*
X77379249Y-80985369D01*
X77379252Y-80985368D01*
X77379255Y-80985368D01*
X77549522Y-80925789D01*
X77590571Y-80899996D01*
X111994435Y-80899996D01*
X111994435Y-80900003D01*
X112014630Y-81079249D01*
X112014631Y-81079254D01*
X112074211Y-81249523D01*
X112152615Y-81374301D01*
X112170184Y-81402262D01*
X112297738Y-81529816D01*
X112450478Y-81625789D01*
X112598554Y-81677603D01*
X112620745Y-81685368D01*
X112620750Y-81685369D01*
X112799996Y-81705565D01*
X112800000Y-81705565D01*
X112800004Y-81705565D01*
X112979249Y-81685369D01*
X112979252Y-81685368D01*
X112979255Y-81685368D01*
X113149522Y-81625789D01*
X113302262Y-81529816D01*
X113429816Y-81402262D01*
X113525789Y-81249522D01*
X113585368Y-81079255D01*
X113593671Y-81005565D01*
X113605565Y-80900003D01*
X113605565Y-80899996D01*
X113585369Y-80720750D01*
X113585368Y-80720745D01*
X113525789Y-80550478D01*
X113525188Y-80549522D01*
X113429815Y-80397737D01*
X113302262Y-80270184D01*
X113149523Y-80174211D01*
X112979254Y-80114631D01*
X112979249Y-80114630D01*
X112800004Y-80094435D01*
X112799996Y-80094435D01*
X112620750Y-80114630D01*
X112620745Y-80114631D01*
X112450476Y-80174211D01*
X112297737Y-80270184D01*
X112170184Y-80397737D01*
X112074211Y-80550476D01*
X112014631Y-80720745D01*
X112014630Y-80720750D01*
X111994435Y-80899996D01*
X77590571Y-80899996D01*
X77702262Y-80829816D01*
X77829816Y-80702262D01*
X77925789Y-80549522D01*
X77985368Y-80379255D01*
X77988718Y-80349522D01*
X78005565Y-80200003D01*
X78005565Y-80199996D01*
X77985369Y-80020750D01*
X77985368Y-80020745D01*
X77978108Y-79999996D01*
X77925789Y-79850478D01*
X77907106Y-79820745D01*
X77829815Y-79697737D01*
X77702262Y-79570184D01*
X77549523Y-79474211D01*
X77379254Y-79414631D01*
X77379249Y-79414630D01*
X77200004Y-79394435D01*
X77199996Y-79394435D01*
X77020750Y-79414630D01*
X77020745Y-79414631D01*
X76850476Y-79474211D01*
X76697737Y-79570184D01*
X76570184Y-79697737D01*
X76474211Y-79850476D01*
X76414631Y-80020745D01*
X76414630Y-80020750D01*
X76394435Y-80199996D01*
X74878110Y-80199996D01*
X74885368Y-80179255D01*
X74885369Y-80179249D01*
X74905565Y-80000003D01*
X74905565Y-79999996D01*
X74885369Y-79820750D01*
X74885368Y-79820745D01*
X74825789Y-79650478D01*
X74825188Y-79649522D01*
X74729815Y-79497737D01*
X74602262Y-79370184D01*
X74490559Y-79299996D01*
X82894435Y-79299996D01*
X82894435Y-79300003D01*
X82914630Y-79479249D01*
X82914631Y-79479254D01*
X82974211Y-79649523D01*
X83004507Y-79697738D01*
X83070184Y-79802262D01*
X83197738Y-79929816D01*
X83288080Y-79986582D01*
X83342450Y-80020745D01*
X83350478Y-80025789D01*
X83520739Y-80085366D01*
X83520745Y-80085368D01*
X83520750Y-80085369D01*
X83699996Y-80105565D01*
X83700000Y-80105565D01*
X83700004Y-80105565D01*
X83879249Y-80085369D01*
X83879251Y-80085368D01*
X83879255Y-80085368D01*
X83879258Y-80085366D01*
X83879262Y-80085366D01*
X84009045Y-80039953D01*
X84078824Y-80036391D01*
X84090955Y-80039953D01*
X84220737Y-80085366D01*
X84220743Y-80085367D01*
X84220745Y-80085368D01*
X84220746Y-80085368D01*
X84220750Y-80085369D01*
X84399996Y-80105565D01*
X84400000Y-80105565D01*
X84400004Y-80105565D01*
X84579249Y-80085369D01*
X84579252Y-80085368D01*
X84579255Y-80085368D01*
X84749522Y-80025789D01*
X84902262Y-79929816D01*
X85029816Y-79802262D01*
X85125789Y-79649522D01*
X85185368Y-79479255D01*
X85185369Y-79479249D01*
X85205565Y-79300003D01*
X85205565Y-79299996D01*
X85185369Y-79120750D01*
X85185368Y-79120745D01*
X85125788Y-78950476D01*
X85029815Y-78797737D01*
X84902262Y-78670184D01*
X84749523Y-78574211D01*
X84579254Y-78514631D01*
X84579249Y-78514630D01*
X84400004Y-78494435D01*
X84399996Y-78494435D01*
X84220750Y-78514630D01*
X84220742Y-78514632D01*
X84090954Y-78560047D01*
X84021175Y-78563608D01*
X84009046Y-78560047D01*
X83879257Y-78514632D01*
X83879249Y-78514630D01*
X83700004Y-78494435D01*
X83699996Y-78494435D01*
X83520750Y-78514630D01*
X83520745Y-78514631D01*
X83350476Y-78574211D01*
X83197737Y-78670184D01*
X83070184Y-78797737D01*
X82974211Y-78950476D01*
X82914631Y-79120745D01*
X82914630Y-79120750D01*
X82894435Y-79299996D01*
X74490559Y-79299996D01*
X74449523Y-79274211D01*
X74279254Y-79214631D01*
X74279249Y-79214630D01*
X74100004Y-79194435D01*
X74099996Y-79194435D01*
X73920750Y-79214630D01*
X73920745Y-79214631D01*
X73750476Y-79274211D01*
X73597737Y-79370184D01*
X73470184Y-79497737D01*
X73374211Y-79650476D01*
X73314631Y-79820745D01*
X73314630Y-79820750D01*
X73294435Y-79999996D01*
X70500500Y-79999996D01*
X70500500Y-77569996D01*
X70814569Y-77569996D01*
X70814569Y-77570003D01*
X70834764Y-77749249D01*
X70834765Y-77749254D01*
X70894345Y-77919523D01*
X70990318Y-78072262D01*
X71117872Y-78199816D01*
X71270612Y-78295789D01*
X71440879Y-78355368D01*
X71440884Y-78355369D01*
X71620130Y-78375565D01*
X71620134Y-78375565D01*
X71620138Y-78375565D01*
X71799383Y-78355369D01*
X71799386Y-78355368D01*
X71799389Y-78355368D01*
X71969656Y-78295789D01*
X72122396Y-78199816D01*
X72249950Y-78072262D01*
X72345923Y-77919522D01*
X72405502Y-77749255D01*
X72408714Y-77720750D01*
X72422320Y-77599996D01*
X80394435Y-77599996D01*
X80394435Y-77600003D01*
X80414630Y-77779249D01*
X80414631Y-77779254D01*
X80474211Y-77949523D01*
X80551334Y-78072262D01*
X80570184Y-78102262D01*
X80697738Y-78229816D01*
X80850478Y-78325789D01*
X80935010Y-78355368D01*
X81020745Y-78385368D01*
X81020750Y-78385369D01*
X81199996Y-78405565D01*
X81200000Y-78405565D01*
X81200004Y-78405565D01*
X81379249Y-78385369D01*
X81379252Y-78385368D01*
X81379255Y-78385368D01*
X81549522Y-78325789D01*
X81702262Y-78229816D01*
X81829816Y-78102262D01*
X81925789Y-77949522D01*
X81943119Y-77899996D01*
X95294435Y-77899996D01*
X95294435Y-77900003D01*
X95314630Y-78079249D01*
X95314631Y-78079254D01*
X95374211Y-78249523D01*
X95440719Y-78355369D01*
X95470184Y-78402262D01*
X95597738Y-78529816D01*
X95750478Y-78625789D01*
X95877352Y-78670184D01*
X95920745Y-78685368D01*
X95920750Y-78685369D01*
X96099996Y-78705565D01*
X96100000Y-78705565D01*
X96100004Y-78705565D01*
X96279249Y-78685369D01*
X96279252Y-78685368D01*
X96279255Y-78685368D01*
X96449522Y-78625789D01*
X96602262Y-78529816D01*
X96729816Y-78402262D01*
X96825789Y-78249522D01*
X96885368Y-78079255D01*
X96899985Y-77949523D01*
X96905565Y-77900003D01*
X96905565Y-77899996D01*
X96885369Y-77720750D01*
X96885368Y-77720745D01*
X96845005Y-77605394D01*
X96825789Y-77550478D01*
X96729816Y-77397738D01*
X96602262Y-77270184D01*
X96570897Y-77250476D01*
X96449523Y-77174211D01*
X96279254Y-77114631D01*
X96279249Y-77114630D01*
X96100004Y-77094435D01*
X96099996Y-77094435D01*
X95920750Y-77114630D01*
X95920745Y-77114631D01*
X95750476Y-77174211D01*
X95597737Y-77270184D01*
X95470184Y-77397737D01*
X95374211Y-77550476D01*
X95314631Y-77720745D01*
X95314630Y-77720750D01*
X95294435Y-77899996D01*
X81943119Y-77899996D01*
X81985368Y-77779255D01*
X81988748Y-77749255D01*
X82005565Y-77600003D01*
X82005565Y-77599996D01*
X81985369Y-77420750D01*
X81985368Y-77420745D01*
X81925789Y-77250478D01*
X81906937Y-77220476D01*
X81840431Y-77114632D01*
X81829816Y-77097738D01*
X81702262Y-76970184D01*
X81655124Y-76940565D01*
X81549523Y-76874211D01*
X81379254Y-76814631D01*
X81379249Y-76814630D01*
X81200004Y-76794435D01*
X81199996Y-76794435D01*
X81020750Y-76814630D01*
X81020745Y-76814631D01*
X80850476Y-76874211D01*
X80697737Y-76970184D01*
X80570184Y-77097737D01*
X80474211Y-77250476D01*
X80414631Y-77420745D01*
X80414630Y-77420750D01*
X80394435Y-77599996D01*
X72422320Y-77599996D01*
X72425699Y-77570003D01*
X72425699Y-77569996D01*
X72405503Y-77390750D01*
X72405502Y-77390745D01*
X72345922Y-77220476D01*
X72279414Y-77114630D01*
X72249950Y-77067738D01*
X72122396Y-76940184D01*
X72017401Y-76874211D01*
X71969657Y-76844211D01*
X71799388Y-76784631D01*
X71799383Y-76784630D01*
X71620138Y-76764435D01*
X71620130Y-76764435D01*
X71440884Y-76784630D01*
X71440879Y-76784631D01*
X71270610Y-76844211D01*
X71117871Y-76940184D01*
X70990318Y-77067737D01*
X70894345Y-77220476D01*
X70834765Y-77390745D01*
X70834764Y-77390750D01*
X70814569Y-77569996D01*
X70500500Y-77569996D01*
X70500500Y-74999996D01*
X75694435Y-74999996D01*
X75694435Y-75000003D01*
X75714630Y-75179249D01*
X75714631Y-75179254D01*
X75774211Y-75349523D01*
X75852558Y-75474211D01*
X75870184Y-75502262D01*
X75997738Y-75629816D01*
X76068021Y-75673978D01*
X76105833Y-75697737D01*
X76150478Y-75725789D01*
X76320745Y-75785368D01*
X76320750Y-75785369D01*
X76499996Y-75805565D01*
X76500000Y-75805565D01*
X76500004Y-75805565D01*
X76679249Y-75785369D01*
X76679252Y-75785368D01*
X76679255Y-75785368D01*
X76849522Y-75725789D01*
X77002262Y-75629816D01*
X77129816Y-75502262D01*
X77225789Y-75349522D01*
X77253553Y-75270174D01*
X77294274Y-75213398D01*
X77356711Y-75187907D01*
X77379255Y-75185368D01*
X77549522Y-75125789D01*
X77702262Y-75029816D01*
X77732082Y-74999996D01*
X80194435Y-74999996D01*
X80194435Y-75000003D01*
X80214630Y-75179249D01*
X80214631Y-75179254D01*
X80274211Y-75349523D01*
X80352558Y-75474211D01*
X80370184Y-75502262D01*
X80497738Y-75629816D01*
X80568021Y-75673978D01*
X80605833Y-75697737D01*
X80650478Y-75725789D01*
X80820745Y-75785368D01*
X80820750Y-75785369D01*
X80999996Y-75805565D01*
X81000000Y-75805565D01*
X81000004Y-75805565D01*
X81179249Y-75785369D01*
X81179252Y-75785368D01*
X81179255Y-75785368D01*
X81349522Y-75725789D01*
X81502262Y-75629816D01*
X81629816Y-75502262D01*
X81725789Y-75349522D01*
X81785368Y-75179255D01*
X81800579Y-75044254D01*
X81805565Y-75000003D01*
X81805565Y-74999996D01*
X81785369Y-74820750D01*
X81785368Y-74820745D01*
X81725788Y-74650476D01*
X81662354Y-74549522D01*
X81629816Y-74497738D01*
X81502262Y-74370184D01*
X81490410Y-74362737D01*
X81349523Y-74274211D01*
X81179254Y-74214631D01*
X81179249Y-74214630D01*
X81049362Y-74199996D01*
X82894435Y-74199996D01*
X82894435Y-74200003D01*
X82914630Y-74379249D01*
X82914631Y-74379254D01*
X82974211Y-74549523D01*
X83037646Y-74650478D01*
X83070184Y-74702262D01*
X83197738Y-74829816D01*
X83350478Y-74925789D01*
X83520739Y-74985366D01*
X83520745Y-74985368D01*
X83520750Y-74985369D01*
X83699996Y-75005565D01*
X83700000Y-75005565D01*
X83700004Y-75005565D01*
X83879249Y-74985369D01*
X83879251Y-74985368D01*
X83879255Y-74985368D01*
X83879258Y-74985366D01*
X83879262Y-74985366D01*
X84009045Y-74939953D01*
X84078824Y-74936391D01*
X84090955Y-74939953D01*
X84220737Y-74985366D01*
X84220743Y-74985367D01*
X84220745Y-74985368D01*
X84220746Y-74985368D01*
X84220750Y-74985369D01*
X84399996Y-75005565D01*
X84400000Y-75005565D01*
X84400004Y-75005565D01*
X84579249Y-74985369D01*
X84579252Y-74985368D01*
X84579255Y-74985368D01*
X84749522Y-74925789D01*
X84846273Y-74864996D01*
X116094435Y-74864996D01*
X116094435Y-74865003D01*
X116114630Y-75044249D01*
X116114631Y-75044254D01*
X116174211Y-75214523D01*
X116208461Y-75269031D01*
X116270184Y-75367262D01*
X116397738Y-75494816D01*
X116550478Y-75590789D01*
X116638906Y-75621731D01*
X116695682Y-75662453D01*
X116721430Y-75727405D01*
X116707974Y-75795967D01*
X116702946Y-75804744D01*
X116674212Y-75850474D01*
X116614631Y-76020745D01*
X116614630Y-76020750D01*
X116594435Y-76199996D01*
X116594435Y-76200003D01*
X116614630Y-76379249D01*
X116614631Y-76379254D01*
X116674211Y-76549523D01*
X116746363Y-76664351D01*
X116770184Y-76702262D01*
X116897738Y-76829816D01*
X116947030Y-76860788D01*
X117041850Y-76920368D01*
X117050478Y-76925789D01*
X117177352Y-76970184D01*
X117220745Y-76985368D01*
X117220750Y-76985369D01*
X117399996Y-77005565D01*
X117400000Y-77005565D01*
X117400004Y-77005565D01*
X117579249Y-76985369D01*
X117579252Y-76985368D01*
X117579255Y-76985368D01*
X117749522Y-76925789D01*
X117902262Y-76829816D01*
X118029816Y-76702262D01*
X118125789Y-76549522D01*
X118185368Y-76379255D01*
X118192692Y-76314254D01*
X118205565Y-76200003D01*
X118205565Y-76199996D01*
X118198241Y-76134996D01*
X125759435Y-76134996D01*
X125759435Y-76135003D01*
X125779630Y-76314249D01*
X125779631Y-76314254D01*
X125839211Y-76484523D01*
X125844918Y-76493605D01*
X125935184Y-76637262D01*
X126062738Y-76764816D01*
X126215478Y-76860789D01*
X126256151Y-76875021D01*
X126385745Y-76920368D01*
X126385750Y-76920369D01*
X126564996Y-76940565D01*
X126565000Y-76940565D01*
X126565004Y-76940565D01*
X126744249Y-76920369D01*
X126744252Y-76920368D01*
X126744255Y-76920368D01*
X126914522Y-76860789D01*
X127067262Y-76764816D01*
X127194816Y-76637262D01*
X127290789Y-76484522D01*
X127350368Y-76314255D01*
X127357608Y-76249999D01*
X127357609Y-76249994D01*
X133619945Y-76249994D01*
X133619945Y-76250005D01*
X133640130Y-76493605D01*
X133700138Y-76730573D01*
X133798330Y-76954429D01*
X133894626Y-77101819D01*
X134498958Y-76497487D01*
X134523978Y-76557890D01*
X134595112Y-76664351D01*
X134685649Y-76754888D01*
X134792110Y-76826022D01*
X134852511Y-76851041D01*
X134247758Y-77455794D01*
X134247758Y-77455796D01*
X134290478Y-77489046D01*
X134290484Y-77489050D01*
X134505468Y-77605394D01*
X134505476Y-77605397D01*
X134736664Y-77684765D01*
X134977779Y-77725000D01*
X135222221Y-77725000D01*
X135463335Y-77684765D01*
X135694523Y-77605397D01*
X135694531Y-77605394D01*
X135909514Y-77489051D01*
X135909514Y-77489050D01*
X135952240Y-77455795D01*
X135952240Y-77455794D01*
X135347488Y-76851041D01*
X135407890Y-76826022D01*
X135514351Y-76754888D01*
X135604888Y-76664351D01*
X135676022Y-76557890D01*
X135701041Y-76497488D01*
X136305372Y-77101819D01*
X136401667Y-76954431D01*
X136401672Y-76954423D01*
X136499861Y-76730573D01*
X136559869Y-76493605D01*
X136580055Y-76250005D01*
X136580055Y-76249994D01*
X136559869Y-76006394D01*
X136499861Y-75769426D01*
X136401669Y-75545570D01*
X136305372Y-75398179D01*
X135701041Y-76002510D01*
X135676022Y-75942110D01*
X135604888Y-75835649D01*
X135514351Y-75745112D01*
X135407890Y-75673978D01*
X135347487Y-75648958D01*
X135952240Y-75044204D01*
X135952240Y-75044203D01*
X135909514Y-75010949D01*
X135694531Y-74894605D01*
X135694523Y-74894602D01*
X135463335Y-74815234D01*
X135222221Y-74775000D01*
X134977779Y-74775000D01*
X134736664Y-74815234D01*
X134505476Y-74894602D01*
X134505468Y-74894605D01*
X134290481Y-75010951D01*
X134247758Y-75044202D01*
X134247757Y-75044204D01*
X134852511Y-75648958D01*
X134792110Y-75673978D01*
X134685649Y-75745112D01*
X134595112Y-75835649D01*
X134523978Y-75942110D01*
X134498958Y-76002511D01*
X133894626Y-75398179D01*
X133798328Y-75545575D01*
X133700138Y-75769426D01*
X133640130Y-76006394D01*
X133619945Y-76249994D01*
X127357609Y-76249994D01*
X127370565Y-76135003D01*
X127370565Y-76134996D01*
X127350369Y-75955750D01*
X127350368Y-75955745D01*
X127313532Y-75850474D01*
X127290789Y-75785478D01*
X127194816Y-75632738D01*
X127067262Y-75505184D01*
X127062612Y-75502262D01*
X126914523Y-75409211D01*
X126744254Y-75349631D01*
X126744249Y-75349630D01*
X126565004Y-75329435D01*
X126564996Y-75329435D01*
X126385750Y-75349630D01*
X126385745Y-75349631D01*
X126215476Y-75409211D01*
X126062737Y-75505184D01*
X125935184Y-75632737D01*
X125839211Y-75785476D01*
X125779631Y-75955745D01*
X125779630Y-75955750D01*
X125759435Y-76134996D01*
X118198241Y-76134996D01*
X118185369Y-76020750D01*
X118185368Y-76020745D01*
X118162625Y-75955750D01*
X118125789Y-75850478D01*
X118125786Y-75850474D01*
X118048457Y-75727405D01*
X118029816Y-75697738D01*
X117902262Y-75570184D01*
X117863089Y-75545570D01*
X117749523Y-75474211D01*
X117661092Y-75443268D01*
X117604316Y-75402546D01*
X117578569Y-75337593D01*
X117592025Y-75269031D01*
X117597054Y-75260253D01*
X117625788Y-75214524D01*
X117635990Y-75185368D01*
X117685368Y-75044255D01*
X117686995Y-75029815D01*
X117705565Y-74865003D01*
X117705565Y-74864996D01*
X117685369Y-74685750D01*
X117685368Y-74685745D01*
X117625789Y-74515478D01*
X117529816Y-74362738D01*
X117402262Y-74235184D01*
X117249523Y-74139211D01*
X117079254Y-74079631D01*
X117079249Y-74079630D01*
X116900004Y-74059435D01*
X116899996Y-74059435D01*
X116720750Y-74079630D01*
X116720745Y-74079631D01*
X116550476Y-74139211D01*
X116397737Y-74235184D01*
X116270184Y-74362737D01*
X116174211Y-74515476D01*
X116114631Y-74685745D01*
X116114630Y-74685750D01*
X116094435Y-74864996D01*
X84846273Y-74864996D01*
X84902262Y-74829816D01*
X85029816Y-74702262D01*
X85125789Y-74549522D01*
X85185368Y-74379255D01*
X85203228Y-74220745D01*
X85205565Y-74200003D01*
X85205565Y-74199996D01*
X85185369Y-74020750D01*
X85185368Y-74020745D01*
X85142326Y-73897738D01*
X85125789Y-73850478D01*
X85029816Y-73697738D01*
X84902262Y-73570184D01*
X84838017Y-73529816D01*
X84749523Y-73474211D01*
X84579254Y-73414631D01*
X84579249Y-73414630D01*
X84400004Y-73394435D01*
X84399996Y-73394435D01*
X84220750Y-73414630D01*
X84220742Y-73414632D01*
X84090954Y-73460047D01*
X84021175Y-73463608D01*
X84009046Y-73460047D01*
X83879257Y-73414632D01*
X83879249Y-73414630D01*
X83700004Y-73394435D01*
X83699996Y-73394435D01*
X83520750Y-73414630D01*
X83520745Y-73414631D01*
X83350476Y-73474211D01*
X83197737Y-73570184D01*
X83070184Y-73697737D01*
X82974211Y-73850476D01*
X82914631Y-74020745D01*
X82914630Y-74020750D01*
X82894435Y-74199996D01*
X81049362Y-74199996D01*
X81000004Y-74194435D01*
X80999996Y-74194435D01*
X80820750Y-74214630D01*
X80820745Y-74214631D01*
X80650476Y-74274211D01*
X80497737Y-74370184D01*
X80370184Y-74497737D01*
X80274211Y-74650476D01*
X80214631Y-74820745D01*
X80214630Y-74820750D01*
X80194435Y-74999996D01*
X77732082Y-74999996D01*
X77829816Y-74902262D01*
X77925789Y-74749522D01*
X77985368Y-74579255D01*
X78005565Y-74400000D01*
X77991392Y-74274211D01*
X77985369Y-74220750D01*
X77985368Y-74220745D01*
X77982340Y-74212091D01*
X77925789Y-74050478D01*
X77907106Y-74020745D01*
X77829815Y-73897737D01*
X77702262Y-73770184D01*
X77549523Y-73674211D01*
X77379254Y-73614631D01*
X77379249Y-73614630D01*
X77200004Y-73594435D01*
X77199996Y-73594435D01*
X77020750Y-73614630D01*
X77020745Y-73614631D01*
X76850476Y-73674211D01*
X76697737Y-73770184D01*
X76570184Y-73897737D01*
X76474212Y-74050475D01*
X76474211Y-74050476D01*
X76446445Y-74129827D01*
X76405723Y-74186602D01*
X76343289Y-74212091D01*
X76320750Y-74214630D01*
X76150478Y-74274210D01*
X75997737Y-74370184D01*
X75870184Y-74497737D01*
X75774211Y-74650476D01*
X75714631Y-74820745D01*
X75714630Y-74820750D01*
X75694435Y-74999996D01*
X70500500Y-74999996D01*
X70500500Y-72399996D01*
X78194435Y-72399996D01*
X78194435Y-72400003D01*
X78214630Y-72579249D01*
X78214631Y-72579254D01*
X78274211Y-72749523D01*
X78368760Y-72899996D01*
X78370184Y-72902262D01*
X78497738Y-73029816D01*
X78650478Y-73125789D01*
X78803258Y-73179249D01*
X78820745Y-73185368D01*
X78820750Y-73185369D01*
X78999996Y-73205565D01*
X79000000Y-73205565D01*
X79000004Y-73205565D01*
X79179249Y-73185369D01*
X79179252Y-73185368D01*
X79179255Y-73185368D01*
X79349522Y-73125789D01*
X79502262Y-73029816D01*
X79532082Y-72999996D01*
X80294435Y-72999996D01*
X80294435Y-73000003D01*
X80314630Y-73179249D01*
X80314631Y-73179254D01*
X80374211Y-73349523D01*
X80445896Y-73463608D01*
X80470184Y-73502262D01*
X80597738Y-73629816D01*
X80668392Y-73674211D01*
X80705833Y-73697737D01*
X80750478Y-73725789D01*
X80877352Y-73770184D01*
X80920745Y-73785368D01*
X80920750Y-73785369D01*
X81099996Y-73805565D01*
X81100000Y-73805565D01*
X81100004Y-73805565D01*
X81279249Y-73785369D01*
X81279252Y-73785368D01*
X81279255Y-73785368D01*
X81449522Y-73725789D01*
X81602262Y-73629816D01*
X81729816Y-73502262D01*
X81825789Y-73349522D01*
X81885368Y-73179255D01*
X81891392Y-73125789D01*
X81905565Y-73000003D01*
X81905565Y-72999996D01*
X81894298Y-72899996D01*
X111494435Y-72899996D01*
X111494435Y-72900003D01*
X111514630Y-73079249D01*
X111514631Y-73079254D01*
X111574211Y-73249523D01*
X111637045Y-73349522D01*
X111670184Y-73402262D01*
X111797738Y-73529816D01*
X111861983Y-73570184D01*
X111932721Y-73614632D01*
X111950478Y-73625789D01*
X111961984Y-73629815D01*
X112120745Y-73685368D01*
X112120750Y-73685369D01*
X112299996Y-73705565D01*
X112300000Y-73705565D01*
X112300004Y-73705565D01*
X112479249Y-73685369D01*
X112479252Y-73685368D01*
X112479255Y-73685368D01*
X112649522Y-73625789D01*
X112802262Y-73529816D01*
X112929816Y-73402262D01*
X113025789Y-73249522D01*
X113085368Y-73079255D01*
X113085369Y-73079249D01*
X113105565Y-72900003D01*
X113105565Y-72899996D01*
X113085369Y-72720750D01*
X113085368Y-72720745D01*
X113072948Y-72685251D01*
X113025789Y-72550478D01*
X112929816Y-72397738D01*
X112802262Y-72270184D01*
X112731608Y-72225789D01*
X112649523Y-72174211D01*
X112479254Y-72114631D01*
X112479249Y-72114630D01*
X112300004Y-72094435D01*
X112299996Y-72094435D01*
X112120750Y-72114630D01*
X112120745Y-72114631D01*
X111950476Y-72174211D01*
X111797737Y-72270184D01*
X111670184Y-72397737D01*
X111574211Y-72550476D01*
X111514631Y-72720745D01*
X111514630Y-72720750D01*
X111494435Y-72899996D01*
X81894298Y-72899996D01*
X81885369Y-72820750D01*
X81885368Y-72820745D01*
X81837957Y-72685252D01*
X81825789Y-72650478D01*
X81797750Y-72605855D01*
X81762955Y-72550478D01*
X81729816Y-72497738D01*
X81602262Y-72370184D01*
X81553088Y-72339286D01*
X81449523Y-72274211D01*
X81279254Y-72214631D01*
X81279249Y-72214630D01*
X81100004Y-72194435D01*
X81099996Y-72194435D01*
X80920750Y-72214630D01*
X80920745Y-72214631D01*
X80750476Y-72274211D01*
X80597737Y-72370184D01*
X80470184Y-72497737D01*
X80374211Y-72650476D01*
X80314631Y-72820745D01*
X80314630Y-72820750D01*
X80294435Y-72999996D01*
X79532082Y-72999996D01*
X79629816Y-72902262D01*
X79725789Y-72749522D01*
X79785368Y-72579255D01*
X79785369Y-72579249D01*
X79805565Y-72400003D01*
X79805565Y-72399996D01*
X79785369Y-72220750D01*
X79785368Y-72220745D01*
X79763894Y-72159377D01*
X79725789Y-72050478D01*
X79629816Y-71897738D01*
X79502262Y-71770184D01*
X79399422Y-71705565D01*
X79349523Y-71674211D01*
X79179254Y-71614631D01*
X79179249Y-71614630D01*
X79000004Y-71594435D01*
X78999996Y-71594435D01*
X78820750Y-71614630D01*
X78820745Y-71614631D01*
X78650476Y-71674211D01*
X78497737Y-71770184D01*
X78370184Y-71897737D01*
X78274211Y-72050476D01*
X78214631Y-72220745D01*
X78214630Y-72220750D01*
X78194435Y-72399996D01*
X70500500Y-72399996D01*
X70500500Y-70899996D01*
X121794435Y-70899996D01*
X121794435Y-70900003D01*
X121814630Y-71079249D01*
X121814631Y-71079254D01*
X121874211Y-71249523D01*
X121970184Y-71402262D01*
X122097738Y-71529816D01*
X122188080Y-71586582D01*
X122232721Y-71614632D01*
X122250478Y-71625789D01*
X122388860Y-71674211D01*
X122420745Y-71685368D01*
X122420750Y-71685369D01*
X122599996Y-71705565D01*
X122600000Y-71705565D01*
X122600004Y-71705565D01*
X122779249Y-71685369D01*
X122779252Y-71685368D01*
X122779255Y-71685368D01*
X122949522Y-71625789D01*
X123102262Y-71529816D01*
X123132082Y-71499996D01*
X126594435Y-71499996D01*
X126594435Y-71500003D01*
X126614630Y-71679249D01*
X126614631Y-71679254D01*
X126674211Y-71849523D01*
X126704507Y-71897738D01*
X126770184Y-72002262D01*
X126897738Y-72129816D01*
X126944784Y-72159377D01*
X127042450Y-72220745D01*
X127050478Y-72225789D01*
X127177352Y-72270184D01*
X127220745Y-72285368D01*
X127220750Y-72285369D01*
X127399996Y-72305565D01*
X127400000Y-72305565D01*
X127400004Y-72305565D01*
X127579249Y-72285369D01*
X127579252Y-72285368D01*
X127579255Y-72285368D01*
X127749522Y-72225789D01*
X127902262Y-72129816D01*
X128029816Y-72002262D01*
X128125789Y-71849522D01*
X128185368Y-71679255D01*
X128185369Y-71679249D01*
X128205565Y-71500003D01*
X128205565Y-71499996D01*
X128185369Y-71320750D01*
X128185368Y-71320745D01*
X128160611Y-71249994D01*
X133619443Y-71249994D01*
X133619443Y-71250005D01*
X133639634Y-71493683D01*
X133639636Y-71493695D01*
X133699663Y-71730734D01*
X133797888Y-71954666D01*
X133931632Y-72159378D01*
X134097242Y-72339277D01*
X134097252Y-72339286D01*
X134290208Y-72489470D01*
X134290212Y-72489473D01*
X134456114Y-72579255D01*
X134505267Y-72605855D01*
X134505270Y-72605856D01*
X134736541Y-72685251D01*
X134736543Y-72685251D01*
X134736545Y-72685252D01*
X134977737Y-72725500D01*
X134977738Y-72725500D01*
X135222262Y-72725500D01*
X135222263Y-72725500D01*
X135463455Y-72685252D01*
X135694733Y-72605855D01*
X135909788Y-72489473D01*
X136102754Y-72339281D01*
X136268368Y-72159377D01*
X136402111Y-71954667D01*
X136500336Y-71730736D01*
X136560364Y-71493692D01*
X136567940Y-71402262D01*
X136580557Y-71250005D01*
X136580557Y-71249994D01*
X136560365Y-71006316D01*
X136560363Y-71006304D01*
X136533442Y-70899996D01*
X136500336Y-70769264D01*
X136402111Y-70545333D01*
X136268368Y-70340623D01*
X136268367Y-70340621D01*
X136102757Y-70160722D01*
X136102747Y-70160713D01*
X135909791Y-70010529D01*
X135909787Y-70010526D01*
X135694734Y-69894145D01*
X135694729Y-69894143D01*
X135463458Y-69814748D01*
X135282561Y-69784562D01*
X135222263Y-69774500D01*
X134977737Y-69774500D01*
X134929498Y-69782549D01*
X134736541Y-69814748D01*
X134505270Y-69894143D01*
X134505265Y-69894145D01*
X134290212Y-70010526D01*
X134290208Y-70010529D01*
X134097252Y-70160713D01*
X134097242Y-70160722D01*
X133931632Y-70340621D01*
X133797888Y-70545333D01*
X133699663Y-70769265D01*
X133639636Y-71006304D01*
X133639634Y-71006316D01*
X133619443Y-71249994D01*
X128160611Y-71249994D01*
X128125788Y-71150476D01*
X128029815Y-70997737D01*
X127902262Y-70870184D01*
X127749523Y-70774211D01*
X127579254Y-70714631D01*
X127579249Y-70714630D01*
X127400004Y-70694435D01*
X127399996Y-70694435D01*
X127220750Y-70714630D01*
X127220745Y-70714631D01*
X127050476Y-70774211D01*
X126897737Y-70870184D01*
X126770184Y-70997737D01*
X126674211Y-71150476D01*
X126614631Y-71320745D01*
X126614630Y-71320750D01*
X126594435Y-71499996D01*
X123132082Y-71499996D01*
X123229816Y-71402262D01*
X123325789Y-71249522D01*
X123385368Y-71079255D01*
X123385369Y-71079249D01*
X123405565Y-70900003D01*
X123405565Y-70899996D01*
X123385369Y-70720750D01*
X123385368Y-70720745D01*
X123325788Y-70550476D01*
X123229815Y-70397737D01*
X123102262Y-70270184D01*
X122949523Y-70174211D01*
X122779254Y-70114631D01*
X122779249Y-70114630D01*
X122600004Y-70094435D01*
X122599996Y-70094435D01*
X122420750Y-70114630D01*
X122420745Y-70114631D01*
X122250476Y-70174211D01*
X122097737Y-70270184D01*
X121970184Y-70397737D01*
X121874211Y-70550476D01*
X121814631Y-70720745D01*
X121814630Y-70720750D01*
X121794435Y-70899996D01*
X70500500Y-70899996D01*
X70500500Y-68299996D01*
X89894435Y-68299996D01*
X89894435Y-68300003D01*
X89914630Y-68479249D01*
X89914631Y-68479254D01*
X89974211Y-68649523D01*
X89999999Y-68690564D01*
X90070184Y-68802262D01*
X90197738Y-68929816D01*
X90350478Y-69025789D01*
X90520745Y-69085368D01*
X90520750Y-69085369D01*
X90699996Y-69105565D01*
X90700000Y-69105565D01*
X90700004Y-69105565D01*
X90879249Y-69085369D01*
X90879252Y-69085368D01*
X90879255Y-69085368D01*
X91049522Y-69025789D01*
X91202262Y-68929816D01*
X91312319Y-68819759D01*
X91373642Y-68786274D01*
X91443334Y-68791258D01*
X91487681Y-68819759D01*
X91597738Y-68929816D01*
X91750478Y-69025789D01*
X91920745Y-69085368D01*
X91920750Y-69085369D01*
X92099996Y-69105565D01*
X92100000Y-69105565D01*
X92100004Y-69105565D01*
X92279249Y-69085369D01*
X92279252Y-69085368D01*
X92279255Y-69085368D01*
X92449522Y-69025789D01*
X92602262Y-68929816D01*
X92662319Y-68869759D01*
X92723642Y-68836274D01*
X92793334Y-68841258D01*
X92837681Y-68869759D01*
X92897738Y-68929816D01*
X93050478Y-69025789D01*
X93220745Y-69085368D01*
X93220750Y-69085369D01*
X93399996Y-69105565D01*
X93400000Y-69105565D01*
X93400004Y-69105565D01*
X93579249Y-69085369D01*
X93579252Y-69085368D01*
X93579255Y-69085368D01*
X93749522Y-69025789D01*
X93884029Y-68941272D01*
X93951264Y-68922272D01*
X94015970Y-68941272D01*
X94080720Y-68981957D01*
X94150475Y-69025788D01*
X94320745Y-69085368D01*
X94320750Y-69085369D01*
X94499996Y-69105565D01*
X94500000Y-69105565D01*
X94500004Y-69105565D01*
X94679249Y-69085369D01*
X94679252Y-69085368D01*
X94679255Y-69085368D01*
X94849522Y-69025789D01*
X95002262Y-68929816D01*
X95129816Y-68802262D01*
X95225789Y-68649522D01*
X95285368Y-68479255D01*
X95305565Y-68300000D01*
X95285368Y-68120745D01*
X95225789Y-67950478D01*
X95129816Y-67797738D01*
X95002262Y-67670184D01*
X94984028Y-67658727D01*
X94849523Y-67574211D01*
X94679254Y-67514631D01*
X94679249Y-67514630D01*
X94500004Y-67494435D01*
X94499996Y-67494435D01*
X94320750Y-67514630D01*
X94320745Y-67514631D01*
X94150476Y-67574211D01*
X94015972Y-67658727D01*
X93948736Y-67677727D01*
X93884028Y-67658727D01*
X93749523Y-67574211D01*
X93579254Y-67514631D01*
X93579249Y-67514630D01*
X93400004Y-67494435D01*
X93399996Y-67494435D01*
X93220750Y-67514630D01*
X93220745Y-67514631D01*
X93050476Y-67574211D01*
X92897737Y-67670184D01*
X92837681Y-67730241D01*
X92776358Y-67763726D01*
X92706666Y-67758742D01*
X92662319Y-67730241D01*
X92602262Y-67670184D01*
X92449523Y-67574211D01*
X92279254Y-67514631D01*
X92279249Y-67514630D01*
X92100004Y-67494435D01*
X92099996Y-67494435D01*
X91920750Y-67514630D01*
X91920745Y-67514631D01*
X91750476Y-67574211D01*
X91597737Y-67670184D01*
X91487681Y-67780241D01*
X91426358Y-67813726D01*
X91356666Y-67808742D01*
X91312319Y-67780241D01*
X91202262Y-67670184D01*
X91049523Y-67574211D01*
X90879254Y-67514631D01*
X90879249Y-67514630D01*
X90700004Y-67494435D01*
X90699996Y-67494435D01*
X90520750Y-67514630D01*
X90520745Y-67514631D01*
X90350476Y-67574211D01*
X90197737Y-67670184D01*
X90070184Y-67797737D01*
X89974211Y-67950476D01*
X89914631Y-68120745D01*
X89914630Y-68120750D01*
X89894435Y-68299996D01*
X70500500Y-68299996D01*
X70500500Y-63199994D01*
X75519945Y-63199994D01*
X75519945Y-63200005D01*
X75540130Y-63443605D01*
X75600138Y-63680573D01*
X75698330Y-63904429D01*
X75794626Y-64051819D01*
X76398958Y-63447487D01*
X76423978Y-63507890D01*
X76495112Y-63614351D01*
X76585649Y-63704888D01*
X76692110Y-63776022D01*
X76752511Y-63801041D01*
X76147758Y-64405794D01*
X76147758Y-64405796D01*
X76190478Y-64439046D01*
X76190484Y-64439050D01*
X76405468Y-64555394D01*
X76405476Y-64555397D01*
X76636664Y-64634765D01*
X76877779Y-64675000D01*
X77122221Y-64675000D01*
X77363335Y-64634765D01*
X77594523Y-64555397D01*
X77594531Y-64555394D01*
X77809514Y-64439051D01*
X77809514Y-64439050D01*
X77852240Y-64405795D01*
X77852240Y-64405794D01*
X77247488Y-63801041D01*
X77307890Y-63776022D01*
X77414351Y-63704888D01*
X77504888Y-63614351D01*
X77576022Y-63507890D01*
X77601041Y-63447488D01*
X78205372Y-64051819D01*
X78301667Y-63904431D01*
X78301672Y-63904423D01*
X78399861Y-63680573D01*
X78459869Y-63443605D01*
X78480055Y-63200005D01*
X78480055Y-63199994D01*
X78459869Y-62956394D01*
X78399861Y-62719426D01*
X78301669Y-62495570D01*
X78205372Y-62348179D01*
X77601041Y-62952510D01*
X77576022Y-62892110D01*
X77504888Y-62785649D01*
X77414351Y-62695112D01*
X77307890Y-62623978D01*
X77247487Y-62598958D01*
X77852240Y-61994204D01*
X77852240Y-61994203D01*
X77809514Y-61960949D01*
X77594531Y-61844605D01*
X77594523Y-61844602D01*
X77363335Y-61765234D01*
X77122221Y-61725000D01*
X76877779Y-61725000D01*
X76636664Y-61765234D01*
X76405476Y-61844602D01*
X76405468Y-61844605D01*
X76190481Y-61960951D01*
X76147758Y-61994202D01*
X76147757Y-61994204D01*
X76752511Y-62598958D01*
X76692110Y-62623978D01*
X76585649Y-62695112D01*
X76495112Y-62785649D01*
X76423978Y-62892110D01*
X76398958Y-62952511D01*
X75794626Y-62348179D01*
X75698328Y-62495575D01*
X75600138Y-62719426D01*
X75540130Y-62956394D01*
X75519945Y-63199994D01*
X70500500Y-63199994D01*
X70500500Y-61399996D01*
X119794435Y-61399996D01*
X119794435Y-61400003D01*
X119814630Y-61579249D01*
X119814631Y-61579254D01*
X119874211Y-61749523D01*
X119970184Y-61902262D01*
X120097738Y-62029816D01*
X120250478Y-62125789D01*
X120420745Y-62185368D01*
X120420750Y-62185369D01*
X120599996Y-62205565D01*
X120600000Y-62205565D01*
X120600004Y-62205565D01*
X120779249Y-62185369D01*
X120779252Y-62185368D01*
X120779255Y-62185368D01*
X120949522Y-62125789D01*
X121102262Y-62029816D01*
X121229816Y-61902262D01*
X121325789Y-61749522D01*
X121385368Y-61579255D01*
X121385369Y-61579249D01*
X121405565Y-61400003D01*
X121405565Y-61399996D01*
X121394298Y-61299996D01*
X129894435Y-61299996D01*
X129894435Y-61300003D01*
X129914630Y-61479249D01*
X129914631Y-61479254D01*
X129974211Y-61649523D01*
X130041309Y-61756308D01*
X130070184Y-61802262D01*
X130197738Y-61929816D01*
X130247286Y-61960949D01*
X130309425Y-61999994D01*
X130350478Y-62025789D01*
X130361984Y-62029815D01*
X130520745Y-62085368D01*
X130520750Y-62085369D01*
X130699996Y-62105565D01*
X130700000Y-62105565D01*
X130700004Y-62105565D01*
X130879249Y-62085369D01*
X130879252Y-62085368D01*
X130879255Y-62085368D01*
X131049522Y-62025789D01*
X131090574Y-61999994D01*
X133619443Y-61999994D01*
X133619443Y-62000005D01*
X133639634Y-62243683D01*
X133639636Y-62243695D01*
X133699663Y-62480734D01*
X133797888Y-62704666D01*
X133931632Y-62909378D01*
X134097242Y-63089277D01*
X134097252Y-63089286D01*
X134290208Y-63239470D01*
X134290212Y-63239473D01*
X134505267Y-63355855D01*
X134505270Y-63355856D01*
X134736541Y-63435251D01*
X134736543Y-63435251D01*
X134736545Y-63435252D01*
X134977737Y-63475500D01*
X134977738Y-63475500D01*
X135222262Y-63475500D01*
X135222263Y-63475500D01*
X135463455Y-63435252D01*
X135694733Y-63355855D01*
X135909788Y-63239473D01*
X136102754Y-63089281D01*
X136268368Y-62909377D01*
X136402111Y-62704667D01*
X136500336Y-62480736D01*
X136560364Y-62243692D01*
X136560365Y-62243683D01*
X136580557Y-62000005D01*
X136580557Y-61999994D01*
X136560365Y-61756316D01*
X136560363Y-61756304D01*
X136515528Y-61579255D01*
X136500336Y-61519264D01*
X136402111Y-61295333D01*
X136353384Y-61220750D01*
X136268367Y-61090621D01*
X136102757Y-60910722D01*
X136102747Y-60910713D01*
X135909791Y-60760529D01*
X135909787Y-60760526D01*
X135694734Y-60644145D01*
X135694729Y-60644143D01*
X135463458Y-60564748D01*
X135282561Y-60534562D01*
X135222263Y-60524500D01*
X134977737Y-60524500D01*
X134929498Y-60532549D01*
X134736541Y-60564748D01*
X134505270Y-60644143D01*
X134505265Y-60644145D01*
X134290212Y-60760526D01*
X134290208Y-60760529D01*
X134097252Y-60910713D01*
X134097242Y-60910722D01*
X133931632Y-61090621D01*
X133797888Y-61295333D01*
X133699663Y-61519265D01*
X133639636Y-61756304D01*
X133639634Y-61756316D01*
X133619443Y-61999994D01*
X131090574Y-61999994D01*
X131202262Y-61929816D01*
X131329816Y-61802262D01*
X131425789Y-61649522D01*
X131485368Y-61479255D01*
X131485369Y-61479249D01*
X131505565Y-61300003D01*
X131505565Y-61299996D01*
X131485369Y-61120750D01*
X131485368Y-61120745D01*
X131474827Y-61090621D01*
X131425789Y-60950478D01*
X131329816Y-60797738D01*
X131202262Y-60670184D01*
X131113852Y-60614632D01*
X131049523Y-60574211D01*
X130879254Y-60514631D01*
X130879249Y-60514630D01*
X130700004Y-60494435D01*
X130699996Y-60494435D01*
X130520750Y-60514630D01*
X130520745Y-60514631D01*
X130350476Y-60574211D01*
X130197737Y-60670184D01*
X130070184Y-60797737D01*
X129974211Y-60950476D01*
X129914631Y-61120745D01*
X129914630Y-61120750D01*
X129894435Y-61299996D01*
X121394298Y-61299996D01*
X121385369Y-61220750D01*
X121385368Y-61220745D01*
X121339836Y-61090623D01*
X121325789Y-61050478D01*
X121229816Y-60897738D01*
X121102262Y-60770184D01*
X121086891Y-60760526D01*
X120949523Y-60674211D01*
X120779254Y-60614631D01*
X120779249Y-60614630D01*
X120600004Y-60594435D01*
X120599996Y-60594435D01*
X120420750Y-60614630D01*
X120420745Y-60614631D01*
X120250476Y-60674211D01*
X120097737Y-60770184D01*
X119970184Y-60897737D01*
X119874211Y-61050476D01*
X119814631Y-61220745D01*
X119814630Y-61220750D01*
X119794435Y-61399996D01*
X70500500Y-61399996D01*
X70500500Y-60199996D01*
X122694435Y-60199996D01*
X122694435Y-60200003D01*
X122714630Y-60379249D01*
X122714631Y-60379254D01*
X122774211Y-60549523D01*
X122850028Y-60670184D01*
X122870184Y-60702262D01*
X122997738Y-60829816D01*
X123088080Y-60886582D01*
X123126484Y-60910713D01*
X123150478Y-60925789D01*
X123320745Y-60985368D01*
X123320750Y-60985369D01*
X123499996Y-61005565D01*
X123500000Y-61005565D01*
X123500004Y-61005565D01*
X123679249Y-60985369D01*
X123679252Y-60985368D01*
X123679255Y-60985368D01*
X123849522Y-60925789D01*
X124002262Y-60829816D01*
X124129816Y-60702262D01*
X124225789Y-60549522D01*
X124285368Y-60379255D01*
X124305565Y-60200000D01*
X124285368Y-60020745D01*
X124225789Y-59850478D01*
X124129816Y-59697738D01*
X124002262Y-59570184D01*
X123931608Y-59525789D01*
X123849523Y-59474211D01*
X123679254Y-59414631D01*
X123679249Y-59414630D01*
X123500004Y-59394435D01*
X123499996Y-59394435D01*
X123320750Y-59414630D01*
X123320745Y-59414631D01*
X123150476Y-59474211D01*
X122997737Y-59570184D01*
X122870184Y-59697737D01*
X122774211Y-59850476D01*
X122714631Y-60020745D01*
X122714630Y-60020750D01*
X122694435Y-60199996D01*
X70500500Y-60199996D01*
X70500500Y-58199994D01*
X75519443Y-58199994D01*
X75519443Y-58200005D01*
X75539634Y-58443683D01*
X75539636Y-58443695D01*
X75599663Y-58680734D01*
X75697888Y-58904666D01*
X75831632Y-59109378D01*
X75997242Y-59289277D01*
X75997246Y-59289281D01*
X76190212Y-59439473D01*
X76405267Y-59555855D01*
X76405270Y-59555856D01*
X76636541Y-59635251D01*
X76636543Y-59635251D01*
X76636545Y-59635252D01*
X76877737Y-59675500D01*
X76877738Y-59675500D01*
X77122262Y-59675500D01*
X77122263Y-59675500D01*
X77363455Y-59635252D01*
X77594733Y-59555855D01*
X77809788Y-59439473D01*
X78002754Y-59289281D01*
X78168368Y-59109377D01*
X78302111Y-58904667D01*
X78400336Y-58680736D01*
X78460364Y-58443692D01*
X78460365Y-58443683D01*
X78480557Y-58200005D01*
X78480557Y-58199994D01*
X78472271Y-58099996D01*
X118094435Y-58099996D01*
X118094435Y-58100003D01*
X118114630Y-58279249D01*
X118114632Y-58279257D01*
X118160047Y-58409046D01*
X118163608Y-58478825D01*
X118160047Y-58490954D01*
X118114632Y-58620742D01*
X118114630Y-58620750D01*
X118094435Y-58799996D01*
X118094435Y-58800003D01*
X118114630Y-58979249D01*
X118114631Y-58979254D01*
X118174211Y-59149523D01*
X118262025Y-59289277D01*
X118270184Y-59302262D01*
X118397738Y-59429816D01*
X118550478Y-59525789D01*
X118636399Y-59555854D01*
X118720745Y-59585368D01*
X118720750Y-59585369D01*
X118899996Y-59605565D01*
X118900000Y-59605565D01*
X118900004Y-59605565D01*
X119079249Y-59585369D01*
X119079252Y-59585368D01*
X119079255Y-59585368D01*
X119249522Y-59525789D01*
X119402262Y-59429816D01*
X119529816Y-59302262D01*
X119625789Y-59149522D01*
X119685368Y-58979255D01*
X119705565Y-58800000D01*
X119692649Y-58685369D01*
X119685369Y-58620750D01*
X119685366Y-58620737D01*
X119639953Y-58490955D01*
X119636391Y-58421176D01*
X119639953Y-58409045D01*
X119685366Y-58279262D01*
X119685369Y-58279249D01*
X119705565Y-58100003D01*
X119705565Y-58099996D01*
X119685369Y-57920750D01*
X119685368Y-57920745D01*
X119678108Y-57899996D01*
X126231935Y-57899996D01*
X126231935Y-57900003D01*
X126252130Y-58079249D01*
X126252131Y-58079254D01*
X126311711Y-58249523D01*
X126378525Y-58355856D01*
X126407684Y-58402262D01*
X126535238Y-58529816D01*
X126625580Y-58586582D01*
X126679950Y-58620745D01*
X126687978Y-58625789D01*
X126845002Y-58680734D01*
X126858245Y-58685368D01*
X126858250Y-58685369D01*
X127037496Y-58705565D01*
X127037500Y-58705565D01*
X127037504Y-58705565D01*
X127216749Y-58685369D01*
X127216752Y-58685368D01*
X127216755Y-58685368D01*
X127387022Y-58625789D01*
X127539762Y-58529816D01*
X127667316Y-58402262D01*
X127763289Y-58249522D01*
X127822868Y-58079255D01*
X127840728Y-57920745D01*
X127843065Y-57900003D01*
X127843065Y-57899996D01*
X127822869Y-57720750D01*
X127822868Y-57720745D01*
X127779826Y-57597738D01*
X127763289Y-57550478D01*
X127667316Y-57397738D01*
X127539762Y-57270184D01*
X127497605Y-57243695D01*
X127387023Y-57174211D01*
X127216754Y-57114631D01*
X127216749Y-57114630D01*
X127037504Y-57094435D01*
X127037496Y-57094435D01*
X126858250Y-57114630D01*
X126858245Y-57114631D01*
X126687976Y-57174211D01*
X126535237Y-57270184D01*
X126407684Y-57397737D01*
X126311711Y-57550476D01*
X126252131Y-57720745D01*
X126252130Y-57720750D01*
X126231935Y-57899996D01*
X119678108Y-57899996D01*
X119625789Y-57750478D01*
X119607106Y-57720745D01*
X119529815Y-57597737D01*
X119402262Y-57470184D01*
X119249523Y-57374211D01*
X119079254Y-57314631D01*
X119079249Y-57314630D01*
X118900004Y-57294435D01*
X118899996Y-57294435D01*
X118720750Y-57314630D01*
X118720745Y-57314631D01*
X118550476Y-57374211D01*
X118397737Y-57470184D01*
X118270184Y-57597737D01*
X118174211Y-57750476D01*
X118114631Y-57920745D01*
X118114630Y-57920750D01*
X118094435Y-58099996D01*
X78472271Y-58099996D01*
X78460365Y-57956316D01*
X78460363Y-57956304D01*
X78400336Y-57719265D01*
X78393932Y-57704666D01*
X78302111Y-57495333D01*
X78238349Y-57397737D01*
X78168367Y-57290621D01*
X78002757Y-57110722D01*
X78002747Y-57110713D01*
X77860496Y-56999994D01*
X133619443Y-56999994D01*
X133619443Y-57000005D01*
X133639634Y-57243683D01*
X133639636Y-57243695D01*
X133699663Y-57480734D01*
X133797888Y-57704666D01*
X133931632Y-57909378D01*
X134097242Y-58089277D01*
X134097252Y-58089286D01*
X134290208Y-58239470D01*
X134290212Y-58239473D01*
X134505267Y-58355855D01*
X134505270Y-58355856D01*
X134736541Y-58435251D01*
X134736543Y-58435251D01*
X134736545Y-58435252D01*
X134977737Y-58475500D01*
X134977738Y-58475500D01*
X135222262Y-58475500D01*
X135222263Y-58475500D01*
X135463455Y-58435252D01*
X135694733Y-58355855D01*
X135909788Y-58239473D01*
X136102754Y-58089281D01*
X136268368Y-57909377D01*
X136402111Y-57704667D01*
X136500336Y-57480736D01*
X136560364Y-57243692D01*
X136560365Y-57243683D01*
X136580557Y-57000005D01*
X136580557Y-56999994D01*
X136560365Y-56756316D01*
X136560363Y-56756304D01*
X136500336Y-56519265D01*
X136433439Y-56366755D01*
X136402111Y-56295333D01*
X136268368Y-56090623D01*
X136268367Y-56090621D01*
X136102757Y-55910722D01*
X136102747Y-55910713D01*
X135909791Y-55760529D01*
X135909787Y-55760526D01*
X135694734Y-55644145D01*
X135694729Y-55644143D01*
X135463458Y-55564748D01*
X135282561Y-55534562D01*
X135222263Y-55524500D01*
X134977737Y-55524500D01*
X134929498Y-55532549D01*
X134736541Y-55564748D01*
X134505270Y-55644143D01*
X134505265Y-55644145D01*
X134290212Y-55760526D01*
X134290208Y-55760529D01*
X134097252Y-55910713D01*
X134097242Y-55910722D01*
X133931632Y-56090621D01*
X133797888Y-56295333D01*
X133699663Y-56519265D01*
X133639636Y-56756304D01*
X133639634Y-56756316D01*
X133619443Y-56999994D01*
X77860496Y-56999994D01*
X77809791Y-56960529D01*
X77809787Y-56960526D01*
X77594734Y-56844145D01*
X77594729Y-56844143D01*
X77363458Y-56764748D01*
X77182561Y-56734562D01*
X77122263Y-56724500D01*
X76877737Y-56724500D01*
X76829498Y-56732549D01*
X76636541Y-56764748D01*
X76405270Y-56844143D01*
X76405265Y-56844145D01*
X76190212Y-56960526D01*
X76190208Y-56960529D01*
X75997252Y-57110713D01*
X75997242Y-57110722D01*
X75831632Y-57290621D01*
X75697888Y-57495333D01*
X75599663Y-57719265D01*
X75539636Y-57956304D01*
X75539634Y-57956316D01*
X75519443Y-58199994D01*
X70500500Y-58199994D01*
X70500500Y-56187496D01*
X100294435Y-56187496D01*
X100294435Y-56187503D01*
X100314630Y-56366749D01*
X100314631Y-56366754D01*
X100374211Y-56537023D01*
X100470184Y-56689762D01*
X100597738Y-56817316D01*
X100750478Y-56913289D01*
X100885482Y-56960529D01*
X100920745Y-56972868D01*
X100920750Y-56972869D01*
X101099996Y-56993065D01*
X101100000Y-56993065D01*
X101100004Y-56993065D01*
X101279249Y-56972869D01*
X101279252Y-56972868D01*
X101279255Y-56972868D01*
X101449522Y-56913289D01*
X101602262Y-56817316D01*
X101729816Y-56689762D01*
X101825789Y-56537022D01*
X101885368Y-56366755D01*
X101885369Y-56366749D01*
X101905565Y-56187503D01*
X101905565Y-56187496D01*
X101885369Y-56008250D01*
X101885368Y-56008245D01*
X101825788Y-55837976D01*
X101786582Y-55775580D01*
X101729816Y-55685238D01*
X101602262Y-55557684D01*
X101549450Y-55524500D01*
X101449523Y-55461711D01*
X101279254Y-55402131D01*
X101279249Y-55402130D01*
X101100004Y-55381935D01*
X101099996Y-55381935D01*
X100920750Y-55402130D01*
X100920745Y-55402131D01*
X100750476Y-55461711D01*
X100597737Y-55557684D01*
X100470184Y-55685237D01*
X100374211Y-55837976D01*
X100314631Y-56008245D01*
X100314630Y-56008250D01*
X100294435Y-56187496D01*
X70500500Y-56187496D01*
X70500500Y-53399998D01*
X71480395Y-53399998D01*
X71480395Y-53400001D01*
X71499934Y-53673188D01*
X71499935Y-53673195D01*
X71557337Y-53937068D01*
X71558152Y-53940815D01*
X71653866Y-54197433D01*
X71653868Y-54197438D01*
X71785122Y-54437811D01*
X71785127Y-54437819D01*
X71949252Y-54657066D01*
X71949268Y-54657084D01*
X72142915Y-54850731D01*
X72142933Y-54850747D01*
X72362180Y-55014872D01*
X72362188Y-55014877D01*
X72602561Y-55146131D01*
X72602560Y-55146131D01*
X72602564Y-55146132D01*
X72602567Y-55146134D01*
X72859185Y-55241848D01*
X73126812Y-55300066D01*
X73380460Y-55318207D01*
X73399999Y-55319605D01*
X73400000Y-55319605D01*
X73400001Y-55319605D01*
X73418235Y-55318300D01*
X73673188Y-55300066D01*
X73940815Y-55241848D01*
X74197433Y-55146134D01*
X74437817Y-55014874D01*
X74657074Y-54850741D01*
X74850741Y-54657074D01*
X75014874Y-54437817D01*
X75146134Y-54197433D01*
X75241848Y-53940815D01*
X75300066Y-53673188D01*
X75319605Y-53400000D01*
X75312453Y-53299998D01*
X138780395Y-53299998D01*
X138780395Y-53300001D01*
X138799934Y-53573188D01*
X138799935Y-53573195D01*
X138821687Y-53673188D01*
X138858152Y-53840815D01*
X138953866Y-54097433D01*
X138953868Y-54097438D01*
X139085122Y-54337811D01*
X139085127Y-54337819D01*
X139249252Y-54557066D01*
X139249268Y-54557084D01*
X139442915Y-54750731D01*
X139442933Y-54750747D01*
X139662180Y-54914872D01*
X139662188Y-54914877D01*
X139902561Y-55046131D01*
X139902560Y-55046131D01*
X139902564Y-55046132D01*
X139902567Y-55046134D01*
X140159185Y-55141848D01*
X140426812Y-55200066D01*
X140680460Y-55218207D01*
X140699999Y-55219605D01*
X140700000Y-55219605D01*
X140700001Y-55219605D01*
X140718235Y-55218300D01*
X140973188Y-55200066D01*
X141240815Y-55141848D01*
X141497433Y-55046134D01*
X141737817Y-54914874D01*
X141957074Y-54750741D01*
X142150741Y-54557074D01*
X142314874Y-54337817D01*
X142446134Y-54097433D01*
X142541848Y-53840815D01*
X142600066Y-53573188D01*
X142619605Y-53300000D01*
X142600066Y-53026812D01*
X142541848Y-52759185D01*
X142446134Y-52502567D01*
X142369478Y-52362183D01*
X142314877Y-52262188D01*
X142314872Y-52262180D01*
X142150747Y-52042933D01*
X142150731Y-52042915D01*
X141957084Y-51849268D01*
X141957066Y-51849252D01*
X141737819Y-51685127D01*
X141737811Y-51685122D01*
X141497438Y-51553868D01*
X141497439Y-51553868D01*
X141447468Y-51535230D01*
X141240815Y-51458152D01*
X141240808Y-51458150D01*
X141240807Y-51458150D01*
X140973195Y-51399935D01*
X140973188Y-51399934D01*
X140700001Y-51380395D01*
X140699999Y-51380395D01*
X140426811Y-51399934D01*
X140426804Y-51399935D01*
X140159192Y-51458150D01*
X140159188Y-51458151D01*
X140159185Y-51458152D01*
X139974489Y-51527040D01*
X139902561Y-51553868D01*
X139662188Y-51685122D01*
X139662180Y-51685127D01*
X139442933Y-51849252D01*
X139442915Y-51849268D01*
X139249268Y-52042915D01*
X139249252Y-52042933D01*
X139085127Y-52262180D01*
X139085122Y-52262188D01*
X138953868Y-52502561D01*
X138953866Y-52502567D01*
X138858152Y-52759185D01*
X138858151Y-52759188D01*
X138858150Y-52759192D01*
X138799935Y-53026804D01*
X138799934Y-53026811D01*
X138780395Y-53299998D01*
X75312453Y-53299998D01*
X75300066Y-53126812D01*
X75241848Y-52859185D01*
X75146134Y-52602567D01*
X75091526Y-52502561D01*
X75014877Y-52362188D01*
X75014872Y-52362180D01*
X74850747Y-52142933D01*
X74850731Y-52142915D01*
X74657084Y-51949268D01*
X74657066Y-51949252D01*
X74437819Y-51785127D01*
X74437811Y-51785122D01*
X74197438Y-51653868D01*
X74197439Y-51653868D01*
X74147468Y-51635230D01*
X73940815Y-51558152D01*
X73940808Y-51558150D01*
X73940807Y-51558150D01*
X73673195Y-51499935D01*
X73673188Y-51499934D01*
X73400001Y-51480395D01*
X73399999Y-51480395D01*
X73126811Y-51499934D01*
X73126804Y-51499935D01*
X72859192Y-51558150D01*
X72859188Y-51558151D01*
X72859185Y-51558152D01*
X72674489Y-51627040D01*
X72602561Y-51653868D01*
X72362188Y-51785122D01*
X72362180Y-51785127D01*
X72142933Y-51949252D01*
X72142915Y-51949268D01*
X71949268Y-52142915D01*
X71949252Y-52142933D01*
X71785127Y-52362180D01*
X71785122Y-52362188D01*
X71653868Y-52602561D01*
X71653866Y-52602567D01*
X71558152Y-52859185D01*
X71558151Y-52859188D01*
X71558150Y-52859192D01*
X71499935Y-53126804D01*
X71499934Y-53126811D01*
X71480395Y-53399998D01*
X70500500Y-53399998D01*
X70500500Y-50624500D01*
X70520185Y-50557461D01*
X70572989Y-50511706D01*
X70624500Y-50500500D01*
X143375500Y-50500500D01*
X143442539Y-50520185D01*
G37*
%TD.AperFunction*%
%TD*%
M02*
