%TF.GenerationSoftware,KiCad,Pcbnew,8.0.6*%
%TF.CreationDate,2024-11-16T21:14:38-08:00*%
%TF.ProjectId,CAN_adc,43414e5f-6164-4632-9e6b-696361645f70,rev?*%
%TF.SameCoordinates,Original*%
%TF.FileFunction,Legend,Bot*%
%TF.FilePolarity,Positive*%
%FSLAX46Y46*%
G04 Gerber Fmt 4.6, Leading zero omitted, Abs format (unit mm)*
G04 Created by KiCad (PCBNEW 8.0.6) date 2024-11-16 21:14:38*
%MOMM*%
%LPD*%
G01*
G04 APERTURE LIST*
%ADD10C,0.150000*%
%ADD11C,0.200000*%
%ADD12C,0.127000*%
%ADD13C,0.120000*%
G04 APERTURE END LIST*
D10*
X77319523Y-88570295D02*
X77319523Y-89217914D01*
X77319523Y-89217914D02*
X77281428Y-89294104D01*
X77281428Y-89294104D02*
X77243333Y-89332200D01*
X77243333Y-89332200D02*
X77167142Y-89370295D01*
X77167142Y-89370295D02*
X77014761Y-89370295D01*
X77014761Y-89370295D02*
X76938571Y-89332200D01*
X76938571Y-89332200D02*
X76900476Y-89294104D01*
X76900476Y-89294104D02*
X76862380Y-89217914D01*
X76862380Y-89217914D02*
X76862380Y-88570295D01*
X76367143Y-88913152D02*
X76443333Y-88875057D01*
X76443333Y-88875057D02*
X76481428Y-88836961D01*
X76481428Y-88836961D02*
X76519524Y-88760771D01*
X76519524Y-88760771D02*
X76519524Y-88722676D01*
X76519524Y-88722676D02*
X76481428Y-88646485D01*
X76481428Y-88646485D02*
X76443333Y-88608390D01*
X76443333Y-88608390D02*
X76367143Y-88570295D01*
X76367143Y-88570295D02*
X76214762Y-88570295D01*
X76214762Y-88570295D02*
X76138571Y-88608390D01*
X76138571Y-88608390D02*
X76100476Y-88646485D01*
X76100476Y-88646485D02*
X76062381Y-88722676D01*
X76062381Y-88722676D02*
X76062381Y-88760771D01*
X76062381Y-88760771D02*
X76100476Y-88836961D01*
X76100476Y-88836961D02*
X76138571Y-88875057D01*
X76138571Y-88875057D02*
X76214762Y-88913152D01*
X76214762Y-88913152D02*
X76367143Y-88913152D01*
X76367143Y-88913152D02*
X76443333Y-88951247D01*
X76443333Y-88951247D02*
X76481428Y-88989342D01*
X76481428Y-88989342D02*
X76519524Y-89065533D01*
X76519524Y-89065533D02*
X76519524Y-89217914D01*
X76519524Y-89217914D02*
X76481428Y-89294104D01*
X76481428Y-89294104D02*
X76443333Y-89332200D01*
X76443333Y-89332200D02*
X76367143Y-89370295D01*
X76367143Y-89370295D02*
X76214762Y-89370295D01*
X76214762Y-89370295D02*
X76138571Y-89332200D01*
X76138571Y-89332200D02*
X76100476Y-89294104D01*
X76100476Y-89294104D02*
X76062381Y-89217914D01*
X76062381Y-89217914D02*
X76062381Y-89065533D01*
X76062381Y-89065533D02*
X76100476Y-88989342D01*
X76100476Y-88989342D02*
X76138571Y-88951247D01*
X76138571Y-88951247D02*
X76214762Y-88913152D01*
X73142857Y-88959580D02*
X73190476Y-89007200D01*
X73190476Y-89007200D02*
X73333333Y-89054819D01*
X73333333Y-89054819D02*
X73428571Y-89054819D01*
X73428571Y-89054819D02*
X73571428Y-89007200D01*
X73571428Y-89007200D02*
X73666666Y-88911961D01*
X73666666Y-88911961D02*
X73714285Y-88816723D01*
X73714285Y-88816723D02*
X73761904Y-88626247D01*
X73761904Y-88626247D02*
X73761904Y-88483390D01*
X73761904Y-88483390D02*
X73714285Y-88292914D01*
X73714285Y-88292914D02*
X73666666Y-88197676D01*
X73666666Y-88197676D02*
X73571428Y-88102438D01*
X73571428Y-88102438D02*
X73428571Y-88054819D01*
X73428571Y-88054819D02*
X73333333Y-88054819D01*
X73333333Y-88054819D02*
X73190476Y-88102438D01*
X73190476Y-88102438D02*
X73142857Y-88150057D01*
X72190476Y-89054819D02*
X72761904Y-89054819D01*
X72476190Y-89054819D02*
X72476190Y-88054819D01*
X72476190Y-88054819D02*
X72571428Y-88197676D01*
X72571428Y-88197676D02*
X72666666Y-88292914D01*
X72666666Y-88292914D02*
X72761904Y-88340533D01*
X71238095Y-89054819D02*
X71809523Y-89054819D01*
X71523809Y-89054819D02*
X71523809Y-88054819D01*
X71523809Y-88054819D02*
X71619047Y-88197676D01*
X71619047Y-88197676D02*
X71714285Y-88292914D01*
X71714285Y-88292914D02*
X71809523Y-88340533D01*
D11*
%TO.C,U8*%
X73770000Y-87750000D02*
G75*
G02*
X73570000Y-87750000I-100000J0D01*
G01*
X73570000Y-87750000D02*
G75*
G02*
X73770000Y-87750000I100000J0D01*
G01*
D12*
X78670000Y-88000000D02*
X75670000Y-88000000D01*
X78670000Y-85000000D02*
X75670000Y-85000000D01*
D13*
%TO.C,C11*%
X73010000Y-86053733D02*
X73010000Y-86346267D01*
X71990000Y-86053733D02*
X71990000Y-86346267D01*
%TD*%
M02*
