%TF.GenerationSoftware,KiCad,Pcbnew,8.0.6*%
%TF.CreationDate,2024-11-16T21:14:38-08:00*%
%TF.ProjectId,CAN_adc,43414e5f-6164-4632-9e6b-696361645f70,rev?*%
%TF.SameCoordinates,Original*%
%TF.FileFunction,Copper,L4,Bot*%
%TF.FilePolarity,Positive*%
%FSLAX46Y46*%
G04 Gerber Fmt 4.6, Leading zero omitted, Abs format (unit mm)*
G04 Created by KiCad (PCBNEW 8.0.6) date 2024-11-16 21:14:38*
%MOMM*%
%LPD*%
G01*
G04 APERTURE LIST*
G04 Aperture macros list*
%AMRoundRect*
0 Rectangle with rounded corners*
0 $1 Rounding radius*
0 $2 $3 $4 $5 $6 $7 $8 $9 X,Y pos of 4 corners*
0 Add a 4 corners polygon primitive as box body*
4,1,4,$2,$3,$4,$5,$6,$7,$8,$9,$2,$3,0*
0 Add four circle primitives for the rounded corners*
1,1,$1+$1,$2,$3*
1,1,$1+$1,$4,$5*
1,1,$1+$1,$6,$7*
1,1,$1+$1,$8,$9*
0 Add four rect primitives between the rounded corners*
20,1,$1+$1,$2,$3,$4,$5,0*
20,1,$1+$1,$4,$5,$6,$7,0*
20,1,$1+$1,$6,$7,$8,$9,0*
20,1,$1+$1,$8,$9,$2,$3,0*%
G04 Aperture macros list end*
%TA.AperFunction,SMDPad,CuDef*%
%ADD10RoundRect,0.035000X-0.700000X-0.105000X0.700000X-0.105000X0.700000X0.105000X-0.700000X0.105000X0*%
%TD*%
%TA.AperFunction,ComponentPad*%
%ADD11C,1.950000*%
%TD*%
%TA.AperFunction,SMDPad,CuDef*%
%ADD12RoundRect,0.237500X0.237500X-0.300000X0.237500X0.300000X-0.237500X0.300000X-0.237500X-0.300000X0*%
%TD*%
%TA.AperFunction,ViaPad*%
%ADD13C,0.600000*%
%TD*%
%TA.AperFunction,Conductor*%
%ADD14C,0.200000*%
%TD*%
%TA.AperFunction,Conductor*%
%ADD15C,0.254000*%
%TD*%
%TA.AperFunction,Conductor*%
%ADD16C,0.508000*%
%TD*%
G04 APERTURE END LIST*
D10*
%TO.P,U8,1,~{CS}*%
%TO.N,/CSn*%
X75020000Y-87500000D03*
%TO.P,U8,2,VA*%
%TO.N,/3V3*%
X75020000Y-87000000D03*
%TO.P,U8,3,GND*%
%TO.N,GND*%
X75020000Y-86500000D03*
%TO.P,U8,4,IN4*%
%TO.N,/IN4*%
X75020000Y-86000000D03*
%TO.P,U8,5,IN3*%
%TO.N,/IN3*%
X75020000Y-85500000D03*
%TO.P,U8,6,IN2*%
%TO.N,/IN2*%
X79320000Y-85500000D03*
%TO.P,U8,7,IN1*%
%TO.N,/IN1*%
X79320000Y-86000000D03*
%TO.P,U8,8,DIN*%
%TO.N,/DIN*%
X79320000Y-86500000D03*
%TO.P,U8,9,DOUT*%
%TO.N,/DOUT*%
X79320000Y-87000000D03*
%TO.P,U8,10,SCLK*%
%TO.N,/SCLK*%
X79320000Y-87500000D03*
%TD*%
D11*
%TO.P,J4,1*%
%TO.N,GND*%
X135100000Y-90500000D03*
%TO.P,J4,2*%
%TO.N,/Analog_input1/IN+*%
X135100000Y-85500000D03*
%TD*%
%TO.P,J3,2*%
%TO.N,/Analog_input/IN+*%
X135100000Y-71250000D03*
%TO.P,J3,1*%
%TO.N,GND*%
X135100000Y-76250000D03*
%TD*%
%TO.P,J2,2*%
%TO.N,/Thermocouple_conditioning/IN-*%
X135100000Y-57000000D03*
%TO.P,J2,1*%
%TO.N,/Thermocouple_conditioning/IN+*%
X135100000Y-62000000D03*
%TD*%
%TO.P,J1,2*%
%TO.N,GND*%
X77000000Y-63200000D03*
%TO.P,J1,1*%
%TO.N,/Input_Power/V_IN*%
X77000000Y-58200000D03*
%TD*%
D12*
%TO.P,C11,1*%
%TO.N,/3V3*%
X72500000Y-87062500D03*
%TO.P,C11,2*%
%TO.N,GND*%
X72500000Y-85337500D03*
%TD*%
D13*
%TO.N,GND*%
X87600000Y-91500000D03*
X86900000Y-91500000D03*
X99300000Y-80900000D03*
X98400000Y-80900000D03*
%TO.N,/IN4*%
X79000000Y-72400000D03*
%TO.N,/CSn*%
X71620134Y-77570000D03*
%TO.N,/IN3*%
X77200000Y-74400000D03*
%TO.N,/DOUT*%
X74100000Y-80000000D03*
%TO.N,/SCLK*%
X73220134Y-82179866D03*
%TO.N,/IN2*%
X77200000Y-80200000D03*
%TO.N,/DIN*%
X76500000Y-75000000D03*
%TO.N,/IN1*%
X81200000Y-77600000D03*
X120600000Y-61400000D03*
%TO.N,/IN4*%
X81100000Y-73000000D03*
%TO.N,/IN3*%
X81000000Y-75000000D03*
%TO.N,GND*%
X73331250Y-86168750D03*
%TO.N,/3V3*%
X76200000Y-87000000D03*
X81400000Y-87000000D03*
X96100000Y-77900000D03*
%TO.N,/5V*%
X117400000Y-76200000D03*
%TO.N,/IN4*%
X112800000Y-80900000D03*
%TO.N,/IN3*%
X112300000Y-72900000D03*
%TO.N,GND*%
X114100000Y-71700000D03*
X113100000Y-76600000D03*
%TO.N,Net-(R30-Pad2)*%
X127400000Y-71500000D03*
X126565000Y-76135000D03*
%TO.N,GND*%
X130900000Y-71500000D03*
%TO.N,Net-(R26-Pad1)*%
X116900000Y-74865000D03*
X122600000Y-70900000D03*
%TO.N,Net-(R22-Pad2)*%
X117750000Y-90450000D03*
X120300000Y-86500000D03*
%TO.N,GND*%
X113400000Y-84900000D03*
X113600000Y-91700000D03*
%TO.N,/5V*%
X117700000Y-91700000D03*
%TO.N,Net-(R20-Pad2)*%
X126725000Y-87100000D03*
X125900000Y-91700000D03*
%TO.N,/Thermocouple_conditioning/IN-*%
X130700000Y-61300000D03*
%TO.N,GND*%
X130400000Y-87100000D03*
%TO.N,/5V*%
X118900000Y-58100000D03*
X118900000Y-58800000D03*
%TO.N,GND*%
X118700000Y-62300000D03*
%TO.N,Net-(C8-Pad2)*%
X127037500Y-57900000D03*
X123500000Y-60200000D03*
%TO.N,GND*%
X126000000Y-65500000D03*
X126000000Y-54100000D03*
X121300000Y-54600000D03*
X110200000Y-56200000D03*
X108000000Y-91000000D03*
%TO.N,/Input_Power/N5V_FB*%
X92800000Y-83300000D03*
X106600000Y-84600000D03*
%TO.N,GND*%
X102300000Y-86400000D03*
X102300000Y-85700000D03*
X93900000Y-85900000D03*
%TO.N,/5V*%
X83700000Y-79300000D03*
X84400000Y-79300000D03*
%TO.N,GND*%
X105800000Y-63300000D03*
X92500000Y-75000000D03*
X92500000Y-75800000D03*
%TO.N,/5V*%
X83700000Y-74200000D03*
X84400000Y-74200000D03*
%TO.N,GND*%
X96800000Y-74400000D03*
%TO.N,/5V*%
X101100000Y-56187500D03*
X90700000Y-68300000D03*
X92100000Y-68300000D03*
X94500000Y-68300000D03*
X93400000Y-68300000D03*
%TO.N,GND*%
X101100000Y-63325000D03*
X86200000Y-63000000D03*
X86200000Y-64000000D03*
X94800000Y-58500000D03*
X92450000Y-58500000D03*
X82000000Y-64000000D03*
X83000000Y-64000000D03*
X84000000Y-64000000D03*
X84000000Y-63000000D03*
X83000000Y-63000000D03*
X82000000Y-63000000D03*
%TD*%
D14*
%TO.N,Net-(C8-Pad2)*%
X125800000Y-57900000D02*
X123500000Y-60200000D01*
X127037500Y-57900000D02*
X125800000Y-57900000D01*
D15*
%TO.N,/3V3*%
X75020000Y-87000000D02*
X76200000Y-87000000D01*
D14*
%TO.N,GND*%
X73331250Y-86168750D02*
X72500000Y-85337500D01*
X73662500Y-86500000D02*
X75020000Y-86500000D01*
X73331250Y-86168750D02*
X73662500Y-86500000D01*
%TO.N,/IN4*%
X112800000Y-80900000D02*
X109250000Y-77350000D01*
%TO.N,/CSn*%
X74620000Y-87900000D02*
X75020000Y-87500000D01*
X72033278Y-87900000D02*
X74620000Y-87900000D01*
X71600000Y-87466722D02*
X72033278Y-87900000D01*
X71620134Y-77570000D02*
X71600000Y-77590134D01*
X71600000Y-77590134D02*
X71600000Y-87466722D01*
%TO.N,/IN4*%
X74054449Y-72400000D02*
X79000000Y-72400000D01*
X72220134Y-83753412D02*
X72220134Y-74234315D01*
X73275000Y-85034732D02*
X73275000Y-84808278D01*
X72220134Y-74234315D02*
X74054449Y-72400000D01*
X74240268Y-86000000D02*
X73275000Y-85034732D01*
X73275000Y-84808278D02*
X72220134Y-83753412D01*
X75020000Y-86000000D02*
X74240268Y-86000000D01*
%TO.N,/IN3*%
X72620134Y-83100134D02*
X72620134Y-74400000D01*
X72620134Y-74400000D02*
X77200000Y-74400000D01*
X75020000Y-85500000D02*
X72620134Y-83100134D01*
%TO.N,/DOUT*%
X74100000Y-82625418D02*
X74100000Y-80000000D01*
X78474582Y-87000000D02*
X74100000Y-82625418D01*
X79320000Y-87000000D02*
X78474582Y-87000000D01*
%TO.N,/SCLK*%
X78300000Y-87500000D02*
X79320000Y-87500000D01*
X73220134Y-82179866D02*
X73220134Y-82420134D01*
X73220134Y-82420134D02*
X78300000Y-87500000D01*
%TO.N,/IN1*%
X80000000Y-73251471D02*
X91851471Y-61400000D01*
X91851471Y-61400000D02*
X120600000Y-61400000D01*
X81200000Y-77600000D02*
X80000000Y-76400000D01*
X80099732Y-86000000D02*
X79320000Y-86000000D01*
X80000000Y-76400000D02*
X80000000Y-73251471D01*
X80355000Y-85744732D02*
X80099732Y-86000000D01*
X80355000Y-80755000D02*
X80355000Y-85744732D01*
X81200000Y-77600000D02*
X81200000Y-79910000D01*
X81200000Y-79910000D02*
X80355000Y-80755000D01*
%TO.N,/IN2*%
X77200000Y-83380000D02*
X77200000Y-80200000D01*
X79320000Y-85500000D02*
X77200000Y-83380000D01*
%TO.N,/DIN*%
X76500000Y-84459732D02*
X76500000Y-75000000D01*
X78540268Y-86500000D02*
X76500000Y-84459732D01*
X79320000Y-86500000D02*
X78540268Y-86500000D01*
%TO.N,/IN4*%
X109200000Y-77300000D02*
X112800000Y-80900000D01*
X80400000Y-75248529D02*
X82451471Y-77300000D01*
X82451471Y-77300000D02*
X109200000Y-77300000D01*
X80400000Y-73700000D02*
X80400000Y-75248529D01*
X81100000Y-73000000D02*
X80400000Y-73700000D01*
%TO.N,/IN3*%
X84100000Y-71900000D02*
X81000000Y-75000000D01*
X107800000Y-71900000D02*
X84100000Y-71900000D01*
D16*
%TO.N,/3V3*%
X82050000Y-86350000D02*
X81400000Y-87000000D01*
X90500000Y-77900000D02*
X82050000Y-86350000D01*
D15*
X72562500Y-87000000D02*
X75020000Y-87000000D01*
D14*
X72500000Y-87062500D02*
X72562500Y-87000000D01*
D16*
X96100000Y-77900000D02*
X90500000Y-77900000D01*
D14*
%TO.N,/IN3*%
X108800000Y-72900000D02*
X107800000Y-71900000D01*
X112300000Y-72900000D02*
X108800000Y-72900000D01*
%TO.N,Net-(R30-Pad2)*%
X126565000Y-72935000D02*
X126565000Y-76135000D01*
X127400000Y-71500000D02*
X127400000Y-72100000D01*
X127400000Y-72100000D02*
X126565000Y-72935000D01*
%TO.N,Net-(R26-Pad1)*%
X118635000Y-74865000D02*
X122600000Y-70900000D01*
X116900000Y-74865000D02*
X118635000Y-74865000D01*
%TO.N,Net-(R22-Pad2)*%
X120300000Y-87900000D02*
X120300000Y-86500000D01*
X117750000Y-90450000D02*
X120300000Y-87900000D01*
%TO.N,GND*%
X135100000Y-90500000D02*
X135100000Y-89900000D01*
%TO.N,Net-(R20-Pad2)*%
X125900000Y-87925000D02*
X126725000Y-87100000D01*
X125900000Y-91700000D02*
X125900000Y-87925000D01*
%TO.N,/Thermocouple_conditioning/IN-*%
X134900000Y-57100000D02*
X130700000Y-61300000D01*
X135000000Y-57100000D02*
X134900000Y-57100000D01*
X135100000Y-57000000D02*
X135000000Y-57100000D01*
X135100000Y-57000000D02*
X135150000Y-56950000D01*
%TO.N,/Input_Power/N5V_FB*%
X105300000Y-83300000D02*
X106600000Y-84600000D01*
X92800000Y-83300000D02*
X105300000Y-83300000D01*
%TD*%
M02*
